<svg width="185" height="40" viewBox="0 0 185 40" fill="none" xmlns="http://www.w3.org/2000/svg">
<g clip-path="url(#clip0_5812_47174)">
<path fill-rule="evenodd" clip-rule="evenodd" d="M89.9584 22.5486L94.1185 20.8203C93.8874 20.2375 93.2041 19.8355 92.3902 19.8355C91.3502 19.8305 89.9082 20.7499 89.9585 22.5485L89.9584 22.5486ZM94.8421 24.2217L96.4297 25.2768C95.9172 26.0354 94.6863 27.3417 92.551 27.3417C89.9082 27.3417 87.999 25.2967 87.999 22.6893C87.999 19.921 89.9232 18.0369 92.3249 18.0369C94.7416 18.0369 95.9223 19.9561 96.3092 20.9961L96.5202 21.5237L90.3002 24.096C90.7775 25.0305 91.5161 25.5078 92.5561 25.5078C93.591 25.5079 94.3145 24.9954 94.8421 24.2217V24.2217ZM84.7585 27.0604H86.8032V13.3844L84.7585 13.3843V27.0604ZM81.4225 22.7044C81.4225 21.0665 80.3272 19.8656 78.9356 19.8656C77.5288 19.8656 76.3431 21.0664 76.3431 22.7044C76.3431 24.3272 77.5238 25.508 78.9356 25.508C80.3322 25.508 81.4225 24.3273 81.4225 22.7044ZM83.2211 18.3181V26.6735C83.2211 30.1101 81.1963 31.5219 78.7998 31.5219C76.5439 31.5219 75.1874 30.0046 74.675 28.7735L76.4536 28.035C76.7701 28.7936 77.5489 29.693 78.7998 29.693C80.3322 29.693 81.2868 28.7434 81.2868 26.9598V26.2916L81.2114 26.2916C80.7542 26.8543 79.8699 27.3517 78.7596 27.3517C76.4333 27.3517 74.2982 25.3269 74.2982 22.7142C74.2982 20.0866 76.4285 18.0417 78.7596 18.0417C79.8699 18.0417 80.7542 18.534 81.2114 19.0817L81.2817 19.0816V18.323C81.2817 18.318 83.2211 18.318 83.2211 18.318L83.2211 18.3181ZM60.9082 22.6892C60.9082 21.0161 59.7125 19.8706 58.3307 19.8706C56.9441 19.8706 55.7532 21.0161 55.7532 22.6892C55.7532 24.3472 56.949 25.5078 58.3307 25.5078C59.7124 25.5078 60.9082 24.3421 60.9082 22.6892ZM62.9179 22.6892C62.9179 25.3671 60.858 27.3416 58.3307 27.3416C55.8035 27.3416 53.7436 25.3671 53.7436 22.6892C53.7436 19.9911 55.8035 18.0368 58.3307 18.0368C60.858 18.0368 62.9179 19.9911 62.9179 22.6892ZM71.1878 22.6892C71.1878 21.0161 69.992 19.8706 68.6103 19.8706C67.2236 19.8706 66.0328 21.0161 66.0328 22.6892C66.0328 24.3472 67.2285 25.5078 68.6103 25.5078C69.992 25.5078 71.1878 24.3421 71.1878 22.6892ZM73.1974 22.6892C73.1974 25.3671 71.1375 27.3416 68.6103 27.3416C66.083 27.3416 64.0231 25.3671 64.0231 22.6892C64.0231 19.9911 66.083 18.0368 68.6103 18.0368C71.1375 18.0368 73.1974 19.9911 73.1974 22.6892ZM45.885 27.3416C41.9056 27.3416 38.5547 24.096 38.5547 20.1167C38.5547 16.1323 41.9058 12.8867 45.885 12.8867C48.0905 12.8867 49.6582 13.7509 50.8389 14.8814L49.4471 16.2731C48.6031 15.4793 47.4575 14.8613 45.8851 14.8613C42.9761 14.8613 40.7001 17.2076 40.7001 20.1116C40.7001 23.0206 42.9761 25.3618 45.8851 25.3618C47.7692 25.3618 48.8443 24.6032 49.5327 23.9149C50.0954 23.3521 50.4672 22.5382 50.6079 21.4279L45.8851 21.4279V19.4534H52.5271C52.5975 19.805 52.6327 20.2271 52.6327 20.6843C52.6327 22.1664 52.2257 24.0003 50.9244 25.3016C49.6583 26.633 48.0354 27.3413 45.8851 27.3413L45.885 27.3416Z" fill="#5F6368"/>
<path fill-rule="evenodd" clip-rule="evenodd" d="M101.337 26.9317V14.7852L102.906 14.7852L107.124 22.1832H107.188L111.406 14.7852H112.975V26.9316L111.406 26.9316V19.7243L111.47 17.6894H111.406L107.612 24.3455H106.7L102.906 17.6894H102.842L102.906 19.7243V26.9316L101.337 26.9317Z" fill="#63666A"/>
<path fill-rule="evenodd" clip-rule="evenodd" d="M117.766 27.209C116.875 27.209 116.155 26.9546 115.561 26.4458C114.968 25.9371 114.671 25.2588 114.671 24.432C114.671 23.5205 115.031 22.821 115.731 22.3122C116.43 21.8034 117.299 21.5491 118.317 21.5491C119.228 21.5491 119.992 21.7187 120.564 22.0578V21.8247C120.564 21.2099 120.352 20.7224 119.928 20.362C119.504 20.0016 118.995 19.8109 118.381 19.8109C117.935 19.8109 117.511 19.9169 117.151 20.1288C116.791 20.3408 116.536 20.6376 116.388 21.0191L114.968 20.4044C115.159 19.9169 115.54 19.4505 116.112 19.0266C116.685 18.6026 117.427 18.3906 118.359 18.3906C119.419 18.3906 120.31 18.7086 121.009 19.3233C121.709 19.9381 122.069 20.8284 122.069 21.9519V26.9757L120.585 26.9756V25.831H120.522C119.886 26.7213 118.974 27.2088 117.766 27.2088L117.766 27.209ZM118.02 25.7675C118.656 25.7675 119.25 25.5344 119.78 25.0468C120.31 24.5593 120.564 24.0081 120.564 23.351C120.119 22.9906 119.462 22.7998 118.571 22.7998C117.808 22.7998 117.236 22.9694 116.854 23.2874C116.473 23.6053 116.282 24.0081 116.282 24.432C116.282 24.8348 116.452 25.1528 116.812 25.4072C117.172 25.6616 117.575 25.7675 118.02 25.7675H118.02Z" fill="#63666A"/>
<path fill-rule="evenodd" clip-rule="evenodd" d="M128.153 27.2083C127.517 27.2083 126.944 27.0811 126.457 26.8055C125.969 26.5299 125.588 26.1908 125.333 25.788H125.248L125.312 26.9327V30.6L123.765 30.6V18.6232H125.248V19.7679H125.312C125.566 19.3651 125.927 19.026 126.436 18.7504C126.944 18.4749 127.517 18.3477 128.131 18.3477C129.212 18.3477 130.124 18.7716 130.908 19.6196C131.693 20.4674 132.074 21.5273 132.074 22.778C132.074 24.0287 131.693 25.0886 130.908 25.9365C130.145 26.7844 129.212 27.2083 128.153 27.2083L128.153 27.2083ZM127.898 25.7668C128.619 25.7668 129.234 25.4912 129.764 24.9401C130.294 24.389 130.548 23.6682 130.548 22.7568C130.548 21.8454 130.294 21.1246 129.764 20.5735C129.234 20.0224 128.619 19.7468 127.898 19.7468C127.156 19.7468 126.542 20.0224 126.033 20.5523C125.524 21.1034 125.27 21.8242 125.27 22.7356C125.27 23.6471 125.524 24.3891 126.033 24.9189C126.542 25.5125 127.156 25.7668 127.898 25.7668Z" fill="#63666A"/>
<path fill-rule="evenodd" clip-rule="evenodd" d="M136.61 27.2073C135.678 27.2073 134.914 26.9741 134.321 26.529C133.706 26.0838 133.282 25.5115 132.985 24.8331L134.384 24.2607C134.83 25.2995 135.571 25.8294 136.631 25.8294C137.119 25.8294 137.522 25.7234 137.819 25.5115C138.136 25.2995 138.285 25.0239 138.285 24.6636C138.285 24.1124 137.903 23.7521 137.14 23.5613L135.466 23.1585C134.936 23.0313 134.427 22.7557 133.961 22.3954C133.494 22.035 133.24 21.5051 133.24 20.8691C133.24 20.1272 133.558 19.5336 134.215 19.0885C134.872 18.6222 135.635 18.4102 136.526 18.4102C137.267 18.4102 137.925 18.5797 138.497 18.9189C139.069 19.2581 139.493 19.7244 139.726 20.3603L138.37 20.9115C138.073 20.1695 137.437 19.8092 136.462 19.8092C135.996 19.8092 135.614 19.9152 135.296 20.106C134.978 20.2967 134.83 20.5511 134.83 20.8902C134.83 21.3566 135.19 21.6958 135.932 21.8654L137.585 22.2469C138.37 22.4377 138.942 22.7345 139.324 23.1796C139.705 23.6248 139.875 24.1123 139.875 24.6635C139.875 25.4054 139.578 26.0413 138.963 26.5289C138.37 26.9529 137.585 27.2073 136.61 27.2073H136.61Z" fill="#63666A"/>
<path fill-rule="evenodd" clip-rule="evenodd" d="M19.5986 25.2663C20.3379 26.1909 21.0908 27.3496 21.4849 28.0519C21.9647 28.9648 22.1637 29.5812 22.5206 30.6774C22.7294 31.2821 22.9283 31.4655 23.3458 31.4655C23.8022 31.4655 24.0109 31.1573 24.1709 30.6774C24.5044 29.6416 24.7619 28.8536 25.1696 28.1006C25.9713 26.6591 26.9817 25.3755 27.9688 24.1428C28.2399 23.7975 29.9663 21.763 30.7426 20.1479C30.7426 20.1479 31.6926 18.3845 31.6926 15.9189C31.6926 13.6133 30.7563 12.0117 30.7563 12.0117L28.0448 12.7393L26.3926 17.0795L25.985 17.6705L25.8991 17.7817L25.7879 17.9182L25.6026 18.1406L25.3315 18.4117L23.8646 19.6075L20.2033 21.7278L19.5986 25.2663Z" fill="#34A853"/>
<path fill-rule="evenodd" clip-rule="evenodd" d="M15.8145 19.8517C16.7137 21.898 18.4282 23.6867 19.5986 25.2647L25.7996 17.9167C25.7996 17.9167 24.9238 19.0637 23.3457 19.0637C21.5823 19.0637 20.1525 17.6593 20.1525 15.8822C20.1525 14.6611 20.88 13.8242 20.88 13.8242L16.6766 14.9458L15.8145 19.8517Z" fill="#FBBC04"/>
<path fill-rule="evenodd" clip-rule="evenodd" d="M25.8735 7.90625C27.9315 8.5714 29.6947 9.96424 30.756 12.024L25.7994 17.9285C25.7994 17.9285 26.527 17.078 26.527 15.8707C26.527 14.0585 24.9978 12.6892 23.3455 12.6892C21.7792 12.6892 20.8799 13.8225 20.8799 13.8225L20.8799 10.1007L25.8735 7.90625Z" fill="#4285F4"/>
<path fill-rule="evenodd" clip-rule="evenodd" d="M16.9473 10.5098C18.1801 9.04296 20.3374 7.52734 23.3198 7.52734C24.7614 7.52734 25.8596 7.90967 25.8596 7.90967L20.8796 13.8278L17.3528 13.8278L16.9473 10.5098Z" fill="#1A73E8"/>
<path fill-rule="evenodd" clip-rule="evenodd" d="M15.8144 19.8514C15.8144 19.8514 15.001 18.2363 15.001 15.9072C15.001 13.701 15.8632 11.7778 16.9613 10.5195L20.8938 13.8356L15.8144 19.8514Z" fill="#EA4335"/>
</g>
<path d="M148.476 22.774V21.514L153.306 15.2H155.252L150.492 21.514L149.582 21.234H157.352V22.774H148.476ZM153.852 25V22.774L153.908 21.234V19.26H155.616V25H153.852ZM159.483 25.098C159.166 25.098 158.895 24.9907 158.671 24.776C158.447 24.552 158.335 24.272 158.335 23.936C158.335 23.5813 158.447 23.3013 158.671 23.096C158.895 22.8813 159.166 22.774 159.483 22.774C159.801 22.774 160.071 22.8813 160.295 23.096C160.519 23.3013 160.631 23.5813 160.631 23.936C160.631 24.272 160.519 24.552 160.295 24.776C160.071 24.9907 159.801 25.098 159.483 25.098ZM161.82 25V23.782L165.712 20.086C166.039 19.778 166.281 19.5073 166.44 19.274C166.599 19.0407 166.701 18.826 166.748 18.63C166.804 18.4247 166.832 18.2333 166.832 18.056C166.832 17.608 166.678 17.2627 166.37 17.02C166.062 16.768 165.609 16.642 165.012 16.642C164.536 16.642 164.102 16.726 163.71 16.894C163.327 17.062 162.996 17.3187 162.716 17.664L161.442 16.684C161.825 16.1707 162.338 15.774 162.982 15.494C163.635 15.2047 164.363 15.06 165.166 15.06C165.875 15.06 166.491 15.1767 167.014 15.41C167.546 15.634 167.952 15.956 168.232 16.376C168.521 16.796 168.666 17.2953 168.666 17.874C168.666 18.1913 168.624 18.5087 168.54 18.826C168.456 19.134 168.297 19.4607 168.064 19.806C167.831 20.1513 167.49 20.5387 167.042 20.968L163.696 24.146L163.318 23.46H169.044V25H161.82Z" fill="#062526"/>
<defs>
<clipPath id="clip0_5812_47174">
<rect width="124.874" height="24" fill="white" transform="translate(15 7.52344)"/>
</clipPath>
</defs>
</svg>
