<svg width="134" height="40" viewBox="0 0 134 40" fill="none" xmlns="http://www.w3.org/2000/svg">
<g clip-path="url(#clip0_5812_47157)">
<path d="M85.7204 17.234H89.1216C88.6914 13.9236 86.2737 12.1836 82.9133 12.1836C79.5122 12.1836 77.2379 13.9873 77.2379 17.0855C77.2379 20.608 80.1678 21.3931 81.725 21.7115C83.7329 22.1146 85.6999 22.1571 85.6999 23.9395C85.6999 25.1491 84.7164 25.7433 83.3232 25.7433C81.6021 25.7433 80.4548 24.852 80.1678 23.2394H76.8076C77.0125 26.7194 79.4508 28.5868 83.0364 28.5868C86.3556 28.5868 89.0805 27.0165 89.0805 23.6213C89.0805 19.9714 85.9458 19.3136 83.7534 18.974C82.2577 18.7407 80.6186 18.5284 80.6186 16.8945C80.6186 15.7486 81.4586 15.0483 82.8724 15.0483C84.5115 15.0483 85.4949 16.0033 85.7204 17.234Z" fill="black"/>
<path d="M74.9434 12.7109H71.7266V28.0955H74.9434V12.7109Z" fill="black"/>
<path d="M62.0148 22.7287H66.2151C65.5594 24.3839 64.0841 25.1689 62.3835 25.1689C59.3922 25.1689 57.999 22.7711 57.999 20.3944C57.999 17.9965 59.3102 15.5563 62.3631 15.5563C64.2276 15.5563 65.6208 16.4475 66.1536 18.039L69.6162 18.039C69.0221 14.4529 65.9897 12.3945 62.4041 12.3945C57.9785 12.3945 54.6592 15.5138 54.6592 20.4369C54.6592 25.4236 58.2652 28.3732 62.3835 28.3732C66.4404 28.3732 69.6162 25.6359 69.6162 21.3494V20.0974H62.0148V22.7287Z" fill="black"/>
<path d="M47.3029 12.3945C43.6148 12.3945 40.8898 14.7923 40.9103 18.7817H44.2295C44.1885 17.0417 45.2539 15.4502 47.1389 15.4502C48.7781 15.4502 49.7411 16.6385 49.7411 17.9966C49.7411 19.3547 48.7781 20.1186 46.9955 20.9463C44.5573 22.0709 42.8158 22.7924 41.0332 23.429V28.0974H53.4496V24.9568H44.9256C44.9256 24.9568 44.954 24.9476 44.968 24.9432C46.4178 24.4882 47.507 23.9939 48.7986 23.4077C51.5646 22.1346 53.1423 20.543 53.1423 17.8269C53.1423 14.4952 50.7656 12.3945 47.3029 12.3945Z" fill="black"/>
<path d="M32.1826 22.6875C28.0027 22.7087 27.3266 25.3188 27.1013 27.5257L26.9989 28.5017H26.1587L26.0563 27.5257C25.831 25.3188 25.1343 22.7087 21.0979 22.6875C20.4218 21.2444 20.135 20.0773 20.135 18.7617C20.135 15.4726 22.7371 12.3956 26.589 12.3956C30.4409 12.3956 33.0021 15.4513 33.0021 18.783C33.0021 20.0773 32.8792 21.2444 32.1826 22.6875ZM26.5481 8.40625C20.1965 8.40625 14.9922 13.7962 14.9922 20.3956C14.9922 27.0163 20.1965 32.4062 26.5481 32.4062C32.9611 32.4062 38.1449 27.0163 38.1449 20.3956C38.1449 13.7962 32.9611 8.40625 26.5481 8.40625Z" fill="#299400"/>
</g>
<path d="M97.476 22.774V21.514L102.306 15.2H104.252L99.492 21.514L98.582 21.234H106.352V22.774H97.476ZM102.852 25V22.774L102.908 21.234V19.26H104.616V25H102.852ZM108.483 25.098C108.166 25.098 107.895 24.9907 107.671 24.776C107.447 24.552 107.335 24.272 107.335 23.936C107.335 23.5813 107.447 23.3013 107.671 23.096C107.895 22.8813 108.166 22.774 108.483 22.774C108.801 22.774 109.071 22.8813 109.295 23.096C109.519 23.3013 109.631 23.5813 109.631 23.936C109.631 24.272 109.519 24.552 109.295 24.776C109.071 24.9907 108.801 25.098 108.483 25.098ZM114.026 25.14C113.335 25.14 112.659 25.042 111.996 24.846C111.343 24.6407 110.792 24.3607 110.344 24.006L111.128 22.592C111.483 22.8813 111.912 23.1147 112.416 23.292C112.92 23.4693 113.447 23.558 113.998 23.558C114.651 23.558 115.16 23.4273 115.524 23.166C115.888 22.8953 116.07 22.5313 116.07 22.074C116.07 21.626 115.902 21.2713 115.566 21.01C115.23 20.7487 114.689 20.618 113.942 20.618H113.046V19.372L115.846 16.04L116.084 16.726H110.82V15.2H117.498V16.418L114.698 19.75L113.746 19.19H114.292C115.496 19.19 116.397 19.4607 116.994 20.002C117.601 20.534 117.904 21.22 117.904 22.06C117.904 22.6107 117.764 23.1193 117.484 23.586C117.204 24.0527 116.775 24.4307 116.196 24.72C115.627 25 114.903 25.14 114.026 25.14Z" fill="#062526"/>
<defs>
<clipPath id="clip0_5812_47157">
<rect width="74.1297" height="24" fill="white" transform="translate(15 8.39062)"/>
</clipPath>
</defs>
</svg>
