<svg width="167" height="40" viewBox="0 0 167 40" fill="none" xmlns="http://www.w3.org/2000/svg">
<g clip-path="url(#clip0_6101_50560)">
<path d="M22.3797 8L26.2797 13.04H25.7397L25.3797 13.58L21.7197 8.36L21.9597 8H22.3797Z" fill="#00B4F3"/>
<path d="M37.3198 8.42055L34.1398 13.4005L33.9598 13.0405H33.2998L36.5998 8.06055H37.0798L37.3198 8.42055Z" fill="#02B1F3"/>
<path d="M43.7394 20.3596H37.8594L38.0394 19.9996L37.8594 19.6396H43.7994L43.9794 19.9996L43.7394 20.3596Z" fill="#02B1F3"/>
<path d="M33.7198 26.7197L36.7198 31.5797L36.4798 31.9997H35.9398L33.2998 27.3197L33.7198 26.7197Z" fill="#02B1F3"/>
<path d="M29.7598 20.42L26.6398 25.46L26.3998 25.04H25.7998L28.9798 20H29.5198L29.7598 20.42Z" fill="#00B4F3"/>
<path d="M15.24 19.5801L21.3 19.6401L21.06 20.0001L21.24 20.4801H15.3L15 20.0001L15.24 19.5801Z" fill="#02B1F3"/>
<path d="M21.8994 8L25.7394 13.04H33.8994L37.0794 8H21.8994Z" fill="#00B4F3"/>
<path d="M38.0394 20H44.0394L37.0794 8L33.8994 13.04L38.0394 20Z" fill="url(#paint0_linear_6101_50560)"/>
<path d="M38.04 20H44.04L36.48 32L33.54 26.96L38.04 20Z" fill="url(#paint1_linear_6101_50560)"/>
<path d="M26.3398 25.04L30.7798 32H36.4798L29.5198 20L26.3398 25.04Z" fill="#47D4F8"/>
<path d="M15 20L18.18 25.04H26.34L29.52 20H15Z" fill="#00B4F3"/>
<path d="M25.74 13.04L21.06 20H15L21.9 8L25.74 13.04Z" fill="url(#paint2_linear_6101_50560)"/>
<path d="M25.4999 7.75977H14.8799V20.1798H25.4999V7.75977Z" fill="url(#paint3_linear_6101_50560)"/>
<path d="M55.8603 15.8596C55.3203 15.6796 54.1803 15.4996 53.2203 15.4996C51.4803 15.4996 50.5203 15.8596 50.5203 17.1796C50.5203 18.0796 51.0003 18.5596 52.9803 18.7396C55.4403 18.9796 56.5203 19.8796 56.5203 21.7996C56.5203 24.1396 54.9603 24.9796 52.1403 24.9796C51.0603 24.9796 49.8603 24.7996 49.0203 24.4996L49.3803 23.1796C50.0403 23.4196 51.1803 23.5396 52.0803 23.5396C53.8203 23.5396 54.8403 23.1796 54.8403 21.8596C54.8403 20.9596 54.3603 20.2996 52.3203 20.1196C49.9203 19.9396 48.7803 19.2196 48.7803 17.2996C48.7803 14.9596 50.3403 14.0596 53.1003 14.0596C54.1203 14.0596 55.3203 14.2396 56.1003 14.4796L55.8603 15.8596Z" fill="#00B4F3"/>
<path d="M60.2405 18.4396V22.1596C60.2405 23.2396 60.5405 23.7196 61.5005 23.7196C61.9805 23.7196 62.4605 23.6596 62.8805 23.5396L63.1205 24.6796C62.6405 24.8596 61.8605 24.9796 61.2605 24.9796C59.5805 24.9796 58.8005 24.4996 58.8005 22.2196V18.4396H57.4805V17.1796H58.8005V15.7396L60.2405 15.1396V17.1796H62.8805V18.4396H60.2405Z" fill="#00B4F3"/>
<path d="M70.6198 24.4401C69.7198 24.8001 68.3998 25.0401 67.3798 25.0401C65.0998 25.0401 64.2598 24.5001 64.2598 22.5201C64.2598 20.3601 65.5198 20.0001 67.2598 20.0001C67.9798 20.0001 68.5798 20.0601 69.2998 20.2401C69.2998 18.6801 68.8798 18.3201 67.2598 18.3201C66.4798 18.3201 65.6398 18.4401 65.0398 18.6801L64.7398 17.4801C65.3998 17.3001 66.4198 17.1201 67.4998 17.1201C69.7198 17.1201 70.7398 17.7801 70.7398 20.0601V24.4401H70.6198ZM69.2398 21.2601C68.7598 21.1401 68.0998 21.0801 67.4998 21.0801C66.2398 21.0801 65.7598 21.2001 65.7598 22.4001C65.7598 23.6601 66.1198 23.9001 67.4398 23.9001C68.0398 23.9001 68.6998 23.7801 69.2398 23.6001V21.2601Z" fill="#00B4F3"/>
<path d="M72.7803 17.1804H74.1603V17.7204C74.4603 17.3604 75.1203 16.9404 76.2003 16.9404C76.4403 16.9404 76.7403 16.9404 76.9803 17.0004V18.3804C76.7403 18.3204 76.3803 18.3204 76.0803 18.3204C75.0603 18.3204 74.1603 18.6204 74.1603 19.2204V24.8004H72.7803V17.1804Z" fill="#00B4F3"/>
<path d="M79.9807 18.4396V22.1596C79.9807 23.2396 80.2807 23.7196 81.2407 23.7196C81.7207 23.7196 82.2007 23.6596 82.6207 23.5396L82.8607 24.6796C82.3807 24.8596 81.6007 24.9796 81.0007 24.9796C79.3207 24.9796 78.5407 24.4996 78.5407 22.2196V18.4396H77.2207V17.1796H78.5407V15.7396L79.9807 15.1396V17.1796H82.6207V18.4396H79.9807Z" fill="#00B4F3"/>
<path d="M84.2402 17.54C85.0802 17.18 86.4002 17 87.4202 17C89.8202 17 90.9602 17.9 90.9602 20.96C90.9602 24.08 89.8202 24.98 87.6002 24.98C86.6402 24.98 86.0402 24.74 85.6802 24.44V27.62H84.3002V17.54H84.2402ZM85.6202 22.88C85.6202 23.48 86.4002 23.78 87.4202 23.78C88.9802 23.78 89.4602 23.18 89.4602 21.02C89.4602 18.68 88.9802 18.26 87.4202 18.26C86.8202 18.26 86.1002 18.32 85.6202 18.5V22.88Z" fill="#00B4F3"/>
<path d="M99.0602 24.4401C98.1602 24.8001 96.8402 25.0401 95.8202 25.0401C93.5402 25.0401 92.7002 24.5001 92.7002 22.5201C92.7002 20.3601 93.9602 20.0001 95.7002 20.0001C96.4202 20.0001 97.0202 20.0601 97.7402 20.2401C97.7402 18.6801 97.3202 18.3201 95.7002 18.3201C94.9202 18.3201 94.0802 18.4401 93.4802 18.6801L93.1802 17.4801C93.8402 17.3001 94.8602 17.1201 95.9402 17.1201C98.1602 17.1201 99.1802 17.7801 99.1802 20.0601V24.4401H99.0602ZM97.6802 21.2601C97.2002 21.1401 96.5402 21.0801 95.9402 21.0801C94.6802 21.0801 94.2002 21.2001 94.2002 22.4001C94.2002 23.6601 94.5602 23.9001 95.8802 23.9001C96.4802 23.9001 97.1402 23.7801 97.6802 23.6001V21.2601Z" fill="#00B4F3"/>
<path d="M106.92 24.6196C106.32 24.8596 105.36 25.0396 104.7 25.0396C102.36 25.0396 100.98 24.1396 100.98 21.0196C100.98 17.8996 102.36 17.0596 104.7 17.0596C105.36 17.0596 106.38 17.2396 106.92 17.4196L106.56 18.6796C106.08 18.4396 105.36 18.3196 104.76 18.3196C103.2 18.3196 102.48 18.6796 102.48 21.0196C102.48 23.2396 103.2 23.7796 104.76 23.7796C105.42 23.7796 106.08 23.5996 106.56 23.4196L106.92 24.6196Z" fill="#00B4F3"/>
<path d="M113.16 24.8C111.3 22.34 110.1 20.96 109.68 20.78V24.8H108.3V14H109.68V20.78C110.16 20.42 111.3 19.22 112.92 17.18H114.66C113.04 19.16 111.9 20.3 111.48 20.6C111.9 20.84 113.1 22.22 114.9 24.74H113.16V24.8Z" fill="#00B4F3"/>
</g>
<path d="M139.352 21.234H137.616V19.26H135.908V21.234H132.702L137.252 15.2H135.306L130.476 21.514V22.774H135.852V25H137.616V22.774H139.352V21.234ZM141.483 25.098C142.113 25.098 142.631 24.608 142.631 23.936C142.631 23.236 142.113 22.774 141.483 22.774C140.853 22.774 140.335 23.236 140.335 23.936C140.335 24.608 140.853 25.098 141.483 25.098ZM146.875 18.994H145.937L146.147 16.726H150.361V15.2H144.607L144.103 20.534H146.469C148.499 20.534 149.101 21.122 149.101 22.06C149.101 22.984 148.331 23.558 147.029 23.558C145.923 23.558 144.859 23.18 144.145 22.592L143.375 24.006C144.271 24.72 145.671 25.14 147.057 25.14C149.689 25.14 150.935 23.712 150.935 21.99C150.935 20.254 149.773 18.994 146.875 18.994Z" fill="#062526"/>
<defs>
<linearGradient id="paint0_linear_6101_50560" x1="38.9694" y1="8" x2="38.9694" y2="20" gradientUnits="userSpaceOnUse">
<stop stop-color="#0280DD"/>
<stop offset="1" stop-color="#02B1F3"/>
</linearGradient>
<linearGradient id="paint1_linear_6101_50560" x1="44.04" y1="26" x2="33.54" y2="26" gradientUnits="userSpaceOnUse">
<stop stop-color="#0280DD"/>
<stop offset="1" stop-color="#02B1F3"/>
</linearGradient>
<linearGradient id="paint2_linear_6101_50560" x1="25.74" y1="14" x2="15" y2="14" gradientUnits="userSpaceOnUse">
<stop stop-color="#0280DD"/>
<stop offset="1" stop-color="#02B1F3"/>
</linearGradient>
<linearGradient id="paint3_linear_6101_50560" x1="25.4863" y1="13.9698" x2="14.8663" y2="13.9698" gradientUnits="userSpaceOnUse">
<stop stop-color="#0280DD"/>
<stop offset="1" stop-color="#02B1F3"/>
</linearGradient>
<clipPath id="clip0_6101_50560">
<rect width="106.8" height="24" fill="white" transform="translate(15 8)"/>
</clipPath>
</defs>
</svg>
