<svg width="178" height="40" viewBox="0 0 178 40" fill="none" xmlns="http://www.w3.org/2000/svg">
<g clip-path="url(#clip0_6101_50550)">
<path fill-rule="evenodd" clip-rule="evenodd" d="M38.4891 19.8458C38.4891 13.3593 33.2308 8.10156 26.7441 8.10156C20.2573 8.10156 14.999 13.3596 14.999 19.8458C14.999 26.3321 20.2575 31.591 26.7441 31.591C33.2307 31.591 38.4891 26.3326 38.4891 19.8458Z" fill="#FC3F1D"/>
<path fill-rule="evenodd" clip-rule="evenodd" d="M28.311 14.7561H27.2344C25.228 14.7561 24.2002 15.7836 24.2002 17.2522C24.2002 18.9161 24.9342 19.6989 26.4025 20.7263L27.626 21.5585L24.1026 26.8436H21.46L24.6407 22.1454C22.8298 20.8244 21.8024 19.5518 21.8024 17.4476C21.8024 14.7561 23.662 12.9453 27.2344 12.9453H30.7578V26.8928H28.311V14.7561Z" fill="white"/>
<path fill-rule="evenodd" clip-rule="evenodd" d="M52.1171 8.125C46.909 8.125 42.6875 12.3465 42.6875 17.5546C42.6875 20.1575 43.7424 22.5145 45.4478 24.2211C47.1543 25.9282 51.1739 28.3987 51.4097 30.992C51.4453 31.3811 51.7269 31.6994 52.1172 31.6994C52.5074 31.6994 52.7889 31.3811 52.8246 30.992C53.0604 28.3987 57.0799 25.9282 58.7864 24.2211C60.4919 22.5145 61.5467 20.1575 61.5467 17.5546C61.5467 12.3465 57.3252 8.125 52.1172 8.125H52.1171Z" fill="#FF4433"/>
<path fill-rule="evenodd" clip-rule="evenodd" d="M52.1166 20.855C53.9396 20.855 55.4169 19.3771 55.4169 17.5547C55.4169 15.7318 53.9396 14.2539 52.1166 14.2539C50.2937 14.2539 48.8164 15.7318 48.8164 17.5547C48.8164 19.3771 50.2937 20.855 52.1166 20.855Z" fill="white"/>
<path fill-rule="evenodd" clip-rule="evenodd" d="M123.788 26.0315H122.385V21.9343H123.86C125.159 21.9343 125.921 22.5198 125.921 23.9951C125.921 25.4704 125.079 26.0315 123.788 26.0315ZM130.163 15.6326V28.421H133.193V15.6326H130.163ZM119.362 15.6326V28.421H123.965C126.939 28.421 129.048 26.8977 129.048 23.8909C129.048 21.0442 127.164 19.5453 124.013 19.5453H122.385V15.6322L119.362 15.6326ZM117.582 18.0219V15.6326H107.439V18.0219H111V28.4216H114.022V18.0219H117.582ZM101.193 26.2808C99.5897 26.2808 98.7722 24.9898 98.7722 22.039C98.7722 19.0645 99.6379 17.7735 101.346 17.7735C102.997 17.7735 103.807 19.0645 103.807 22.0151C103.807 24.9898 102.941 26.2808 101.193 26.2808ZM98.5477 15.6326H95.7493V32.1015H98.7722V26.9217C99.5419 28.0603 100.656 28.6699 101.955 28.6699C104.898 28.6699 106.934 26.3124 106.934 22.0148C106.934 17.7409 104.954 15.384 102.107 15.384C100.681 15.384 99.5096 16.0413 98.7001 17.284L98.5477 15.6326ZM90.289 25.3669C89.9041 25.9279 89.1905 26.3851 88.1241 26.3851C86.8572 26.3851 86.2158 25.6715 86.2158 24.5809C86.2158 23.1298 87.2583 22.6006 89.8561 22.6006H90.289V25.3669ZM93.3118 19.698C93.3118 16.6031 91.732 15.4322 88.533 15.4322C86.5284 15.4322 84.9491 16.0658 84.0347 16.6031V19.1207C84.8447 18.5035 86.6247 17.8458 88.1801 17.8458C89.6235 17.8458 90.289 18.351 90.289 19.7301V20.4356H89.7998C85.1733 20.4356 83.1207 21.9671 83.1207 24.5571C83.1207 27.1469 84.6922 28.5983 87.0337 28.5983C88.8135 28.5983 89.5752 28.0131 90.1605 27.4035H90.289C90.3129 27.732 90.4171 28.1651 90.5136 28.4217H93.4639C93.3598 27.3794 93.3118 26.3371 93.3118 25.2947V19.698ZM79.4087 28.4221H82.9929L76.7147 19.1448L82.4075 10.7578H79.2803L73.8122 18.8882V10.7578H70.7412V28.4215H73.8122V20.1307L79.4087 28.4221Z" fill="black"/>
</g>
<path d="M150.352 21.234H148.616V19.26H146.908V21.234H143.702L148.252 15.2H146.306L141.476 21.514V22.774H146.852V25H148.616V22.774H150.352V21.234ZM152.483 25.098C153.113 25.098 153.631 24.608 153.631 23.936C153.631 23.236 153.113 22.774 152.483 22.774C151.853 22.774 151.335 23.236 151.335 23.936C151.335 24.608 151.853 25.098 152.483 25.098ZM157.875 18.994H156.937L157.147 16.726H161.361V15.2H155.607L155.103 20.534H157.469C159.499 20.534 160.101 21.122 160.101 22.06C160.101 22.984 159.331 23.558 158.029 23.558C156.923 23.558 155.859 23.18 155.145 22.592L154.375 24.006C155.271 24.72 156.671 25.14 158.057 25.14C160.689 25.14 161.935 23.712 161.935 21.99C161.935 20.254 160.773 18.994 157.875 18.994Z" fill="#062526"/>
<defs>
<clipPath id="clip0_6101_50550">
<rect width="118.191" height="24" fill="white" transform="translate(15 8.10156)"/>
</clipPath>
</defs>
</svg>
