<svg width="124" height="40" viewBox="0 0 124 40" fill="none" xmlns="http://www.w3.org/2000/svg">
<path d="M20.0242 24.7936C19.1251 24.7936 18.3889 24.428 17.8159 23.6968V27.3428H15.9336V17.4571H17.8159V18.3612C18.3791 17.6399 19.1152 17.2793 20.0242 17.2793C20.9629 17.2793 21.7237 17.6152 22.3066 18.2871C22.8995 18.9491 23.1959 19.8631 23.1959 21.029C23.1959 22.1949 22.8995 23.1138 22.3066 23.7857C21.7237 24.4576 20.9629 24.7936 20.0242 24.7936ZM19.4314 23.1188C19.9748 23.1188 20.4096 22.9261 20.7356 22.5408C21.0716 22.1554 21.2395 21.6515 21.2395 21.029C21.2395 20.4164 21.0716 19.9175 20.7356 19.5321C20.4096 19.1467 19.9748 18.9541 19.4314 18.9541C19.1251 18.9541 18.8188 19.0331 18.5125 19.1912C18.2062 19.3493 17.974 19.5419 17.8159 19.7692V22.3036C17.974 22.5309 18.2062 22.7235 18.5125 22.8816C18.8286 23.0397 19.1349 23.1188 19.4314 23.1188Z" fill="#273D94"/>
<path d="M26.4565 24.6156H24.5742V17.457H26.4565V24.6156Z" fill="#273D94"/>
<path d="M31.6575 24.7936C30.5509 24.7936 29.6418 24.4428 28.9304 23.7413C28.219 23.0397 27.8633 22.1357 27.8633 21.029C27.8633 19.9322 28.219 19.0331 28.9304 18.3316C29.6418 17.6301 30.5509 17.2793 31.6575 17.2793C32.9222 17.2793 33.8658 17.7091 34.4883 18.5687L33.2582 19.7248C32.9123 19.211 32.4084 18.9541 31.7464 18.9541C31.1733 18.9541 30.704 19.1467 30.3384 19.5321C29.9827 19.9075 29.8048 20.4065 29.8048 21.029C29.8048 21.6515 29.9827 22.1554 30.3384 22.5408C30.704 22.9261 31.1733 23.1188 31.7464 23.1188C32.3886 23.1188 32.8926 22.8619 33.2582 22.3481L34.4883 23.4893C33.8658 24.3588 32.9222 24.7936 31.6575 24.7936Z" fill="#273D94"/>
<path d="M42.7143 24.6152H40.3578L38.4607 21.8584L37.601 22.7773V24.6152H35.7188V14.7295H37.601V20.6431L40.3133 17.4566H42.6254L39.7946 20.7024L42.7143 24.6152Z" fill="#273D94"/>
<path d="M47.4314 24.6152H45.312V16.5821H42.4219V14.7295H50.3067V16.5821H47.4314V24.6152Z" fill="#273D94"/>
<path d="M53.5279 24.7936C52.4213 24.7936 51.5073 24.4477 50.786 23.7561C50.0647 23.0644 49.7041 22.1554 49.7041 21.029C49.7041 19.9718 50.0499 19.0825 50.7416 18.3612C51.4431 17.6399 52.3323 17.2793 53.4094 17.2793C54.4765 17.2793 55.341 17.6449 56.0031 18.376C56.6651 19.0973 56.996 20.0459 56.996 21.2217V21.6367H51.6753C51.7346 22.1109 51.947 22.5062 52.3126 22.8224C52.6782 23.1386 53.1525 23.2967 53.7354 23.2967C54.0516 23.2967 54.3925 23.2324 54.7581 23.104C55.1335 22.9755 55.4299 22.8026 55.6474 22.5852L56.4773 23.8005C55.756 24.4626 54.7729 24.7936 53.5279 24.7936ZM55.1731 20.3621C55.1434 19.957 54.9804 19.5914 54.684 19.2653C54.3975 18.9392 53.9726 18.7762 53.4094 18.7762C52.8758 18.7762 52.4608 18.9392 52.1644 19.2653C51.868 19.5815 51.6951 19.947 51.6456 20.3621H55.1731Z" fill="#273D94"/>
<path d="M61.6906 24.7936C60.584 24.7936 59.675 24.4428 58.9636 23.7413C58.2522 23.0397 57.8965 22.1357 57.8965 21.029C57.8965 19.9322 58.2522 19.0331 58.9636 18.3316C59.675 17.6301 60.584 17.2793 61.6906 17.2793C62.9554 17.2793 63.899 17.7091 64.5215 18.5687L63.2913 19.7248C62.9455 19.211 62.4416 18.9541 61.7796 18.9541C61.2065 18.9541 60.7372 19.1467 60.3716 19.5321C60.0159 19.9075 59.838 20.4065 59.838 21.029C59.838 21.6515 60.0159 22.1554 60.3716 22.5408C60.7372 22.9261 61.2065 23.1188 61.7796 23.1188C62.4218 23.1188 62.9257 22.8619 63.2913 22.3481L64.5215 23.4893C63.899 24.3588 62.9554 24.7936 61.6906 24.7936Z" fill="#273D94"/>
<path d="M72.4807 24.6152H70.5984V20.2577C70.5984 19.7835 70.4848 19.4475 70.2576 19.2499C70.0303 19.0523 69.6993 18.9535 69.2645 18.9535C68.6025 18.9535 68.0591 19.2351 67.6342 19.7983V24.6152H65.752V14.7295H67.6342V18.3903C67.8911 18.084 68.2369 17.8222 68.6717 17.6048C69.1163 17.3874 69.6104 17.2787 70.1538 17.2787C70.9245 17.2787 71.5025 17.4763 71.8878 17.8715C72.2831 18.2668 72.4807 18.8201 72.4807 19.5315V24.6152Z" fill="#273D94"/>
<path d="M26.2937 16.3465C26.0719 16.5684 25.8084 16.6794 25.5033 16.6794C25.1982 16.6794 24.9347 16.5684 24.7127 16.3465C24.4908 16.1246 24.3799 15.8611 24.3799 15.556C24.3799 15.2509 24.4908 14.9874 24.7127 14.7655C24.9347 14.5436 25.1982 14.4326 25.5033 14.4326C25.8084 14.4326 26.0719 14.5436 26.2937 14.7655C26.5156 14.9874 26.6266 15.2509 26.6266 15.556C26.6266 15.8611 26.5156 16.1246 26.2937 16.3465Z" fill="#F89D46"/>
<path d="M78.4013 23.5692C78.0019 23.9685 77.5281 24.1681 76.9792 24.1681C76.4301 24.1681 75.9561 23.9685 75.5568 23.5692C75.1576 23.17 74.958 22.6959 74.958 22.147C74.958 21.5981 75.1576 21.1241 75.5568 20.7248C75.9561 20.3256 76.4301 20.126 76.9792 20.126C77.5281 20.126 78.0019 20.3256 78.4013 20.7248C78.8007 21.1241 79.0001 21.5981 79.0001 22.147C79.0001 22.6959 78.8007 23.17 78.4013 23.5692Z" fill="#F89D46"/>
<path d="M96.352 21.234H94.616V19.26H92.908V21.234H89.702L94.252 15.2H92.306L87.476 21.514V22.774H92.852V25H94.616V22.774H96.352V21.234ZM98.4834 25.098C99.1134 25.098 99.6314 24.608 99.6314 23.936C99.6314 23.236 99.1134 22.774 98.4834 22.774C97.8534 22.774 97.3354 23.236 97.3354 23.936C97.3354 24.608 97.8534 25.098 98.4834 25.098ZM103.875 18.994H102.937L103.147 16.726H107.361V15.2H101.607L101.103 20.534H103.469C105.499 20.534 106.101 21.122 106.101 22.06C106.101 22.984 105.331 23.558 104.029 23.558C102.923 23.558 101.859 23.18 101.145 22.592L100.375 24.006C101.271 24.72 102.671 25.14 104.057 25.14C106.689 25.14 107.935 23.712 107.935 21.99C107.935 20.254 106.773 18.994 103.875 18.994Z" fill="#062526"/>
</svg>
