<svg width="115" height="40" viewBox="0 0 115 40" fill="none" xmlns="http://www.w3.org/2000/svg">
<g clip-path="url(#clip0_5812_47127)">
<path d="M32.3998 22.1609C36.0298 22.1609 38.9998 19.2041 38.9998 15.5609C38.9998 11.9177 36.0298 8.96094 32.3998 8.96094C28.7566 8.96094 25.7998 11.9177 25.7998 15.5609C25.7998 19.2041 28.7566 22.1609 32.3998 22.1609Z" fill="#299400"/>
<path d="M32.4655 11.2031C34.6672 11.2031 36.1615 12.8795 36.1615 14.6879C36.1615 15.4139 36.0015 16.0475 35.628 16.8395C33.4396 16.8395 33.0393 18.2783 32.9457 19.2419L32.8797 20.0471H32.0519L31.9854 19.2419C31.8919 18.2783 31.4915 16.8395 29.3031 16.8395C28.9296 16.0475 28.7695 15.4139 28.7695 14.6879C28.7695 12.8795 30.2639 11.2031 32.4655 11.2031Z" fill="white"/>
<path d="M25.2596 16.3984C24.0138 16.3991 22.796 16.7653 21.7602 17.451C20.7244 18.1365 19.9171 19.1107 19.4401 20.2504C18.9632 21.3902 18.838 22.6442 19.0805 23.8544C19.3229 25.0645 19.9221 26.1764 20.8023 27.0494C21.9436 28.1796 24.6295 29.8144 24.7884 31.5319C24.8122 31.7884 25.0005 31.9984 25.2596 31.9984C25.5187 31.9984 25.7078 31.7884 25.7308 31.5319C25.8898 29.8144 28.5735 28.1823 29.7141 27.0529C30.5954 26.1801 31.1955 25.0683 31.4388 23.8579C31.682 22.6474 31.5573 21.3927 31.0806 20.2524C30.6038 19.1121 29.7964 18.1373 28.7604 17.4513C27.7242 16.7653 26.506 16.399 25.2596 16.3984ZM25.2596 24.7732C24.9765 24.7732 24.6961 24.7179 24.4346 24.6106C24.1731 24.5034 23.9354 24.3462 23.7352 24.1479C23.535 23.9497 23.3762 23.7144 23.2679 23.4554C23.1595 23.1964 23.1038 22.9188 23.1038 22.6384C23.1038 22.3581 23.1595 22.0806 23.2679 21.8215C23.3762 21.5625 23.535 21.3271 23.7352 21.1288C23.9354 20.9307 24.1731 20.7734 24.4346 20.6661C24.6961 20.5588 24.9765 20.5036 25.2596 20.5036C25.8314 20.5036 26.3798 20.7285 26.7841 21.1288C27.1884 21.5293 27.4155 22.0723 27.4155 22.6384C27.4155 23.2046 27.1884 23.7476 26.7841 24.1479C26.3798 24.5482 25.8314 24.7732 25.2596 24.7732Z" fill="#FF4433"/>
<path d="M26.6073 14.1174C26.6073 13.7111 26.5743 13.3019 26.5041 12.9023H20.8623V15.2058H24.0927C24.0265 15.5737 23.8865 15.9244 23.6811 16.2367C23.4756 16.5491 23.2091 16.8166 22.8975 17.0232V18.5172H24.8247C25.9569 17.4762 26.6067 15.9372 26.6067 14.1174H26.6073Z" fill="#2A84FC"/>
<path d="M20.9821 19.9637C22.5949 19.9637 23.9557 19.4345 24.9469 18.5201L23.0191 17.0255C22.4827 17.3903 21.7909 17.5967 20.9839 17.5967C19.4239 17.5967 18.1003 16.5443 17.6257 15.1289H15.6367V16.6697C16.1349 17.6602 16.8986 18.4927 17.8425 19.0744C18.7864 19.656 19.8734 19.9639 20.9821 19.9637Z" fill="#00AC47"/>
<path d="M17.6236 15.1285C17.373 14.3856 17.373 13.5811 17.6236 12.8383V11.2969H15.6364C15.2179 12.1304 15 13.0501 15 13.9828C15 14.9154 15.2179 15.8352 15.6364 16.6687L17.6236 15.1279V15.1285Z" fill="#FFBA00"/>
<path d="M20.9821 10.3674C21.8349 10.3536 22.659 10.6755 23.2765 11.2638L24.9841 9.55621C23.9012 8.54018 22.467 7.98265 20.9821 8.00041C19.8732 8.00013 18.786 8.3082 17.842 8.89021C16.898 9.47223 16.1345 10.3053 15.6367 11.2962L17.6239 12.8382C18.0961 11.4204 19.4215 10.368 20.9821 10.368V10.3674Z" fill="#FC2C25"/>
</g>
<path d="M51.63 20.418C52.582 20.054 53.156 19.298 53.156 18.22C53.156 16.582 51.868 15.7 49.74 15.7H45.526V25.5H50.006C52.414 25.5 53.646 24.506 53.646 22.826C53.646 21.552 52.946 20.74 51.63 20.418ZM46.912 16.806H49.642C50.986 16.806 51.742 17.366 51.742 18.416C51.742 19.466 50.986 20.012 49.642 20.012H46.912V16.806ZM49.978 24.394H46.912V21.076H49.978C51.448 21.076 52.232 21.58 52.232 22.714C52.232 23.862 51.448 24.394 49.978 24.394ZM58.995 25.584C60.325 25.584 61.431 25.024 62.019 23.988L60.997 23.344C60.521 24.072 59.793 24.408 58.981 24.408C57.525 24.408 56.433 23.4 56.433 21.79C56.433 20.208 57.525 19.186 58.981 19.186C59.793 19.186 60.521 19.522 60.997 20.25L62.019 19.592C61.431 18.556 60.325 18.01 58.995 18.01C56.713 18.01 55.075 19.578 55.075 21.79C55.075 24.002 56.713 25.584 58.995 25.584ZM70.3557 21.832C70.3557 19.55 68.8297 18.01 66.6877 18.01C64.5457 18.01 62.9637 19.592 62.9637 21.79C62.9637 24.002 64.5597 25.584 66.9537 25.584C68.1857 25.584 69.2077 25.164 69.8797 24.38L69.1377 23.512C68.5917 24.114 67.8637 24.408 66.9957 24.408C65.5257 24.408 64.4757 23.54 64.3077 22.238H70.3277C70.3417 22.112 70.3557 21.944 70.3557 21.832ZM66.6877 19.144C67.9897 19.144 68.9277 20.026 69.0677 21.272H64.3077C64.4477 20.012 65.3997 19.144 66.6877 19.144Z" fill="black" fill-opacity="0.6"/>
<path d="M86.352 21.234H84.616V19.26H82.908V21.234H79.702L84.252 15.2H82.306L77.476 21.514V22.774H82.852V25H84.616V22.774H86.352V21.234ZM88.4834 25.098C89.1134 25.098 89.6314 24.608 89.6314 23.936C89.6314 23.236 89.1134 22.774 88.4834 22.774C87.8534 22.774 87.3354 23.236 87.3354 23.936C87.3354 24.608 87.8534 25.098 88.4834 25.098ZM99.477 21.234H97.741V19.26H96.033V21.234H92.827L97.377 15.2H95.431L90.601 21.514V22.774H95.977V25H97.741V22.774H99.477V21.234Z" fill="#062526"/>
<defs>
<clipPath id="clip0_5812_47127">
<rect width="24" height="24" fill="white" transform="translate(15 8)"/>
</clipPath>
</defs>
</svg>
