<svg width="402" height="171" viewBox="0 0 402 171" fill="none" xmlns="http://www.w3.org/2000/svg">
<g filter="url(#filter0_d_6665_57286)">
<rect x="20" y="20" width="361.379" height="131" rx="20.3276" fill="#FCFDFF"/>
<path opacity="0.5" d="M44.472 56.451C43.6183 56.451 42.8458 56.3561 42.1547 56.1664C41.4771 55.9631 40.9012 55.6853 40.4268 55.3329C39.9661 54.967 39.607 54.5334 39.3495 54.032C39.1056 53.517 38.9836 52.9478 38.9836 52.3245C38.9836 51.5249 39.2275 50.8134 39.7154 50.1901C40.2032 49.5531 40.9283 49.1059 41.8904 48.8484C41.1722 48.6181 40.5759 48.2183 40.1016 47.6491C39.6273 47.0799 39.3901 46.4024 39.3901 45.6164C39.3901 45.0472 39.4986 44.5254 39.7154 44.0511C39.9458 43.5768 40.2778 43.1703 40.7114 42.8315C41.1451 42.4791 41.6736 42.2081 42.297 42.0184C42.9339 41.8287 43.6589 41.7338 44.472 41.7338C45.2851 41.7338 46.0034 41.8287 46.6268 42.0184C47.2637 42.2081 47.799 42.4791 48.2326 42.8315C48.6798 43.1703 49.0119 43.5768 49.2287 44.0511C49.4591 44.5254 49.5743 45.0472 49.5743 45.6164C49.5743 46.4024 49.3371 47.0732 48.8628 47.6288C48.3885 48.1709 47.7854 48.5774 47.0536 48.8484C48.9915 49.4447 49.9605 50.6034 49.9605 52.3245C49.9605 52.9478 49.8317 53.517 49.5743 54.032C49.3303 54.5334 48.9712 54.967 48.4969 55.3329C48.0361 55.6853 47.467 55.9631 46.7894 56.1664C46.1118 56.3561 45.3393 56.451 44.472 56.451ZM44.472 53.8897C45.3122 53.8897 45.9288 53.7271 46.3218 53.4018C46.7148 53.0766 46.9113 52.6362 46.9113 52.0805C46.9113 51.4707 46.681 50.9896 46.2202 50.6373C45.773 50.2714 45.1903 50.0342 44.472 49.9258C43.7538 50.0342 43.1643 50.2714 42.7035 50.6373C42.2563 50.9896 42.0327 51.4707 42.0327 52.0805C42.0327 52.6362 42.236 53.0766 42.6426 53.4018C43.0491 53.7271 43.6589 53.8897 44.472 53.8897ZM44.472 47.8524C45.0819 47.744 45.5765 47.5339 45.956 47.2222C46.3354 46.897 46.5251 46.4498 46.5251 45.8806C46.5251 45.3521 46.3422 44.9591 45.9763 44.7016C45.6239 44.4306 45.1225 44.2951 44.472 44.2951C43.8351 44.2951 43.3337 44.4306 42.9678 44.7016C42.6155 44.9591 42.4393 45.3521 42.4393 45.8806C42.4393 46.4498 42.6222 46.897 42.9881 47.2222C43.3676 47.5339 43.8622 47.744 44.472 47.8524ZM56.8695 56.451C55.5143 56.451 54.4234 56.1596 53.5967 55.5769C52.7701 54.9942 52.2687 54.0862 52.0925 52.853H54.9384C55.0739 53.2053 55.2907 53.4696 55.5888 53.6458C55.9005 53.8084 56.3613 53.8897 56.9711 53.8897C57.337 53.8897 57.6758 53.8355 57.9875 53.7271C58.3127 53.6051 58.5973 53.395 58.8413 53.0969C59.0852 52.7852 59.2817 52.3651 59.4308 51.8366C59.5798 51.3081 59.6747 50.6305 59.7153 49.8038C59.5392 50.0749 59.3223 50.3053 59.0649 50.495C58.8074 50.6712 58.5228 50.8202 58.2111 50.9422C57.913 51.0506 57.5945 51.1319 57.2557 51.1861C56.9305 51.2403 56.5984 51.2674 56.2597 51.2674C54.8232 51.2674 53.7187 50.8812 52.9463 50.1088C52.1738 49.3228 51.7876 48.2183 51.7876 46.7954V46.5718C51.7876 45.8535 51.9163 45.1963 52.1738 44.6C52.4313 44.0037 52.7836 43.4955 53.2308 43.0754C53.6916 42.6418 54.2404 42.3097 54.8774 42.0794C55.5143 41.849 56.2122 41.7338 56.9711 41.7338C58.7735 41.7338 60.1558 42.2623 61.1179 43.3193C62.0801 44.3764 62.5612 46.0974 62.5612 48.4825V48.8688C62.5612 50.2375 62.4189 51.4029 62.1343 52.3651C61.8497 53.3137 61.45 54.093 60.935 54.7028C60.4336 55.3126 59.8305 55.7598 59.1258 56.0444C58.4347 56.3154 57.6826 56.451 56.8695 56.451ZM57.1744 48.9094C57.9062 48.9094 58.4754 48.7062 58.8819 48.2996C59.302 47.893 59.5121 47.3645 59.5121 46.714V46.5108C59.5121 45.8738 59.2952 45.3453 58.8616 44.9252C58.4415 44.5051 57.8791 44.2951 57.1744 44.2951C56.4426 44.2951 55.8667 44.5051 55.4466 44.9252C55.04 45.3318 54.8367 45.8603 54.8367 46.5108V46.714C54.8367 47.3645 55.04 47.893 55.4466 48.2996C55.8667 48.7062 56.4426 48.9094 57.1744 48.9094ZM70.0824 56.451C69.31 56.451 68.5849 56.329 67.9074 56.0851C67.2433 55.8276 66.6674 55.4143 66.1795 54.8451C65.6917 54.2624 65.3054 53.5035 65.0208 52.5684C64.7363 51.6198 64.594 50.4611 64.594 49.0924V48.6858C64.594 47.412 64.7363 46.3346 65.0208 45.4537C65.3054 44.5729 65.6917 43.8614 66.1795 43.3193C66.6674 42.7637 67.2433 42.3639 67.9074 42.12C68.5849 41.8625 69.31 41.7338 70.0824 41.7338C70.8549 41.7338 71.5731 41.8625 72.2371 42.12C72.9147 42.3639 73.4974 42.7637 73.9853 43.3193C74.4732 43.8614 74.8594 44.5729 75.144 45.4537C75.4286 46.3346 75.5709 47.412 75.5709 48.6858V49.0924C75.5709 50.4611 75.4286 51.6198 75.144 52.5684C74.8594 53.5035 74.4732 54.2624 73.9853 54.8451C73.4974 55.4143 72.9147 55.8276 72.2371 56.0851C71.5731 56.329 70.8549 56.451 70.0824 56.451ZM70.0824 53.8897C70.4212 53.8897 70.7397 53.8219 71.0378 53.6864C71.336 53.5509 71.5934 53.307 71.8103 52.9546C72.0406 52.5887 72.2168 52.0941 72.3388 51.4707C72.4607 50.8473 72.5217 50.0545 72.5217 49.0924V48.6858C72.5217 47.8185 72.4607 47.107 72.3388 46.5514C72.2168 45.9823 72.0406 45.535 71.8103 45.2098C71.5934 44.871 71.336 44.6339 71.0378 44.4983C70.7397 44.3628 70.4212 44.2951 70.0824 44.2951C69.7301 44.2951 69.4048 44.3628 69.1067 44.4983C68.8221 44.6339 68.5646 44.871 68.3342 45.2098C68.1174 45.535 67.948 45.9823 67.8261 46.5514C67.7041 47.107 67.6431 47.8185 67.6431 48.6858V49.0924C67.6431 50.0545 67.7041 50.8473 67.8261 51.4707C67.948 52.0941 68.1174 52.5887 68.3342 52.9546C68.5646 53.307 68.8221 53.5509 69.1067 53.6864C69.4048 53.8219 69.7301 53.8897 70.0824 53.8897ZM88.1668 56.451C87.3944 56.451 86.6694 56.329 85.9918 56.0851C85.3277 55.8276 84.7518 55.4143 84.2639 54.8451C83.7761 54.2624 83.3898 53.5035 83.1053 52.5684C82.8207 51.6198 82.6784 50.4611 82.6784 49.0924V48.6858C82.6784 47.412 82.8207 46.3346 83.1053 45.4537C83.3898 44.5729 83.7761 43.8614 84.2639 43.3193C84.7518 42.7637 85.3277 42.3639 85.9918 42.12C86.6694 41.8625 87.3944 41.7338 88.1668 41.7338C88.9393 41.7338 89.6575 41.8625 90.3215 42.12C90.9991 42.3639 91.5819 42.7637 92.0697 43.3193C92.5576 43.8614 92.9438 44.5729 93.2284 45.4537C93.513 46.3346 93.6553 47.412 93.6553 48.6858V49.0924C93.6553 50.4611 93.513 51.6198 93.2284 52.5684C92.9438 53.5035 92.5576 54.2624 92.0697 54.8451C91.5819 55.4143 90.9991 55.8276 90.3215 56.0851C89.6575 56.329 88.9393 56.451 88.1668 56.451ZM88.1668 53.8897C88.5056 53.8897 88.8241 53.8219 89.1222 53.6864C89.4204 53.5509 89.6778 53.307 89.8947 52.9546C90.125 52.5887 90.3012 52.0941 90.4232 51.4707C90.5452 50.8473 90.6061 50.0545 90.6061 49.0924V48.6858C90.6061 47.8185 90.5452 47.107 90.4232 46.5514C90.3012 45.9823 90.125 45.535 89.8947 45.2098C89.6778 44.871 89.4204 44.6339 89.1222 44.4983C88.8241 44.3628 88.5056 44.2951 88.1668 44.2951C87.8145 44.2951 87.4892 44.3628 87.1911 44.4983C86.9065 44.6339 86.649 44.871 86.4187 45.2098C86.2018 45.535 86.0324 45.9823 85.9105 46.5514C85.7885 47.107 85.7275 47.8185 85.7275 48.6858V49.0924C85.7275 50.0545 85.7885 50.8473 85.9105 51.4707C86.0324 52.0941 86.2018 52.5887 86.4187 52.9546C86.649 53.307 86.9065 53.5509 87.1911 53.6864C87.4892 53.8219 87.8145 53.8897 88.1668 53.8897ZM101.169 56.451C100.397 56.451 99.6719 56.329 98.9943 56.0851C98.3302 55.8276 97.7543 55.4143 97.2664 54.8451C96.7786 54.2624 96.3924 53.5035 96.1078 52.5684C95.8232 51.6198 95.6809 50.4611 95.6809 49.0924V48.6858C95.6809 47.412 95.8232 46.3346 96.1078 45.4537C96.3924 44.5729 96.7786 43.8614 97.2664 43.3193C97.7543 42.7637 98.3302 42.3639 98.9943 42.12C99.6719 41.8625 100.397 41.7338 101.169 41.7338C101.942 41.7338 102.66 41.8625 103.324 42.12C104.002 42.3639 104.584 42.7637 105.072 43.3193C105.56 43.8614 105.946 44.5729 106.231 45.4537C106.515 46.3346 106.658 47.412 106.658 48.6858V49.0924C106.658 50.4611 106.515 51.6198 106.231 52.5684C105.946 53.5035 105.56 54.2624 105.072 54.8451C104.584 55.4143 104.002 55.8276 103.324 56.0851C102.66 56.329 101.942 56.451 101.169 56.451ZM101.169 53.8897C101.508 53.8897 101.827 53.8219 102.125 53.6864C102.423 53.5509 102.68 53.307 102.897 52.9546C103.128 52.5887 103.304 52.0941 103.426 51.4707C103.548 50.8473 103.609 50.0545 103.609 49.0924V48.6858C103.609 47.8185 103.548 47.107 103.426 46.5514C103.304 45.9823 103.128 45.535 102.897 45.2098C102.68 44.871 102.423 44.6339 102.125 44.4983C101.827 44.3628 101.508 44.2951 101.169 44.2951C100.817 44.2951 100.492 44.3628 100.194 44.4983C99.909 44.6339 99.6515 44.871 99.4212 45.2098C99.2043 45.535 99.0349 45.9823 98.913 46.5514C98.791 47.107 98.73 47.8185 98.73 48.6858V49.0924C98.73 50.0545 98.791 50.8473 98.913 51.4707C99.0349 52.0941 99.2043 52.5887 99.4212 52.9546C99.6515 53.307 99.909 53.5509 100.194 53.6864C100.492 53.8219 100.817 53.8897 101.169 53.8897ZM114.172 56.451C113.399 56.451 112.674 56.329 111.997 56.0851C111.333 55.8276 110.757 55.4143 110.269 54.8451C109.781 54.2624 109.395 53.5035 109.11 52.5684C108.826 51.6198 108.683 50.4611 108.683 49.0924V48.6858C108.683 47.412 108.826 46.3346 109.11 45.4537C109.395 44.5729 109.781 43.8614 110.269 43.3193C110.757 42.7637 111.333 42.3639 111.997 42.12C112.674 41.8625 113.399 41.7338 114.172 41.7338C114.944 41.7338 115.663 41.8625 116.327 42.12C117.004 42.3639 117.587 42.7637 118.075 43.3193C118.563 43.8614 118.949 44.5729 119.233 45.4537C119.518 46.3346 119.66 47.412 119.66 48.6858V49.0924C119.66 50.4611 119.518 51.6198 119.233 52.5684C118.949 53.5035 118.563 54.2624 118.075 54.8451C117.587 55.4143 117.004 55.8276 116.327 56.0851C115.663 56.329 114.944 56.451 114.172 56.451ZM114.172 53.8897C114.511 53.8897 114.829 53.8219 115.127 53.6864C115.425 53.5509 115.683 53.307 115.9 52.9546C116.13 52.5887 116.306 52.0941 116.428 51.4707C116.55 50.8473 116.611 50.0545 116.611 49.0924V48.6858C116.611 47.8185 116.55 47.107 116.428 46.5514C116.306 45.9823 116.13 45.535 115.9 45.2098C115.683 44.871 115.425 44.6339 115.127 44.4983C114.829 44.3628 114.511 44.2951 114.172 44.2951C113.819 44.2951 113.494 44.3628 113.196 44.4983C112.912 44.6339 112.654 44.871 112.424 45.2098C112.207 45.535 112.037 45.9823 111.915 46.5514C111.794 47.107 111.733 47.8185 111.733 48.6858V49.0924C111.733 50.0545 111.794 50.8473 111.915 51.4707C112.037 52.0941 112.207 52.5887 112.424 52.9546C112.654 53.307 112.912 53.5509 113.196 53.6864C113.494 53.8219 113.819 53.8897 114.172 53.8897ZM127.987 54.4182H126.158V52.3041H127.987V51.1251H126.158V48.6045H127.987V41.9777H133.069C133.937 41.9777 134.696 42.0861 135.346 42.303C136.01 42.5198 136.566 42.8315 137.013 43.238C137.46 43.631 137.792 44.1121 138.009 44.6813C138.239 45.2369 138.355 45.8603 138.355 46.5514C138.355 47.2426 138.239 47.8727 138.009 48.4419C137.792 48.9975 137.46 49.4786 137.013 49.8852C136.566 50.2782 136.01 50.5831 135.346 50.7999C134.696 51.0167 133.937 51.1251 133.069 51.1251H131.037V52.3041H135.509V54.4182H131.037V56.207H127.987V54.4182ZM132.764 48.6045C133.659 48.6045 134.303 48.4283 134.696 48.076C135.102 47.7101 135.305 47.2019 135.305 46.5514C135.305 45.9009 135.116 45.3995 134.736 45.0472C134.357 44.6813 133.7 44.4983 132.764 44.4983H131.037V48.6045H132.764Z" fill="#2261EB"/>
<path opacity="0.6" d="M38.9723 67.4805H41.5697C42.3075 67.4805 42.8496 67.6348 43.1959 67.9435C43.5422 68.2446 43.7154 68.6361 43.7154 69.118C43.7154 69.246 43.6928 69.3777 43.6476 69.5132C43.6025 69.6412 43.5385 69.7617 43.4557 69.8746C43.3804 69.9875 43.2863 70.0854 43.1733 70.1682C43.0679 70.251 42.9475 70.315 42.812 70.3602C43.1809 70.4506 43.4594 70.6237 43.6476 70.8797C43.8434 71.1281 43.9413 71.4218 43.9413 71.7606C43.9413 72.28 43.7681 72.6941 43.4218 73.0028C43.0755 73.3115 42.5334 73.4658 41.7956 73.4658H38.9723V67.4805ZM41.7956 72.585C42.2172 72.585 42.5146 72.5097 42.6877 72.3591C42.8609 72.2085 42.9475 71.994 42.9475 71.7154C42.9475 71.4293 42.8609 71.211 42.6877 71.0604C42.5146 70.9023 42.2172 70.8232 41.7956 70.8232H39.9661V72.585H41.7956ZM41.5697 70.0101C41.9988 70.0101 42.2962 69.9348 42.4619 69.7843C42.635 69.6337 42.7216 69.4267 42.7216 69.1631C42.7216 68.9147 42.635 68.719 42.4619 68.5759C42.2962 68.4329 41.9988 68.3613 41.5697 68.3613H39.9661V70.0101H41.5697ZM45.3578 67.4805H46.3515V69.7391H47.5599C48.3128 69.7391 48.8661 69.9047 49.22 70.236C49.5814 70.5673 49.7621 71.0265 49.7621 71.6138C49.7621 72.1859 49.5814 72.6377 49.22 72.9689C48.8661 73.3002 48.3128 73.4658 47.5599 73.4658H45.3578V67.4805ZM47.5034 72.585C47.9702 72.585 48.2977 72.5021 48.4859 72.3365C48.6742 72.1709 48.7683 71.9262 48.7683 71.6025C48.7683 71.2787 48.6742 71.034 48.4859 70.8684C48.2977 70.7028 47.9702 70.62 47.5034 70.62H46.3515V72.585H47.5034ZM50.6881 67.4805H51.6819V73.4658H50.6881V67.4805ZM53.4857 67.4805H54.4117V68.6098C54.615 68.2108 54.8973 67.9058 55.2587 67.695C55.6276 67.4767 56.053 67.3675 56.5348 67.3675C57.2877 67.3675 57.89 67.616 58.3417 68.1129C58.7935 68.6023 59.0193 69.3325 59.0193 70.3038V70.5296C59.0193 71.0416 58.9591 71.4895 58.8386 71.8735C58.7182 72.2499 58.5488 72.5661 58.3304 72.8221C58.1121 73.0706 57.8486 73.2588 57.5399 73.3868C57.2388 73.5148 56.9037 73.5788 56.5348 73.5788C56.0229 73.5788 55.5937 73.4658 55.2474 73.24C54.9086 73.0141 54.6527 72.7318 54.4795 72.393V75.7244H53.4857V67.4805ZM56.309 72.6979C56.5499 72.6979 56.7758 72.6527 56.9866 72.5624C57.1974 72.4645 57.3781 72.3252 57.5286 72.1445C57.6867 71.9638 57.8072 71.738 57.89 71.4669C57.9804 71.1959 58.0255 70.8835 58.0255 70.5296V70.3038C58.0255 69.98 57.9804 69.6902 57.89 69.4342C57.8072 69.1782 57.6867 68.9636 57.5286 68.7905C57.3781 68.6098 57.1974 68.4743 56.9866 68.3839C56.7758 68.2936 56.5499 68.2484 56.309 68.2484C56.0379 68.2484 55.7895 68.2936 55.5636 68.3839C55.3378 68.4667 55.1458 68.5872 54.9877 68.7453C54.8296 68.8959 54.7054 69.0766 54.615 69.2874C54.5247 69.4982 54.4795 69.724 54.4795 69.965V70.8684C54.4795 71.1394 54.5247 71.3879 54.615 71.6138C54.7054 71.8396 54.8296 72.0316 54.9877 72.1897C55.1458 72.3478 55.3378 72.472 55.5636 72.5624C55.7895 72.6527 56.0379 72.6979 56.309 72.6979ZM61.0036 75.8374C60.8906 75.8374 60.7777 75.8261 60.6648 75.8035V74.9C60.7777 74.9226 60.8906 74.9339 61.0036 74.9339C61.1165 74.9339 61.2144 74.9151 61.2972 74.8775C61.38 74.8398 61.459 74.7683 61.5343 74.6629C61.6096 74.5575 61.6887 74.4069 61.7715 74.2112C61.8618 74.0229 61.9635 73.7745 62.0764 73.4658L59.5355 67.4805H60.6422L62.5846 72.3365L64.3463 67.4805H65.4079L63.1492 73.4658C62.9911 73.8874 62.8406 74.2488 62.6975 74.55C62.5545 74.8511 62.4001 75.0958 62.2345 75.284C62.0764 75.4798 61.8995 75.619 61.7037 75.7019C61.508 75.7922 61.2746 75.8374 61.0036 75.8374ZM70.1096 71.083C69.9364 71.1884 69.7256 71.2825 69.4772 71.3653C69.2363 71.4481 68.9313 71.4895 68.5624 71.4895C68.2161 71.4895 67.9037 71.4519 67.6251 71.3766C67.3541 71.3013 67.1244 71.1808 66.9362 71.0152C66.748 70.8496 66.605 70.635 66.5071 70.3715C66.4092 70.108 66.3603 69.7843 66.3603 69.4003V67.4805H67.3541V69.2309C67.3541 69.4869 67.3767 69.7015 67.4218 69.8746C67.4745 70.0478 67.5573 70.1871 67.6703 70.2925C67.7832 70.3979 67.9263 70.4731 68.0994 70.5183C68.2726 70.5635 68.4834 70.5861 68.7318 70.5861C69.0706 70.5861 69.3605 70.5522 69.6014 70.4844C69.8423 70.4167 70.0117 70.3452 70.1096 70.2699V67.4805H71.1034V73.4658H70.1096V71.083ZM72.9068 67.4805H73.9005V69.9875H74.6911L76.9271 67.4805H78.1016L75.5042 70.3489L78.2145 73.4658H76.9497L74.6911 70.8458H73.9005V73.4658H72.9068V67.4805ZM80.9975 73.5788C80.6662 73.5788 80.3726 73.5336 80.1166 73.4432C79.8682 73.3454 79.6574 73.2136 79.4842 73.048C79.311 72.8823 79.1793 72.6866 79.0889 72.4607C78.9986 72.2349 78.9534 71.9864 78.9534 71.7154C78.9534 71.1206 79.1266 70.6915 79.4729 70.428C79.8267 70.1645 80.3312 70.0327 80.9862 70.0327H82.9286V69.6262C82.9286 69.1142 82.8119 68.7604 82.5785 68.5646C82.3526 68.3689 82.0101 68.271 81.5508 68.271C81.1217 68.271 80.8092 68.3538 80.6135 68.5194C80.4178 68.6775 80.3086 68.8582 80.286 69.0615H79.2922C79.3073 68.8206 79.3713 68.5985 79.4842 68.3952C79.6047 68.1844 79.7628 68.0037 79.9585 67.8531C80.1618 67.7026 80.4027 67.5859 80.6813 67.5031C80.9598 67.4127 81.2685 67.3675 81.6073 67.3675C82.315 67.3675 82.8759 67.5369 83.29 67.8757C83.7116 68.207 83.9224 68.7528 83.9224 69.5132V71.9413C83.9224 72.2575 83.9224 72.536 83.9224 72.7769C83.9299 73.0103 83.9487 73.24 83.9788 73.4658H83.1093C83.0867 73.2927 83.0716 73.1308 83.0641 72.9802C83.0566 72.8221 83.0528 72.6452 83.0528 72.4494C82.8947 72.7656 82.6387 73.0329 82.2849 73.2513C81.931 73.4696 81.5019 73.5788 80.9975 73.5788ZM81.212 72.6753C81.4454 72.6753 81.6638 72.6452 81.867 72.585C82.0778 72.5172 82.2623 72.4231 82.4204 72.3026C82.5785 72.1746 82.7027 72.0203 82.7931 71.8396C82.8834 71.6589 82.9286 71.4481 82.9286 71.2072V70.8006H81.1556C80.7867 70.8006 80.4968 70.8759 80.286 71.0265C80.0752 71.1696 79.9698 71.3992 79.9698 71.7154C79.9698 71.994 80.0677 72.2236 80.2634 72.4043C80.4667 72.585 80.7829 72.6753 81.212 72.6753ZM90.9854 73.5788C90.6015 73.5788 90.2363 73.5185 89.89 73.3981C89.5437 73.2701 89.2388 73.0819 88.9753 72.8334C88.7117 72.5774 88.5009 72.2575 88.3428 71.8735C88.1847 71.4895 88.1057 71.0416 88.1057 70.5296V70.3038C88.1057 69.8219 88.1847 69.3965 88.3428 69.0276C88.5009 68.6587 88.7117 68.3538 88.9753 68.1129C89.2388 67.8644 89.5437 67.68 89.89 67.5595C90.2363 67.4315 90.6015 67.3675 90.9854 67.3675C91.3694 67.3675 91.7345 67.4315 92.0809 67.5595C92.4272 67.68 92.7321 67.8644 92.9956 68.1129C93.2591 68.3538 93.4699 68.6587 93.628 69.0276C93.7861 69.3965 93.8652 69.8219 93.8652 70.3038V70.5296C93.8652 71.0416 93.7861 71.4895 93.628 71.8735C93.4699 72.2575 93.2591 72.5774 92.9956 72.8334C92.7321 73.0819 92.4272 73.2701 92.0809 73.3981C91.7345 73.5185 91.3694 73.5788 90.9854 73.5788ZM90.9854 72.6753C91.2113 72.6753 91.4371 72.6377 91.663 72.5624C91.8889 72.4796 92.0884 72.3553 92.2615 72.1897C92.4347 72.0165 92.574 71.7944 92.6794 71.5234C92.7923 71.2524 92.8488 70.9211 92.8488 70.5296V70.3038C92.8488 69.9424 92.7923 69.6337 92.6794 69.3777C92.574 69.1217 92.4347 68.9109 92.2615 68.7453C92.0884 68.5797 91.8889 68.4592 91.663 68.3839C91.4371 68.3086 91.2113 68.271 90.9854 68.271C90.7596 68.271 90.5337 68.3086 90.3078 68.3839C90.082 68.4592 89.8825 68.5797 89.7093 68.7453C89.5361 68.9109 89.3931 69.1217 89.2802 69.3777C89.1748 69.6337 89.1221 69.9424 89.1221 70.3038V70.5296C89.1221 70.9211 89.1748 71.2524 89.2802 71.5234C89.3931 71.7944 89.5361 72.0165 89.7093 72.1897C89.8825 72.3553 90.082 72.4796 90.3078 72.5624C90.5337 72.6377 90.7596 72.6753 90.9854 72.6753ZM96.5286 68.3613H94.4845V67.4805H99.5664V68.3613H97.5224V73.4658H96.5286V68.3613ZM103.522 67.4805H108.491V73.4658H107.497V68.3613H104.515V73.4658H103.522V67.4805ZM110.293 67.4805H111.219V68.6098C111.422 68.2108 111.705 67.9058 112.066 67.695C112.435 67.4767 112.86 67.3675 113.342 67.3675C114.095 67.3675 114.697 67.616 115.149 68.1129C115.601 68.6023 115.827 69.3325 115.827 70.3038V70.5296C115.827 71.0416 115.766 71.4895 115.646 71.8735C115.526 72.2499 115.356 72.5661 115.138 72.8221C114.92 73.0706 114.656 73.2588 114.347 73.3868C114.046 73.5148 113.711 73.5788 113.342 73.5788C112.83 73.5788 112.401 73.4658 112.055 73.24C111.716 73.0141 111.46 72.7318 111.287 72.393V75.7244H110.293V67.4805ZM113.116 72.6979C113.357 72.6979 113.583 72.6527 113.794 72.5624C114.005 72.4645 114.185 72.3252 114.336 72.1445C114.494 71.9638 114.615 71.738 114.697 71.4669C114.788 71.1959 114.833 70.8835 114.833 70.5296V70.3038C114.833 69.98 114.788 69.6902 114.697 69.4342C114.615 69.1782 114.494 68.9636 114.336 68.7905C114.185 68.6098 114.005 68.4743 113.794 68.3839C113.583 68.2936 113.357 68.2484 113.116 68.2484C112.845 68.2484 112.597 68.2936 112.371 68.3839C112.145 68.4667 111.953 68.5872 111.795 68.7453C111.637 68.8959 111.513 69.0766 111.422 69.2874C111.332 69.4982 111.287 69.724 111.287 69.965V70.8684C111.287 71.1394 111.332 71.3879 111.422 71.6138C111.513 71.8396 111.637 72.0316 111.795 72.1897C111.953 72.3478 112.145 72.472 112.371 72.5624C112.597 72.6527 112.845 72.6979 113.116 72.6979ZM119.725 73.5788C119.342 73.5788 118.976 73.5185 118.63 73.3981C118.284 73.2701 117.979 73.0819 117.715 72.8334C117.452 72.5774 117.241 72.2575 117.083 71.8735C116.925 71.4895 116.846 71.0416 116.846 70.5296V70.3038C116.846 69.8219 116.925 69.3965 117.083 69.0276C117.241 68.6587 117.452 68.3538 117.715 68.1129C117.979 67.8644 118.284 67.68 118.63 67.5595C118.976 67.4315 119.342 67.3675 119.725 67.3675C120.109 67.3675 120.475 67.4315 120.821 67.5595C121.167 67.68 121.472 67.8644 121.736 68.1129C121.999 68.3538 122.21 68.6587 122.368 69.0276C122.526 69.3965 122.605 69.8219 122.605 70.3038V70.5296C122.605 71.0416 122.526 71.4895 122.368 71.8735C122.21 72.2575 121.999 72.5774 121.736 72.8334C121.472 73.0819 121.167 73.2701 120.821 73.3981C120.475 73.5185 120.109 73.5788 119.725 73.5788ZM119.725 72.6753C119.951 72.6753 120.177 72.6377 120.403 72.5624C120.629 72.4796 120.828 72.3553 121.002 72.1897C121.175 72.0165 121.314 71.7944 121.419 71.5234C121.532 71.2524 121.589 70.9211 121.589 70.5296V70.3038C121.589 69.9424 121.532 69.6337 121.419 69.3777C121.314 69.1217 121.175 68.9109 121.002 68.7453C120.828 68.5797 120.629 68.4592 120.403 68.3839C120.177 68.3086 119.951 68.271 119.725 68.271C119.5 68.271 119.274 68.3086 119.048 68.3839C118.822 68.4592 118.623 68.5797 118.449 68.7453C118.276 68.9109 118.133 69.1217 118.02 69.3777C117.915 69.6337 117.862 69.9424 117.862 70.3038V70.5296C117.862 70.9211 117.915 71.2524 118.02 71.5234C118.133 71.7944 118.276 72.0165 118.449 72.1897C118.623 72.3553 118.822 72.4796 119.048 72.5624C119.274 72.6377 119.5 72.6753 119.725 72.6753ZM123.225 72.585H123.959C124.041 72.472 124.117 72.2989 124.185 72.0655C124.252 71.8321 124.312 71.5573 124.365 71.2411C124.418 70.9249 124.456 70.5823 124.478 70.2134C124.508 69.837 124.523 69.453 124.523 69.0615V67.4805H128.702V72.585H129.549V74.8775H128.6V73.4658H124.173V74.8775H123.225V72.585ZM127.708 72.585V68.3613H125.495V69.2874C125.495 69.6036 125.483 69.9198 125.461 70.236C125.438 70.5447 125.404 70.8421 125.359 71.1281C125.314 71.4067 125.257 71.674 125.19 71.93C125.129 72.1784 125.058 72.3967 124.975 72.585H127.708ZM132.555 73.5788C132.224 73.5788 131.93 73.5336 131.674 73.4432C131.426 73.3454 131.215 73.2136 131.042 73.048C130.869 72.8823 130.737 72.6866 130.647 72.4607C130.556 72.2349 130.511 71.9864 130.511 71.7154C130.511 71.1206 130.684 70.6915 131.031 70.428C131.385 70.1645 131.889 70.0327 132.544 70.0327H134.486V69.6262C134.486 69.1142 134.37 68.7604 134.136 68.5646C133.911 68.3689 133.568 68.271 133.109 68.271C132.68 68.271 132.367 68.3538 132.171 68.5194C131.976 68.6775 131.866 68.8582 131.844 69.0615H130.85C130.865 68.8206 130.929 68.5985 131.042 68.3952C131.163 68.1844 131.321 68.0037 131.516 67.8531C131.72 67.7026 131.961 67.5859 132.239 67.5031C132.518 67.4127 132.826 67.3675 133.165 67.3675C133.873 67.3675 134.434 67.5369 134.848 67.8757C135.269 68.207 135.48 68.7528 135.48 69.5132V71.9413C135.48 72.2575 135.48 72.536 135.48 72.7769C135.488 73.0103 135.507 73.24 135.537 73.4658H134.667C134.645 73.2927 134.63 73.1308 134.622 72.9802C134.614 72.8221 134.611 72.6452 134.611 72.4494C134.453 72.7656 134.197 73.0329 133.843 73.2513C133.489 73.4696 133.06 73.5788 132.555 73.5788ZM132.77 72.6753C133.003 72.6753 133.222 72.6452 133.425 72.585C133.636 72.5172 133.82 72.4231 133.978 72.3026C134.136 72.1746 134.261 72.0203 134.351 71.8396C134.441 71.6589 134.486 71.4481 134.486 71.2072V70.8006H132.713C132.345 70.8006 132.055 70.8759 131.844 71.0265C131.633 71.1696 131.528 71.3992 131.528 71.7154C131.528 71.994 131.626 72.2236 131.821 72.4043C132.025 72.585 132.341 72.6753 132.77 72.6753ZM138.873 70.3828L136.727 67.4805H137.834L139.664 69.9875H140.352V67.4805H141.346V69.9875H142.024L143.887 67.4805H144.971L142.826 70.3489L145.084 73.4658H143.91L142.024 70.8458H141.346V73.4658H140.352V70.8458H139.664L137.766 73.4658H136.614L138.873 70.3828Z" fill="#1F1F25"/>
<path opacity="0.5" d="M44.1671 114.779C43.2592 114.779 42.4867 114.663 41.8498 114.433C41.2264 114.203 40.7114 113.898 40.3049 113.518C39.8983 113.125 39.5934 112.678 39.3901 112.177C39.2004 111.662 39.0988 111.126 39.0852 110.571H42.1344C42.175 111.059 42.358 111.458 42.6832 111.77C43.022 112.068 43.5166 112.217 44.1671 112.217C45.6578 112.217 46.4032 111.377 46.4032 109.697C46.4032 109.249 46.3422 108.87 46.2202 108.558C46.0982 108.247 45.9356 107.996 45.7323 107.806C45.5291 107.617 45.2919 107.481 45.0209 107.4C44.7498 107.305 44.4653 107.257 44.1671 107.257C43.6928 107.257 43.2998 107.345 42.9881 107.522C42.6764 107.698 42.4257 107.935 42.236 108.233H39.3901V100.305H48.6595V102.826H42.4393V105.428C42.7239 105.17 43.0694 104.987 43.476 104.879C43.8961 104.757 44.3636 104.696 44.8786 104.696C45.5697 104.696 46.1931 104.805 46.7487 105.021C47.3179 105.225 47.799 105.536 48.192 105.956C48.5985 106.377 48.9102 106.898 49.1271 107.522C49.3439 108.145 49.4523 108.863 49.4523 109.676C49.4523 110.449 49.3236 111.154 49.0661 111.79C48.8221 112.414 48.4698 112.949 48.009 113.396C47.5483 113.844 46.9927 114.189 46.3422 114.433C45.6917 114.663 44.9667 114.779 44.1671 114.779ZM56.6607 114.779C55.8069 114.779 55.0344 114.684 54.3433 114.494C53.6657 114.291 53.0898 114.013 52.6155 113.661C52.1547 113.295 51.7956 112.861 51.5381 112.36C51.2942 111.845 51.1722 111.275 51.1722 110.652C51.1722 109.853 51.4161 109.141 51.904 108.518C52.3919 107.881 53.1169 107.434 54.079 107.176C53.3608 106.946 52.7645 106.546 52.2902 105.977C51.8159 105.408 51.5788 104.73 51.5788 103.944C51.5788 103.375 51.6872 102.853 51.904 102.379C52.1344 101.904 52.4664 101.498 52.9 101.159C53.3337 100.807 53.8622 100.536 54.4856 100.346C55.1225 100.156 55.8475 100.061 56.6607 100.061C57.4738 100.061 58.192 100.156 58.8154 100.346C59.4523 100.536 59.9876 100.807 60.4213 101.159C60.8685 101.498 61.2005 101.904 61.4173 102.379C61.6477 102.853 61.7629 103.375 61.7629 103.944C61.7629 104.73 61.5257 105.401 61.0514 105.956C60.5771 106.498 59.974 106.905 59.2423 107.176C61.1802 107.772 62.1491 108.931 62.1491 110.652C62.1491 111.275 62.0204 111.845 61.7629 112.36C61.5189 112.861 61.1598 113.295 60.6855 113.661C60.2248 114.013 59.6556 114.291 58.978 114.494C58.3004 114.684 57.528 114.779 56.6607 114.779ZM56.6607 112.217C57.5009 112.217 58.1175 112.055 58.5105 111.729C58.9035 111.404 59.1 110.964 59.1 110.408C59.1 109.798 58.8696 109.317 58.4088 108.965C57.9616 108.599 57.3789 108.362 56.6607 108.253C55.9424 108.362 55.3529 108.599 54.8921 108.965C54.4449 109.317 54.2213 109.798 54.2213 110.408C54.2213 110.964 54.4246 111.404 54.8312 111.729C55.2377 112.055 55.8475 112.217 56.6607 112.217ZM56.6607 106.18C57.2705 106.072 57.7651 105.862 58.1446 105.55C58.524 105.225 58.7137 104.777 58.7137 104.208C58.7137 103.68 58.5308 103.287 58.1649 103.029C57.8125 102.758 57.3111 102.623 56.6607 102.623C56.0237 102.623 55.5223 102.758 55.1564 103.029C54.8041 103.287 54.6279 103.68 54.6279 104.208C54.6279 104.777 54.8108 105.225 55.1767 105.55C55.5562 105.862 56.0508 106.072 56.6607 106.18ZM75.0547 100.305H77.9006L68.1434 114.535H65.2975L75.0547 100.305ZM66.9237 107.054C66.3952 107.054 65.9209 106.973 65.5008 106.81C65.0807 106.648 64.7148 106.417 64.4031 106.119C64.1049 105.821 63.8746 105.469 63.7119 105.062C63.5493 104.642 63.468 104.174 63.468 103.659V103.456C63.468 102.955 63.5493 102.494 63.7119 102.074C63.8746 101.654 64.1049 101.295 64.4031 100.996C64.7148 100.698 65.0807 100.468 65.5008 100.305C65.9209 100.143 66.3952 100.061 66.9237 100.061C67.4522 100.061 67.9265 100.143 68.3466 100.305C68.7667 100.468 69.1259 100.698 69.424 100.996C69.7357 101.295 69.9728 101.654 70.1355 102.074C70.2981 102.494 70.3794 102.955 70.3794 103.456V103.659C70.3794 104.174 70.2981 104.642 70.1355 105.062C69.9728 105.469 69.7357 105.821 69.424 106.119C69.1259 106.417 68.7667 106.648 68.3466 106.81C67.9265 106.973 67.4522 107.054 66.9237 107.054ZM66.9237 104.94C67.1947 104.94 67.4116 104.845 67.5742 104.655C67.7368 104.452 67.8181 104.12 67.8181 103.659V103.456C67.8181 102.995 67.7368 102.67 67.5742 102.48C67.4116 102.277 67.1947 102.175 66.9237 102.175C66.6527 102.175 66.4358 102.277 66.2732 102.48C66.1106 102.67 66.0293 102.995 66.0293 103.456V103.659C66.0293 104.12 66.1106 104.452 66.2732 104.655C66.4358 104.845 66.6527 104.94 66.9237 104.94ZM76.2744 114.758C75.7459 114.758 75.2716 114.677 74.8515 114.514C74.4314 114.352 74.0655 114.121 73.7538 113.823C73.4556 113.525 73.2253 113.173 73.0626 112.766C72.9 112.346 72.8187 111.879 72.8187 111.364V111.16C72.8187 110.659 72.9 110.198 73.0626 109.778C73.2253 109.358 73.4556 108.999 73.7538 108.701C74.0655 108.403 74.4314 108.172 74.8515 108.01C75.2716 107.847 75.7459 107.766 76.2744 107.766C76.8029 107.766 77.2772 107.847 77.6973 108.01C78.1174 108.172 78.4765 108.403 78.7747 108.701C79.0864 108.999 79.3235 109.358 79.4861 109.778C79.6488 110.198 79.7301 110.659 79.7301 111.16V111.364C79.7301 111.879 79.6488 112.346 79.4861 112.766C79.3235 113.173 79.0864 113.525 78.7747 113.823C78.4765 114.121 78.1174 114.352 77.6973 114.514C77.2772 114.677 76.8029 114.758 76.2744 114.758ZM76.2744 112.644C76.5454 112.644 76.7623 112.549 76.9249 112.36C77.0875 112.156 77.1688 111.824 77.1688 111.364V111.16C77.1688 110.7 77.0875 110.374 76.9249 110.185C76.7623 109.981 76.5454 109.88 76.2744 109.88C76.0034 109.88 75.7865 109.981 75.6239 110.185C75.4613 110.374 75.38 110.7 75.38 111.16V111.364C75.38 111.824 75.4613 112.156 75.6239 112.36C75.7865 112.549 76.0034 112.644 76.2744 112.644Z" fill="#2261EB"/>
<path opacity="0.6" d="M38.9723 125.808H40.0338L42.1682 129.535L44.3026 125.808H45.2964V131.793H44.3026V127.446L42.5296 130.495H41.7391L39.9661 127.446V131.793H38.9723V125.808ZM48.8055 131.906C48.4742 131.906 48.1806 131.861 47.9246 131.771C47.6762 131.673 47.4654 131.541 47.2922 131.376C47.1191 131.21 46.9873 131.014 46.897 130.788C46.8066 130.563 46.7614 130.314 46.7614 130.043C46.7614 129.448 46.9346 129.019 47.2809 128.756C47.6348 128.492 48.1392 128.36 48.7942 128.36H50.7366V127.954C50.7366 127.442 50.6199 127.088 50.3865 126.892C50.1607 126.697 49.8181 126.599 49.3589 126.599C48.9297 126.599 48.6173 126.681 48.4215 126.847C48.2258 127.005 48.1166 127.186 48.094 127.389H47.1002C47.1153 127.148 47.1793 126.926 47.2922 126.723C47.4127 126.512 47.5708 126.331 47.7665 126.181C47.9698 126.03 48.2107 125.914 48.4893 125.831C48.7679 125.74 49.0765 125.695 49.4153 125.695C50.123 125.695 50.6839 125.865 51.098 126.203C51.5196 126.535 51.7304 127.08 51.7304 127.841V130.269C51.7304 130.585 51.7304 130.864 51.7304 131.105C51.7379 131.338 51.7568 131.568 51.7869 131.793H50.9173C50.8947 131.62 50.8797 131.458 50.8721 131.308C50.8646 131.15 50.8608 130.973 50.8608 130.777C50.7027 131.093 50.4468 131.361 50.0929 131.579C49.7391 131.797 49.3099 131.906 48.8055 131.906ZM49.0201 131.003C49.2535 131.003 49.4718 130.973 49.6751 130.913C49.8859 130.845 50.0703 130.751 50.2284 130.63C50.3865 130.502 50.5108 130.348 50.6011 130.167C50.6915 129.987 50.7366 129.776 50.7366 129.535V129.128H48.9636C48.5947 129.128 48.3048 129.204 48.094 129.354C47.8832 129.497 47.7778 129.727 47.7778 130.043C47.7778 130.322 47.8757 130.551 48.0714 130.732C48.2747 130.913 48.5909 131.003 49.0201 131.003ZM53.4857 125.808H54.4117V126.937C54.615 126.538 54.8973 126.233 55.2587 126.023C55.6276 125.804 56.053 125.695 56.5348 125.695C57.2877 125.695 57.89 125.944 58.3417 126.441C58.7935 126.93 59.0193 127.66 59.0193 128.631V128.857C59.0193 129.369 58.9591 129.817 58.8386 130.201C58.7182 130.578 58.5488 130.894 58.3304 131.15C58.1121 131.398 57.8486 131.586 57.5399 131.714C57.2388 131.842 56.9037 131.906 56.5348 131.906C56.0229 131.906 55.5937 131.793 55.2474 131.568C54.9086 131.342 54.6527 131.059 54.4795 130.721V134.052H53.4857V125.808ZM56.309 131.026C56.5499 131.026 56.7758 130.98 56.9866 130.89C57.1974 130.792 57.3781 130.653 57.5286 130.472C57.6867 130.291 57.8072 130.066 57.89 129.795C57.9804 129.524 58.0255 129.211 58.0255 128.857V128.631C58.0255 128.308 57.9804 128.018 57.89 127.762C57.8072 127.506 57.6867 127.291 57.5286 127.118C57.3781 126.937 57.1974 126.802 56.9866 126.712C56.7758 126.621 56.5499 126.576 56.309 126.576C56.0379 126.576 55.7895 126.621 55.5636 126.712C55.3378 126.794 55.1458 126.915 54.9877 127.073C54.8296 127.224 54.7054 127.404 54.615 127.615C54.5247 127.826 54.4795 128.052 54.4795 128.293V129.196C54.4795 129.467 54.5247 129.716 54.615 129.941C54.7054 130.167 54.8296 130.359 54.9877 130.517C55.1458 130.675 55.3378 130.8 55.5636 130.89C55.7895 130.98 56.0379 131.026 56.309 131.026ZM61.8505 128.71L59.7048 125.808H60.8116L62.6411 128.315H63.3299V125.808H64.3237V128.315H65.0013L66.8647 125.808H67.9488L65.8031 128.677L68.0617 131.793H66.8873L65.0013 129.173H64.3237V131.793H63.3299V129.173H62.6411L60.7438 131.793H59.5919L61.8505 128.71ZM69.2453 125.808H70.2391V130.325L73.3334 125.808H74.3272V131.793H73.3334V127.276L70.2391 131.793H69.2453V125.808ZM76.1381 125.808H77.1319V128.304H80.2262V125.808H81.22V131.793H80.2262V129.185H77.1319V131.793H76.1381V125.808ZM84.7361 131.906C84.4048 131.906 84.1112 131.861 83.8552 131.771C83.6068 131.673 83.396 131.541 83.2228 131.376C83.0497 131.21 82.9179 131.014 82.8276 130.788C82.7372 130.563 82.6921 130.314 82.6921 130.043C82.6921 129.448 82.8652 129.019 83.2115 128.756C83.5654 128.492 84.0698 128.36 84.7248 128.36H86.6672V127.954C86.6672 127.442 86.5505 127.088 86.3171 126.892C86.0913 126.697 85.7487 126.599 85.2895 126.599C84.8603 126.599 84.5479 126.681 84.3521 126.847C84.1564 127.005 84.0472 127.186 84.0246 127.389H83.0308C83.0459 127.148 83.1099 126.926 83.2228 126.723C83.3433 126.512 83.5014 126.331 83.6971 126.181C83.9004 126.03 84.1413 125.914 84.4199 125.831C84.6985 125.74 85.0071 125.695 85.3459 125.695C86.0536 125.695 86.6145 125.865 87.0286 126.203C87.4502 126.535 87.661 127.08 87.661 127.841V130.269C87.661 130.585 87.661 130.864 87.661 131.105C87.6685 131.338 87.6874 131.568 87.7175 131.793H86.8479C86.8253 131.62 86.8103 131.458 86.8027 131.308C86.7952 131.15 86.7914 130.973 86.7914 130.777C86.6333 131.093 86.3774 131.361 86.0235 131.579C85.6697 131.797 85.2405 131.906 84.7361 131.906ZM84.9507 131.003C85.1841 131.003 85.4024 130.973 85.6057 130.913C85.8165 130.845 86.0009 130.751 86.159 130.63C86.3171 130.502 86.4414 130.348 86.5317 130.167C86.6221 129.987 86.6672 129.776 86.6672 129.535V129.128H84.8942C84.5253 129.128 84.2354 129.204 84.0246 129.354C83.8138 129.497 83.7084 129.727 83.7084 130.043C83.7084 130.322 83.8063 130.551 84.0021 130.732C84.2053 130.913 84.5215 131.003 84.9507 131.003ZM89.134 131.906C89.021 131.906 88.9081 131.895 88.7952 131.873V130.879C88.8328 130.886 88.8893 130.89 88.9646 130.89C89.1302 130.89 89.2733 130.837 89.3937 130.732C89.5217 130.627 89.6233 130.442 89.6986 130.179C89.7739 129.915 89.8304 129.557 89.868 129.106C89.9057 128.654 89.9245 128.082 89.9245 127.389V125.808H94.2159V131.793H93.2221V126.689H90.9183V127.615C90.9183 128.451 90.8806 129.143 90.8054 129.693C90.7301 130.243 90.6171 130.683 90.4666 131.014C90.3235 131.338 90.1391 131.568 89.9132 131.703C89.6873 131.839 89.4276 131.906 89.134 131.906ZM96.0223 125.808H97.0161V128.067H98.4503C99.2032 128.067 99.7566 128.232 100.11 128.564C100.472 128.895 100.652 129.354 100.652 129.941C100.652 130.514 100.472 130.965 100.11 131.297C99.7566 131.628 99.2032 131.793 98.4503 131.793H96.0223V125.808ZM98.3939 130.913C98.8607 130.913 99.1882 130.83 99.3764 130.664C99.5646 130.499 99.6587 130.254 99.6587 129.93C99.6587 129.606 99.5646 129.362 99.3764 129.196C99.1882 129.03 98.8607 128.948 98.3939 128.948H97.0161V130.913H98.3939ZM101.956 125.808H102.949V128.304H106.044V125.808H107.038V131.793H106.044V129.185H102.949V131.793H101.956V125.808ZM111.333 131.906C110.949 131.906 110.584 131.846 110.237 131.726C109.891 131.598 109.586 131.409 109.323 131.161C109.059 130.905 108.848 130.585 108.69 130.201C108.532 129.817 108.453 129.369 108.453 128.857V128.631C108.453 128.15 108.532 127.724 108.69 127.355C108.848 126.986 109.059 126.681 109.323 126.441C109.586 126.192 109.891 126.008 110.237 125.887C110.584 125.759 110.949 125.695 111.333 125.695C111.717 125.695 112.082 125.759 112.428 125.887C112.775 126.008 113.08 126.192 113.343 126.441C113.607 126.681 113.817 126.986 113.975 127.355C114.134 127.724 114.213 128.15 114.213 128.631V128.857C114.213 129.369 114.134 129.817 113.975 130.201C113.817 130.585 113.607 130.905 113.343 131.161C113.08 131.409 112.775 131.598 112.428 131.726C112.082 131.846 111.717 131.906 111.333 131.906ZM111.333 131.003C111.559 131.003 111.785 130.965 112.01 130.89C112.236 130.807 112.436 130.683 112.609 130.517C112.782 130.344 112.921 130.122 113.027 129.851C113.14 129.58 113.196 129.249 113.196 128.857V128.631C113.196 128.27 113.14 127.961 113.027 127.705C112.921 127.449 112.782 127.239 112.609 127.073C112.436 126.907 112.236 126.787 112.01 126.712C111.785 126.636 111.559 126.599 111.333 126.599C111.107 126.599 110.881 126.636 110.655 126.712C110.429 126.787 110.23 126.907 110.057 127.073C109.884 127.239 109.741 127.449 109.628 127.705C109.522 127.961 109.47 128.27 109.47 128.631V128.857C109.47 129.249 109.522 129.58 109.628 129.851C109.741 130.122 109.884 130.344 110.057 130.517C110.23 130.683 110.429 130.807 110.655 130.89C110.881 130.965 111.107 131.003 111.333 131.003ZM117.935 131.906C117.551 131.906 117.193 131.846 116.862 131.726C116.531 131.598 116.245 131.409 116.004 131.161C115.763 130.905 115.571 130.585 115.428 130.201C115.292 129.817 115.225 129.369 115.225 128.857V128.631C115.225 128.15 115.3 127.724 115.45 127.355C115.601 126.986 115.801 126.681 116.049 126.441C116.297 126.192 116.584 126.008 116.907 125.887C117.239 125.759 117.581 125.695 117.935 125.695C118.289 125.695 118.605 125.744 118.884 125.842C119.17 125.94 119.414 126.075 119.618 126.249C119.828 126.422 119.998 126.625 120.126 126.858C120.261 127.092 120.359 127.344 120.419 127.615H119.403C119.343 127.472 119.271 127.34 119.188 127.22C119.113 127.092 119.015 126.983 118.895 126.892C118.782 126.802 118.646 126.73 118.488 126.678C118.33 126.625 118.146 126.599 117.935 126.599C117.717 126.599 117.506 126.64 117.302 126.723C117.099 126.798 116.919 126.919 116.76 127.084C116.602 127.242 116.474 127.449 116.376 127.705C116.286 127.961 116.241 128.27 116.241 128.631V128.857C116.241 129.241 116.286 129.572 116.376 129.851C116.474 130.122 116.602 130.344 116.76 130.517C116.919 130.683 117.099 130.807 117.302 130.89C117.506 130.965 117.717 131.003 117.935 131.003C118.304 131.003 118.612 130.913 118.861 130.732C119.117 130.551 119.298 130.303 119.403 129.987H120.419C120.276 130.581 119.983 131.052 119.539 131.398C119.094 131.737 118.56 131.906 117.935 131.906ZM123.14 126.689H121.096V125.808H126.178V126.689H124.134V131.793H123.14V126.689ZM127.31 125.808H128.304V128.067H129.738C130.491 128.067 131.044 128.232 131.398 128.564C131.759 128.895 131.94 129.354 131.94 129.941C131.94 130.514 131.759 130.965 131.398 131.297C131.044 131.628 130.491 131.793 129.738 131.793H127.31V125.808ZM129.682 130.913C130.148 130.913 130.476 130.83 130.664 130.664C130.852 130.499 130.946 130.254 130.946 129.93C130.946 129.606 130.852 129.362 130.664 129.196C130.476 129.03 130.148 128.948 129.682 128.948H128.304V130.913H129.682ZM136.067 125.808H138.664C139.402 125.808 139.944 125.962 140.29 126.271C140.636 126.572 140.81 126.964 140.81 127.446C140.81 127.574 140.787 127.705 140.742 127.841C140.697 127.969 140.633 128.089 140.55 128.202C140.475 128.315 140.38 128.413 140.268 128.496C140.162 128.579 140.042 128.643 139.906 128.688C140.275 128.778 140.554 128.951 140.742 129.207C140.938 129.456 141.035 129.749 141.035 130.088C141.035 130.608 140.862 131.022 140.516 131.33C140.17 131.639 139.628 131.793 138.89 131.793H136.067V125.808ZM138.89 130.913C139.311 130.913 139.609 130.837 139.782 130.687C139.955 130.536 140.042 130.322 140.042 130.043C140.042 129.757 139.955 129.539 139.782 129.388C139.609 129.23 139.311 129.151 138.89 129.151H137.06V130.913H138.89ZM138.664 128.338C139.093 128.338 139.39 128.262 139.556 128.112C139.729 127.961 139.816 127.754 139.816 127.491C139.816 127.242 139.729 127.047 139.556 126.904C139.39 126.76 139.093 126.689 138.664 126.689H137.06V128.338H138.664ZM144.157 131.906C143.826 131.906 143.532 131.861 143.276 131.771C143.028 131.673 142.817 131.541 142.644 131.376C142.471 131.21 142.339 131.014 142.249 130.788C142.158 130.563 142.113 130.314 142.113 130.043C142.113 129.448 142.286 129.019 142.633 128.756C142.987 128.492 143.491 128.36 144.146 128.36H146.088V127.954C146.088 127.442 145.972 127.088 145.738 126.892C145.512 126.697 145.17 126.599 144.711 126.599C144.281 126.599 143.969 126.681 143.773 126.847C143.578 127.005 143.468 127.186 143.446 127.389H142.452C142.467 127.148 142.531 126.926 142.644 126.723C142.764 126.512 142.923 126.331 143.118 126.181C143.322 126.03 143.562 125.914 143.841 125.831C144.12 125.74 144.428 125.695 144.767 125.695C145.475 125.695 146.036 125.865 146.45 126.203C146.871 126.535 147.082 127.08 147.082 127.841V130.269C147.082 130.585 147.082 130.864 147.082 131.105C147.09 131.338 147.109 131.568 147.139 131.793H146.269C146.246 131.62 146.231 131.458 146.224 131.308C146.216 131.15 146.213 130.973 146.213 130.777C146.054 131.093 145.799 131.361 145.445 131.579C145.091 131.797 144.662 131.906 144.157 131.906ZM144.372 131.003C144.605 131.003 144.824 130.973 145.027 130.913C145.238 130.845 145.422 130.751 145.58 130.63C145.738 130.502 145.862 130.348 145.953 130.167C146.043 129.987 146.088 129.776 146.088 129.535V129.128H144.315C143.946 129.128 143.657 129.204 143.446 129.354C143.235 129.497 143.13 129.727 143.13 130.043C143.13 130.322 143.227 130.551 143.423 130.732C143.626 130.913 143.943 131.003 144.372 131.003ZM148.837 125.808H149.831V130.913H152.011V125.808H153.005V130.913H155.184V125.808H156.178V131.793H148.837V125.808ZM160.464 131.906C160.081 131.906 159.715 131.846 159.369 131.726C159.023 131.605 158.718 131.421 158.454 131.172C158.191 130.916 157.98 130.596 157.822 130.212C157.664 129.828 157.585 129.377 157.585 128.857V128.631C157.585 128.134 157.66 127.705 157.811 127.344C157.961 126.975 158.161 126.67 158.409 126.429C158.665 126.181 158.959 125.996 159.29 125.876C159.629 125.755 159.983 125.695 160.352 125.695C161.232 125.695 161.914 125.936 162.396 126.418C162.877 126.9 163.118 127.581 163.118 128.462V129.094H158.579C158.579 129.448 158.635 129.746 158.748 129.987C158.861 130.227 159.008 130.423 159.188 130.574C159.369 130.724 159.569 130.834 159.787 130.901C160.013 130.969 160.239 131.003 160.464 131.003C160.916 131.003 161.263 130.928 161.503 130.777C161.752 130.627 161.929 130.419 162.034 130.156H163.005C162.945 130.442 162.836 130.694 162.678 130.913C162.527 131.131 162.339 131.315 162.113 131.466C161.895 131.609 161.643 131.718 161.357 131.793C161.078 131.869 160.781 131.906 160.464 131.906ZM160.408 126.599C160.175 126.599 159.949 126.633 159.73 126.7C159.512 126.76 159.316 126.862 159.143 127.005C158.978 127.141 158.842 127.314 158.737 127.525C158.631 127.735 158.579 127.988 158.579 128.281H162.181C162.174 127.973 162.121 127.713 162.023 127.502C161.933 127.284 161.808 127.111 161.65 126.983C161.492 126.847 161.304 126.749 161.086 126.689C160.875 126.629 160.649 126.599 160.408 126.599ZM164.531 125.808H168.596V126.689H165.525V131.793H164.531V125.808ZM172.099 131.906C171.715 131.906 171.35 131.846 171.004 131.726C170.658 131.598 170.353 131.409 170.089 131.161C169.826 130.905 169.615 130.585 169.457 130.201C169.299 129.817 169.22 129.369 169.22 128.857V128.631C169.22 128.15 169.299 127.724 169.457 127.355C169.615 126.986 169.826 126.681 170.089 126.441C170.353 126.192 170.658 126.008 171.004 125.887C171.35 125.759 171.715 125.695 172.099 125.695C172.483 125.695 172.849 125.759 173.195 125.887C173.541 126.008 173.846 126.192 174.11 126.441C174.373 126.681 174.584 126.986 174.742 127.355C174.9 127.724 174.979 128.15 174.979 128.631V128.857C174.979 129.369 174.9 129.817 174.742 130.201C174.584 130.585 174.373 130.905 174.11 131.161C173.846 131.409 173.541 131.598 173.195 131.726C172.849 131.846 172.483 131.906 172.099 131.906ZM172.099 131.003C172.325 131.003 172.551 130.965 172.777 130.89C173.003 130.807 173.202 130.683 173.376 130.517C173.549 130.344 173.688 130.122 173.793 129.851C173.906 129.58 173.963 129.249 173.963 128.857V128.631C173.963 128.27 173.906 127.961 173.793 127.705C173.688 127.449 173.549 127.239 173.376 127.073C173.202 126.907 173.003 126.787 172.777 126.712C172.551 126.636 172.325 126.599 172.099 126.599C171.874 126.599 171.648 126.636 171.422 126.712C171.196 126.787 170.997 126.907 170.823 127.073C170.65 127.239 170.507 127.449 170.394 127.705C170.289 127.961 170.236 128.27 170.236 128.631V128.857C170.236 129.249 170.289 129.58 170.394 129.851C170.507 130.122 170.65 130.344 170.823 130.517C170.997 130.683 171.196 130.807 171.422 130.89C171.648 130.965 171.874 131.003 172.099 131.003ZM181.694 131.906C181.295 131.906 180.922 131.831 180.576 131.681C180.237 131.53 179.94 131.312 179.684 131.026C179.436 130.732 179.236 130.374 179.085 129.953C178.942 129.531 178.871 129.053 178.871 128.518V128.293C178.871 127.615 178.92 127.013 179.018 126.486C179.116 125.951 179.281 125.499 179.515 125.131C179.756 124.754 180.068 124.46 180.452 124.25C180.843 124.039 181.333 123.918 181.92 123.888C182.394 123.866 182.808 123.847 183.162 123.832C183.516 123.809 183.817 123.734 184.066 123.606V124.566C183.945 124.634 183.723 124.686 183.399 124.724C183.083 124.762 182.647 124.788 182.089 124.803C181.728 124.811 181.408 124.856 181.13 124.939C180.859 125.021 180.625 125.153 180.429 125.334C180.241 125.514 180.091 125.752 179.978 126.045C179.872 126.331 179.804 126.685 179.774 127.107C179.955 126.708 180.234 126.392 180.61 126.158C180.986 125.925 181.423 125.808 181.92 125.808C182.304 125.808 182.654 125.876 182.97 126.011C183.287 126.139 183.558 126.324 183.783 126.565C184.017 126.806 184.197 127.103 184.325 127.457C184.453 127.803 184.517 128.195 184.517 128.631V128.857C184.517 129.324 184.446 129.746 184.303 130.122C184.16 130.491 183.964 130.811 183.716 131.082C183.467 131.345 183.17 131.549 182.824 131.692C182.477 131.835 182.101 131.906 181.694 131.906ZM181.694 131.003C182.221 131.003 182.654 130.822 182.993 130.461C183.332 130.092 183.501 129.557 183.501 128.857V128.631C183.501 128.338 183.456 128.074 183.366 127.841C183.275 127.607 183.151 127.408 182.993 127.242C182.835 127.069 182.643 126.937 182.417 126.847C182.199 126.757 181.958 126.712 181.694 126.712C181.431 126.712 181.186 126.757 180.96 126.847C180.742 126.937 180.554 127.069 180.395 127.242C180.237 127.408 180.113 127.607 180.023 127.841C179.932 128.074 179.887 128.338 179.887 128.631V128.857C179.887 129.189 179.932 129.49 180.023 129.761C180.121 130.024 180.252 130.25 180.418 130.438C180.584 130.619 180.776 130.758 180.994 130.856C181.212 130.954 181.446 131.003 181.694 131.003ZM185.926 125.808H186.92V130.325L190.014 125.808H191.008V131.793H190.014V127.276L186.92 131.793H185.926V125.808ZM194.852 131.906C194.099 131.906 193.508 131.748 193.079 131.432C192.649 131.116 192.412 130.672 192.367 130.099H193.361C193.414 130.393 193.568 130.619 193.824 130.777C194.087 130.928 194.43 131.003 194.852 131.003C195.371 131.003 195.747 130.916 195.981 130.743C196.222 130.563 196.342 130.348 196.342 130.099C196.342 129.806 196.244 129.576 196.049 129.411C195.853 129.237 195.514 129.151 195.032 129.151H194.005V128.338H194.964C195.379 128.338 195.672 128.259 195.845 128.101C196.026 127.943 196.116 127.72 196.116 127.434C196.116 127.208 196.011 127.013 195.8 126.847C195.589 126.681 195.273 126.599 194.852 126.599C194.392 126.599 194.057 126.674 193.846 126.824C193.643 126.968 193.519 127.175 193.474 127.446H192.48C192.503 127.197 192.57 126.968 192.683 126.757C192.804 126.538 192.966 126.35 193.169 126.192C193.372 126.034 193.613 125.914 193.892 125.831C194.178 125.74 194.498 125.695 194.852 125.695C195.236 125.695 195.567 125.74 195.845 125.831C196.131 125.914 196.369 126.034 196.557 126.192C196.745 126.343 196.884 126.523 196.975 126.734C197.065 126.945 197.11 127.178 197.11 127.434C197.11 127.72 197.039 127.973 196.896 128.191C196.753 128.402 196.523 128.567 196.207 128.688C196.628 128.801 196.922 128.981 197.088 129.23C197.253 129.478 197.336 129.768 197.336 130.099C197.336 130.348 197.283 130.581 197.178 130.8C197.073 131.018 196.914 131.21 196.704 131.376C196.5 131.534 196.241 131.662 195.924 131.76C195.616 131.857 195.258 131.906 194.852 131.906ZM198.752 125.808H199.746V128.304H202.84V125.808H203.834V131.793H202.84V129.185H199.746V131.793H198.752V125.808ZM208.129 131.906C207.745 131.906 207.38 131.846 207.034 131.726C206.688 131.605 206.383 131.421 206.119 131.172C205.856 130.916 205.645 130.596 205.487 130.212C205.329 129.828 205.25 129.377 205.25 128.857V128.631C205.25 128.134 205.325 127.705 205.475 127.344C205.626 126.975 205.826 126.67 206.074 126.429C206.33 126.181 206.624 125.996 206.955 125.876C207.294 125.755 207.647 125.695 208.016 125.695C208.897 125.695 209.579 125.936 210.06 126.418C210.542 126.9 210.783 127.581 210.783 128.462V129.094H206.243C206.243 129.448 206.3 129.746 206.413 129.987C206.526 130.227 206.673 130.423 206.853 130.574C207.034 130.724 207.233 130.834 207.452 130.901C207.678 130.969 207.903 131.003 208.129 131.003C208.581 131.003 208.927 130.928 209.168 130.777C209.417 130.627 209.594 130.419 209.699 130.156H210.67C210.61 130.442 210.501 130.694 210.343 130.913C210.192 131.131 210.004 131.315 209.778 131.466C209.56 131.609 209.308 131.718 209.021 131.793C208.743 131.869 208.446 131.906 208.129 131.906ZM208.073 126.599C207.839 126.599 207.614 126.633 207.395 126.7C207.177 126.76 206.981 126.862 206.808 127.005C206.642 127.141 206.507 127.314 206.401 127.525C206.296 127.735 206.243 127.988 206.243 128.281H209.846C209.838 127.973 209.786 127.713 209.688 127.502C209.597 127.284 209.473 127.111 209.315 126.983C209.157 126.847 208.969 126.749 208.75 126.689C208.54 126.629 208.314 126.599 208.073 126.599ZM214.511 131.906C214.127 131.906 213.769 131.846 213.438 131.726C213.107 131.598 212.821 131.409 212.58 131.161C212.339 130.905 212.147 130.585 212.004 130.201C211.868 129.817 211.8 129.369 211.8 128.857V128.631C211.8 128.15 211.876 127.724 212.026 127.355C212.177 126.986 212.376 126.681 212.625 126.441C212.873 126.192 213.159 126.008 213.483 125.887C213.814 125.759 214.157 125.695 214.511 125.695C214.865 125.695 215.181 125.744 215.459 125.842C215.746 125.94 215.99 126.075 216.193 126.249C216.404 126.422 216.574 126.625 216.702 126.858C216.837 127.092 216.935 127.344 216.995 127.615H215.979C215.919 127.472 215.847 127.34 215.764 127.22C215.689 127.092 215.591 126.983 215.471 126.892C215.358 126.802 215.222 126.73 215.064 126.678C214.906 126.625 214.722 126.599 214.511 126.599C214.292 126.599 214.082 126.64 213.878 126.723C213.675 126.798 213.494 126.919 213.336 127.084C213.178 127.242 213.05 127.449 212.952 127.705C212.862 127.961 212.817 128.27 212.817 128.631V128.857C212.817 129.241 212.862 129.572 212.952 129.851C213.05 130.122 213.178 130.344 213.336 130.517C213.494 130.683 213.675 130.807 213.878 130.89C214.082 130.965 214.292 131.003 214.511 131.003C214.88 131.003 215.188 130.913 215.437 130.732C215.693 130.551 215.874 130.303 215.979 129.987H216.995C216.852 130.581 216.559 131.052 216.114 131.398C215.67 131.737 215.136 131.906 214.511 131.906ZM220.055 131.906C219.724 131.906 219.43 131.861 219.174 131.771C218.926 131.673 218.715 131.541 218.542 131.376C218.368 131.21 218.237 131.014 218.146 130.788C218.056 130.563 218.011 130.314 218.011 130.043C218.011 129.448 218.184 129.019 218.53 128.756C218.884 128.492 219.389 128.36 220.044 128.36H221.986V127.954C221.986 127.442 221.869 127.088 221.636 126.892C221.41 126.697 221.067 126.599 220.608 126.599C220.179 126.599 219.867 126.681 219.671 126.847C219.475 127.005 219.366 127.186 219.343 127.389H218.35C218.365 127.148 218.429 126.926 218.542 126.723C218.662 126.512 218.82 126.331 219.016 126.181C219.219 126.03 219.46 125.914 219.739 125.831C220.017 125.74 220.326 125.695 220.665 125.695C221.372 125.695 221.933 125.865 222.347 126.203C222.769 126.535 222.98 127.08 222.98 127.841V130.269C222.98 130.585 222.98 130.864 222.98 131.105C222.987 131.338 223.006 131.568 223.036 131.793H222.167C222.144 131.62 222.129 131.458 222.121 131.308C222.114 131.15 222.11 130.973 222.11 130.777C221.952 131.093 221.696 131.361 221.342 131.579C220.988 131.797 220.559 131.906 220.055 131.906ZM220.269 131.003C220.503 131.003 220.721 130.973 220.924 130.913C221.135 130.845 221.32 130.751 221.478 130.63C221.636 130.502 221.76 130.348 221.85 130.167C221.941 129.987 221.986 129.776 221.986 129.535V129.128H220.213C219.844 129.128 219.554 129.204 219.343 129.354C219.133 129.497 219.027 129.727 219.027 130.043C219.027 130.322 219.125 130.551 219.321 130.732C219.524 130.913 219.84 131.003 220.269 131.003Z" fill="#1F1F25"/>
<circle cx="314.75" cy="86.6294" r="46.3017" fill="#E2E7F1"/>
<path opacity="0.5" d="M314.75 40.3276C323.908 40.3276 332.86 43.0432 340.474 48.1309C348.088 53.2186 354.023 60.4499 357.527 68.9105C361.032 77.371 361.949 86.6807 360.162 95.6624C358.375 104.644 353.966 112.894 347.49 119.37L314.75 86.6294V40.3276Z" fill="#2261EB"/>
</g>
<defs>
<filter id="filter0_d_6665_57286" x="0" y="0" width="401.379" height="171" filterUnits="userSpaceOnUse" color-interpolation-filters="sRGB">
<feFlood flood-opacity="0" result="BackgroundImageFix"/>
<feColorMatrix in="SourceAlpha" type="matrix" values="0 0 0 0 0 0 0 0 0 0 0 0 0 0 0 0 0 0 127 0" result="hardAlpha"/>
<feOffset/>
<feGaussianBlur stdDeviation="10"/>
<feColorMatrix type="matrix" values="0 0 0 0 0.643137 0 0 0 0 0.760784 0 0 0 0 0.811765 0 0 0 0.6 0"/>
<feBlend mode="normal" in2="BackgroundImageFix" result="effect1_dropShadow_6665_57286"/>
<feBlend mode="normal" in="SourceGraphic" in2="effect1_dropShadow_6665_57286" result="shape"/>
</filter>
</defs>
</svg>
