<svg width="546" height="431" viewBox="0 0 546 431" fill="none" xmlns="http://www.w3.org/2000/svg">
<g filter="url(#filter0_d_6869_64181)">
<rect x="28" y="28" width="490.064" height="374.73" rx="32" fill="white" shape-rendering="crispEdges"/>
<path d="M58.5913 63.4181H53.0627V60.3713H67.8056V63.4181H62.277V77.5713H58.5913V63.4181ZM73.6922 77.8661C72.8076 77.8661 71.964 77.7351 71.1613 77.473C70.375 77.1945 69.687 76.7768 69.0973 76.2199C68.5076 75.6629 68.0407 74.9667 67.6967 74.1313C67.3527 73.2959 67.1807 72.313 67.1807 71.1827V70.6913C67.1807 69.6265 67.3527 68.6928 67.6967 67.8901C68.0407 67.0875 68.5076 66.4159 69.0973 65.8753C69.687 65.3347 70.375 64.9334 71.1613 64.6713C71.964 64.3928 72.8076 64.2536 73.6922 64.2536C74.5767 64.2536 75.4122 64.3928 76.1984 64.6713C76.9847 64.9334 77.6727 65.3347 78.2624 65.8753C78.8685 66.4159 79.3436 67.0875 79.6876 67.8901C80.0316 68.6928 80.2036 69.6265 80.2036 70.6913V71.1827C80.2036 72.2966 80.0316 73.2713 79.6876 74.1067C79.3436 74.9421 78.8685 75.6383 78.2624 76.1953C77.6727 76.7522 76.9847 77.17 76.1984 77.4484C75.4122 77.7269 74.5767 77.8661 73.6922 77.8661ZM73.6922 75.1141C74.6095 75.1141 75.3712 74.7865 75.9773 74.1313C76.5998 73.4761 76.911 72.4932 76.911 71.1827V70.6913C76.911 69.4955 76.5998 68.5863 75.9773 67.9639C75.3712 67.325 74.6095 67.0056 73.6922 67.0056C72.7584 67.0056 71.9885 67.325 71.3824 67.9639C70.7764 68.5863 70.4733 69.4955 70.4733 70.6913V71.1827C70.4733 72.5096 70.7764 73.5006 71.3824 74.1559C71.9885 74.7947 72.7584 75.1141 73.6922 75.1141ZM82.5283 64.5484H94.3226V77.5713H91.0791V67.2513H85.7717V77.5713H82.5283V64.5484ZM103.404 64.5484H115.199V77.5713H111.955V67.2513H106.648V77.5713H103.404V64.5484ZM118.138 64.5484H121.16V66.465C121.488 65.8753 122.004 65.3593 122.708 64.917C123.412 64.4747 124.305 64.2536 125.386 64.2536C127.123 64.2536 128.474 64.7941 129.441 65.8753C130.423 66.94 130.915 68.5454 130.915 70.6913V71.1827C130.915 73.4269 130.415 75.106 129.416 76.2199C128.433 77.3174 127.09 77.8661 125.386 77.8661C124.502 77.8661 123.715 77.6778 123.027 77.301C122.356 76.9079 121.807 76.4001 121.381 75.7776V82.4856H118.138V64.5484ZM124.625 75.1141C125.476 75.1141 126.189 74.7947 126.762 74.1559C127.336 73.5006 127.622 72.5096 127.622 71.1827V70.6913C127.622 69.4627 127.344 68.5454 126.787 67.9393C126.23 67.3168 125.509 67.0056 124.625 67.0056C123.691 67.0056 122.913 67.2759 122.29 67.8164C121.684 68.3406 121.381 69.1351 121.381 70.1999V71.6741C121.381 72.8372 121.676 73.7054 122.266 74.2787C122.872 74.8357 123.658 75.1141 124.625 75.1141ZM139.152 77.8661C138.267 77.8661 137.424 77.7351 136.621 77.473C135.835 77.1945 135.147 76.7768 134.557 76.2199C133.967 75.6629 133.501 74.9667 133.157 74.1313C132.813 73.2959 132.641 72.313 132.641 71.1827V70.6913C132.641 69.6265 132.813 68.6928 133.157 67.8901C133.501 67.0875 133.967 66.4159 134.557 65.8753C135.147 65.3347 135.835 64.9334 136.621 64.6713C137.424 64.3928 138.267 64.2536 139.152 64.2536C140.037 64.2536 140.872 64.3928 141.658 64.6713C142.445 64.9334 143.133 65.3347 143.722 65.8753C144.328 66.4159 144.803 67.0875 145.147 67.8901C145.491 68.6928 145.663 69.6265 145.663 70.6913V71.1827C145.663 72.2966 145.491 73.2713 145.147 74.1067C144.803 74.9421 144.328 75.6383 143.722 76.1953C143.133 76.7522 142.445 77.17 141.658 77.4484C140.872 77.7269 140.037 77.8661 139.152 77.8661ZM139.152 75.1141C140.069 75.1141 140.831 74.7865 141.437 74.1313C142.06 73.4761 142.371 72.4932 142.371 71.1827V70.6913C142.371 69.4955 142.06 68.5863 141.437 67.9639C140.831 67.325 140.069 67.0056 139.152 67.0056C138.218 67.0056 137.448 67.325 136.842 67.9639C136.236 68.5863 135.933 69.4955 135.933 70.6913V71.1827C135.933 72.5096 136.236 73.5006 136.842 74.1559C137.448 74.7947 138.218 75.1141 139.152 75.1141ZM146.765 74.8684H148.24C148.403 74.6227 148.551 74.2705 148.682 73.8119C148.813 73.3368 148.911 72.8126 148.977 72.2393C149.059 71.6496 149.116 71.0353 149.149 70.3964C149.198 69.7412 149.222 69.1023 149.222 68.4799V64.5484H159.42V74.8684H161.017V80.6427H158.166V77.5713H149.616V80.6427H146.765V74.8684ZM156.176 74.8684V67.2513H152.196V68.9713C152.196 69.5446 152.179 70.1098 152.146 70.6667C152.114 71.2237 152.065 71.7642 151.999 72.2884C151.95 72.7962 151.876 73.2713 151.778 73.7136C151.68 74.1559 151.557 74.5408 151.409 74.8684H156.176ZM167.228 77.8661C166.524 77.8661 165.901 77.7679 165.361 77.5713C164.82 77.3583 164.361 77.0717 163.985 76.7113C163.608 76.3345 163.321 75.9004 163.125 75.409C162.928 74.9012 162.83 74.3524 162.83 73.7627C162.83 71.1418 164.386 69.8313 167.498 69.8313H171.381V69.217C171.381 68.3652 171.184 67.7673 170.791 67.4233C170.414 67.0793 169.808 66.9073 168.973 66.9073C168.236 66.9073 167.703 67.0383 167.376 67.3004C167.048 67.5461 166.86 67.8574 166.81 68.2341H163.567C163.6 67.6772 163.739 67.153 163.985 66.6616C164.247 66.1701 164.607 65.7524 165.066 65.4084C165.541 65.048 166.114 64.7696 166.786 64.573C167.457 64.36 168.227 64.2536 169.096 64.2536C169.931 64.2536 170.684 64.3437 171.356 64.5239C172.044 64.704 172.626 64.9989 173.101 65.4084C173.592 65.8016 173.969 66.3176 174.231 66.9564C174.493 67.5953 174.624 68.3652 174.624 69.2661V74.2541C174.624 74.9421 174.632 75.5482 174.649 76.0724C174.681 76.5802 174.731 77.0799 174.796 77.5713H171.774C171.708 77.2109 171.667 76.9406 171.651 76.7604C171.651 76.5639 171.651 76.2772 171.651 75.9004C171.291 76.4246 170.742 76.8833 170.005 77.2764C169.284 77.6696 168.358 77.8661 167.228 77.8661ZM168.236 75.3599C168.629 75.3599 169.014 75.3107 169.39 75.2124C169.767 75.0978 170.103 74.934 170.398 74.721C170.693 74.4917 170.93 74.205 171.11 73.861C171.291 73.517 171.381 73.1157 171.381 72.657V72.0427H168.113C167.49 72.0427 166.999 72.1901 166.638 72.485C166.294 72.7635 166.122 73.1484 166.122 73.6399C166.122 74.1641 166.303 74.5818 166.663 74.893C167.023 75.2042 167.548 75.3599 168.236 75.3599ZM180.968 70.7896L176.595 64.5484H179.985L183.475 69.6593H184.433V64.5484H187.676V69.6593H188.659L192.173 64.5484H195.515L191.165 70.7159L195.76 77.5713H192.124L188.659 72.2147H187.676V77.5713H184.433V72.2147H183.45L179.887 77.5713H176.349L180.968 70.7896Z" fill="#1F1F25"/>
<path d="M75.137 126.865H66.2094V115.399H67.7492V125.522H73.5153V115.399H75.0551V125.522H76.6113V128.995H75.137V126.865ZM78.4074 118.183H82.1751C83.2453 118.183 84.0316 118.407 84.5339 118.855C85.0363 119.292 85.2874 119.86 85.2874 120.559C85.2874 120.744 85.2547 120.935 85.1892 121.132C85.1236 121.318 85.0308 121.492 84.9107 121.656C84.8015 121.82 84.665 121.962 84.5012 122.082C84.3483 122.202 84.1735 122.295 83.977 122.36C84.5121 122.492 84.9161 122.743 85.1892 123.114C85.4731 123.474 85.6151 123.9 85.6151 124.392C85.6151 125.145 85.3639 125.746 84.8615 126.194C84.3592 126.641 83.5729 126.865 82.5027 126.865H78.4074V118.183ZM82.5027 125.588C83.1142 125.588 83.5456 125.478 83.7968 125.26C84.0479 125.041 84.1735 124.73 84.1735 124.326C84.1735 123.911 84.0479 123.595 83.7968 123.376C83.5456 123.147 83.1142 123.032 82.5027 123.032H79.849V125.588H82.5027ZM82.1751 121.853C82.7975 121.853 83.2289 121.743 83.4692 121.525C83.7203 121.307 83.8459 121.006 83.8459 120.624C83.8459 120.264 83.7203 119.98 83.4692 119.772C83.2289 119.565 82.7975 119.461 82.1751 119.461H79.849V121.853H82.1751ZM91.2735 127.029C90.7166 127.029 90.1869 126.942 89.6846 126.767C89.1822 126.592 88.7399 126.325 88.3577 125.964C87.9755 125.593 87.6697 125.129 87.4404 124.572C87.211 124.015 87.0964 123.36 87.0964 122.606V122.279C87.0964 121.558 87.2056 120.935 87.424 120.411C87.6424 119.876 87.9318 119.434 88.2922 119.084C88.6635 118.724 89.0894 118.456 89.5699 118.282C90.0613 118.107 90.5746 118.02 91.1097 118.02C92.3874 118.02 93.3757 118.369 94.0747 119.068C94.7736 119.767 95.123 120.755 95.123 122.033V122.95H88.5379C88.5379 123.463 88.6198 123.895 88.7836 124.244C88.9474 124.594 89.1604 124.878 89.4225 125.096C89.6846 125.315 89.974 125.473 90.2907 125.571C90.6183 125.669 90.9459 125.719 91.2735 125.719C91.9288 125.719 92.4311 125.609 92.7806 125.391C93.141 125.173 93.3976 124.872 93.5505 124.49H94.9592C94.8719 124.905 94.7135 125.271 94.4842 125.588C94.2658 125.904 93.9928 126.172 93.6651 126.39C93.3484 126.598 92.9826 126.756 92.5676 126.865C92.1636 126.974 91.7322 127.029 91.2735 127.029ZM91.1916 119.33C90.8531 119.33 90.5255 119.379 90.2088 119.477C89.8921 119.565 89.6081 119.712 89.357 119.92C89.1167 120.116 88.9201 120.367 88.7672 120.673C88.6143 120.979 88.5379 121.345 88.5379 121.771H93.7634C93.7525 121.323 93.6761 120.946 93.5341 120.64C93.403 120.324 93.2229 120.073 92.9935 119.887C92.7642 119.69 92.4912 119.548 92.1745 119.461C91.8687 119.374 91.5411 119.33 91.1916 119.33ZM98.9941 119.461H96.0291V118.183H103.401V119.461H100.436V126.865H98.9941V119.461ZM105.042 118.183H106.484V121.46H108.237C109.329 121.46 110.131 121.7 110.645 122.18C111.169 122.661 111.431 123.327 111.431 124.179C111.431 125.009 111.169 125.664 110.645 126.144C110.131 126.625 109.329 126.865 108.237 126.865H105.042V118.183ZM108.155 125.588C108.832 125.588 109.307 125.467 109.58 125.227C109.853 124.987 109.99 124.632 109.99 124.162C109.99 123.693 109.853 123.338 109.58 123.098C109.307 122.857 108.832 122.737 108.155 122.737H106.484V125.588H108.155ZM112.774 118.183H114.216V126.865H112.774V118.183Z" fill="#1F1F25"/>
<mask id="mask0_6869_64181" style="mask-type:alpha" maskUnits="userSpaceOnUse" x="216" y="108" width="25" height="25">
<rect x="216" y="108.079" width="24.5714" height="24.5714" fill="#D9D9D9"/>
</mask>
<g mask="url(#mask0_6869_64181)">
<path d="M228.286 123.078L223.781 118.573H232.79L228.286 123.078Z" fill="#1F1F25"/>
</g>
<rect x="53.0713" y="101.071" width="199" height="38.5873" rx="9.5" stroke="#2261EB" stroke-opacity="0.5"/>
<g opacity="0.5">
<path d="M285.701 129.921C285.401 129.921 285.152 129.82 284.951 129.62C284.751 129.42 284.651 129.17 284.651 128.871V121.258L277.284 111.944C277.101 111.699 277.076 111.448 277.21 111.193C277.344 110.937 277.557 110.81 277.851 110.81H294.18C294.474 110.81 294.688 110.937 294.822 111.193C294.956 111.448 294.931 111.699 294.747 111.944L287.381 121.258V128.871C287.381 129.17 287.281 129.42 287.08 129.62C286.88 129.82 286.63 129.921 286.331 129.921H285.701Z" fill="#2261EB"/>
<rect x="266.905" y="101.254" width="38.2222" height="38.2222" rx="9.31746" stroke="#2261EB" stroke-width="1.36508"/>
</g>
<g opacity="0.5">
<path d="M337.132 130.603L336.72 127.313C336.357 127.204 335.964 127.031 335.542 126.797C335.12 126.562 334.761 126.31 334.465 126.042L331.431 127.333L329.309 123.636L331.932 121.658C331.898 121.452 331.87 121.24 331.848 121.022C331.827 120.804 331.816 120.593 331.816 120.387C331.816 120.196 331.827 119.995 331.848 119.784C331.87 119.574 331.898 119.336 331.932 119.072L329.309 117.095L331.431 113.441L334.443 114.71C334.783 114.427 335.15 114.172 335.546 113.944C335.941 113.717 336.325 113.541 336.698 113.417L337.132 110.127H341.376L341.787 113.439C342.223 113.592 342.608 113.768 342.943 113.966C343.278 114.165 343.622 114.413 343.977 114.71L347.076 113.441L349.199 117.095L346.488 119.138C346.551 119.373 346.586 119.588 346.593 119.784C346.6 119.98 346.604 120.174 346.604 120.365C346.604 120.542 346.597 120.728 346.582 120.924C346.568 121.12 346.534 121.358 346.481 121.636L349.148 123.636L347.026 127.333L343.977 126.02C343.622 126.318 343.266 126.573 342.907 126.786C342.548 126.999 342.175 127.167 341.787 127.291L341.376 130.603H337.132ZM339.223 123.209C340.016 123.209 340.689 122.933 341.24 122.382C341.791 121.831 342.067 121.158 342.067 120.365C342.067 119.572 341.791 118.899 341.24 118.348C340.689 117.797 340.016 117.521 339.223 117.521C338.425 117.521 337.752 117.797 337.203 118.348C336.654 118.899 336.379 119.572 336.379 120.365C336.379 121.158 336.654 121.831 337.203 122.382C337.752 122.933 338.425 123.209 339.223 123.209Z" fill="#2261EB"/>
<rect x="320.143" y="101.254" width="38.2222" height="38.2222" rx="9.31746" stroke="#2261EB" stroke-width="1.36508"/>
</g>
<path d="M52.5713 172.159C52.5713 167.741 56.153 164.159 60.5713 164.159H485.492C489.91 164.159 493.492 167.741 493.492 172.159V205.159C493.492 209.577 489.91 213.159 485.492 213.159H60.5713C56.153 213.159 52.5713 209.577 52.5713 205.159V172.159Z" fill="#F2F6FF"/>
<path opacity="0.8" d="M66.2092 183.694H67.7488V188.591H73.8417V183.694H75.3813V195.159H73.8417V189.934H67.7488V195.159H66.2092V183.694ZM80.7989 195.323C80.3184 195.323 79.8926 195.257 79.5213 195.126C79.161 194.984 78.8552 194.793 78.6041 194.553C78.353 194.313 78.1619 194.029 78.0308 193.701C77.8998 193.374 77.8343 193.014 77.8343 192.62C77.8343 191.758 78.0854 191.135 78.5877 190.753C79.1009 190.371 79.8325 190.18 80.7825 190.18H83.5996V189.59C83.5996 188.848 83.4304 188.335 83.0919 188.051C82.7643 187.767 82.2675 187.625 81.6014 187.625C80.979 187.625 80.5259 187.745 80.242 187.985C79.9581 188.215 79.7998 188.477 79.767 188.771H78.3257C78.3475 188.422 78.4403 188.1 78.6041 187.805C78.7788 187.499 79.0081 187.237 79.292 187.019C79.5868 186.801 79.9362 186.631 80.3403 186.511C80.7443 186.38 81.192 186.315 81.6833 186.315C82.7097 186.315 83.5232 186.56 84.1238 187.052C84.7352 187.532 85.041 188.324 85.041 189.427V192.948C85.041 193.407 85.041 193.811 85.041 194.16C85.0519 194.499 85.0792 194.832 85.1229 195.159H83.8617C83.8289 194.908 83.8071 194.673 83.7962 194.455C83.7853 194.226 83.7798 193.969 83.7798 193.685C83.5505 194.144 83.1793 194.531 82.6661 194.848C82.1529 195.165 81.5305 195.323 80.7989 195.323ZM81.1101 194.013C81.4486 194.013 81.7652 193.969 82.06 193.882C82.3658 193.783 82.6333 193.647 82.8626 193.472C83.0919 193.287 83.2721 193.063 83.4031 192.801C83.5341 192.539 83.5996 192.233 83.5996 191.883V191.294H81.0282C80.4931 191.294 80.0727 191.403 79.767 191.621C79.4613 191.829 79.3084 192.162 79.3084 192.62C79.3084 193.024 79.4503 193.358 79.7342 193.62C80.0291 193.882 80.4877 194.013 81.1101 194.013ZM87.5867 186.478H89.0281V193.03L93.5159 186.478H94.9572V195.159H93.5159V188.608L89.0281 195.159H87.5867V186.478ZM97.5836 186.478H99.1232L102.219 191.883L105.314 186.478H106.756V195.159H105.314V188.853L102.743 193.276H101.596L99.0249 188.853V195.159H97.5836V186.478ZM112.975 195.323C112.418 195.323 111.889 195.236 111.386 195.061C110.884 194.886 110.442 194.619 110.06 194.258C109.678 193.887 109.372 193.423 109.143 192.866C108.913 192.309 108.799 191.654 108.799 190.901V190.573C108.799 189.852 108.908 189.23 109.126 188.706C109.345 188.171 109.634 187.729 109.994 187.379C110.366 187.019 110.791 186.751 111.272 186.577C111.763 186.402 112.276 186.315 112.811 186.315C114.089 186.315 115.077 186.664 115.776 187.363C116.475 188.062 116.824 189.05 116.824 190.327V191.245H110.24C110.24 191.758 110.322 192.189 110.486 192.539C110.649 192.888 110.862 193.172 111.124 193.39C111.386 193.609 111.676 193.767 111.992 193.865C112.32 193.964 112.648 194.013 112.975 194.013C113.63 194.013 114.133 193.903 114.482 193.685C114.842 193.467 115.099 193.166 115.252 192.784H116.66C116.573 193.199 116.415 193.565 116.185 193.882C115.967 194.198 115.694 194.466 115.367 194.684C115.05 194.892 114.684 195.05 114.269 195.159C113.865 195.268 113.434 195.323 112.975 195.323ZM112.893 187.625C112.555 187.625 112.227 187.674 111.911 187.772C111.594 187.86 111.31 188.007 111.059 188.215C110.819 188.411 110.622 188.662 110.469 188.968C110.316 189.274 110.24 189.64 110.24 190.065H115.465C115.454 189.618 115.377 189.241 115.235 188.935C115.104 188.619 114.924 188.367 114.695 188.182C114.466 187.985 114.193 187.843 113.876 187.756C113.57 187.669 113.243 187.625 112.893 187.625ZM118.873 186.478H120.314V190.098H124.802V186.478H126.243V195.159H124.802V191.376H120.314V195.159H118.873V186.478ZM132.473 195.323C131.916 195.323 131.387 195.236 130.884 195.061C130.382 194.875 129.94 194.602 129.558 194.242C129.175 193.871 128.87 193.407 128.64 192.85C128.411 192.293 128.296 191.643 128.296 190.901V190.573C128.296 189.874 128.411 189.257 128.64 188.722C128.87 188.187 129.175 187.745 129.558 187.396C129.94 187.035 130.382 186.768 130.884 186.593C131.387 186.407 131.916 186.315 132.473 186.315C133.03 186.315 133.56 186.407 134.062 186.593C134.564 186.768 135.006 187.035 135.388 187.396C135.771 187.745 136.076 188.187 136.306 188.722C136.535 189.257 136.65 189.874 136.65 190.573V190.901C136.65 191.643 136.535 192.293 136.306 192.85C136.076 193.407 135.771 193.871 135.388 194.242C135.006 194.602 134.564 194.875 134.062 195.061C133.56 195.236 133.03 195.323 132.473 195.323ZM132.473 194.013C132.801 194.013 133.128 193.958 133.456 193.849C133.783 193.729 134.073 193.549 134.324 193.308C134.575 193.057 134.777 192.735 134.93 192.342C135.094 191.949 135.176 191.468 135.176 190.901V190.573C135.176 190.049 135.094 189.601 134.93 189.23C134.777 188.859 134.575 188.553 134.324 188.313C134.073 188.073 133.783 187.898 133.456 187.789C133.128 187.68 132.801 187.625 132.473 187.625C132.145 187.625 131.818 187.68 131.49 187.789C131.163 187.898 130.873 188.073 130.622 188.313C130.371 188.553 130.164 188.859 130 189.23C129.847 189.601 129.771 190.049 129.771 190.573V190.901C129.771 191.468 129.847 191.949 130 192.342C130.164 192.735 130.371 193.057 130.622 193.308C130.873 193.549 131.163 193.729 131.49 193.849C131.818 193.958 132.145 194.013 132.473 194.013ZM138.691 186.478H142.458C143.528 186.478 144.314 186.702 144.816 187.15C145.319 187.587 145.57 188.155 145.57 188.853C145.57 189.039 145.537 189.23 145.471 189.427C145.406 189.612 145.313 189.787 145.193 189.951C145.084 190.115 144.947 190.256 144.784 190.377C144.631 190.497 144.456 190.589 144.259 190.655C144.794 190.786 145.198 191.037 145.471 191.408C145.755 191.769 145.897 192.195 145.897 192.686C145.897 193.439 145.646 194.04 145.144 194.488C144.642 194.935 143.855 195.159 142.785 195.159H138.691V186.478ZM142.785 193.882C143.397 193.882 143.828 193.772 144.079 193.554C144.33 193.336 144.456 193.024 144.456 192.62C144.456 192.206 144.33 191.889 144.079 191.67C143.828 191.441 143.397 191.327 142.785 191.327H140.132V193.882H142.785ZM142.458 190.147C143.08 190.147 143.511 190.038 143.752 189.82C144.003 189.601 144.128 189.301 144.128 188.919C144.128 188.559 144.003 188.275 143.752 188.067C143.511 187.86 143.08 187.756 142.458 187.756H140.132V190.147H142.458ZM150.425 195.323C149.944 195.323 149.519 195.257 149.147 195.126C148.787 194.984 148.481 194.793 148.23 194.553C147.979 194.313 147.788 194.029 147.657 193.701C147.526 193.374 147.46 193.014 147.46 192.62C147.46 191.758 147.711 191.135 148.214 190.753C148.727 190.371 149.459 190.18 150.408 190.18H153.226V189.59C153.226 188.848 153.056 188.335 152.718 188.051C152.39 187.767 151.894 187.625 151.227 187.625C150.605 187.625 150.152 187.745 149.868 187.985C149.584 188.215 149.426 188.477 149.393 188.771H147.952C147.974 188.422 148.066 188.1 148.23 187.805C148.405 187.499 148.634 187.237 148.918 187.019C149.213 186.801 149.562 186.631 149.966 186.511C150.37 186.38 150.818 186.315 151.309 186.315C152.336 186.315 153.149 186.56 153.75 187.052C154.361 187.532 154.667 188.324 154.667 189.427V192.948C154.667 193.407 154.667 193.811 154.667 194.16C154.678 194.499 154.705 194.832 154.749 195.159H153.488C153.455 194.908 153.433 194.673 153.422 194.455C153.411 194.226 153.406 193.969 153.406 193.685C153.177 194.144 152.805 194.531 152.292 194.848C151.779 195.165 151.156 195.323 150.425 195.323ZM150.736 194.013C151.075 194.013 151.391 193.969 151.686 193.882C151.992 193.783 152.259 193.647 152.489 193.472C152.718 193.287 152.898 193.063 153.029 192.801C153.16 192.539 153.226 192.233 153.226 191.883V191.294H150.654C150.119 191.294 149.699 191.403 149.393 191.621C149.087 191.829 148.934 192.162 148.934 192.62C148.934 193.024 149.076 193.358 149.36 193.62C149.655 193.882 150.114 194.013 150.736 194.013ZM157.213 186.478H158.654V190.098H163.142V186.478H164.583V195.159H163.142V191.376H158.654V195.159H157.213V186.478ZM167.21 186.478H168.651V193.03L173.139 186.478H174.58V195.159H173.139V188.608L168.651 195.159H167.21V186.478ZM180.81 195.323C180.253 195.323 179.723 195.236 179.221 195.061C178.719 194.886 178.277 194.619 177.894 194.258C177.512 193.887 177.206 193.423 176.977 192.866C176.748 192.309 176.633 191.654 176.633 190.901V190.573C176.633 189.852 176.742 189.23 176.961 188.706C177.179 188.171 177.468 187.729 177.829 187.379C178.2 187.019 178.626 186.751 179.106 186.577C179.598 186.402 180.111 186.315 180.646 186.315C181.924 186.315 182.912 186.664 183.611 187.363C184.309 188.062 184.659 189.05 184.659 190.327V191.245H178.075C178.075 191.758 178.156 192.189 178.32 192.539C178.484 192.888 178.697 193.172 178.959 193.39C179.221 193.609 179.51 193.767 179.827 193.865C180.155 193.964 180.482 194.013 180.81 194.013C181.465 194.013 181.967 193.903 182.317 193.685C182.677 193.467 182.934 193.166 183.086 192.784H184.495C184.408 193.199 184.249 193.565 184.02 193.882C183.802 194.198 183.529 194.466 183.201 194.684C182.884 194.892 182.519 195.05 182.104 195.159C181.7 195.268 181.268 195.323 180.81 195.323ZM180.728 187.625C180.389 187.625 180.062 187.674 179.745 187.772C179.428 187.86 179.145 188.007 178.893 188.215C178.653 188.411 178.457 188.662 178.304 188.968C178.151 189.274 178.075 189.64 178.075 190.065H183.299C183.288 189.618 183.212 189.241 183.07 188.935C182.939 188.619 182.759 188.367 182.53 188.182C182.3 187.985 182.027 187.843 181.711 187.756C181.405 187.669 181.077 187.625 180.728 187.625Z" fill="#1F1F25" fill-opacity="0.8"/>
<path opacity="0.8" d="M222.209 183.694H226.304C226.992 183.694 227.581 183.77 228.073 183.923C228.564 184.076 228.968 184.289 229.285 184.562C229.612 184.824 229.853 185.146 230.005 185.528C230.158 185.9 230.235 186.309 230.235 186.757C230.235 187.346 230.071 187.854 229.743 188.28C229.416 188.695 229.012 188.995 228.531 189.181C229.208 189.334 229.743 189.645 230.137 190.115C230.53 190.573 230.726 191.174 230.726 191.916C230.726 192.386 230.65 192.817 230.497 193.21C230.344 193.603 230.104 193.947 229.776 194.242C229.449 194.526 229.023 194.75 228.499 194.913C227.985 195.077 227.363 195.159 226.631 195.159H222.209V183.694ZM226.631 193.816C227.123 193.816 227.532 193.772 227.86 193.685C228.187 193.587 228.45 193.456 228.646 193.292C228.843 193.117 228.979 192.91 229.056 192.67C229.143 192.429 229.187 192.162 229.187 191.867C229.187 191.572 229.143 191.305 229.056 191.064C228.979 190.813 228.843 190.606 228.646 190.442C228.45 190.267 228.182 190.136 227.843 190.049C227.516 189.951 227.106 189.902 226.615 189.902H223.749V193.816H226.631ZM226.304 188.624C226.762 188.624 227.145 188.58 227.45 188.493C227.756 188.406 228.002 188.28 228.187 188.116C228.373 187.952 228.504 187.761 228.581 187.543C228.657 187.325 228.695 187.084 228.695 186.822C228.695 186.56 228.657 186.32 228.581 186.102C228.504 185.872 228.373 185.681 228.187 185.528C228.002 185.376 227.756 185.255 227.45 185.168C227.145 185.081 226.762 185.037 226.304 185.037H223.749V188.624H226.304ZM232.854 186.478H234.295V189.754H236.048C237.14 189.754 237.942 189.994 238.456 190.475C238.98 190.955 239.242 191.621 239.242 192.473C239.242 193.303 238.98 193.958 238.456 194.439C237.942 194.919 237.14 195.159 236.048 195.159H232.854V186.478ZM235.966 193.882C236.643 193.882 237.118 193.762 237.391 193.521C237.664 193.281 237.801 192.926 237.801 192.457C237.801 191.987 237.664 191.632 237.391 191.392C237.118 191.152 236.643 191.032 235.966 191.032H234.295V193.882H235.966ZM240.585 186.478H242.026V195.159H240.585V186.478ZM244.642 186.478H245.985V188.116C246.28 187.538 246.69 187.095 247.214 186.79C247.749 186.473 248.366 186.315 249.065 186.315C250.157 186.315 251.03 186.675 251.685 187.396C252.34 188.105 252.668 189.165 252.668 190.573V190.901C252.668 191.643 252.581 192.293 252.406 192.85C252.231 193.396 251.986 193.854 251.669 194.226C251.352 194.586 250.97 194.859 250.522 195.045C250.086 195.23 249.6 195.323 249.065 195.323C248.322 195.323 247.7 195.159 247.198 194.832C246.706 194.504 246.335 194.095 246.084 193.603V198.435H244.642V186.478ZM248.737 194.045C249.087 194.045 249.414 193.98 249.72 193.849C250.026 193.707 250.288 193.505 250.506 193.243C250.735 192.981 250.91 192.653 251.03 192.26C251.161 191.867 251.227 191.414 251.227 190.901V190.573C251.227 190.104 251.161 189.683 251.03 189.312C250.91 188.941 250.735 188.629 250.506 188.378C250.288 188.116 250.026 187.92 249.72 187.789C249.414 187.658 249.087 187.592 248.737 187.592C248.344 187.592 247.984 187.658 247.656 187.789C247.329 187.909 247.05 188.084 246.821 188.313C246.591 188.531 246.411 188.793 246.28 189.099C246.149 189.405 246.084 189.732 246.084 190.082V191.392C246.084 191.785 246.149 192.145 246.28 192.473C246.411 192.801 246.591 193.079 246.821 193.308C247.05 193.538 247.329 193.718 247.656 193.849C247.984 193.98 248.344 194.045 248.737 194.045ZM255.546 198.599C255.382 198.599 255.218 198.582 255.054 198.55V197.239C255.218 197.272 255.382 197.288 255.546 197.288C255.71 197.288 255.852 197.261 255.972 197.207C256.092 197.152 256.206 197.048 256.316 196.895C256.425 196.742 256.539 196.524 256.66 196.24C256.791 195.967 256.938 195.607 257.102 195.159L253.417 186.478H255.022L257.839 193.521L260.394 186.478H261.934L258.658 195.159C258.429 195.771 258.21 196.295 258.003 196.732C257.795 197.168 257.571 197.523 257.331 197.796C257.102 198.08 256.845 198.282 256.561 198.402C256.277 198.533 255.939 198.599 255.546 198.599ZM268.753 191.703C268.502 191.856 268.196 191.993 267.835 192.113C267.486 192.233 267.044 192.293 266.509 192.293C266.006 192.293 265.553 192.238 265.149 192.129C264.756 192.02 264.423 191.845 264.15 191.605C263.877 191.365 263.67 191.054 263.528 190.671C263.386 190.289 263.315 189.82 263.315 189.263V186.478H264.756V189.017C264.756 189.388 264.789 189.7 264.855 189.951C264.931 190.202 265.051 190.404 265.215 190.557C265.379 190.71 265.586 190.819 265.837 190.884C266.088 190.95 266.394 190.983 266.754 190.983C267.246 190.983 267.666 190.933 268.016 190.835C268.365 190.737 268.611 190.633 268.753 190.524V186.478H270.194V195.159H268.753V191.703ZM272.81 186.478H274.251V190.115H275.397L278.64 186.478H280.344L276.577 190.639L280.508 195.159H278.673L275.397 191.359H274.251V195.159H272.81V186.478ZM284.544 195.323C284.063 195.323 283.637 195.257 283.266 195.126C282.906 194.984 282.6 194.793 282.349 194.553C282.098 194.313 281.907 194.029 281.776 193.701C281.645 193.374 281.579 193.014 281.579 192.62C281.579 191.758 281.83 191.135 282.333 190.753C282.846 190.371 283.577 190.18 284.527 190.18H287.345V189.59C287.345 188.848 287.175 188.335 286.837 188.051C286.509 187.767 286.012 187.625 285.346 187.625C284.724 187.625 284.271 187.745 283.987 187.985C283.703 188.215 283.545 188.477 283.512 188.771H282.071C282.092 188.422 282.185 188.1 282.349 187.805C282.524 187.499 282.753 187.237 283.037 187.019C283.332 186.801 283.681 186.631 284.085 186.511C284.489 186.38 284.937 186.315 285.428 186.315C286.455 186.315 287.268 186.56 287.869 187.052C288.48 187.532 288.786 188.324 288.786 189.427V192.948C288.786 193.407 288.786 193.811 288.786 194.16C288.797 194.499 288.824 194.832 288.868 195.159H287.607C287.574 194.908 287.552 194.673 287.541 194.455C287.53 194.226 287.525 193.969 287.525 193.685C287.295 194.144 286.924 194.531 286.411 194.848C285.898 195.165 285.275 195.323 284.544 195.323ZM284.855 194.013C285.193 194.013 285.51 193.969 285.805 193.882C286.111 193.783 286.378 193.647 286.608 193.472C286.837 193.287 287.017 193.063 287.148 192.801C287.279 192.539 287.345 192.233 287.345 191.883V191.294H284.773C284.238 191.294 283.818 191.403 283.512 191.621C283.206 191.829 283.053 192.162 283.053 192.62C283.053 193.024 283.195 193.358 283.479 193.62C283.774 193.882 284.233 194.013 284.855 194.013Z" fill="#1F1F25" fill-opacity="0.8"/>
<path opacity="0.8" d="M338.209 183.694H339.814L343.647 190.983L347.48 183.694H349.019V195.159H347.48V186.478L344.187 192.702H343.041L339.749 186.478V195.159H338.209V183.694ZM354.446 195.323C353.966 195.323 353.54 195.257 353.169 195.126C352.808 194.984 352.503 194.793 352.252 194.553C352 194.313 351.809 194.029 351.678 193.701C351.547 193.374 351.482 193.014 351.482 192.62C351.482 191.758 351.733 191.135 352.235 190.753C352.748 190.371 353.48 190.18 354.43 190.18H357.247V189.59C357.247 188.848 357.078 188.335 356.739 188.051C356.412 187.767 355.915 187.625 355.249 187.625C354.627 187.625 354.173 187.745 353.889 187.985C353.606 188.215 353.447 188.477 353.414 188.771H351.973C351.995 188.422 352.088 188.1 352.252 187.805C352.426 187.499 352.656 187.237 352.939 187.019C353.234 186.801 353.584 186.631 353.988 186.511C354.392 186.38 354.839 186.315 355.331 186.315C356.357 186.315 357.171 186.56 357.771 187.052C358.383 187.532 358.688 188.324 358.688 189.427V192.948C358.688 193.407 358.688 193.811 358.688 194.16C358.699 194.499 358.727 194.832 358.77 195.159H357.509C357.476 194.908 357.455 194.673 357.444 194.455C357.433 194.226 357.427 193.969 357.427 193.685C357.198 194.144 356.827 194.531 356.314 194.848C355.8 195.165 355.178 195.323 354.446 195.323ZM354.758 194.013C355.096 194.013 355.413 193.969 355.708 193.882C356.013 193.783 356.281 193.647 356.51 193.472C356.739 193.287 356.92 193.063 357.051 192.801C357.182 192.539 357.247 192.233 357.247 191.883V191.294H354.676C354.141 191.294 353.72 191.403 353.414 191.621C353.109 191.829 352.956 192.162 352.956 192.62C352.956 193.024 353.098 193.358 353.382 193.62C353.677 193.882 354.135 194.013 354.758 194.013ZM361.234 186.478H362.577V188.116C362.872 187.538 363.282 187.095 363.806 186.79C364.341 186.473 364.958 186.315 365.657 186.315C366.748 186.315 367.622 186.675 368.277 187.396C368.932 188.105 369.26 189.165 369.26 190.573V190.901C369.26 191.643 369.172 192.293 368.998 192.85C368.823 193.396 368.577 193.854 368.261 194.226C367.944 194.586 367.562 194.859 367.114 195.045C366.677 195.23 366.192 195.323 365.657 195.323C364.914 195.323 364.292 195.159 363.789 194.832C363.298 194.504 362.927 194.095 362.676 193.603V198.435H361.234V186.478ZM365.329 194.045C365.678 194.045 366.006 193.98 366.312 193.849C366.617 193.707 366.879 193.505 367.098 193.243C367.327 192.981 367.502 192.653 367.622 192.26C367.753 191.867 367.819 191.414 367.819 190.901V190.573C367.819 190.104 367.753 189.683 367.622 189.312C367.502 188.941 367.327 188.629 367.098 188.378C366.879 188.116 366.617 187.92 366.312 187.789C366.006 187.658 365.678 187.592 365.329 187.592C364.936 187.592 364.575 187.658 364.248 187.789C363.92 187.909 363.642 188.084 363.413 188.313C363.183 188.531 363.003 188.793 362.872 189.099C362.741 189.405 362.676 189.732 362.676 190.082V191.392C362.676 191.785 362.741 192.145 362.872 192.473C363.003 192.801 363.183 193.079 363.413 193.308C363.642 193.538 363.92 193.718 364.248 193.849C364.575 193.98 364.936 194.045 365.329 194.045ZM373.366 190.688L370.254 186.478H371.859L374.513 190.115H375.512V186.478H376.953V190.115H377.936L380.638 186.478H382.211L379.099 190.639L382.374 195.159H380.671L377.936 191.359H376.953V195.159H375.512V191.359H374.513L371.761 195.159H370.09L373.366 190.688ZM384.091 186.478H385.532V193.03L390.02 186.478H391.461V195.159H390.02V188.608L385.532 195.159H384.091V186.478ZM394.088 186.478H395.529V190.098H400.017V186.478H401.458V195.159H400.017V191.376H395.529V195.159H394.088V186.478ZM406.558 195.323C406.077 195.323 405.652 195.257 405.28 195.126C404.92 194.984 404.614 194.793 404.363 194.553C404.112 194.313 403.921 194.029 403.79 193.701C403.659 193.374 403.593 193.014 403.593 192.62C403.593 191.758 403.844 191.135 404.347 190.753C404.86 190.371 405.592 190.18 406.542 190.18H409.359V189.59C409.359 188.848 409.189 188.335 408.851 188.051C408.523 187.767 408.027 187.625 407.36 187.625C406.738 187.625 406.285 187.745 406.001 187.985C405.717 188.215 405.559 188.477 405.526 188.771H404.085C404.107 188.422 404.199 188.1 404.363 187.805C404.538 187.499 404.767 187.237 405.051 187.019C405.346 186.801 405.695 186.631 406.099 186.511C406.503 186.38 406.951 186.315 407.442 186.315C408.469 186.315 409.282 186.56 409.883 187.052C410.494 187.532 410.8 188.324 410.8 189.427V192.948C410.8 193.407 410.8 193.811 410.8 194.16C410.811 194.499 410.838 194.832 410.882 195.159H409.621C409.588 194.908 409.566 194.673 409.555 194.455C409.544 194.226 409.539 193.969 409.539 193.685C409.31 194.144 408.938 194.531 408.425 194.848C407.912 195.165 407.289 195.323 406.558 195.323ZM406.869 194.013C407.208 194.013 407.524 193.969 407.819 193.882C408.125 193.783 408.392 193.647 408.622 193.472C408.851 193.287 409.031 193.063 409.162 192.801C409.293 192.539 409.359 192.233 409.359 191.883V191.294H406.787C406.252 191.294 405.832 191.403 405.526 191.621C405.22 191.829 405.067 192.162 405.067 192.62C405.067 193.024 405.209 193.358 405.493 193.62C405.788 193.882 406.247 194.013 406.869 194.013ZM412.936 195.323C412.773 195.323 412.609 195.307 412.445 195.274V193.832C412.5 193.843 412.581 193.849 412.691 193.849C412.931 193.849 413.138 193.772 413.313 193.62C413.499 193.467 413.646 193.199 413.755 192.817C413.864 192.435 413.946 191.916 414.001 191.261C414.056 190.606 414.083 189.776 414.083 188.771V186.478H420.307V195.159H418.865V187.756H415.524V189.099C415.524 190.311 415.47 191.316 415.36 192.113C415.251 192.91 415.087 193.549 414.869 194.029C414.662 194.499 414.394 194.832 414.066 195.028C413.739 195.225 413.362 195.323 412.936 195.323ZM422.927 186.478H424.368V189.754H426.448C427.54 189.754 428.343 189.994 428.856 190.475C429.38 190.955 429.642 191.621 429.642 192.473C429.642 193.303 429.38 193.958 428.856 194.439C428.343 194.919 427.54 195.159 426.448 195.159H422.927V186.478ZM426.366 193.882C427.043 193.882 427.518 193.762 427.791 193.521C428.064 193.281 428.201 192.926 428.201 192.457C428.201 191.987 428.064 191.632 427.791 191.392C427.518 191.152 427.043 191.032 426.366 191.032H424.368V193.882H426.366ZM431.532 186.478H432.973V190.098H437.461V186.478H438.902V195.159H437.461V191.376H432.973V195.159H431.532V186.478ZM445.132 195.323C444.575 195.323 444.046 195.236 443.543 195.061C443.041 194.875 442.599 194.602 442.217 194.242C441.835 193.871 441.529 193.407 441.3 192.85C441.07 192.293 440.956 191.643 440.956 190.901V190.573C440.956 189.874 441.07 189.257 441.3 188.722C441.529 188.187 441.835 187.745 442.217 187.396C442.599 187.035 443.041 186.768 443.543 186.593C444.046 186.407 444.575 186.315 445.132 186.315C445.689 186.315 446.219 186.407 446.721 186.593C447.223 186.768 447.665 187.035 448.048 187.396C448.43 187.745 448.736 188.187 448.965 188.722C449.194 189.257 449.309 189.874 449.309 190.573V190.901C449.309 191.643 449.194 192.293 448.965 192.85C448.736 193.407 448.43 193.871 448.048 194.242C447.665 194.602 447.223 194.875 446.721 195.061C446.219 195.236 445.689 195.323 445.132 195.323ZM445.132 194.013C445.46 194.013 445.787 193.958 446.115 193.849C446.443 193.729 446.732 193.549 446.983 193.308C447.234 193.057 447.436 192.735 447.589 192.342C447.753 191.949 447.835 191.468 447.835 190.901V190.573C447.835 190.049 447.753 189.601 447.589 189.23C447.436 188.859 447.234 188.553 446.983 188.313C446.732 188.073 446.443 187.898 446.115 187.789C445.787 187.68 445.46 187.625 445.132 187.625C444.805 187.625 444.477 187.68 444.149 187.789C443.822 187.898 443.533 188.073 443.281 188.313C443.03 188.553 442.823 188.859 442.659 189.23C442.506 189.601 442.43 190.049 442.43 190.573V190.901C442.43 191.468 442.506 191.949 442.659 192.342C442.823 192.735 443.03 193.057 443.281 193.308C443.533 193.549 443.822 193.729 444.149 193.849C444.477 193.958 444.805 194.013 445.132 194.013ZM454.707 195.323C454.151 195.323 453.632 195.236 453.151 195.061C452.671 194.875 452.256 194.602 451.907 194.242C451.557 193.871 451.279 193.407 451.071 192.85C450.875 192.293 450.776 191.643 450.776 190.901V190.573C450.776 189.874 450.886 189.257 451.104 188.722C451.322 188.187 451.612 187.745 451.972 187.396C452.332 187.035 452.747 186.768 453.217 186.593C453.697 186.407 454.194 186.315 454.707 186.315C455.221 186.315 455.679 186.386 456.083 186.528C456.498 186.669 456.853 186.866 457.148 187.117C457.454 187.368 457.699 187.663 457.885 188.002C458.081 188.34 458.223 188.706 458.311 189.099H456.837C456.749 188.892 456.646 188.7 456.525 188.526C456.416 188.34 456.274 188.182 456.1 188.051C455.936 187.92 455.739 187.816 455.51 187.74C455.281 187.663 455.013 187.625 454.707 187.625C454.391 187.625 454.085 187.685 453.79 187.805C453.495 187.914 453.233 188.089 453.004 188.329C452.775 188.559 452.589 188.859 452.447 189.23C452.316 189.601 452.251 190.049 452.251 190.573V190.901C452.251 191.458 452.316 191.938 452.447 192.342C452.589 192.735 452.775 193.057 453.004 193.308C453.233 193.549 453.495 193.729 453.79 193.849C454.085 193.958 454.391 194.013 454.707 194.013C455.242 194.013 455.69 193.882 456.05 193.62C456.422 193.358 456.684 192.997 456.837 192.539H458.311C458.103 193.401 457.677 194.084 457.033 194.586C456.389 195.077 455.614 195.323 454.707 195.323ZM462.257 187.756H459.292V186.478H466.663V187.756H463.698V195.159H462.257V187.756ZM468.304 186.478H469.746V189.754H471.826C472.918 189.754 473.72 189.994 474.234 190.475C474.758 190.955 475.02 191.621 475.02 192.473C475.02 193.303 474.758 193.958 474.234 194.439C473.72 194.919 472.918 195.159 471.826 195.159H468.304V186.478ZM471.744 193.882C472.421 193.882 472.896 193.762 473.169 193.521C473.442 193.281 473.578 192.926 473.578 192.457C473.578 191.987 473.442 191.632 473.169 191.392C472.896 191.152 472.421 191.032 471.744 191.032H469.746V193.882H471.744Z" fill="#1F1F25" fill-opacity="0.8"/>
<path d="M66.2092 240.694H70.1401C70.8935 240.694 71.5487 240.781 72.1055 240.956C72.6624 241.131 73.121 241.376 73.4814 241.693C73.8526 241.999 74.1256 242.37 74.3003 242.807C74.475 243.233 74.5624 243.702 74.5624 244.215C74.5624 244.729 74.475 245.204 74.3003 245.64C74.1256 246.066 73.8526 246.438 73.4814 246.754C73.121 247.06 72.6624 247.3 72.1055 247.475C71.5487 247.65 70.8935 247.737 70.1401 247.737H67.7488V252.159H66.2092V240.694ZM70.0582 246.394C70.6042 246.394 71.0628 246.345 71.434 246.246C71.8162 246.137 72.1219 245.99 72.3512 245.804C72.5915 245.619 72.7607 245.389 72.859 245.116C72.9682 244.843 73.0228 244.543 73.0228 244.215C73.0228 243.888 72.9682 243.588 72.859 243.315C72.7607 243.042 72.5915 242.812 72.3512 242.627C72.1219 242.441 71.8162 242.299 71.434 242.201C71.0628 242.092 70.6042 242.037 70.0582 242.037H67.7488V246.394H70.0582ZM80.0576 252.323C79.5007 252.323 78.9711 252.236 78.4689 252.061C77.9666 251.875 77.5243 251.602 77.1422 251.242C76.76 250.871 76.4543 250.407 76.225 249.85C75.9956 249.293 75.881 248.643 75.881 247.901V247.573C75.881 246.874 75.9956 246.257 76.225 245.722C76.4543 245.187 76.76 244.745 77.1422 244.396C77.5243 244.035 77.9666 243.768 78.4689 243.593C78.9711 243.407 79.5007 243.315 80.0576 243.315C80.6145 243.315 81.1441 243.407 81.6463 243.593C82.1486 243.768 82.5909 244.035 82.973 244.396C83.3552 244.745 83.6609 245.187 83.8902 245.722C84.1195 246.257 84.2342 246.874 84.2342 247.573V247.901C84.2342 248.643 84.1195 249.293 83.8902 249.85C83.6609 250.407 83.3552 250.871 82.973 251.242C82.5909 251.602 82.1486 251.875 81.6463 252.061C81.1441 252.236 80.6145 252.323 80.0576 252.323ZM80.0576 251.013C80.3852 251.013 80.7128 250.958 81.0403 250.849C81.3679 250.729 81.6573 250.549 81.9084 250.308C82.1595 250.057 82.3616 249.735 82.5144 249.342C82.6782 248.949 82.7601 248.468 82.7601 247.901V247.573C82.7601 247.049 82.6782 246.601 82.5144 246.23C82.3616 245.859 82.1595 245.553 81.9084 245.313C81.6573 245.073 81.3679 244.898 81.0403 244.789C80.7128 244.68 80.3852 244.625 80.0576 244.625C79.73 244.625 79.4024 244.68 79.0749 244.789C78.7473 244.898 78.4579 245.073 78.2068 245.313C77.9556 245.553 77.7482 245.859 77.5844 246.23C77.4315 246.601 77.3551 247.049 77.3551 247.573V247.901C77.3551 248.468 77.4315 248.949 77.5844 249.342C77.7482 249.735 77.9556 250.057 78.2068 250.308C78.4579 250.549 78.7473 250.729 79.0749 250.849C79.4024 250.958 79.73 251.013 80.0576 251.013ZM89.2233 252.323C88.1314 252.323 87.2743 252.094 86.6519 251.635C86.0295 251.176 85.6855 250.532 85.62 249.702H87.0613C87.1378 250.128 87.3616 250.456 87.7329 250.685C88.115 250.903 88.6119 251.013 89.2233 251.013C89.9768 251.013 90.5227 250.887 90.8612 250.636C91.2106 250.374 91.3853 250.063 91.3853 249.702C91.3853 249.277 91.2434 248.943 90.9595 248.703C90.6756 248.452 90.1842 248.327 89.4854 248.327H87.9949V247.147H89.3871C89.9877 247.147 90.4135 247.033 90.6647 246.803C90.9267 246.574 91.0578 246.252 91.0578 245.837C91.0578 245.509 90.9049 245.225 90.5992 244.985C90.2934 244.745 89.8348 244.625 89.2233 244.625C88.5573 244.625 88.0714 244.734 87.7656 244.952C87.4708 245.16 87.2906 245.46 87.2251 245.853H85.7838C85.8165 245.493 85.9148 245.16 86.0786 244.854C86.2533 244.538 86.4881 244.265 86.7829 244.035C87.0777 243.806 87.4271 243.631 87.8311 243.511C88.2461 243.38 88.7101 243.315 89.2233 243.315C89.7802 243.315 90.2607 243.38 90.6647 243.511C91.0796 243.631 91.4236 243.806 91.6965 244.035C91.9695 244.254 92.1715 244.516 92.3026 244.821C92.4336 245.127 92.4991 245.466 92.4991 245.837C92.4991 246.252 92.3954 246.618 92.1879 246.934C91.9804 247.24 91.6474 247.48 91.1888 247.655C91.8003 247.819 92.2261 248.081 92.4664 248.441C92.7066 248.802 92.8267 249.222 92.8267 249.702C92.8267 250.063 92.7502 250.401 92.5974 250.718C92.4445 251.035 92.2152 251.313 91.9095 251.553C91.6147 251.782 91.2379 251.968 90.7793 252.11C90.3316 252.252 89.813 252.323 89.2233 252.323ZM97.3536 252.323C96.8732 252.323 96.4473 252.257 96.0761 252.126C95.7158 251.984 95.41 251.793 95.1589 251.553C94.9077 251.313 94.7166 251.029 94.5856 250.701C94.4546 250.374 94.3891 250.014 94.3891 249.62C94.3891 248.758 94.6402 248.135 95.1425 247.753C95.6557 247.371 96.3873 247.18 97.3373 247.18H100.154V246.59C100.154 245.848 99.9852 245.335 99.6467 245.051C99.3191 244.767 98.8223 244.625 98.1562 244.625C97.5338 244.625 97.0807 244.745 96.7968 244.985C96.5129 245.215 96.3545 245.477 96.3218 245.771H94.8804C94.9023 245.422 94.9951 245.1 95.1589 244.805C95.3336 244.499 95.5629 244.237 95.8468 244.019C96.1416 243.801 96.491 243.631 96.895 243.511C97.299 243.38 97.7467 243.315 98.2381 243.315C99.2645 243.315 100.078 243.56 100.679 244.052C101.29 244.532 101.596 245.324 101.596 246.427V249.948C101.596 250.407 101.596 250.811 101.596 251.16C101.607 251.499 101.634 251.832 101.678 252.159H100.416C100.384 251.908 100.362 251.673 100.351 251.455C100.34 251.226 100.335 250.969 100.335 250.685C100.105 251.144 99.734 251.531 99.2208 251.848C98.7076 252.165 98.0852 252.323 97.3536 252.323ZM97.6648 251.013C98.0033 251.013 98.32 250.969 98.6148 250.882C98.9205 250.783 99.1881 250.647 99.4174 250.472C99.6467 250.287 99.8268 250.063 99.9579 249.801C100.089 249.539 100.154 249.233 100.154 248.883V248.294H97.5829C97.0479 248.294 96.6275 248.403 96.3218 248.621C96.016 248.829 95.8632 249.162 95.8632 249.62C95.8632 250.024 96.0051 250.358 96.289 250.62C96.5838 250.882 97.0424 251.013 97.6648 251.013ZM108.564 240.694H110.169L114.002 247.983L117.834 240.694H119.374V252.159H117.834V243.478L114.542 249.702H113.396L110.103 243.478V252.159H108.564V240.694ZM125.931 252.323C125.374 252.323 124.845 252.236 124.342 252.061C123.84 251.886 123.398 251.619 123.016 251.258C122.634 250.887 122.328 250.423 122.098 249.866C121.869 249.309 121.755 248.654 121.755 247.901V247.573C121.755 246.852 121.864 246.23 122.082 245.706C122.3 245.171 122.59 244.729 122.95 244.379C123.321 244.019 123.747 243.751 124.228 243.577C124.719 243.402 125.232 243.315 125.767 243.315C127.045 243.315 128.033 243.664 128.732 244.363C129.431 245.062 129.78 246.05 129.78 247.327V248.245H123.196C123.196 248.758 123.278 249.189 123.442 249.539C123.605 249.888 123.818 250.172 124.08 250.39C124.342 250.609 124.632 250.767 124.948 250.865C125.276 250.964 125.604 251.013 125.931 251.013C126.586 251.013 127.089 250.903 127.438 250.685C127.798 250.467 128.055 250.166 128.208 249.784H129.616C129.529 250.199 129.371 250.565 129.141 250.882C128.923 251.198 128.65 251.466 128.322 251.684C128.006 251.892 127.64 252.05 127.225 252.159C126.821 252.268 126.39 252.323 125.931 252.323ZM125.849 244.625C125.511 244.625 125.183 244.674 124.866 244.772C124.55 244.86 124.266 245.007 124.015 245.215C123.775 245.411 123.578 245.662 123.425 245.968C123.272 246.274 123.196 246.64 123.196 247.065H128.421C128.41 246.618 128.333 246.241 128.191 245.935C128.06 245.619 127.88 245.367 127.651 245.182C127.422 244.985 127.149 244.843 126.832 244.756C126.526 244.669 126.199 244.625 125.849 244.625ZM131.829 243.478H133.27V247.098H137.758V243.478H139.199V252.159H137.758V248.376H133.27V252.159H131.829V243.478ZM143.807 244.756H140.843V243.478H148.213V244.756H145.249V252.159H143.807V244.756ZM152.008 252.323C151.528 252.323 151.102 252.257 150.731 252.126C150.37 251.984 150.065 251.793 149.814 251.553C149.562 251.313 149.371 251.029 149.24 250.701C149.109 250.374 149.044 250.014 149.044 249.62C149.044 248.758 149.295 248.135 149.797 247.753C150.31 247.371 151.042 247.18 151.992 247.18H154.809V246.59C154.809 245.848 154.64 245.335 154.301 245.051C153.974 244.767 153.477 244.625 152.811 244.625C152.189 244.625 151.735 244.745 151.451 244.985C151.168 245.215 151.009 245.477 150.977 245.771H149.535C149.557 245.422 149.65 245.1 149.814 244.805C149.988 244.499 150.218 244.237 150.502 244.019C150.796 243.801 151.146 243.631 151.55 243.511C151.954 243.38 152.401 243.315 152.893 243.315C153.919 243.315 154.733 243.56 155.333 244.052C155.945 244.532 156.25 245.324 156.25 246.427V249.948C156.25 250.407 156.25 250.811 156.25 251.16C156.261 251.499 156.289 251.832 156.332 252.159H155.071C155.038 251.908 155.017 251.673 155.006 251.455C154.995 251.226 154.989 250.969 154.989 250.685C154.76 251.144 154.389 251.531 153.876 251.848C153.362 252.165 152.74 252.323 152.008 252.323ZM152.32 251.013C152.658 251.013 152.975 250.969 153.27 250.882C153.575 250.783 153.843 250.647 154.072 250.472C154.301 250.287 154.482 250.063 154.613 249.801C154.744 249.539 154.809 249.233 154.809 248.883V248.294H152.238C151.703 248.294 151.282 248.403 150.977 248.621C150.671 248.829 150.518 249.162 150.518 249.62C150.518 250.024 150.66 250.358 150.944 250.62C151.239 250.882 151.697 251.013 152.32 251.013Z" fill="#2261EB"/>
<path opacity="0.8" d="M221.226 250.898L225.813 246.918C226.162 246.623 226.446 246.356 226.664 246.115C226.894 245.875 227.074 245.651 227.205 245.444C227.336 245.225 227.423 245.013 227.467 244.805C227.521 244.598 227.549 244.374 227.549 244.134C227.549 243.489 227.358 242.96 226.975 242.545C226.593 242.119 226.069 241.906 225.403 241.906C224.606 241.906 223.994 242.124 223.569 242.561C223.143 242.987 222.93 243.593 222.93 244.379H221.39C221.39 243.822 221.483 243.309 221.669 242.84C221.865 242.359 222.138 241.95 222.488 241.611C222.848 241.273 223.274 241.011 223.765 240.825C224.257 240.628 224.802 240.53 225.403 240.53C225.982 240.53 226.5 240.623 226.959 240.809C227.418 240.983 227.805 241.235 228.122 241.562C228.439 241.879 228.679 242.255 228.843 242.692C229.006 243.129 229.088 243.609 229.088 244.134C229.088 244.527 229.028 244.892 228.908 245.231C228.788 245.569 228.619 245.892 228.4 246.197C228.193 246.503 227.936 246.803 227.631 247.098C227.336 247.382 227.008 247.677 226.648 247.983L223.225 250.816H229.252V252.159H221.226V250.898ZM234.74 252.323C234.118 252.323 233.561 252.241 233.07 252.077C232.589 251.903 232.18 251.668 231.841 251.373C231.503 251.078 231.246 250.734 231.071 250.341C230.897 249.937 230.809 249.506 230.809 249.047H232.349C232.349 249.604 232.54 250.063 232.922 250.423C233.304 250.772 233.91 250.947 234.74 250.947C235.57 250.947 236.176 250.767 236.558 250.407C236.94 250.035 237.132 249.555 237.132 248.965C237.132 248.354 236.935 247.862 236.542 247.491C236.16 247.109 235.559 246.918 234.74 246.918H233.512V245.608H234.74C235.526 245.608 236.094 245.444 236.444 245.116C236.793 244.778 236.968 244.314 236.968 243.724C236.968 243.156 236.799 242.714 236.46 242.397C236.122 242.07 235.548 241.906 234.74 241.906C233.965 241.906 233.397 242.075 233.037 242.414C232.687 242.741 232.513 243.151 232.513 243.642H230.973C230.973 243.216 231.055 242.812 231.219 242.43C231.394 242.048 231.639 241.72 231.956 241.447C232.283 241.164 232.677 240.94 233.135 240.776C233.605 240.612 234.14 240.53 234.74 240.53C235.341 240.53 235.876 240.612 236.345 240.776C236.815 240.94 237.208 241.158 237.525 241.431C237.852 241.704 238.098 242.026 238.262 242.397C238.425 242.769 238.507 243.156 238.507 243.56C238.507 244.215 238.333 244.772 237.983 245.231C237.645 245.679 237.164 245.995 236.542 246.181C237.197 246.388 237.716 246.727 238.098 247.196C238.48 247.666 238.671 248.31 238.671 249.129C238.671 249.566 238.584 249.981 238.409 250.374C238.234 250.756 237.978 251.095 237.639 251.389C237.312 251.673 236.902 251.903 236.411 252.077C235.92 252.241 235.363 252.323 234.74 252.323ZM248.744 252.323C248.067 252.323 247.471 252.241 246.958 252.077C246.445 251.913 246.014 251.69 245.664 251.406C245.326 251.122 245.069 250.789 244.894 250.407C244.731 250.014 244.649 249.588 244.649 249.129C244.649 248.474 244.856 247.89 245.271 247.377C245.686 246.852 246.298 246.481 247.106 246.263C246.811 246.165 246.532 246.033 246.27 245.87C246.019 245.695 245.795 245.493 245.599 245.264C245.402 245.034 245.249 244.778 245.14 244.494C245.031 244.199 244.976 243.888 244.976 243.56C244.976 243.134 245.058 242.736 245.222 242.365C245.386 241.993 245.626 241.677 245.943 241.415C246.259 241.142 246.652 240.929 247.122 240.776C247.592 240.612 248.132 240.53 248.744 240.53C249.355 240.53 249.895 240.612 250.365 240.776C250.835 240.929 251.228 241.142 251.544 241.415C251.861 241.677 252.101 241.993 252.265 242.365C252.429 242.736 252.511 243.134 252.511 243.56C252.511 244.215 252.303 244.772 251.888 245.231C251.484 245.69 250.982 246.033 250.381 246.263C251.2 246.536 251.812 246.896 252.216 247.344C252.631 247.791 252.838 248.387 252.838 249.129C252.838 249.588 252.751 250.014 252.576 250.407C252.412 250.789 252.156 251.122 251.806 251.406C251.468 251.69 251.042 251.913 250.529 252.077C250.016 252.241 249.421 252.323 248.744 252.323ZM248.744 250.947C249.213 250.947 249.612 250.898 249.939 250.8C250.267 250.691 250.529 250.554 250.725 250.39C250.933 250.216 251.08 250.014 251.168 249.784C251.255 249.544 251.299 249.293 251.299 249.031C251.299 248.725 251.233 248.447 251.102 248.196C250.982 247.944 250.807 247.726 250.578 247.54C250.349 247.344 250.076 247.191 249.759 247.082C249.453 246.962 249.115 246.88 248.744 246.836C248.372 246.88 248.028 246.962 247.712 247.082C247.406 247.191 247.138 247.338 246.909 247.524C246.68 247.71 246.5 247.933 246.369 248.196C246.248 248.447 246.188 248.725 246.188 249.031C246.188 249.293 246.232 249.544 246.319 249.784C246.407 250.014 246.549 250.216 246.745 250.39C246.953 250.554 247.22 250.691 247.548 250.8C247.875 250.898 248.274 250.947 248.744 250.947ZM248.744 245.69C249.399 245.602 249.934 245.395 250.349 245.067C250.764 244.729 250.971 244.254 250.971 243.642C250.971 243.085 250.785 242.659 250.414 242.365C250.054 242.059 249.497 241.906 248.744 241.906C247.979 241.906 247.417 242.059 247.056 242.365C246.696 242.659 246.516 243.085 246.516 243.642C246.516 244.254 246.723 244.729 247.138 245.067C247.553 245.395 248.088 245.602 248.744 245.69ZM258.413 252.323C257.485 252.323 256.715 252.116 256.103 251.701C255.492 251.275 255.088 250.636 254.891 249.784H256.431C256.737 250.56 257.397 250.947 258.413 250.947C258.806 250.947 259.172 250.876 259.51 250.734C259.849 250.592 260.143 250.358 260.395 250.03C260.646 249.702 260.848 249.266 261.001 248.72C261.154 248.174 261.241 247.491 261.263 246.672C261.11 246.934 260.924 247.164 260.706 247.36C260.487 247.546 260.247 247.699 259.985 247.819C259.734 247.928 259.472 248.01 259.199 248.064C258.926 248.119 258.664 248.146 258.413 248.146C257.266 248.146 256.349 247.83 255.661 247.196C254.984 246.552 254.646 245.635 254.646 244.445V244.281C254.646 243.735 254.744 243.233 254.94 242.774C255.148 242.316 255.426 241.922 255.776 241.595C256.125 241.256 256.535 240.994 257.004 240.809C257.474 240.623 257.971 240.53 258.495 240.53C259.783 240.53 260.799 240.951 261.541 241.791C262.295 242.632 262.671 243.959 262.671 245.771V246.099C262.671 247.224 262.557 248.185 262.327 248.982C262.098 249.768 261.787 250.412 261.394 250.914C261.012 251.406 260.564 251.766 260.051 251.995C259.537 252.214 258.991 252.323 258.413 252.323ZM258.626 246.771C259.423 246.771 260.029 246.569 260.444 246.165C260.859 245.761 261.066 245.182 261.066 244.428V244.265C261.066 243.522 260.853 242.943 260.427 242.528C260.012 242.113 259.412 241.906 258.626 241.906C257.829 241.906 257.223 242.108 256.808 242.512C256.393 242.905 256.185 243.489 256.185 244.265V244.428C256.185 245.182 256.393 245.761 256.808 246.165C257.223 246.569 257.829 246.771 258.626 246.771ZM268.739 252.323C268.182 252.323 267.653 252.23 267.15 252.045C266.659 251.859 266.228 251.542 265.856 251.095C265.485 250.636 265.19 250.03 264.972 249.277C264.754 248.512 264.644 247.562 264.644 246.427V246.099C264.644 245.04 264.754 244.155 264.972 243.446C265.19 242.736 265.485 242.168 265.856 241.742C266.228 241.305 266.659 240.994 267.15 240.809C267.653 240.623 268.182 240.53 268.739 240.53C269.296 240.53 269.82 240.623 270.311 240.809C270.814 240.994 271.251 241.305 271.622 241.742C271.993 242.168 272.288 242.736 272.506 243.446C272.725 244.155 272.834 245.04 272.834 246.099V246.427C272.834 247.562 272.725 248.512 272.506 249.277C272.288 250.03 271.993 250.636 271.622 251.095C271.251 251.542 270.814 251.859 270.311 252.045C269.82 252.23 269.296 252.323 268.739 252.323ZM268.739 250.98C269.078 250.98 269.4 250.92 269.705 250.8C270.022 250.669 270.295 250.439 270.524 250.112C270.765 249.773 270.95 249.309 271.081 248.72C271.223 248.13 271.294 247.366 271.294 246.427V246.099C271.294 245.247 271.223 244.548 271.081 244.003C270.95 243.457 270.765 243.025 270.524 242.709C270.295 242.392 270.022 242.174 269.705 242.053C269.4 241.933 269.078 241.873 268.739 241.873C268.39 241.873 268.062 241.933 267.756 242.053C267.451 242.174 267.178 242.392 266.937 242.709C266.708 243.025 266.523 243.457 266.381 244.003C266.25 244.548 266.184 245.247 266.184 246.099V246.427C266.184 247.366 266.25 248.13 266.381 248.72C266.523 249.309 266.708 249.773 266.937 250.112C267.178 250.439 267.451 250.669 267.756 250.8C268.062 250.92 268.39 250.98 268.739 250.98ZM279.879 250.292H278.405V249.113H279.879V247.737H278.405V246.394H279.879V240.694H283.482C284.159 240.694 284.749 240.781 285.251 240.956C285.764 241.131 286.19 241.376 286.528 241.693C286.878 241.999 287.14 242.37 287.315 242.807C287.489 243.233 287.577 243.702 287.577 244.215C287.577 244.729 287.489 245.204 287.315 245.64C287.14 246.066 286.878 246.438 286.528 246.754C286.19 247.06 285.764 247.3 285.251 247.475C284.749 247.65 284.159 247.737 283.482 247.737H281.418V249.113H285.284V250.292H281.418V252.159H279.879V250.292ZM283.4 246.394C284.339 246.394 285.011 246.197 285.415 245.804C285.83 245.411 286.037 244.882 286.037 244.215C286.037 243.549 285.83 243.02 285.415 242.627C285.011 242.234 284.339 242.037 283.4 242.037H281.418V246.394H283.4Z" fill="#1F1F25"/>
<path opacity="0.8" d="M341.731 252.323C341.097 252.323 340.524 252.219 340.011 252.012C339.498 251.804 339.055 251.488 338.684 251.062C338.324 250.625 338.045 250.079 337.849 249.424C337.652 248.769 337.554 247.988 337.554 247.082V246.754C337.554 245.629 337.669 244.674 337.898 243.888C338.127 243.091 338.438 242.447 338.832 241.955C339.225 241.453 339.683 241.093 340.207 240.874C340.732 240.645 341.294 240.53 341.894 240.53C342.779 240.53 343.521 240.743 344.122 241.169C344.733 241.584 345.137 242.217 345.334 243.069H343.794C343.489 242.294 342.855 241.906 341.894 241.906C341.479 241.906 341.097 241.977 340.748 242.119C340.398 242.261 340.093 242.496 339.831 242.823C339.58 243.151 339.378 243.588 339.225 244.134C339.072 244.68 338.984 245.362 338.963 246.181C339.115 245.919 339.301 245.695 339.519 245.509C339.738 245.313 339.973 245.16 340.224 245.051C340.486 244.931 340.753 244.843 341.026 244.789C341.299 244.734 341.561 244.707 341.813 244.707C342.959 244.707 343.871 245.029 344.548 245.673C345.236 246.306 345.58 247.218 345.58 248.408V248.572C345.58 249.118 345.476 249.62 345.268 250.079C345.072 250.538 344.799 250.936 344.45 251.275C344.1 251.602 343.691 251.859 343.221 252.045C342.752 252.23 342.255 252.323 341.731 252.323ZM341.6 250.947C342.397 250.947 343.003 250.745 343.418 250.341C343.833 249.937 344.04 249.353 344.04 248.589V248.425C344.04 247.671 343.833 247.093 343.418 246.689C343.003 246.285 342.397 246.083 341.6 246.083C340.802 246.083 340.196 246.285 339.782 246.689C339.367 247.093 339.159 247.671 339.159 248.425V248.589C339.159 249.342 339.367 249.926 339.782 250.341C340.196 250.745 340.802 250.947 341.6 250.947ZM351.156 252.323C350.228 252.323 349.458 252.116 348.847 251.701C348.235 251.275 347.831 250.636 347.635 249.784H349.174C349.48 250.56 350.141 250.947 351.156 250.947C351.549 250.947 351.915 250.876 352.254 250.734C352.592 250.592 352.887 250.358 353.138 250.03C353.389 249.702 353.591 249.266 353.744 248.72C353.897 248.174 353.984 247.491 354.006 246.672C353.853 246.934 353.668 247.164 353.449 247.36C353.231 247.546 352.991 247.699 352.728 247.819C352.477 247.928 352.215 248.01 351.942 248.064C351.669 248.119 351.407 248.146 351.156 248.146C350.01 248.146 349.092 247.83 348.404 247.196C347.727 246.552 347.389 245.635 347.389 244.445V244.281C347.389 243.735 347.487 243.233 347.684 242.774C347.891 242.316 348.17 241.922 348.519 241.595C348.869 241.256 349.278 240.994 349.748 240.809C350.217 240.623 350.714 240.53 351.238 240.53C352.526 240.53 353.542 240.951 354.284 241.791C355.038 242.632 355.415 243.959 355.415 245.771V246.099C355.415 247.224 355.3 248.185 355.071 248.982C354.841 249.768 354.53 250.412 354.137 250.914C353.755 251.406 353.307 251.766 352.794 251.995C352.281 252.214 351.735 252.323 351.156 252.323ZM351.369 246.771C352.166 246.771 352.772 246.569 353.187 246.165C353.602 245.761 353.809 245.182 353.809 244.428V244.265C353.809 243.522 353.597 242.943 353.171 242.528C352.756 242.113 352.155 241.906 351.369 241.906C350.572 241.906 349.966 242.108 349.551 242.512C349.136 242.905 348.929 243.489 348.929 244.265V244.428C348.929 245.182 349.136 245.761 349.551 246.165C349.966 246.569 350.572 246.771 351.369 246.771ZM366.396 240.694H368.034L360.172 252.159H358.534L366.396 240.694ZM359.517 246.099C359.135 246.099 358.78 246.033 358.452 245.902C358.136 245.771 357.863 245.591 357.633 245.362C357.404 245.122 357.224 244.838 357.093 244.51C356.962 244.172 356.896 243.801 356.896 243.397V243.233C356.896 242.829 356.962 242.463 357.093 242.135C357.224 241.808 357.404 241.524 357.633 241.284C357.863 241.043 358.136 240.858 358.452 240.727C358.78 240.596 359.135 240.53 359.517 240.53C359.899 240.53 360.249 240.596 360.565 240.727C360.893 240.858 361.171 241.043 361.401 241.284C361.63 241.524 361.81 241.808 361.941 242.135C362.072 242.463 362.138 242.829 362.138 243.233V243.397C362.138 243.801 362.072 244.172 361.941 244.51C361.81 244.838 361.63 245.122 361.401 245.362C361.171 245.591 360.893 245.771 360.565 245.902C360.249 246.033 359.899 246.099 359.517 246.099ZM359.517 244.854C359.888 244.854 360.183 244.734 360.401 244.494C360.62 244.254 360.729 243.888 360.729 243.397V243.233C360.729 242.741 360.62 242.376 360.401 242.135C360.183 241.895 359.888 241.775 359.517 241.775C359.146 241.775 358.851 241.895 358.633 242.135C358.414 242.376 358.305 242.741 358.305 243.233V243.397C358.305 243.888 358.414 244.254 358.633 244.494C358.851 244.734 359.146 244.854 359.517 244.854ZM367.051 252.307C366.669 252.307 366.314 252.241 365.987 252.11C365.67 251.979 365.397 251.799 365.168 251.57C364.938 251.329 364.758 251.045 364.627 250.718C364.496 250.379 364.431 250.008 364.431 249.604V249.44C364.431 249.036 364.496 248.67 364.627 248.343C364.758 248.015 364.938 247.731 365.168 247.491C365.397 247.251 365.67 247.065 365.987 246.934C366.314 246.803 366.669 246.738 367.051 246.738C367.433 246.738 367.783 246.803 368.1 246.934C368.427 247.065 368.706 247.251 368.935 247.491C369.164 247.731 369.344 248.015 369.475 248.343C369.606 248.67 369.672 249.036 369.672 249.44V249.604C369.672 250.008 369.606 250.379 369.475 250.718C369.344 251.045 369.164 251.329 368.935 251.57C368.706 251.799 368.427 251.979 368.1 252.11C367.783 252.241 367.433 252.307 367.051 252.307ZM367.051 251.062C367.423 251.062 367.717 250.942 367.936 250.701C368.154 250.461 368.263 250.095 368.263 249.604V249.44C368.263 248.949 368.154 248.583 367.936 248.343C367.717 248.103 367.423 247.983 367.051 247.983C366.68 247.983 366.385 248.103 366.167 248.343C365.948 248.583 365.839 248.949 365.839 249.44V249.604C365.839 250.095 365.948 250.461 366.167 250.701C366.385 250.942 366.68 251.062 367.051 251.062Z" fill="#1F1F25"/>
<rect opacity="0.5" x="378.571" y="240.659" width="74.52" height="10" rx="5" fill="#2261EB"/>
<path d="M493.492 270.794H52.5713V273.524H493.492V270.794Z" fill="#D5D5D5" mask="url(#path-16-inside-1_6869_64181)"/>
<path d="M64.8989 303.816H66.1273C66.3347 303.401 66.5095 302.888 66.6514 302.277C66.7933 301.665 66.9025 301.01 66.979 300.311C67.0554 299.601 67.11 298.875 67.1428 298.133C67.1755 297.379 67.1919 296.664 67.1919 295.987V293.694H74.6443V303.816H76.0365V307.288H74.5624V305.159H66.373V307.288H64.8989V303.816ZM73.1047 303.816V295.037H68.6988V296.315C68.6988 297.974 68.6223 299.41 68.4694 300.622C68.3275 301.834 68.0927 302.899 67.7652 303.816H73.1047ZM77.8458 296.478H79.2872V303.03L83.775 296.478H85.2163V305.159H83.775V298.608L79.2872 305.159H77.8458V296.478ZM90.3159 305.323C89.8354 305.323 89.4096 305.257 89.0383 305.126C88.678 304.984 88.3722 304.793 88.1211 304.553C87.87 304.313 87.6789 304.029 87.5478 303.701C87.4168 303.374 87.3513 303.014 87.3513 302.62C87.3513 301.758 87.6024 301.135 88.1047 300.753C88.6179 300.371 89.3495 300.18 90.2995 300.18H93.1166V299.59C93.1166 298.848 92.9474 298.335 92.6089 298.051C92.2813 297.767 91.7845 297.625 91.1184 297.625C90.496 297.625 90.0429 297.745 89.759 297.985C89.4751 298.215 89.3168 298.477 89.284 298.771H87.8427C87.8645 298.422 87.9573 298.1 88.1211 297.805C88.2958 297.499 88.5251 297.237 88.809 297.019C89.1038 296.801 89.4532 296.631 89.8573 296.511C90.2613 296.38 90.709 296.315 91.2003 296.315C92.2267 296.315 93.0402 296.56 93.6408 297.052C94.2522 297.532 94.558 298.324 94.558 299.427V302.948C94.558 303.407 94.558 303.811 94.558 304.16C94.5689 304.499 94.5962 304.832 94.6399 305.159H93.3787C93.3459 304.908 93.3241 304.673 93.3132 304.455C93.3023 304.226 93.2968 303.969 93.2968 303.685C93.0675 304.144 92.6963 304.531 92.183 304.848C91.6698 305.165 91.0474 305.323 90.3159 305.323ZM90.6271 304.013C90.9656 304.013 91.2822 303.969 91.577 303.882C91.8828 303.783 92.1503 303.647 92.3796 303.472C92.6089 303.287 92.7891 303.063 92.9201 302.801C93.0511 302.539 93.1166 302.233 93.1166 301.883V301.294H90.5452C90.0101 301.294 89.5897 301.403 89.284 301.621C88.9783 301.829 88.8254 302.162 88.8254 302.62C88.8254 303.024 88.9673 303.358 89.2512 303.62C89.5461 303.882 90.0047 304.013 90.6271 304.013ZM97.1037 296.478H98.5451V300.098H103.033V296.478H104.474V305.159H103.033V301.376H98.5451V305.159H97.1037V296.478ZM109.082 297.756H106.118V296.478H113.488V297.756H110.524V305.159H109.082V297.756ZM116.596 308.599C116.433 308.599 116.269 308.582 116.105 308.55V307.239C116.269 307.272 116.433 307.288 116.596 307.288C116.76 307.288 116.902 307.261 117.022 307.207C117.142 307.152 117.257 307.048 117.366 306.895C117.475 306.742 117.59 306.524 117.71 306.24C117.841 305.967 117.989 305.607 118.152 305.159L114.467 296.478H116.072L118.889 303.521L121.445 296.478H122.984L119.708 305.159C119.479 305.771 119.261 306.295 119.053 306.732C118.846 307.168 118.622 307.523 118.382 307.796C118.152 308.08 117.896 308.282 117.612 308.402C117.328 308.533 116.99 308.599 116.596 308.599ZM127.653 305.323C127.096 305.323 126.577 305.236 126.097 305.061C125.616 304.875 125.201 304.602 124.852 304.242C124.503 303.871 124.224 303.407 124.017 302.85C123.82 302.293 123.722 301.643 123.722 300.901V300.573C123.722 299.874 123.831 299.257 124.049 298.722C124.268 298.187 124.557 297.745 124.918 297.396C125.278 297.035 125.693 296.768 126.162 296.593C126.643 296.407 127.14 296.315 127.653 296.315C128.166 296.315 128.625 296.386 129.029 296.528C129.444 296.669 129.798 296.866 130.093 297.117C130.399 297.368 130.645 297.663 130.83 298.002C131.027 298.34 131.169 298.706 131.256 299.099H129.782C129.695 298.892 129.591 298.7 129.471 298.526C129.362 298.34 129.22 298.182 129.045 298.051C128.881 297.92 128.685 297.816 128.455 297.74C128.226 297.663 127.959 297.625 127.653 297.625C127.336 297.625 127.03 297.685 126.736 297.805C126.441 297.914 126.179 298.089 125.949 298.329C125.72 298.559 125.534 298.859 125.393 299.23C125.261 299.601 125.196 300.049 125.196 300.573V300.901C125.196 301.458 125.261 301.938 125.393 302.342C125.534 302.735 125.72 303.057 125.949 303.308C126.179 303.549 126.441 303.729 126.736 303.849C127.03 303.958 127.336 304.013 127.653 304.013C128.188 304.013 128.636 303.882 128.996 303.62C129.367 303.358 129.629 302.997 129.782 302.539H131.256C131.049 303.401 130.623 304.084 129.979 304.586C129.334 305.077 128.559 305.323 127.653 305.323Z" fill="#2261EB"/>
<path opacity="0.8" d="M221.472 303.816H224.207V295.381L221.472 297.33V295.659L224.24 293.694H225.78V303.816H228.024V305.159H221.472V303.816ZM233.189 305.323C232.261 305.323 231.491 305.116 230.879 304.701C230.268 304.275 229.864 303.636 229.667 302.784H231.207C231.513 303.56 232.173 303.947 233.189 303.947C233.582 303.947 233.948 303.876 234.286 303.734C234.625 303.592 234.919 303.358 235.171 303.03C235.422 302.702 235.624 302.266 235.777 301.72C235.929 301.174 236.017 300.491 236.039 299.672C235.886 299.934 235.7 300.164 235.482 300.36C235.263 300.546 235.023 300.699 234.761 300.819C234.51 300.928 234.248 301.01 233.975 301.064C233.702 301.119 233.44 301.146 233.189 301.146C232.042 301.146 231.125 300.83 230.437 300.196C229.76 299.552 229.422 298.635 229.422 297.445V297.281C229.422 296.735 229.52 296.233 229.716 295.774C229.924 295.316 230.202 294.922 230.552 294.595C230.901 294.256 231.311 293.994 231.78 293.809C232.25 293.623 232.747 293.53 233.271 293.53C234.559 293.53 235.575 293.951 236.317 294.791C237.071 295.632 237.447 296.959 237.447 298.771V299.099C237.447 300.224 237.333 301.185 237.103 301.982C236.874 302.768 236.563 303.412 236.17 303.914C235.788 304.406 235.34 304.766 234.827 304.995C234.313 305.214 233.767 305.323 233.189 305.323ZM233.402 299.771C234.199 299.771 234.805 299.569 235.22 299.165C235.635 298.761 235.842 298.182 235.842 297.428V297.265C235.842 296.522 235.629 295.943 235.203 295.528C234.788 295.113 234.188 294.906 233.402 294.906C232.605 294.906 231.999 295.108 231.584 295.512C231.169 295.905 230.961 296.489 230.961 297.265V297.428C230.961 298.182 231.169 298.761 231.584 299.165C231.999 299.569 232.605 299.771 233.402 299.771ZM247.528 305.323C246.851 305.323 246.256 305.241 245.743 305.077C245.229 304.913 244.798 304.69 244.449 304.406C244.11 304.122 243.854 303.789 243.679 303.407C243.515 303.014 243.433 302.588 243.433 302.129C243.433 301.474 243.641 300.89 244.056 300.377C244.471 299.852 245.082 299.481 245.89 299.263C245.595 299.165 245.317 299.033 245.055 298.87C244.804 298.695 244.58 298.493 244.383 298.264C244.187 298.034 244.034 297.778 243.925 297.494C243.815 297.199 243.761 296.888 243.761 296.56C243.761 296.134 243.843 295.736 244.006 295.365C244.17 294.993 244.41 294.677 244.727 294.415C245.044 294.142 245.437 293.929 245.906 293.776C246.376 293.612 246.916 293.53 247.528 293.53C248.139 293.53 248.68 293.612 249.149 293.776C249.619 293.929 250.012 294.142 250.329 294.415C250.645 294.677 250.886 294.993 251.049 295.365C251.213 295.736 251.295 296.134 251.295 296.56C251.295 297.215 251.088 297.772 250.673 298.231C250.269 298.69 249.766 299.033 249.166 299.263C249.985 299.536 250.596 299.896 251 300.344C251.415 300.791 251.623 301.387 251.623 302.129C251.623 302.588 251.535 303.014 251.361 303.407C251.197 303.789 250.94 304.122 250.591 304.406C250.252 304.69 249.826 304.913 249.313 305.077C248.8 305.241 248.205 305.323 247.528 305.323ZM247.528 303.947C247.997 303.947 248.396 303.898 248.724 303.8C249.051 303.691 249.313 303.554 249.51 303.39C249.717 303.216 249.865 303.014 249.952 302.784C250.039 302.544 250.083 302.293 250.083 302.031C250.083 301.725 250.017 301.447 249.886 301.196C249.766 300.944 249.592 300.726 249.362 300.54C249.133 300.344 248.86 300.191 248.543 300.082C248.238 299.962 247.899 299.88 247.528 299.836C247.157 299.88 246.813 299.962 246.496 300.082C246.19 300.191 245.923 300.338 245.693 300.524C245.464 300.71 245.284 300.933 245.153 301.196C245.033 301.447 244.973 301.725 244.973 302.031C244.973 302.293 245.016 302.544 245.104 302.784C245.191 303.014 245.333 303.216 245.53 303.39C245.737 303.554 246.005 303.691 246.332 303.8C246.66 303.898 247.058 303.947 247.528 303.947ZM247.528 298.69C248.183 298.602 248.718 298.395 249.133 298.067C249.548 297.729 249.755 297.254 249.755 296.642C249.755 296.085 249.57 295.659 249.199 295.365C248.838 295.059 248.281 294.906 247.528 294.906C246.764 294.906 246.201 295.059 245.841 295.365C245.481 295.659 245.3 296.085 245.3 296.642C245.3 297.254 245.508 297.729 245.923 298.067C246.338 298.395 246.873 298.602 247.528 298.69ZM257.279 305.323C256.657 305.323 256.116 305.241 255.658 305.077C255.199 304.903 254.811 304.679 254.495 304.406C254.189 304.122 253.954 303.805 253.79 303.456C253.627 303.106 253.534 302.746 253.512 302.375H255.052C255.106 302.79 255.325 303.156 255.707 303.472C256.1 303.789 256.624 303.947 257.279 303.947C258.022 303.947 258.606 303.718 259.032 303.259C259.457 302.79 259.67 302.14 259.67 301.31C259.67 300.841 259.599 300.437 259.457 300.098C259.326 299.76 259.146 299.487 258.917 299.279C258.699 299.072 258.447 298.919 258.164 298.821C257.88 298.722 257.585 298.673 257.279 298.673C256.689 298.673 256.225 298.782 255.887 299.001C255.559 299.219 255.308 299.47 255.133 299.754H253.758V293.694H260.555V295.037H255.297V298.231C255.865 297.609 256.608 297.297 257.525 297.297C258.66 297.297 259.556 297.641 260.211 298.329C260.877 299.017 261.21 300.011 261.21 301.31C261.21 301.922 261.112 302.479 260.915 302.981C260.73 303.472 260.462 303.893 260.113 304.242C259.774 304.591 259.359 304.859 258.868 305.045C258.387 305.23 257.858 305.323 257.279 305.323ZM267.108 305.323C266.551 305.323 266.021 305.23 265.519 305.045C265.028 304.859 264.596 304.542 264.225 304.095C263.854 303.636 263.559 303.03 263.34 302.277C263.122 301.512 263.013 300.562 263.013 299.427V299.099C263.013 298.04 263.122 297.155 263.34 296.446C263.559 295.736 263.854 295.168 264.225 294.742C264.596 294.305 265.028 293.994 265.519 293.809C266.021 293.623 266.551 293.53 267.108 293.53C267.665 293.53 268.189 293.623 268.68 293.809C269.182 293.994 269.619 294.305 269.99 294.742C270.362 295.168 270.656 295.736 270.875 296.446C271.093 297.155 271.202 298.04 271.202 299.099V299.427C271.202 300.562 271.093 301.512 270.875 302.277C270.656 303.03 270.362 303.636 269.99 304.095C269.619 304.542 269.182 304.859 268.68 305.045C268.189 305.23 267.665 305.323 267.108 305.323ZM267.108 303.98C267.446 303.98 267.768 303.92 268.074 303.8C268.391 303.669 268.664 303.439 268.893 303.112C269.133 302.773 269.319 302.309 269.45 301.72C269.592 301.13 269.663 300.366 269.663 299.427V299.099C269.663 298.247 269.592 297.548 269.45 297.003C269.319 296.457 269.133 296.025 268.893 295.709C268.664 295.392 268.391 295.174 268.074 295.053C267.768 294.933 267.446 294.873 267.108 294.873C266.758 294.873 266.431 294.933 266.125 295.053C265.819 295.174 265.546 295.392 265.306 295.709C265.077 296.025 264.891 296.457 264.749 297.003C264.618 297.548 264.553 298.247 264.553 299.099V299.427C264.553 300.366 264.618 301.13 264.749 301.72C264.891 302.309 265.077 302.773 265.306 303.112C265.546 303.439 265.819 303.669 266.125 303.8C266.431 303.92 266.758 303.98 267.108 303.98ZM278.247 303.292H276.773V302.113H278.247V300.737H276.773V299.394H278.247V293.694H281.85C282.527 293.694 283.117 293.781 283.619 293.956C284.133 294.131 284.558 294.376 284.897 294.693C285.246 294.999 285.508 295.37 285.683 295.807C285.858 296.233 285.945 296.702 285.945 297.215C285.945 297.729 285.858 298.204 285.683 298.64C285.508 299.066 285.246 299.438 284.897 299.754C284.558 300.06 284.133 300.3 283.619 300.475C283.117 300.65 282.527 300.737 281.85 300.737H279.787V302.113H283.652V303.292H279.787V305.159H278.247V303.292ZM281.769 299.394C282.708 299.394 283.379 299.197 283.783 298.804C284.198 298.411 284.406 297.882 284.406 297.215C284.406 296.549 284.198 296.02 283.783 295.627C283.379 295.234 282.708 295.037 281.769 295.037H279.787V299.394H281.769Z" fill="#1F1F25"/>
<path opacity="0.8" d="M342.992 295.037H336.899V293.694H344.597V294.955L340.502 305.159H338.864L342.992 295.037ZM346.157 303.816H348.893V295.381L346.157 297.33V295.659L348.925 293.694H350.465V303.816H352.709V305.159H346.157V303.816ZM363.197 293.694H364.835L356.973 305.159H355.335L363.197 293.694ZM356.318 299.099C355.936 299.099 355.581 299.033 355.253 298.902C354.937 298.771 354.664 298.591 354.434 298.362C354.205 298.122 354.025 297.838 353.894 297.51C353.763 297.172 353.697 296.801 353.697 296.397V296.233C353.697 295.829 353.763 295.463 353.894 295.135C354.025 294.808 354.205 294.524 354.434 294.284C354.664 294.043 354.937 293.858 355.253 293.727C355.581 293.596 355.936 293.53 356.318 293.53C356.7 293.53 357.05 293.596 357.366 293.727C357.694 293.858 357.972 294.043 358.202 294.284C358.431 294.524 358.611 294.808 358.742 295.135C358.873 295.463 358.939 295.829 358.939 296.233V296.397C358.939 296.801 358.873 297.172 358.742 297.51C358.611 297.838 358.431 298.122 358.202 298.362C357.972 298.591 357.694 298.771 357.366 298.902C357.05 299.033 356.7 299.099 356.318 299.099ZM356.318 297.854C356.689 297.854 356.984 297.734 357.202 297.494C357.421 297.254 357.53 296.888 357.53 296.397V296.233C357.53 295.741 357.421 295.376 357.202 295.135C356.984 294.895 356.689 294.775 356.318 294.775C355.947 294.775 355.652 294.895 355.434 295.135C355.215 295.376 355.106 295.741 355.106 296.233V296.397C355.106 296.888 355.215 297.254 355.434 297.494C355.652 297.734 355.947 297.854 356.318 297.854ZM363.852 305.307C363.47 305.307 363.115 305.241 362.788 305.11C362.471 304.979 362.198 304.799 361.969 304.57C361.739 304.329 361.559 304.045 361.428 303.718C361.297 303.379 361.232 303.008 361.232 302.604V302.44C361.232 302.036 361.297 301.67 361.428 301.343C361.559 301.015 361.739 300.731 361.969 300.491C362.198 300.251 362.471 300.065 362.788 299.934C363.115 299.803 363.47 299.738 363.852 299.738C364.234 299.738 364.584 299.803 364.901 299.934C365.228 300.065 365.507 300.251 365.736 300.491C365.965 300.731 366.145 301.015 366.276 301.343C366.407 301.67 366.473 302.036 366.473 302.44V302.604C366.473 303.008 366.407 303.379 366.276 303.718C366.145 304.045 365.965 304.329 365.736 304.57C365.507 304.799 365.228 304.979 364.901 305.11C364.584 305.241 364.234 305.307 363.852 305.307ZM363.852 304.062C364.224 304.062 364.518 303.942 364.737 303.701C364.955 303.461 365.064 303.095 365.064 302.604V302.44C365.064 301.949 364.955 301.583 364.737 301.343C364.518 301.103 364.224 300.983 363.852 300.983C363.481 300.983 363.186 301.103 362.968 301.343C362.749 301.583 362.64 301.949 362.64 302.44V302.604C362.64 303.095 362.749 303.461 362.968 303.701C363.186 303.942 363.481 304.062 363.852 304.062Z" fill="#1F1F25"/>
<rect opacity="0.5" x="375.571" y="293.659" width="78.81" height="10" rx="5" fill="#2261EB"/>
<path d="M493.492 323.794H52.5713V326.524H493.492V323.794Z" fill="#D5D5D5" mask="url(#path-22-inside-2_6869_64181)"/>
<path d="M72.4495 355.309H67.6014L66.504 358.159H64.8989L69.2884 346.694H70.828L75.2175 358.159H73.5469L72.4495 355.309ZM68.1091 353.966H71.9418L70.0254 348.659L68.1091 353.966ZM76.8541 349.478H78.3937L81.4893 354.883L84.5849 349.478H86.0263V358.159H84.5849V351.853L82.0135 356.276H80.8669L78.2955 351.853V358.159H76.8541V349.478ZM91.1156 358.323C90.6352 358.323 90.2093 358.257 89.8381 358.126C89.4777 357.984 89.172 357.793 88.9208 357.553C88.6697 357.313 88.4786 357.029 88.3476 356.701C88.2166 356.374 88.151 356.014 88.151 355.62C88.151 354.758 88.4022 354.135 88.9045 353.753C89.4177 353.371 90.1493 353.18 91.0992 353.18H93.9164V352.59C93.9164 351.848 93.7471 351.335 93.4086 351.051C93.0811 350.767 92.5842 350.625 91.9182 350.625C91.2958 350.625 90.8426 350.745 90.5587 350.985C90.2748 351.215 90.1165 351.477 90.0837 351.771H88.6424C88.6642 351.422 88.7571 351.1 88.9208 350.805C89.0956 350.499 89.3249 350.237 89.6088 350.019C89.9036 349.801 90.253 349.631 90.657 349.511C91.061 349.38 91.5087 349.315 92.0001 349.315C93.0265 349.315 93.84 349.56 94.4405 350.052C95.052 350.532 95.3577 351.324 95.3577 352.427V355.948C95.3577 356.407 95.3577 356.811 95.3577 357.16C95.3686 357.499 95.3959 357.832 95.4396 358.159H94.1784C94.1457 357.908 94.1239 357.673 94.1129 357.455C94.102 357.226 94.0966 356.969 94.0966 356.685C93.8673 357.144 93.496 357.531 92.9828 357.848C92.4696 358.165 91.8472 358.323 91.1156 358.323ZM91.4268 357.013C91.7653 357.013 92.082 356.969 92.3768 356.882C92.6825 356.783 92.95 356.647 93.1793 356.472C93.4086 356.287 93.5888 356.063 93.7198 355.801C93.8509 355.539 93.9164 355.233 93.9164 354.883V354.294H91.3449C90.8099 354.294 90.3895 354.403 90.0837 354.621C89.778 354.829 89.6251 355.162 89.6251 355.62C89.6251 356.024 89.7671 356.358 90.051 356.62C90.3458 356.882 90.8044 357.013 91.4268 357.013ZM97.9035 349.478H99.2465V351.116C99.5414 350.538 99.9508 350.095 100.475 349.79C101.01 349.473 101.627 349.315 102.326 349.315C103.418 349.315 104.291 349.675 104.946 350.396C105.602 351.105 105.929 352.165 105.929 353.573V353.901C105.929 354.643 105.842 355.293 105.667 355.85C105.492 356.396 105.247 356.854 104.93 357.226C104.613 357.586 104.231 357.859 103.783 358.045C103.347 358.23 102.861 358.323 102.326 358.323C101.583 358.323 100.961 358.159 100.459 357.832C99.9672 357.504 99.596 357.095 99.3448 356.603V361.435H97.9035V349.478ZM101.998 357.045C102.348 357.045 102.675 356.98 102.981 356.849C103.287 356.707 103.549 356.505 103.767 356.243C103.996 355.981 104.171 355.653 104.291 355.26C104.422 354.867 104.488 354.414 104.488 353.901V353.573C104.488 353.104 104.422 352.683 104.291 352.312C104.171 351.941 103.996 351.629 103.767 351.378C103.549 351.116 103.287 350.92 102.981 350.789C102.675 350.658 102.348 350.592 101.998 350.592C101.605 350.592 101.245 350.658 100.917 350.789C100.59 350.909 100.311 351.084 100.082 351.313C99.8526 351.531 99.6724 351.793 99.5414 352.099C99.4103 352.405 99.3448 352.732 99.3448 353.082V354.392C99.3448 354.785 99.4103 355.145 99.5414 355.473C99.6724 355.801 99.8526 356.079 100.082 356.308C100.311 356.538 100.59 356.718 100.917 356.849C101.245 356.98 101.605 357.045 101.998 357.045ZM107.98 349.478H109.422V356.03L113.909 349.478H115.351V358.159H113.909V351.608L109.422 358.159H107.98V349.478ZM117.568 358.323C117.404 358.323 117.24 358.307 117.076 358.274V356.832C117.131 356.843 117.213 356.849 117.322 356.849C117.562 356.849 117.77 356.772 117.944 356.62C118.13 356.467 118.277 356.199 118.387 355.817C118.496 355.435 118.578 354.916 118.632 354.261C118.687 353.606 118.714 352.776 118.714 351.771V349.478H124.938V358.159H123.497V350.756H120.156V352.099C120.156 353.311 120.101 354.316 119.992 355.113C119.883 355.91 119.719 356.549 119.5 357.029C119.293 357.499 119.025 357.832 118.698 358.028C118.37 358.225 117.994 358.323 117.568 358.323ZM127.558 349.478H128.999V356.03L133.487 349.478H134.929V358.159H133.487V351.608L128.999 358.159H127.558V349.478ZM140.913 358.323C140.356 358.323 139.837 358.236 139.357 358.061C138.876 357.875 138.461 357.602 138.112 357.242C137.762 356.871 137.484 356.407 137.277 355.85C137.08 355.293 136.982 354.643 136.982 353.901V353.573C136.982 352.874 137.091 352.257 137.309 351.722C137.528 351.187 137.817 350.745 138.177 350.396C138.538 350.035 138.953 349.768 139.422 349.593C139.903 349.407 140.399 349.315 140.913 349.315C141.426 349.315 141.884 349.386 142.288 349.528C142.703 349.669 143.058 349.866 143.353 350.117C143.659 350.368 143.904 350.663 144.09 351.002C144.287 351.34 144.429 351.706 144.516 352.099H143.042C142.955 351.892 142.851 351.7 142.731 351.526C142.621 351.34 142.48 351.182 142.305 351.051C142.141 350.92 141.944 350.816 141.715 350.74C141.486 350.663 141.218 350.625 140.913 350.625C140.596 350.625 140.29 350.685 139.995 350.805C139.701 350.914 139.439 351.089 139.209 351.329C138.98 351.559 138.794 351.859 138.652 352.23C138.521 352.601 138.456 353.049 138.456 353.573V353.901C138.456 354.458 138.521 354.938 138.652 355.342C138.794 355.735 138.98 356.057 139.209 356.308C139.439 356.549 139.701 356.729 139.995 356.849C140.29 356.958 140.596 357.013 140.913 357.013C141.448 357.013 141.895 356.882 142.256 356.62C142.627 356.358 142.889 355.997 143.042 355.539H144.516C144.308 356.401 143.883 357.084 143.238 357.586C142.594 358.077 141.819 358.323 140.913 358.323Z" fill="#2261EB"/>
<path opacity="0.8" d="M221.472 356.816H224.207V348.381L221.472 350.33V348.659L224.24 346.694H225.78V356.816H228.024V358.159H221.472V356.816ZM233.68 358.323C233.047 358.323 232.474 358.219 231.96 358.012C231.447 357.804 231.005 357.488 230.634 357.062C230.273 356.625 229.995 356.079 229.798 355.424C229.602 354.769 229.504 353.988 229.504 353.082V352.754C229.504 351.629 229.618 350.674 229.847 349.888C230.077 349.091 230.388 348.447 230.781 347.955C231.174 347.453 231.633 347.093 232.157 346.874C232.681 346.645 233.243 346.53 233.844 346.53C234.728 346.53 235.471 346.743 236.071 347.169C236.683 347.584 237.087 348.217 237.283 349.069H235.744C235.438 348.294 234.805 347.906 233.844 347.906C233.429 347.906 233.047 347.977 232.697 348.119C232.348 348.261 232.042 348.496 231.78 348.823C231.529 349.151 231.327 349.588 231.174 350.134C231.021 350.68 230.934 351.362 230.912 352.181C231.065 351.919 231.251 351.695 231.469 351.509C231.687 351.313 231.922 351.16 232.173 351.051C232.435 350.931 232.703 350.843 232.976 350.789C233.249 350.734 233.511 350.707 233.762 350.707C234.909 350.707 235.82 351.029 236.497 351.673C237.185 352.306 237.529 353.218 237.529 354.408V354.572C237.529 355.118 237.425 355.62 237.218 356.079C237.021 356.538 236.748 356.936 236.399 357.275C236.05 357.602 235.64 357.859 235.171 358.045C234.701 358.23 234.204 358.323 233.68 358.323ZM233.549 356.947C234.346 356.947 234.952 356.745 235.367 356.341C235.782 355.937 235.99 355.353 235.99 354.589V354.425C235.99 353.671 235.782 353.093 235.367 352.689C234.952 352.285 234.346 352.083 233.549 352.083C232.752 352.083 232.146 352.285 231.731 352.689C231.316 353.093 231.109 353.671 231.109 354.425V354.589C231.109 355.342 231.316 355.926 231.731 356.341C232.146 356.745 232.752 356.947 233.549 356.947ZM248.953 348.037H242.86V346.694H250.558V347.955L246.463 358.159H244.825L248.953 348.037ZM252.118 356.816H254.854V348.381L252.118 350.33V348.659L254.886 346.694H256.426V356.816H258.67V358.159H252.118V356.816ZM260.068 356.816H262.803V348.381L260.068 350.33V348.659L262.836 346.694H264.376V356.816H266.619V358.159H260.068V356.816ZM273.177 356.292H271.703V355.113H273.177V353.737H271.703V352.394H273.177V346.694H276.78C277.457 346.694 278.047 346.781 278.549 346.956C279.062 347.131 279.488 347.376 279.827 347.693C280.176 347.999 280.438 348.37 280.613 348.807C280.787 349.233 280.875 349.702 280.875 350.215C280.875 350.729 280.787 351.204 280.613 351.64C280.438 352.066 280.176 352.438 279.827 352.754C279.488 353.06 279.062 353.3 278.549 353.475C278.047 353.65 277.457 353.737 276.78 353.737H274.716V355.113H278.582V356.292H274.716V358.159H273.177V356.292ZM276.698 352.394C277.637 352.394 278.309 352.197 278.713 351.804C279.128 351.411 279.335 350.882 279.335 350.215C279.335 349.549 279.128 349.02 278.713 348.627C278.309 348.234 277.637 348.037 276.698 348.037H274.716V352.394H276.698Z" fill="#1F1F25"/>
<path opacity="0.8" d="M341.321 358.323C340.699 358.323 340.158 358.241 339.7 358.077C339.241 357.903 338.853 357.679 338.537 357.406C338.231 357.122 337.996 356.805 337.832 356.456C337.669 356.106 337.576 355.746 337.554 355.375H339.094C339.148 355.79 339.367 356.156 339.749 356.472C340.142 356.789 340.666 356.947 341.321 356.947C342.064 356.947 342.648 356.718 343.074 356.259C343.5 355.79 343.712 355.14 343.712 354.31C343.712 353.841 343.641 353.437 343.5 353.098C343.369 352.76 343.188 352.487 342.959 352.279C342.741 352.072 342.49 351.919 342.206 351.821C341.922 351.722 341.627 351.673 341.321 351.673C340.732 351.673 340.267 351.782 339.929 352.001C339.601 352.219 339.35 352.47 339.176 352.754H337.8V346.694H344.597V348.037H339.339V351.231C339.907 350.609 340.65 350.297 341.567 350.297C342.702 350.297 343.598 350.641 344.253 351.329C344.919 352.017 345.252 353.011 345.252 354.31C345.252 354.922 345.154 355.479 344.957 355.981C344.772 356.472 344.504 356.893 344.155 357.242C343.816 357.591 343.401 357.859 342.91 358.045C342.429 358.23 341.9 358.323 341.321 358.323ZM352.231 355.391H346.4V354.212L352.067 346.694H353.77V354.048H355.244V355.391H353.77V358.159H352.231V355.391ZM352.231 354.048V348.496L348.038 354.048H352.231ZM366.06 346.694H367.698L359.836 358.159H358.198L366.06 346.694ZM359.181 352.099C358.799 352.099 358.444 352.033 358.116 351.902C357.8 351.771 357.527 351.591 357.298 351.362C357.068 351.122 356.888 350.838 356.757 350.51C356.626 350.172 356.56 349.801 356.56 349.397V349.233C356.56 348.829 356.626 348.463 356.757 348.135C356.888 347.808 357.068 347.524 357.298 347.284C357.527 347.043 357.8 346.858 358.116 346.727C358.444 346.596 358.799 346.53 359.181 346.53C359.563 346.53 359.913 346.596 360.229 346.727C360.557 346.858 360.835 347.043 361.065 347.284C361.294 347.524 361.474 347.808 361.605 348.135C361.736 348.463 361.802 348.829 361.802 349.233V349.397C361.802 349.801 361.736 350.172 361.605 350.51C361.474 350.838 361.294 351.122 361.065 351.362C360.835 351.591 360.557 351.771 360.229 351.902C359.913 352.033 359.563 352.099 359.181 352.099ZM359.181 350.854C359.552 350.854 359.847 350.734 360.066 350.494C360.284 350.254 360.393 349.888 360.393 349.397V349.233C360.393 348.741 360.284 348.376 360.066 348.135C359.847 347.895 359.552 347.775 359.181 347.775C358.81 347.775 358.515 347.895 358.297 348.135C358.078 348.376 357.969 348.741 357.969 349.233V349.397C357.969 349.888 358.078 350.254 358.297 350.494C358.515 350.734 358.81 350.854 359.181 350.854ZM366.715 358.307C366.333 358.307 365.978 358.241 365.651 358.11C365.334 357.979 365.061 357.799 364.832 357.57C364.602 357.329 364.422 357.045 364.291 356.718C364.16 356.379 364.095 356.008 364.095 355.604V355.44C364.095 355.036 364.16 354.67 364.291 354.343C364.422 354.015 364.602 353.731 364.832 353.491C365.061 353.251 365.334 353.065 365.651 352.934C365.978 352.803 366.333 352.738 366.715 352.738C367.098 352.738 367.447 352.803 367.764 352.934C368.091 353.065 368.37 353.251 368.599 353.491C368.828 353.731 369.008 354.015 369.139 354.343C369.27 354.67 369.336 355.036 369.336 355.44V355.604C369.336 356.008 369.27 356.379 369.139 356.718C369.008 357.045 368.828 357.329 368.599 357.57C368.37 357.799 368.091 357.979 367.764 358.11C367.447 358.241 367.098 358.307 366.715 358.307ZM366.715 357.062C367.087 357.062 367.381 356.942 367.6 356.701C367.818 356.461 367.927 356.095 367.927 355.604V355.44C367.927 354.949 367.818 354.583 367.6 354.343C367.381 354.103 367.087 353.983 366.715 353.983C366.344 353.983 366.049 354.103 365.831 354.343C365.613 354.583 365.503 354.949 365.503 355.44V355.604C365.503 356.095 365.613 356.461 365.831 356.701C366.049 356.942 366.344 357.062 366.715 357.062Z" fill="#1F1F25"/>
<rect opacity="0.5" x="378.571" y="346.659" width="58.32" height="10" rx="5" fill="#2261EB"/>
</g>
<defs>
<filter id="filter0_d_6869_64181" x="0.698412" y="0.698412" width="544.667" height="429.334" filterUnits="userSpaceOnUse" color-interpolation-filters="sRGB">
<feFlood flood-opacity="0" result="BackgroundImageFix"/>
<feColorMatrix in="SourceAlpha" type="matrix" values="0 0 0 0 0 0 0 0 0 0 0 0 0 0 0 0 0 0 127 0" result="hardAlpha"/>
<feOffset/>
<feGaussianBlur stdDeviation="13.6508"/>
<feComposite in2="hardAlpha" operator="out"/>
<feColorMatrix type="matrix" values="0 0 0 0 0.641198 0 0 0 0 0.761107 0 0 0 0 0.8125 0 0 0 0.6 0"/>
<feBlend mode="normal" in2="BackgroundImageFix" result="effect1_dropShadow_6869_64181"/>
<feBlend mode="normal" in="SourceGraphic" in2="effect1_dropShadow_6869_64181" result="shape"/>
</filter>
</defs>
</svg>
