<svg width="530" height="182" viewBox="0 0 530 182" fill="none" xmlns="http://www.w3.org/2000/svg">
<g filter="url(#filter0_d_7206_66712)">
<rect x="20" y="20" width="230" height="142" rx="32" fill="#FCFDFF"/>
<path opacity="0.5" d="M58.4 91.576C56.256 91.576 54.432 91.304 52.928 90.76C51.456 90.216 50.24 89.496 49.28 88.6C48.32 87.672 47.6 86.616 47.12 85.432C46.672 84.216 46.432 82.952 46.4 81.64H53.6C53.696 82.792 54.128 83.736 54.896 84.472C55.696 85.176 56.864 85.528 58.4 85.528C61.92 85.528 63.68 83.544 63.68 79.576C63.68 78.52 63.536 77.624 63.248 76.888C62.96 76.152 62.576 75.56 62.096 75.112C61.616 74.664 61.056 74.344 60.416 74.152C59.776 73.928 59.104 73.816 58.4 73.816C57.28 73.816 56.352 74.024 55.616 74.44C54.88 74.856 54.288 75.416 53.84 76.12H47.12V57.4H69.008V63.352H54.32V69.496C54.992 68.888 55.808 68.456 56.768 68.2C57.76 67.912 58.864 67.768 60.08 67.768C61.712 67.768 63.184 68.024 64.496 68.536C65.84 69.016 66.976 69.752 67.904 70.744C68.864 71.736 69.6 72.968 70.112 74.44C70.624 75.912 70.88 77.608 70.88 79.528C70.88 81.352 70.576 83.016 69.968 84.52C69.392 85.992 68.56 87.256 67.472 88.312C66.384 89.368 65.072 90.184 63.536 90.76C62 91.304 60.288 91.576 58.4 91.576ZM87.9013 91.576C85.8853 91.576 84.0613 91.352 82.4293 90.904C80.8293 90.424 79.4693 89.768 78.3493 88.936C77.2613 88.072 76.4133 87.048 75.8053 85.864C75.2293 84.648 74.9413 83.304 74.9413 81.832C74.9413 79.944 75.5173 78.264 76.6693 76.792C77.8213 75.288 79.5333 74.232 81.8053 73.624C80.1093 73.08 78.7013 72.136 77.5813 70.792C76.4613 69.448 75.9013 67.848 75.9013 65.992C75.9013 64.648 76.1573 63.416 76.6693 62.296C77.2133 61.176 77.9973 60.216 79.0213 59.416C80.0453 58.584 81.2933 57.944 82.7653 57.496C84.2693 57.048 85.9813 56.824 87.9013 56.824C89.8213 56.824 91.5173 57.048 92.9893 57.496C94.4933 57.944 95.7573 58.584 96.7812 59.416C97.8373 60.216 98.6213 61.176 99.1333 62.296C99.6773 63.416 99.9493 64.648 99.9493 65.992C99.9493 67.848 99.3893 69.432 98.2693 70.744C97.1493 72.024 95.7253 72.984 93.9973 73.624C98.5733 75.032 100.861 77.768 100.861 81.832C100.861 83.304 100.557 84.648 99.9493 85.864C99.3733 87.048 98.5253 88.072 97.4053 88.936C96.3173 89.768 94.9733 90.424 93.3733 90.904C91.7733 91.352 89.9493 91.576 87.9013 91.576ZM87.9013 85.528C89.8853 85.528 91.3413 85.144 92.2693 84.376C93.1973 83.608 93.6613 82.568 93.6613 81.256C93.6613 79.816 93.1173 78.68 92.0293 77.848C90.9733 76.984 89.5973 76.424 87.9013 76.168C86.2053 76.424 84.8133 76.984 83.7253 77.848C82.6693 78.68 82.1413 79.816 82.1413 81.256C82.1413 82.568 82.6213 83.608 83.5813 84.376C84.5413 85.144 85.9813 85.528 87.9013 85.528ZM87.9013 71.272C89.3413 71.016 90.5093 70.52 91.4053 69.784C92.3013 69.016 92.7493 67.96 92.7493 66.616C92.7493 65.368 92.3173 64.44 91.4533 63.832C90.6213 63.192 89.4373 62.872 87.9013 62.872C86.3973 62.872 85.2133 63.192 84.3493 63.832C83.5173 64.44 83.1013 65.368 83.1013 66.616C83.1013 67.96 83.5333 69.016 84.3973 69.784C85.2933 70.52 86.4613 71.016 87.9013 71.272ZM131.336 57.4H138.056L115.016 91H108.296L131.336 57.4ZM112.136 73.336C110.888 73.336 109.768 73.144 108.776 72.76C107.784 72.376 106.92 71.832 106.184 71.128C105.48 70.424 104.936 69.592 104.552 68.632C104.168 67.64 103.976 66.536 103.976 65.32V64.84C103.976 63.656 104.168 62.568 104.552 61.576C104.936 60.584 105.48 59.736 106.184 59.032C106.92 58.328 107.784 57.784 108.776 57.4C109.768 57.016 110.888 56.824 112.136 56.824C113.384 56.824 114.504 57.016 115.496 57.4C116.488 57.784 117.336 58.328 118.04 59.032C118.776 59.736 119.336 60.584 119.72 61.576C120.104 62.568 120.296 63.656 120.296 64.84V65.32C120.296 66.536 120.104 67.64 119.72 68.632C119.336 69.592 118.776 70.424 118.04 71.128C117.336 71.832 116.488 72.376 115.496 72.76C114.504 73.144 113.384 73.336 112.136 73.336ZM112.136 68.344C112.776 68.344 113.288 68.12 113.672 67.672C114.056 67.192 114.248 66.408 114.248 65.32V64.84C114.248 63.752 114.056 62.984 113.672 62.536C113.288 62.056 112.776 61.816 112.136 61.816C111.496 61.816 110.984 62.056 110.6 62.536C110.216 62.984 110.024 63.752 110.024 64.84V65.32C110.024 66.408 110.216 67.192 110.6 67.672C110.984 68.12 111.496 68.344 112.136 68.344ZM134.216 91.528C132.968 91.528 131.848 91.336 130.856 90.952C129.864 90.568 129 90.024 128.264 89.32C127.56 88.616 127.016 87.784 126.632 86.824C126.248 85.832 126.056 84.728 126.056 83.512V83.032C126.056 81.848 126.248 80.76 126.632 79.768C127.016 78.776 127.56 77.928 128.264 77.224C129 76.52 129.864 75.976 130.856 75.592C131.848 75.208 132.968 75.016 134.216 75.016C135.464 75.016 136.584 75.208 137.576 75.592C138.568 75.976 139.416 76.52 140.12 77.224C140.856 77.928 141.416 78.776 141.8 79.768C142.184 80.76 142.376 81.848 142.376 83.032V83.512C142.376 84.728 142.184 85.832 141.8 86.824C141.416 87.784 140.856 88.616 140.12 89.32C139.416 90.024 138.568 90.568 137.576 90.952C136.584 91.336 135.464 91.528 134.216 91.528ZM134.216 86.536C134.856 86.536 135.368 86.312 135.752 85.864C136.136 85.384 136.328 84.6 136.328 83.512V83.032C136.328 81.944 136.136 81.176 135.752 80.728C135.368 80.248 134.856 80.008 134.216 80.008C133.576 80.008 133.064 80.248 132.68 80.728C132.296 81.176 132.104 81.944 132.104 83.032V83.512C132.104 84.6 132.296 85.384 132.68 85.864C133.064 86.312 133.576 86.536 134.216 86.536Z" fill="#2261EB"/>
<path opacity="0.9" d="M45.8 113.4H47.564L51.776 121.41L55.988 113.4H57.68V126H55.988V116.46L52.37 123.3H51.11L47.492 116.46V126H45.8V113.4ZM63.6443 126.18C63.1163 126.18 62.6483 126.108 62.2403 125.964C61.8443 125.808 61.5083 125.598 61.2323 125.334C60.9563 125.07 60.7463 124.758 60.6023 124.398C60.4583 124.038 60.3863 123.642 60.3863 123.21C60.3863 122.262 60.6623 121.578 61.2143 121.158C61.7783 120.738 62.5823 120.528 63.6263 120.528H66.7223V119.88C66.7223 119.064 66.5363 118.5 66.1643 118.188C65.8043 117.876 65.2583 117.72 64.5263 117.72C63.8423 117.72 63.3443 117.852 63.0323 118.116C62.7203 118.368 62.5463 118.656 62.5103 118.98H60.9263C60.9503 118.596 61.0523 118.242 61.2323 117.918C61.4243 117.582 61.6763 117.294 61.9883 117.054C62.3123 116.814 62.6963 116.628 63.1403 116.496C63.5843 116.352 64.0763 116.28 64.6163 116.28C65.7443 116.28 66.6383 116.55 67.2983 117.09C67.9703 117.618 68.3063 118.488 68.3063 119.7V123.57C68.3063 124.074 68.3063 124.518 68.3063 124.902C68.3183 125.274 68.3483 125.64 68.3963 126H67.0103C66.9743 125.724 66.9503 125.466 66.9383 125.226C66.9263 124.974 66.9203 124.692 66.9203 124.38C66.6683 124.884 66.2603 125.31 65.6963 125.658C65.1323 126.006 64.4483 126.18 63.6443 126.18ZM63.9863 124.74C64.3583 124.74 64.7063 124.692 65.0303 124.596C65.3663 124.488 65.6603 124.338 65.9123 124.146C66.1643 123.942 66.3623 123.696 66.5063 123.408C66.6503 123.12 66.7223 122.784 66.7223 122.4V121.752H63.8963C63.3083 121.752 62.8463 121.872 62.5103 122.112C62.1743 122.34 62.0063 122.706 62.0063 123.21C62.0063 123.654 62.1623 124.02 62.4743 124.308C62.7983 124.596 63.3023 124.74 63.9863 124.74ZM71.1041 116.46H72.5801V118.26C72.9041 117.624 73.3541 117.138 73.9301 116.802C74.5181 116.454 75.1961 116.28 75.9641 116.28C77.1641 116.28 78.1241 116.676 78.8441 117.468C79.5641 118.248 79.9241 119.412 79.9241 120.96V121.32C79.9241 122.136 79.8281 122.85 79.6361 123.462C79.4441 124.062 79.1741 124.566 78.8261 124.974C78.4781 125.37 78.0581 125.67 77.5661 125.874C77.0861 126.078 76.5521 126.18 75.9641 126.18C75.1481 126.18 74.4641 126 73.9121 125.64C73.3721 125.28 72.9641 124.83 72.6881 124.29V129.6H71.1041V116.46ZM75.6041 124.776C75.9881 124.776 76.3481 124.704 76.6841 124.56C77.0201 124.404 77.3081 124.182 77.5481 123.894C77.8001 123.606 77.9921 123.246 78.1241 122.814C78.2681 122.382 78.3401 121.884 78.3401 121.32V120.96C78.3401 120.444 78.2681 119.982 78.1241 119.574C77.9921 119.166 77.8001 118.824 77.5481 118.548C77.3081 118.26 77.0201 118.044 76.6841 117.9C76.3481 117.756 75.9881 117.684 75.6041 117.684C75.1721 117.684 74.7761 117.756 74.4161 117.9C74.0561 118.032 73.7501 118.224 73.4981 118.476C73.2461 118.716 73.0481 119.004 72.9041 119.34C72.7601 119.676 72.6881 120.036 72.6881 120.42V121.86C72.6881 122.292 72.7601 122.688 72.9041 123.048C73.0481 123.408 73.2461 123.714 73.4981 123.966C73.7501 124.218 74.0561 124.416 74.4161 124.56C74.7761 124.704 75.1721 124.776 75.6041 124.776ZM84.4367 121.086L81.0167 116.46H82.7807L85.6967 120.456H86.7947V116.46H88.3787V120.456H89.4587L92.4287 116.46H94.1567L90.7367 121.032L94.3367 126H92.4647L89.4587 121.824H88.3787V126H86.7947V121.824H85.6967L82.6727 126H80.8367L84.4367 121.086ZM96.2232 116.46H97.8072V123.66L102.739 116.46H104.323V126H102.739V118.8L97.8072 126H96.2232V116.46ZM107.21 116.46H108.794V120.438H113.726V116.46H115.31V126H113.726V121.842H108.794V126H107.21V116.46ZM120.914 126.18C120.386 126.18 119.918 126.108 119.51 125.964C119.114 125.808 118.778 125.598 118.502 125.334C118.226 125.07 118.016 124.758 117.872 124.398C117.728 124.038 117.656 123.642 117.656 123.21C117.656 122.262 117.932 121.578 118.484 121.158C119.048 120.738 119.852 120.528 120.896 120.528H123.992V119.88C123.992 119.064 123.806 118.5 123.434 118.188C123.074 117.876 122.528 117.72 121.796 117.72C121.112 117.72 120.614 117.852 120.302 118.116C119.99 118.368 119.816 118.656 119.78 118.98H118.196C118.22 118.596 118.322 118.242 118.502 117.918C118.694 117.582 118.946 117.294 119.258 117.054C119.582 116.814 119.966 116.628 120.41 116.496C120.854 116.352 121.346 116.28 121.886 116.28C123.014 116.28 123.908 116.55 124.568 117.09C125.24 117.618 125.576 118.488 125.576 119.7V123.57C125.576 124.074 125.576 124.518 125.576 124.902C125.588 125.274 125.618 125.64 125.666 126H124.28C124.244 125.724 124.22 125.466 124.208 125.226C124.196 124.974 124.19 124.692 124.19 124.38C123.938 124.884 123.53 125.31 122.966 125.658C122.402 126.006 121.718 126.18 120.914 126.18ZM121.256 124.74C121.628 124.74 121.976 124.692 122.3 124.596C122.636 124.488 122.93 124.338 123.182 124.146C123.434 123.942 123.632 123.696 123.776 123.408C123.92 123.12 123.992 122.784 123.992 122.4V121.752H121.166C120.578 121.752 120.116 121.872 119.78 122.112C119.444 122.34 119.276 122.706 119.276 123.21C119.276 123.654 119.432 124.02 119.744 124.308C120.068 124.596 120.572 124.74 121.256 124.74ZM127.924 126.18C127.744 126.18 127.564 126.162 127.384 126.126V124.542C127.444 124.554 127.534 124.56 127.654 124.56C127.918 124.56 128.146 124.476 128.338 124.308C128.542 124.14 128.704 123.846 128.824 123.426C128.944 123.006 129.034 122.436 129.094 121.716C129.154 120.996 129.184 120.084 129.184 118.98V116.46H136.024V126H134.44V117.864H130.768V119.34C130.768 120.672 130.708 121.776 130.588 122.652C130.468 123.528 130.288 124.23 130.048 124.758C129.82 125.274 129.526 125.64 129.166 125.856C128.806 126.072 128.392 126.18 127.924 126.18ZM138.903 116.46H140.487V120.06H142.773C143.973 120.06 144.855 120.324 145.419 120.852C145.995 121.38 146.283 122.112 146.283 123.048C146.283 123.96 145.995 124.68 145.419 125.208C144.855 125.736 143.973 126 142.773 126H138.903V116.46ZM142.683 124.596C143.427 124.596 143.949 124.464 144.249 124.2C144.549 123.936 144.699 123.546 144.699 123.03C144.699 122.514 144.549 122.124 144.249 121.86C143.949 121.596 143.427 121.464 142.683 121.464H140.487V124.596H142.683ZM148.36 116.46H149.944V120.438H154.876V116.46H156.46V126H154.876V121.842H149.944V126H148.36V116.46ZM163.306 126.18C162.694 126.18 162.112 126.084 161.56 125.892C161.008 125.688 160.522 125.388 160.102 124.992C159.682 124.584 159.346 124.074 159.094 123.462C158.842 122.85 158.716 122.136 158.716 121.32V120.96C158.716 120.192 158.842 119.514 159.094 118.926C159.346 118.338 159.682 117.852 160.102 117.468C160.522 117.072 161.008 116.778 161.56 116.586C162.112 116.382 162.694 116.28 163.306 116.28C163.918 116.28 164.5 116.382 165.052 116.586C165.604 116.778 166.09 117.072 166.51 117.468C166.93 117.852 167.266 118.338 167.518 118.926C167.77 119.514 167.896 120.192 167.896 120.96V121.32C167.896 122.136 167.77 122.85 167.518 123.462C167.266 124.074 166.93 124.584 166.51 124.992C166.09 125.388 165.604 125.688 165.052 125.892C164.5 126.084 163.918 126.18 163.306 126.18ZM163.306 124.74C163.666 124.74 164.026 124.68 164.386 124.56C164.746 124.428 165.064 124.23 165.34 123.966C165.616 123.69 165.838 123.336 166.006 122.904C166.186 122.472 166.276 121.944 166.276 121.32V120.96C166.276 120.384 166.186 119.892 166.006 119.484C165.838 119.076 165.616 118.74 165.34 118.476C165.064 118.212 164.746 118.02 164.386 117.9C164.026 117.78 163.666 117.72 163.306 117.72C162.946 117.72 162.586 117.78 162.226 117.9C161.866 118.02 161.548 118.212 161.272 118.476C160.996 118.74 160.768 119.076 160.588 119.484C160.42 119.892 160.336 120.384 160.336 120.96V121.32C160.336 121.944 160.42 122.472 160.588 122.904C160.768 123.336 160.996 123.69 161.272 123.966C161.548 124.23 161.866 124.428 162.226 124.56C162.586 124.68 162.946 124.74 163.306 124.74ZM173.829 126.18C173.217 126.18 172.647 126.084 172.119 125.892C171.591 125.688 171.135 125.388 170.751 124.992C170.367 124.584 170.061 124.074 169.833 123.462C169.617 122.85 169.509 122.136 169.509 121.32V120.96C169.509 120.192 169.629 119.514 169.869 118.926C170.109 118.338 170.427 117.852 170.823 117.468C171.219 117.072 171.675 116.778 172.191 116.586C172.719 116.382 173.265 116.28 173.829 116.28C174.393 116.28 174.897 116.358 175.341 116.514C175.797 116.67 176.187 116.886 176.511 117.162C176.847 117.438 177.117 117.762 177.321 118.134C177.537 118.506 177.693 118.908 177.789 119.34H176.169C176.073 119.112 175.959 118.902 175.827 118.71C175.707 118.506 175.551 118.332 175.359 118.188C175.179 118.044 174.963 117.93 174.711 117.846C174.459 117.762 174.165 117.72 173.829 117.72C173.481 117.72 173.145 117.786 172.821 117.918C172.497 118.038 172.209 118.23 171.957 118.494C171.705 118.746 171.501 119.076 171.345 119.484C171.201 119.892 171.129 120.384 171.129 120.96V121.32C171.129 121.932 171.201 122.46 171.345 122.904C171.501 123.336 171.705 123.69 171.957 123.966C172.209 124.23 172.497 124.428 172.821 124.56C173.145 124.68 173.481 124.74 173.829 124.74C174.417 124.74 174.909 124.596 175.305 124.308C175.713 124.02 176.001 123.624 176.169 123.12H177.789C177.561 124.068 177.093 124.818 176.385 125.37C175.677 125.91 174.825 126.18 173.829 126.18ZM182.126 117.864H178.868V116.46H186.968V117.864H183.71V126H182.126V117.864ZM188.772 116.46H190.356V120.06H192.642C193.842 120.06 194.724 120.324 195.288 120.852C195.864 121.38 196.152 122.112 196.152 123.048C196.152 123.96 195.864 124.68 195.288 125.208C194.724 125.736 193.842 126 192.642 126H188.772V116.46ZM192.552 124.596C193.296 124.596 193.818 124.464 194.118 124.2C194.418 123.936 194.568 123.546 194.568 123.03C194.568 122.514 194.418 122.124 194.118 121.86C193.818 121.596 193.296 121.464 192.552 121.464H190.356V124.596H192.552Z" fill="#1F1F25" fill-opacity="0.8"/>
</g>
<g filter="url(#filter1_d_7206_66712)">
<rect x="280" y="20" width="230" height="142" rx="32" fill="#FCFDFF"/>
<path opacity="0.5" d="M306.16 85.048H313.84V64.696L306.16 70.168V63.16L314.272 57.4H321.04V85.048H327.28V91H306.16V85.048ZM329.674 85.768L341.434 75.64C342.522 74.68 343.45 73.848 344.218 73.144C344.986 72.408 345.61 71.736 346.09 71.128C346.57 70.52 346.906 69.928 347.098 69.352C347.322 68.776 347.434 68.152 347.434 67.48C347.434 66.104 347.05 65 346.282 64.168C345.514 63.304 344.378 62.872 342.874 62.872C341.146 62.872 339.786 63.352 338.794 64.312C337.834 65.24 337.354 66.856 337.354 69.16H330.154C330.154 65.352 331.226 62.344 333.37 60.136C335.546 57.928 338.714 56.824 342.874 56.824C344.826 56.824 346.522 57.096 347.962 57.64C349.434 58.152 350.666 58.888 351.658 59.848C352.65 60.776 353.386 61.896 353.866 63.208C354.378 64.52 354.634 65.944 354.634 67.48C354.634 68.632 354.426 69.736 354.01 70.792C353.594 71.816 353.018 72.808 352.282 73.768C351.578 74.728 350.746 75.672 349.786 76.6C348.826 77.496 347.802 78.392 346.714 79.288L339.802 85.048H355.114V91H329.674V85.768ZM385.336 57.4H392.056L369.016 91H362.296L385.336 57.4ZM366.136 73.336C364.888 73.336 363.768 73.144 362.776 72.76C361.784 72.376 360.92 71.832 360.184 71.128C359.48 70.424 358.936 69.592 358.552 68.632C358.168 67.64 357.976 66.536 357.976 65.32V64.84C357.976 63.656 358.168 62.568 358.552 61.576C358.936 60.584 359.48 59.736 360.184 59.032C360.92 58.328 361.784 57.784 362.776 57.4C363.768 57.016 364.888 56.824 366.136 56.824C367.384 56.824 368.504 57.016 369.496 57.4C370.488 57.784 371.336 58.328 372.04 59.032C372.776 59.736 373.336 60.584 373.72 61.576C374.104 62.568 374.296 63.656 374.296 64.84V65.32C374.296 66.536 374.104 67.64 373.72 68.632C373.336 69.592 372.776 70.424 372.04 71.128C371.336 71.832 370.488 72.376 369.496 72.76C368.504 73.144 367.384 73.336 366.136 73.336ZM366.136 68.344C366.776 68.344 367.288 68.12 367.672 67.672C368.056 67.192 368.248 66.408 368.248 65.32V64.84C368.248 63.752 368.056 62.984 367.672 62.536C367.288 62.056 366.776 61.816 366.136 61.816C365.496 61.816 364.984 62.056 364.6 62.536C364.216 62.984 364.024 63.752 364.024 64.84V65.32C364.024 66.408 364.216 67.192 364.6 67.672C364.984 68.12 365.496 68.344 366.136 68.344ZM388.216 91.528C386.968 91.528 385.848 91.336 384.856 90.952C383.864 90.568 383 90.024 382.264 89.32C381.56 88.616 381.016 87.784 380.632 86.824C380.248 85.832 380.056 84.728 380.056 83.512V83.032C380.056 81.848 380.248 80.76 380.632 79.768C381.016 78.776 381.56 77.928 382.264 77.224C383 76.52 383.864 75.976 384.856 75.592C385.848 75.208 386.968 75.016 388.216 75.016C389.464 75.016 390.584 75.208 391.576 75.592C392.568 75.976 393.416 76.52 394.12 77.224C394.856 77.928 395.416 78.776 395.8 79.768C396.184 80.76 396.376 81.848 396.376 83.032V83.512C396.376 84.728 396.184 85.832 395.8 86.824C395.416 87.784 394.856 88.616 394.12 89.32C393.416 90.024 392.568 90.568 391.576 90.952C390.584 91.336 389.464 91.528 388.216 91.528ZM388.216 86.536C388.856 86.536 389.368 86.312 389.752 85.864C390.136 85.384 390.328 84.6 390.328 83.512V83.032C390.328 81.944 390.136 81.176 389.752 80.728C389.368 80.248 388.856 80.008 388.216 80.008C387.576 80.008 387.064 80.248 386.68 80.728C386.296 81.176 386.104 81.944 386.104 83.032V83.512C386.104 84.6 386.296 85.384 386.68 85.864C387.064 86.312 387.576 86.536 388.216 86.536Z" fill="#9872FA"/>
<path opacity="0.9" d="M310.39 126.18C309.682 126.18 309.01 126.06 308.374 125.82C307.738 125.568 307.174 125.184 306.682 124.668C306.19 124.14 305.8 123.474 305.512 122.67C305.224 121.866 305.08 120.906 305.08 119.79V119.43C305.08 118.35 305.224 117.42 305.512 116.64C305.8 115.86 306.19 115.218 306.682 114.714C307.174 114.21 307.738 113.838 308.374 113.598C309.01 113.346 309.682 113.22 310.39 113.22C311.074 113.22 311.698 113.31 312.262 113.49C312.838 113.67 313.342 113.928 313.774 114.264C314.206 114.6 314.554 115.014 314.818 115.506C315.094 115.998 315.268 116.556 315.34 117.18H313.54C313.372 116.364 313.018 115.752 312.478 115.344C311.938 114.936 311.242 114.732 310.39 114.732C309.946 114.732 309.514 114.816 309.094 114.984C308.674 115.152 308.296 115.422 307.96 115.794C307.636 116.154 307.372 116.634 307.168 117.234C306.976 117.834 306.88 118.566 306.88 119.43V119.79C306.88 120.702 306.988 121.47 307.204 122.094C307.42 122.706 307.696 123.204 308.032 123.588C308.368 123.972 308.746 124.248 309.166 124.416C309.586 124.584 309.994 124.668 310.39 124.668C311.326 124.668 312.058 124.44 312.586 123.984C313.114 123.528 313.432 122.94 313.54 122.22H315.34C315.244 122.916 315.052 123.516 314.764 124.02C314.476 124.512 314.11 124.92 313.666 125.244C313.234 125.568 312.736 125.808 312.172 125.964C311.62 126.108 311.026 126.18 310.39 126.18ZM317.674 116.46H325.594V126H324.01V117.864H319.258V126H317.674V116.46ZM328.467 116.46H330.051V123.66L334.983 116.46H336.567V126H334.983V118.8L330.051 126H328.467V116.46ZM343.144 126.18C342.532 126.18 341.962 126.084 341.434 125.892C340.906 125.688 340.45 125.388 340.066 124.992C339.682 124.584 339.376 124.074 339.148 123.462C338.932 122.85 338.824 122.136 338.824 121.32V120.96C338.824 120.192 338.944 119.514 339.184 118.926C339.424 118.338 339.742 117.852 340.138 117.468C340.534 117.072 340.99 116.778 341.506 116.586C342.034 116.382 342.58 116.28 343.144 116.28C343.708 116.28 344.212 116.358 344.656 116.514C345.112 116.67 345.502 116.886 345.826 117.162C346.162 117.438 346.432 117.762 346.636 118.134C346.852 118.506 347.008 118.908 347.104 119.34H345.484C345.388 119.112 345.274 118.902 345.142 118.71C345.022 118.506 344.866 118.332 344.674 118.188C344.494 118.044 344.278 117.93 344.026 117.846C343.774 117.762 343.48 117.72 343.144 117.72C342.796 117.72 342.46 117.786 342.136 117.918C341.812 118.038 341.524 118.23 341.272 118.494C341.02 118.746 340.816 119.076 340.66 119.484C340.516 119.892 340.444 120.384 340.444 120.96V121.32C340.444 121.932 340.516 122.46 340.66 122.904C340.816 123.336 341.02 123.69 341.272 123.966C341.524 124.23 341.812 124.428 342.136 124.56C342.46 124.68 342.796 124.74 343.144 124.74C343.732 124.74 344.224 124.596 344.62 124.308C345.028 124.02 345.316 123.624 345.484 123.12H347.104C346.876 124.068 346.408 124.818 345.7 125.37C344.992 125.91 344.14 126.18 343.144 126.18ZM351.98 126.18C351.452 126.18 350.984 126.108 350.576 125.964C350.18 125.808 349.844 125.598 349.568 125.334C349.292 125.07 349.082 124.758 348.938 124.398C348.794 124.038 348.722 123.642 348.722 123.21C348.722 122.262 348.998 121.578 349.55 121.158C350.114 120.738 350.918 120.528 351.962 120.528H355.058V119.88C355.058 119.064 354.872 118.5 354.5 118.188C354.14 117.876 353.594 117.72 352.862 117.72C352.178 117.72 351.68 117.852 351.368 118.116C351.056 118.368 350.882 118.656 350.846 118.98H349.262C349.286 118.596 349.388 118.242 349.568 117.918C349.76 117.582 350.012 117.294 350.324 117.054C350.648 116.814 351.032 116.628 351.476 116.496C351.92 116.352 352.412 116.28 352.952 116.28C354.08 116.28 354.974 116.55 355.634 117.09C356.306 117.618 356.642 118.488 356.642 119.7V123.57C356.642 124.074 356.642 124.518 356.642 124.902C356.654 125.274 356.684 125.64 356.732 126H355.346C355.31 125.724 355.286 125.466 355.274 125.226C355.262 124.974 355.256 124.692 355.256 124.38C355.004 124.884 354.596 125.31 354.032 125.658C353.468 126.006 352.784 126.18 351.98 126.18ZM352.322 124.74C352.694 124.74 353.042 124.692 353.366 124.596C353.702 124.488 353.996 124.338 354.248 124.146C354.5 123.942 354.698 123.696 354.842 123.408C354.986 123.12 355.058 122.784 355.058 122.4V121.752H352.232C351.644 121.752 351.182 121.872 350.846 122.112C350.51 122.34 350.342 122.706 350.342 123.21C350.342 123.654 350.498 124.02 350.81 124.308C351.134 124.596 351.638 124.74 352.322 124.74ZM359.44 116.46H361.024V120.438H365.956V116.46H367.54V126H365.956V121.842H361.024V126H359.44V116.46ZM370.426 116.46H372.01V123.66L376.942 116.46H378.526V126H376.942V118.8L372.01 126H370.426V116.46ZM381.413 116.46H382.997V123.66L387.929 116.46H389.513V126H387.929V118.8L382.997 126H381.413V116.46ZM385.463 115.29C384.527 115.29 383.843 115.092 383.411 114.696C382.979 114.288 382.763 113.706 382.763 112.95H384.311C384.311 113.766 384.695 114.174 385.463 114.174C386.255 114.174 386.651 113.766 386.651 112.95H388.163C388.163 113.706 387.947 114.288 387.515 114.696C387.083 115.092 386.399 115.29 385.463 115.29Z" fill="#1F1F25" fill-opacity="0.8"/>
</g>
<defs>
<filter id="filter0_d_7206_66712" x="0" y="0" width="270" height="182" filterUnits="userSpaceOnUse" color-interpolation-filters="sRGB">
<feFlood flood-opacity="0" result="BackgroundImageFix"/>
<feColorMatrix in="SourceAlpha" type="matrix" values="0 0 0 0 0 0 0 0 0 0 0 0 0 0 0 0 0 0 127 0" result="hardAlpha"/>
<feOffset/>
<feGaussianBlur stdDeviation="10"/>
<feComposite in2="hardAlpha" operator="out"/>
<feColorMatrix type="matrix" values="0 0 0 0 0.641198 0 0 0 0 0.761107 0 0 0 0 0.8125 0 0 0 0.6 0"/>
<feBlend mode="normal" in2="BackgroundImageFix" result="effect1_dropShadow_7206_66712"/>
<feBlend mode="normal" in="SourceGraphic" in2="effect1_dropShadow_7206_66712" result="shape"/>
</filter>
<filter id="filter1_d_7206_66712" x="260" y="0" width="270" height="182" filterUnits="userSpaceOnUse" color-interpolation-filters="sRGB">
<feFlood flood-opacity="0" result="BackgroundImageFix"/>
<feColorMatrix in="SourceAlpha" type="matrix" values="0 0 0 0 0 0 0 0 0 0 0 0 0 0 0 0 0 0 127 0" result="hardAlpha"/>
<feOffset/>
<feGaussianBlur stdDeviation="10"/>
<feComposite in2="hardAlpha" operator="out"/>
<feColorMatrix type="matrix" values="0 0 0 0 0.641198 0 0 0 0 0.761107 0 0 0 0 0.8125 0 0 0 0.6 0"/>
<feBlend mode="normal" in2="BackgroundImageFix" result="effect1_dropShadow_7206_66712"/>
<feBlend mode="normal" in="SourceGraphic" in2="effect1_dropShadow_7206_66712" result="shape"/>
</filter>
</defs>
</svg>
