<svg width="377" height="519" viewBox="0 0 377 519" fill="none" xmlns="http://www.w3.org/2000/svg">
<g filter="url(#filter0_d_6650_57285)">
<rect x="20" y="20" width="337" height="478.407" rx="24" fill="#ECF2FF"/>
<rect x="20" y="20" width="337" height="74.4068" rx="24" fill="white"/>
<path d="M44.1 48.834C43.788 49.038 43.362 49.224 42.822 49.392C42.294 49.56 41.67 49.644 40.95 49.644C39.582 49.644 38.562 49.308 37.89 48.636C37.23 47.964 36.9 46.902 36.9 45.45V41.4H39.6V45.09C39.6 45.906 39.762 46.494 40.086 46.854C40.422 47.202 40.95 47.376 41.67 47.376C42.234 47.376 42.714 47.304 43.11 47.16C43.518 47.004 43.848 46.842 44.1 46.674V41.4H46.8V54H44.1V48.834ZM52.1764 54.216C51.6604 54.216 51.2044 54.144 50.8084 54C50.4124 53.844 50.0764 53.634 49.8004 53.37C49.5244 53.094 49.3144 52.776 49.1704 52.416C49.0264 52.044 48.9544 51.642 48.9544 51.21C48.9544 49.29 50.0944 48.33 52.3744 48.33H55.2184V47.88C55.2184 47.256 55.0744 46.818 54.7864 46.566C54.5104 46.314 54.0664 46.188 53.4544 46.188C52.9144 46.188 52.5244 46.284 52.2844 46.476C52.0444 46.656 51.9064 46.884 51.8704 47.16H49.4944C49.5184 46.752 49.6204 46.368 49.8004 46.008C49.9924 45.648 50.2564 45.342 50.5924 45.09C50.9404 44.826 51.3604 44.622 51.8524 44.478C52.3444 44.322 52.9084 44.244 53.5444 44.244C54.1564 44.244 54.7084 44.31 55.2004 44.442C55.7044 44.574 56.1304 44.79 56.4784 45.09C56.8384 45.378 57.1144 45.756 57.3064 46.224C57.4984 46.692 57.5944 47.256 57.5944 47.916V51.57C57.5944 52.074 57.6004 52.518 57.6124 52.902C57.6364 53.274 57.6724 53.64 57.7204 54H55.5064C55.4584 53.736 55.4284 53.538 55.4164 53.406C55.4164 53.262 55.4164 53.052 55.4164 52.776C55.1524 53.16 54.7504 53.496 54.2104 53.784C53.6824 54.072 53.0044 54.216 52.1764 54.216ZM52.9144 52.38C53.2024 52.38 53.4844 52.344 53.7604 52.272C54.0364 52.188 54.2824 52.068 54.4984 51.912C54.7144 51.744 54.8884 51.534 55.0204 51.282C55.1524 51.03 55.2184 50.736 55.2184 50.4V49.95H52.8244C52.3684 49.95 52.0084 50.058 51.7444 50.274C51.4924 50.478 51.3664 50.76 51.3664 51.12C51.3664 51.504 51.4984 51.81 51.7624 52.038C52.0264 52.266 52.4104 52.38 52.9144 52.38ZM61.8317 46.44H58.7897V44.46H67.2497V46.44H64.2077V54H61.8317V46.44ZM77.4155 54.216C76.7555 54.216 76.1375 54.114 75.5615 53.91C74.9975 53.706 74.5055 53.4 74.0855 52.992C73.6655 52.584 73.3355 52.074 73.0955 51.462C72.8555 50.85 72.7355 50.136 72.7355 49.32V48.96C72.7355 48.192 72.8615 47.514 73.1135 46.926C73.3655 46.338 73.7015 45.846 74.1215 45.45C74.5535 45.054 75.0515 44.754 75.6155 44.55C76.1795 44.346 76.7795 44.244 77.4155 44.244C78.0875 44.244 78.6815 44.334 79.1975 44.514C79.7255 44.694 80.1695 44.94 80.5295 45.252C80.8895 45.564 81.1715 45.93 81.3755 46.35C81.5795 46.77 81.6995 47.22 81.7355 47.7H79.3235C79.2275 47.256 79.0295 46.908 78.7295 46.656C78.4415 46.392 78.0035 46.26 77.4155 46.26C77.1035 46.26 76.8095 46.314 76.5335 46.422C76.2695 46.53 76.0295 46.698 75.8135 46.926C75.6095 47.142 75.4475 47.418 75.3275 47.754C75.2075 48.09 75.1475 48.492 75.1475 48.96V49.32C75.1475 49.824 75.2015 50.262 75.3095 50.634C75.4295 50.994 75.5915 51.294 75.7955 51.534C75.9995 51.762 76.2395 51.93 76.5155 52.038C76.7915 52.146 77.0915 52.2 77.4155 52.2C77.8835 52.2 78.2855 52.08 78.6215 51.84C78.9695 51.588 79.2035 51.228 79.3235 50.76H81.7355C81.6755 51.288 81.5255 51.768 81.2855 52.2C81.0575 52.62 80.7515 52.98 80.3675 53.28C79.9955 53.58 79.5575 53.814 79.0535 53.982C78.5495 54.138 78.0035 54.216 77.4155 54.216ZM87.8632 44.46H96.5032V54H94.1272V46.44H90.2392V54H87.8632V44.46ZM102.976 54.216C102.328 54.216 101.71 54.12 101.122 53.928C100.546 53.724 100.042 53.418 99.6102 53.01C99.1782 52.602 98.8362 52.092 98.5842 51.48C98.3322 50.868 98.2062 50.148 98.2062 49.32V48.96C98.2062 48.18 98.3322 47.496 98.5842 46.908C98.8362 46.32 99.1782 45.828 99.6102 45.432C100.042 45.036 100.546 44.742 101.122 44.55C101.71 44.346 102.328 44.244 102.976 44.244C103.624 44.244 104.236 44.346 104.812 44.55C105.388 44.742 105.892 45.036 106.324 45.432C106.768 45.828 107.116 46.32 107.368 46.908C107.62 47.496 107.746 48.18 107.746 48.96V49.32C107.746 50.136 107.62 50.85 107.368 51.462C107.116 52.074 106.768 52.584 106.324 52.992C105.892 53.4 105.388 53.706 104.812 53.91C104.236 54.114 103.624 54.216 102.976 54.216ZM102.976 52.2C103.648 52.2 104.206 51.96 104.65 51.48C105.106 51 105.334 50.28 105.334 49.32V48.96C105.334 48.084 105.106 47.418 104.65 46.962C104.206 46.494 103.648 46.26 102.976 46.26C102.292 46.26 101.728 46.494 101.284 46.962C100.84 47.418 100.618 48.084 100.618 48.96V49.32C100.618 50.292 100.84 51.018 101.284 51.498C101.728 51.966 102.292 52.2 102.976 52.2ZM108.553 52.02H109.633C109.753 51.84 109.861 51.582 109.957 51.246C110.053 50.898 110.125 50.514 110.173 50.094C110.233 49.662 110.275 49.212 110.299 48.744C110.335 48.264 110.353 47.796 110.353 47.34V44.46H117.823V52.02H118.993V56.25H116.905V54H110.641V56.25H108.553V52.02ZM115.447 52.02V46.44H112.531V47.7C112.531 48.12 112.519 48.534 112.495 48.942C112.471 49.35 112.435 49.746 112.387 50.13C112.351 50.502 112.297 50.85 112.225 51.174C112.153 51.498 112.063 51.78 111.955 52.02H115.447ZM120.348 52.02H121.428C121.548 51.84 121.656 51.582 121.752 51.246C121.848 50.898 121.92 50.514 121.968 50.094C122.028 49.662 122.07 49.212 122.094 48.744C122.13 48.264 122.148 47.796 122.148 47.34V44.46H129.618V52.02H130.788V56.25H128.7V54H122.436V56.25H120.348V52.02ZM127.242 52.02V46.44H124.326V47.7C124.326 48.12 124.314 48.534 124.29 48.942C124.266 49.35 124.23 49.746 124.182 50.13C124.146 50.502 124.092 50.85 124.02 51.174C123.948 51.498 123.858 51.78 123.75 52.02H127.242ZM136.638 54.216C135.99 54.216 135.372 54.12 134.784 53.928C134.208 53.724 133.704 53.424 133.272 53.028C132.84 52.62 132.498 52.11 132.246 51.498C131.994 50.874 131.868 50.148 131.868 49.32V48.96C131.868 48.168 131.988 47.478 132.228 46.89C132.468 46.302 132.798 45.816 133.218 45.432C133.638 45.036 134.124 44.742 134.676 44.55C135.228 44.346 135.822 44.244 136.458 44.244C137.958 44.244 139.098 44.64 139.878 45.432C140.658 46.224 141.048 47.37 141.048 48.87V49.878H134.298C134.31 50.298 134.382 50.664 134.514 50.976C134.646 51.276 134.82 51.522 135.036 51.714C135.252 51.906 135.498 52.05 135.774 52.146C136.062 52.23 136.35 52.272 136.638 52.272C137.25 52.272 137.712 52.182 138.024 52.002C138.336 51.822 138.558 51.558 138.69 51.21H140.868C140.676 52.206 140.202 52.956 139.446 53.46C138.69 53.964 137.754 54.216 136.638 54.216ZM136.548 46.188C136.272 46.188 135.996 46.224 135.72 46.296C135.456 46.368 135.222 46.482 135.018 46.638C134.814 46.794 134.646 47.004 134.514 47.268C134.382 47.532 134.31 47.85 134.298 48.222H138.744C138.732 47.826 138.666 47.496 138.546 47.232C138.438 46.968 138.282 46.758 138.078 46.602C137.886 46.446 137.658 46.338 137.394 46.278C137.13 46.218 136.848 46.188 136.548 46.188ZM142.76 44.46H144.974V45.864C145.214 45.432 145.592 45.054 146.108 44.73C146.624 44.406 147.278 44.244 148.07 44.244C149.342 44.244 150.332 44.64 151.04 45.432C151.76 46.212 152.12 47.388 152.12 48.96V49.32C152.12 50.964 151.754 52.194 151.022 53.01C150.302 53.814 149.318 54.216 148.07 54.216C147.422 54.216 146.846 54.078 146.342 53.802C145.85 53.514 145.448 53.142 145.136 52.686V57.6H142.76V44.46ZM147.512 52.2C148.136 52.2 148.658 51.966 149.078 51.498C149.498 51.018 149.708 50.292 149.708 49.32V48.96C149.708 48.06 149.504 47.388 149.096 46.944C148.688 46.488 148.16 46.26 147.512 46.26C146.828 46.26 146.258 46.458 145.802 46.854C145.358 47.238 145.136 47.82 145.136 48.6V49.68C145.136 50.532 145.352 51.168 145.784 51.588C146.228 51.996 146.804 52.2 147.512 52.2ZM156.056 49.032L152.852 44.46H155.336L157.892 48.204H158.594V44.46H160.97V48.204H161.69L164.264 44.46H166.712L163.526 48.978L166.892 54H164.228L161.69 50.076H160.97V54H158.594V50.076H157.874L155.264 54H152.672L156.056 49.032ZM168.248 44.46H170.624V48.204H171.524L174.44 44.46H177.068L173.468 48.978L177.248 54H174.404L171.524 50.076H170.624V54H168.248V44.46ZM182.57 54.216C181.922 54.216 181.304 54.12 180.716 53.928C180.14 53.724 179.636 53.418 179.204 53.01C178.772 52.602 178.43 52.092 178.178 51.48C177.926 50.868 177.8 50.148 177.8 49.32V48.96C177.8 48.18 177.926 47.496 178.178 46.908C178.43 46.32 178.772 45.828 179.204 45.432C179.636 45.036 180.14 44.742 180.716 44.55C181.304 44.346 181.922 44.244 182.57 44.244C183.218 44.244 183.83 44.346 184.406 44.55C184.982 44.742 185.486 45.036 185.918 45.432C186.362 45.828 186.71 46.32 186.962 46.908C187.214 47.496 187.34 48.18 187.34 48.96V49.32C187.34 50.136 187.214 50.85 186.962 51.462C186.71 52.074 186.362 52.584 185.918 52.992C185.486 53.4 184.982 53.706 184.406 53.91C183.83 54.114 183.218 54.216 182.57 54.216ZM182.57 52.2C183.242 52.2 183.8 51.96 184.244 51.48C184.7 51 184.928 50.28 184.928 49.32V48.96C184.928 48.084 184.7 47.418 184.244 46.962C183.8 46.494 183.242 46.26 182.57 46.26C181.886 46.26 181.322 46.494 180.878 46.962C180.434 47.418 180.212 48.084 180.212 48.96V49.32C180.212 50.292 180.434 51.018 180.878 51.498C181.322 51.966 181.886 52.2 182.57 52.2ZM189.043 44.46H191.419V50.58L195.667 44.46H197.863V54H195.487V47.88L191.239 54H189.043V44.46ZM193.453 43.47C192.385 43.47 191.605 43.242 191.113 42.786C190.633 42.33 190.393 41.658 190.393 40.77H192.499C192.499 41.238 192.577 41.568 192.733 41.76C192.901 41.94 193.141 42.03 193.453 42.03C193.789 42.03 194.035 41.94 194.191 41.76C194.359 41.568 194.443 41.238 194.443 40.77H196.513C196.513 41.658 196.267 42.33 195.775 42.786C195.295 43.242 194.521 43.47 193.453 43.47Z" fill="#1F1F25"/>
<circle cx="41" cy="71.8334" r="5" fill="#4ADC3D"/>
<path opacity="0.6" d="M53.7 75.4334C53.3 75.4334 52.9133 75.3667 52.54 75.2334C52.1667 75.0934 51.8367 74.88 51.55 74.5934C51.2633 74.3067 51.0333 73.94 50.86 73.4934C50.6867 73.0467 50.6 72.51 50.6 71.8834V71.6834C50.6 71.0834 50.6867 70.5667 50.86 70.1334C51.0333 69.7 51.2633 69.3434 51.55 69.0634C51.8367 68.7767 52.1667 68.5667 52.54 68.4334C52.9133 68.3 53.3 68.2334 53.7 68.2334C54.1 68.2334 54.4867 68.3 54.86 68.4334C55.2333 68.5667 55.5633 68.7767 55.85 69.0634C56.1367 69.3434 56.3667 69.7 56.54 70.1334C56.7133 70.5667 56.8 71.0834 56.8 71.6834V71.8834C56.8 72.51 56.7133 73.0467 56.54 73.4934C56.3667 73.94 56.1367 74.3067 55.85 74.5934C55.5633 74.88 55.2333 75.0934 54.86 75.2334C54.4867 75.3667 54.1 75.4334 53.7 75.4334ZM53.7 74.5934C53.9733 74.5934 54.2367 74.5434 54.49 74.4434C54.7433 74.3434 54.9667 74.1867 55.16 73.9734C55.3533 73.7534 55.5067 73.4734 55.62 73.1334C55.74 72.7867 55.8 72.37 55.8 71.8834V71.6834C55.8 71.2234 55.74 70.83 55.62 70.5034C55.5067 70.17 55.3533 69.9 55.16 69.6934C54.9667 69.48 54.7433 69.3234 54.49 69.2234C54.2367 69.1234 53.9733 69.0734 53.7 69.0734C53.4267 69.0734 53.1633 69.1234 52.91 69.2234C52.6567 69.3234 52.4333 69.48 52.24 69.6934C52.0467 69.9 51.89 70.17 51.77 70.5034C51.6567 70.83 51.6 71.2234 51.6 71.6834V71.8834C51.6 72.37 51.6567 72.7867 51.77 73.1334C51.89 73.4734 52.0467 73.7534 52.24 73.9734C52.4333 74.1867 52.6567 74.3434 52.91 74.4434C53.1633 74.5434 53.4267 74.5934 53.7 74.5934ZM58.2023 70.0334H59.0823V72.2434H61.8223V70.0334H62.7023V75.3334H61.8223V73.0234H59.0823V75.3334H58.2023V70.0334ZM64.0559 75.4334C63.9559 75.4334 63.8559 75.4234 63.7559 75.4034V74.5234C63.7892 74.53 63.8392 74.5334 63.9059 74.5334C64.0525 74.5334 64.1792 74.4867 64.2859 74.3934C64.3992 74.3 64.4892 74.1367 64.5559 73.9034C64.6225 73.67 64.6725 73.3534 64.7059 72.9534C64.7392 72.5534 64.7559 72.0467 64.7559 71.4334V70.0334H68.5559V75.3334H67.6759V70.8134H65.6359V71.6334C65.6359 72.3734 65.6025 72.9867 65.5359 73.4734C65.4692 73.96 65.3692 74.35 65.2359 74.6434C65.1092 74.93 64.9459 75.1334 64.7459 75.2534C64.5459 75.3734 64.3159 75.4334 64.0559 75.4334ZM71.6655 75.4334C71.3721 75.4334 71.1121 75.3934 70.8855 75.3134C70.6655 75.2267 70.4788 75.11 70.3255 74.9634C70.1721 74.8167 70.0555 74.6434 69.9755 74.4434C69.8955 74.2434 69.8555 74.0234 69.8555 73.7834C69.8555 73.2567 70.0088 72.8767 70.3155 72.6434C70.6288 72.41 71.0755 72.2934 71.6555 72.2934H73.3755V71.9334C73.3755 71.48 73.2721 71.1667 73.0655 70.9934C72.8655 70.82 72.5621 70.7334 72.1555 70.7334C71.7755 70.7334 71.4988 70.8067 71.3255 70.9534C71.1521 71.0934 71.0555 71.2534 71.0355 71.4334H70.1555C70.1688 71.22 70.2255 71.0234 70.3255 70.8434C70.4321 70.6567 70.5721 70.4967 70.7455 70.3634C70.9255 70.23 71.1388 70.1267 71.3855 70.0534C71.6321 69.9734 71.9055 69.9334 72.2055 69.9334C72.8321 69.9334 73.3288 70.0834 73.6955 70.3834C74.0688 70.6767 74.2555 71.16 74.2555 71.8334V73.9834C74.2555 74.2634 74.2555 74.51 74.2555 74.7234C74.2621 74.93 74.2788 75.1334 74.3055 75.3334H73.5355C73.5155 75.18 73.5021 75.0367 73.4955 74.9034C73.4888 74.7634 73.4855 74.6067 73.4855 74.4334C73.3455 74.7134 73.1188 74.95 72.8055 75.1434C72.4921 75.3367 72.1121 75.4334 71.6655 75.4334ZM71.8555 74.6334C72.0621 74.6334 72.2555 74.6067 72.4355 74.5534C72.6221 74.4934 72.7855 74.41 72.9255 74.3034C73.0655 74.19 73.1755 74.0534 73.2555 73.8934C73.3355 73.7334 73.3755 73.5467 73.3755 73.3334V72.9734H71.8055C71.4788 72.9734 71.2221 73.04 71.0355 73.1734C70.8488 73.3 70.7555 73.5034 70.7555 73.7834C70.7555 74.03 70.8421 74.2334 71.0155 74.3934C71.1955 74.5534 71.4755 74.6334 71.8555 74.6334ZM75.8098 70.0334H76.6898V74.0334L79.4298 70.0334H80.3098V75.3334H79.4298V71.3334L76.6898 75.3334H75.8098V70.0334ZM78.0598 69.3834C77.5398 69.3834 77.1598 69.2734 76.9198 69.0534C76.6798 68.8267 76.5598 68.5034 76.5598 68.0834H77.4198C77.4198 68.5367 77.6331 68.7634 78.0598 68.7634C78.4998 68.7634 78.7198 68.5367 78.7198 68.0834H79.5598C79.5598 68.5034 79.4398 68.8267 79.1998 69.0534C78.9598 69.2734 78.5798 69.3834 78.0598 69.3834ZM81.9133 70.0334H82.7933V72.2434H85.5333V70.0334H86.4133V75.3334H85.5333V73.0234H82.7933V75.3334H81.9133V70.0334Z" fill="#1F1F25"/>
<rect x="267" y="41.2034" width="32" height="32" rx="16" fill="#0088CC"/>
<mask id="mask0_6650_57285" style="mask-type:alpha" maskUnits="userSpaceOnUse" x="273" y="47" width="20" height="21">
<rect x="273" y="47.2034" width="20" height="20" fill="#D9D9D9"/>
</mask>
<g mask="url(#mask0_6650_57285)">
<path fill-rule="evenodd" clip-rule="evenodd" d="M276.495 56.536C280.382 54.8426 282.974 53.7261 284.271 53.1867C287.974 51.6466 288.743 51.379 289.245 51.3702C289.355 51.3683 289.602 51.3956 289.762 51.5252C289.896 51.6347 289.934 51.7825 289.951 51.8863C289.969 51.9901 289.991 52.2265 289.974 52.4112C289.773 54.5195 288.905 59.6358 288.463 61.9972C288.276 62.9964 287.908 63.3314 287.552 63.3642C286.777 63.4354 286.189 62.8524 285.44 62.3609C284.266 61.5916 283.603 61.1127 282.464 60.3621C281.148 59.4946 282.001 59.0178 282.751 58.2386C282.948 58.0347 286.359 54.9316 286.425 54.6501C286.433 54.6149 286.441 54.4837 286.363 54.4144C286.285 54.3451 286.17 54.3688 286.087 54.3876C285.969 54.4144 284.095 55.6535 280.463 58.1049C279.931 58.4703 279.449 58.6484 279.017 58.639C278.541 58.6288 277.625 58.3699 276.944 58.1486C276.109 57.8771 275.446 57.7336 275.504 57.2727C275.534 57.0326 275.864 56.787 276.495 56.536Z" fill="white"/>
</g>
<rect x="309" y="41.2034" width="32" height="32" rx="16" fill="url(#paint0_linear_6650_57285)"/>
<mask id="mask1_6650_57285" style="mask-type:alpha" maskUnits="userSpaceOnUse" x="315" y="47" width="20" height="21">
<rect x="315" y="47.2034" width="20" height="20" fill="#D9D9D9"/>
</mask>
<g mask="url(#mask1_6650_57285)">
<path d="M317.562 57.1694C317.562 58.4851 317.906 59.7697 318.559 60.9019L317.5 64.7705L321.459 63.7324C322.55 64.3273 323.778 64.6408 325.028 64.6413H325.031C329.147 64.6413 332.498 61.2915 332.5 57.1751C332.5 55.18 331.724 53.3042 330.314 51.893C328.904 50.4818 327.029 49.7042 325.031 49.7034C320.914 49.7034 317.564 53.0525 317.562 57.1691M319.92 60.7068L319.772 60.4721C319.151 59.484 318.823 58.3421 318.823 57.1697C318.825 53.7482 321.609 50.9644 325.033 50.9644C326.692 50.965 328.25 51.6115 329.422 52.7843C330.594 53.9572 331.239 55.5164 331.239 57.1745C331.237 60.5962 328.453 63.3802 325.031 63.3802H325.029C323.915 63.3796 322.822 63.0805 321.869 62.5151L321.642 62.3807L319.293 62.9967L319.92 60.7068ZM325.031 64.6413H325.031H325.031C325.031 64.6413 325.031 64.6413 325.031 64.6413Z" fill="white"/>
<path fill-rule="evenodd" clip-rule="evenodd" d="M323.362 54.1572C323.239 53.8841 323.11 53.8786 322.993 53.8738C322.897 53.8697 322.788 53.87 322.678 53.87C322.569 53.87 322.391 53.9111 322.241 54.0752C322.09 54.2393 321.667 54.6361 321.667 55.4431C321.667 56.2502 322.255 57.03 322.336 57.1396C322.419 57.2489 323.471 58.958 325.138 59.6154C326.524 60.1618 326.806 60.0532 327.107 60.0258C327.407 59.9985 328.077 59.6291 328.214 59.2461C328.351 58.8631 328.351 58.5348 328.31 58.4663C328.269 58.3979 328.159 58.3569 327.995 58.2749C327.831 58.1928 327.025 57.796 326.874 57.7412C326.724 57.6866 326.615 57.6593 326.505 57.8235C326.396 57.9875 326.082 58.3569 325.986 58.4663C325.89 58.5759 325.795 58.5896 325.631 58.5075C325.466 58.4252 324.938 58.2522 324.311 57.6934C323.824 57.2587 323.495 56.7218 323.399 56.5575C323.303 56.3935 323.389 56.3047 323.471 56.2229C323.545 56.1494 323.635 56.0314 323.717 55.9356C323.799 55.8398 323.826 55.7715 323.881 55.6621C323.936 55.5526 323.908 55.4568 323.867 55.3747C323.826 55.2927 323.507 54.4816 323.362 54.1572" fill="white"/>
</g>
<g clip-path="url(#clip0_6650_57285)">
<rect x="20" y="422.407" width="337" height="16" fill="#ECF2FF"/>
<rect x="20" y="94" width="337" height="16" fill="#ECF2FF"/>
</g>
<rect x="36" y="438.407" width="305" height="44" rx="16" fill="white"/>
<path d="M47.536 457.007H48.544V467.807H47.536V457.007Z" fill="#1F1F25"/>
<path d="M54.2781 457.007H55.4061V460.595H59.8701V457.007H60.9981V465.407H59.8701V461.579H55.4061V465.407H54.2781V457.007ZM64.9673 465.527C64.6153 465.527 64.3033 465.479 64.0313 465.383C63.7673 465.279 63.5433 465.139 63.3593 464.963C63.1753 464.787 63.0353 464.579 62.9393 464.339C62.8433 464.099 62.7953 463.835 62.7953 463.547C62.7953 462.915 62.9793 462.459 63.3473 462.179C63.7233 461.899 64.2593 461.759 64.9553 461.759H67.0193V461.327C67.0193 460.783 66.8953 460.407 66.6473 460.199C66.4073 459.991 66.0433 459.887 65.5553 459.887C65.0993 459.887 64.7673 459.975 64.5593 460.151C64.3513 460.319 64.2353 460.511 64.2113 460.727H63.1553C63.1713 460.471 63.2393 460.235 63.3593 460.019C63.4873 459.795 63.6553 459.603 63.8633 459.443C64.0793 459.283 64.3353 459.159 64.6313 459.071C64.9273 458.975 65.2553 458.927 65.6153 458.927C66.3673 458.927 66.9633 459.107 67.4033 459.467C67.8513 459.819 68.0753 460.399 68.0753 461.207V463.787C68.0753 464.123 68.0753 464.419 68.0753 464.675C68.0833 464.923 68.1033 465.167 68.1353 465.407H67.2113C67.1873 465.223 67.1713 465.051 67.1633 464.891C67.1553 464.723 67.1513 464.535 67.1513 464.327C66.9833 464.663 66.7113 464.947 66.3353 465.179C65.9593 465.411 65.5033 465.527 64.9673 465.527ZM65.1953 464.567C65.4433 464.567 65.6753 464.535 65.8913 464.471C66.1153 464.399 66.3113 464.299 66.4793 464.171C66.6473 464.035 66.7793 463.871 66.8753 463.679C66.9713 463.487 67.0193 463.263 67.0193 463.007V462.575H65.1353C64.7433 462.575 64.4353 462.655 64.2113 462.815C63.9873 462.967 63.8753 463.211 63.8753 463.547C63.8753 463.843 63.9793 464.087 64.1873 464.279C64.4033 464.471 64.7393 464.567 65.1953 464.567ZM69.9405 459.047H75.2205V465.407H74.1645V459.983H70.9965V465.407H69.9405V459.047ZM77.1358 459.047H78.1918V463.847L81.4798 459.047H82.5358V465.407H81.4798V460.607L78.1918 465.407H77.1358V459.047ZM84.46 459.047H85.516V464.471H87.832V459.047H88.888V464.471H91.204V459.047H92.26V465.407H84.46V459.047ZM94.1748 459.047H95.2308V463.847L98.5188 459.047H99.5748V465.407H98.5188V460.607L95.2308 465.407H94.1748V459.047ZM102.951 459.983H100.779V459.047H106.179V459.983H104.007V465.407H102.951V459.983ZM109.905 465.527C109.497 465.527 109.109 465.463 108.741 465.335C108.373 465.207 108.049 465.011 107.769 464.747C107.489 464.475 107.265 464.135 107.097 463.727C106.929 463.319 106.845 462.839 106.845 462.287V462.047C106.845 461.519 106.925 461.063 107.085 460.679C107.245 460.287 107.457 459.963 107.721 459.707C107.993 459.443 108.305 459.247 108.657 459.119C109.017 458.991 109.393 458.927 109.785 458.927C110.721 458.927 111.445 459.183 111.957 459.695C112.469 460.207 112.725 460.931 112.725 461.867V462.539H107.901C107.901 462.915 107.961 463.231 108.081 463.487C108.201 463.743 108.357 463.951 108.549 464.111C108.741 464.271 108.953 464.387 109.185 464.459C109.425 464.531 109.665 464.567 109.905 464.567C110.385 464.567 110.753 464.487 111.009 464.327C111.273 464.167 111.461 463.947 111.573 463.667H112.605C112.541 463.971 112.425 464.239 112.257 464.471C112.097 464.703 111.897 464.899 111.657 465.059C111.425 465.211 111.157 465.327 110.853 465.407C110.557 465.487 110.241 465.527 109.905 465.527ZM109.845 459.887C109.597 459.887 109.357 459.923 109.125 459.995C108.893 460.059 108.685 460.167 108.501 460.319C108.325 460.463 108.181 460.647 108.069 460.871C107.957 461.095 107.901 461.363 107.901 461.675H111.729C111.721 461.347 111.665 461.071 111.561 460.847C111.465 460.615 111.333 460.431 111.165 460.295C110.997 460.151 110.797 460.047 110.565 459.983C110.341 459.919 110.101 459.887 109.845 459.887ZM119.686 465.527C119.278 465.527 118.898 465.463 118.546 465.335C118.194 465.199 117.89 464.999 117.634 464.735C117.378 464.463 117.174 464.123 117.022 463.715C116.878 463.307 116.806 462.831 116.806 462.287V462.047C116.806 461.535 116.886 461.083 117.046 460.691C117.206 460.299 117.418 459.975 117.682 459.719C117.946 459.455 118.25 459.259 118.594 459.131C118.946 458.995 119.31 458.927 119.686 458.927C120.062 458.927 120.398 458.979 120.694 459.083C120.998 459.187 121.258 459.331 121.474 459.515C121.698 459.699 121.878 459.915 122.014 460.163C122.158 460.411 122.262 460.679 122.326 460.967H121.246C121.182 460.815 121.106 460.675 121.018 460.547C120.938 460.411 120.834 460.295 120.706 460.199C120.586 460.103 120.442 460.027 120.274 459.971C120.106 459.915 119.91 459.887 119.686 459.887C119.454 459.887 119.23 459.931 119.014 460.019C118.798 460.099 118.606 460.227 118.438 460.403C118.27 460.571 118.134 460.791 118.03 461.063C117.934 461.335 117.886 461.663 117.886 462.047V462.287C117.886 462.695 117.934 463.047 118.03 463.343C118.134 463.631 118.27 463.867 118.438 464.051C118.606 464.227 118.798 464.359 119.014 464.447C119.23 464.527 119.454 464.567 119.686 464.567C120.078 464.567 120.406 464.471 120.67 464.279C120.942 464.087 121.134 463.823 121.246 463.487H122.326C122.174 464.119 121.862 464.619 121.39 464.987C120.918 465.347 120.35 465.527 119.686 465.527ZM126.405 465.527C125.997 465.527 125.609 465.463 125.241 465.335C124.873 465.199 124.549 464.999 124.269 464.735C123.989 464.463 123.765 464.123 123.597 463.715C123.429 463.307 123.345 462.831 123.345 462.287V462.047C123.345 461.535 123.429 461.083 123.597 460.691C123.765 460.299 123.989 459.975 124.269 459.719C124.549 459.455 124.873 459.259 125.241 459.131C125.609 458.995 125.997 458.927 126.405 458.927C126.813 458.927 127.201 458.995 127.569 459.131C127.937 459.259 128.261 459.455 128.541 459.719C128.821 459.975 129.045 460.299 129.213 460.691C129.381 461.083 129.465 461.535 129.465 462.047V462.287C129.465 462.831 129.381 463.307 129.213 463.715C129.045 464.123 128.821 464.463 128.541 464.735C128.261 464.999 127.937 465.199 127.569 465.335C127.201 465.463 126.813 465.527 126.405 465.527ZM126.405 464.567C126.645 464.567 126.885 464.527 127.125 464.447C127.365 464.359 127.577 464.227 127.761 464.051C127.945 463.867 128.093 463.631 128.205 463.343C128.325 463.055 128.385 462.703 128.385 462.287V462.047C128.385 461.663 128.325 461.335 128.205 461.063C128.093 460.791 127.945 460.567 127.761 460.391C127.577 460.215 127.365 460.087 127.125 460.007C126.885 459.927 126.645 459.887 126.405 459.887C126.165 459.887 125.925 459.927 125.685 460.007C125.445 460.087 125.233 460.215 125.049 460.391C124.865 460.567 124.713 460.791 124.593 461.063C124.481 461.335 124.425 461.663 124.425 462.047V462.287C124.425 462.703 124.481 463.055 124.593 463.343C124.713 463.631 124.865 463.867 125.049 464.051C125.233 464.227 125.445 464.359 125.685 464.447C125.925 464.527 126.165 464.567 126.405 464.567ZM133.6 465.527C133.192 465.527 132.804 465.463 132.436 465.335C132.068 465.199 131.744 464.999 131.464 464.735C131.184 464.463 130.96 464.123 130.792 463.715C130.624 463.307 130.54 462.831 130.54 462.287V462.047C130.54 461.535 130.624 461.083 130.792 460.691C130.96 460.299 131.184 459.975 131.464 459.719C131.744 459.455 132.068 459.259 132.436 459.131C132.804 458.995 133.192 458.927 133.6 458.927C134.008 458.927 134.396 458.995 134.764 459.131C135.132 459.259 135.456 459.455 135.736 459.719C136.016 459.975 136.24 460.299 136.408 460.691C136.576 461.083 136.66 461.535 136.66 462.047V462.287C136.66 462.831 136.576 463.307 136.408 463.715C136.24 464.123 136.016 464.463 135.736 464.735C135.456 464.999 135.132 465.199 134.764 465.335C134.396 465.463 134.008 465.527 133.6 465.527ZM133.6 464.567C133.84 464.567 134.08 464.527 134.32 464.447C134.56 464.359 134.772 464.227 134.956 464.051C135.14 463.867 135.288 463.631 135.4 463.343C135.52 463.055 135.58 462.703 135.58 462.287V462.047C135.58 461.663 135.52 461.335 135.4 461.063C135.288 460.791 135.14 460.567 134.956 460.391C134.772 460.215 134.56 460.087 134.32 460.007C134.08 459.927 133.84 459.887 133.6 459.887C133.36 459.887 133.12 459.927 132.88 460.007C132.64 460.087 132.428 460.215 132.244 460.391C132.06 460.567 131.908 460.791 131.788 461.063C131.676 461.335 131.62 461.663 131.62 462.047V462.287C131.62 462.703 131.676 463.055 131.788 463.343C131.908 463.631 132.06 463.867 132.244 464.051C132.428 464.227 132.64 464.359 132.88 464.447C133.12 464.527 133.36 464.567 133.6 464.567ZM140.795 465.527C140.371 465.527 139.975 465.447 139.607 465.287C139.247 465.127 138.931 464.895 138.659 464.591C138.395 464.279 138.183 463.899 138.023 463.451C137.871 463.003 137.795 462.495 137.795 461.927V461.687C137.795 460.967 137.847 460.327 137.951 459.767C138.055 459.199 138.231 458.719 138.479 458.327C138.735 457.927 139.067 457.615 139.475 457.391C139.891 457.167 140.411 457.039 141.035 457.007C141.539 456.983 141.979 456.963 142.355 456.947C142.731 456.923 143.051 456.843 143.315 456.707V457.727C143.187 457.799 142.951 457.855 142.607 457.895C142.271 457.935 141.807 457.963 141.215 457.979C140.831 457.987 140.491 458.035 140.195 458.123C139.907 458.211 139.659 458.351 139.451 458.543C139.251 458.735 139.091 458.987 138.971 459.299C138.859 459.603 138.787 459.979 138.755 460.427C138.947 460.003 139.243 459.667 139.643 459.419C140.043 459.171 140.507 459.047 141.035 459.047C141.443 459.047 141.815 459.119 142.151 459.263C142.487 459.399 142.775 459.595 143.015 459.851C143.263 460.107 143.455 460.423 143.591 460.799C143.727 461.167 143.795 461.583 143.795 462.047V462.287C143.795 462.783 143.719 463.231 143.567 463.631C143.415 464.023 143.207 464.363 142.943 464.651C142.679 464.931 142.363 465.147 141.995 465.299C141.627 465.451 141.227 465.527 140.795 465.527ZM140.795 464.567C141.355 464.567 141.815 464.375 142.175 463.991C142.535 463.599 142.715 463.031 142.715 462.287V462.047C142.715 461.735 142.667 461.455 142.571 461.207C142.475 460.959 142.343 460.747 142.175 460.571C142.007 460.387 141.803 460.247 141.563 460.151C141.331 460.055 141.075 460.007 140.795 460.007C140.515 460.007 140.255 460.055 140.015 460.151C139.783 460.247 139.583 460.387 139.415 460.571C139.247 460.747 139.115 460.959 139.019 461.207C138.923 461.455 138.875 461.735 138.875 462.047V462.287C138.875 462.639 138.923 462.959 139.019 463.247C139.123 463.527 139.263 463.767 139.439 463.967C139.615 464.159 139.819 464.307 140.051 464.411C140.283 464.515 140.531 464.567 140.795 464.567ZM153.104 465.407H145.292V459.047H146.348V464.471H148.664V459.047H149.72V464.471H152.036V459.047H153.092V464.471H154.112V466.907H153.104V465.407ZM158.01 465.527C157.602 465.527 157.214 465.463 156.846 465.335C156.478 465.207 156.154 465.011 155.874 464.747C155.594 464.475 155.37 464.135 155.202 463.727C155.034 463.319 154.95 462.839 154.95 462.287V462.047C154.95 461.519 155.03 461.063 155.19 460.679C155.35 460.287 155.562 459.963 155.826 459.707C156.098 459.443 156.41 459.247 156.762 459.119C157.122 458.991 157.498 458.927 157.89 458.927C158.826 458.927 159.55 459.183 160.062 459.695C160.574 460.207 160.83 460.931 160.83 461.867V462.539H156.006C156.006 462.915 156.066 463.231 156.186 463.487C156.306 463.743 156.462 463.951 156.654 464.111C156.846 464.271 157.058 464.387 157.29 464.459C157.53 464.531 157.77 464.567 158.01 464.567C158.49 464.567 158.858 464.487 159.114 464.327C159.378 464.167 159.566 463.947 159.678 463.667H160.71C160.646 463.971 160.53 464.239 160.362 464.471C160.202 464.703 160.002 464.899 159.762 465.059C159.53 465.211 159.262 465.327 158.958 465.407C158.662 465.487 158.346 465.527 158.01 465.527ZM157.95 459.887C157.702 459.887 157.462 459.923 157.23 459.995C156.998 460.059 156.79 460.167 156.606 460.319C156.43 460.463 156.286 460.647 156.174 460.871C156.062 461.095 156.006 461.363 156.006 461.675H159.834C159.826 461.347 159.77 461.071 159.666 460.847C159.57 460.615 159.438 460.431 159.27 460.295C159.102 460.151 158.902 460.047 158.67 459.983C158.446 459.919 158.206 459.887 157.95 459.887ZM162.331 459.047H163.387V461.699H166.675V459.047H167.731V465.407H166.675V462.635H163.387V465.407H162.331V459.047ZM169.655 459.047H170.711V463.847L173.999 459.047H175.055V465.407H173.999V460.607L170.711 465.407H169.655V459.047ZM179.62 465.527C179.212 465.527 178.824 465.463 178.456 465.335C178.088 465.207 177.764 465.011 177.484 464.747C177.204 464.475 176.98 464.135 176.812 463.727C176.644 463.319 176.56 462.839 176.56 462.287V462.047C176.56 461.519 176.64 461.063 176.8 460.679C176.96 460.287 177.172 459.963 177.436 459.707C177.708 459.443 178.02 459.247 178.372 459.119C178.732 458.991 179.108 458.927 179.5 458.927C180.436 458.927 181.16 459.183 181.672 459.695C182.184 460.207 182.44 460.931 182.44 461.867V462.539H177.616C177.616 462.915 177.676 463.231 177.796 463.487C177.916 463.743 178.072 463.951 178.264 464.111C178.456 464.271 178.668 464.387 178.9 464.459C179.14 464.531 179.38 464.567 179.62 464.567C180.1 464.567 180.468 464.487 180.724 464.327C180.988 464.167 181.176 463.947 181.288 463.667H182.32C182.256 463.971 182.14 464.239 181.972 464.471C181.812 464.703 181.612 464.899 181.372 465.059C181.14 465.211 180.872 465.327 180.568 465.407C180.272 465.487 179.956 465.527 179.62 465.527ZM179.56 459.887C179.312 459.887 179.072 459.923 178.84 459.995C178.608 460.059 178.4 460.167 178.216 460.319C178.04 460.463 177.896 460.647 177.784 460.871C177.672 461.095 177.616 461.363 177.616 461.675H181.444C181.436 461.347 181.38 461.071 181.276 460.847C181.18 460.615 181.048 460.431 180.88 460.295C180.712 460.151 180.512 460.047 180.28 459.983C180.056 459.919 179.816 459.887 179.56 459.887Z" fill="#D5D5D5"/>
<rect x="307" y="448.407" width="24" height="24" rx="12" fill="#2261EB"/>
<path d="M314.067 465.407V461.445L318.567 460.407L314.067 459.368V455.407L325.933 460.407L314.067 465.407Z" fill="white"/>
</g>
<defs>
<filter id="filter0_d_6650_57285" x="0" y="0" width="377" height="518.407" filterUnits="userSpaceOnUse" color-interpolation-filters="sRGB">
<feFlood flood-opacity="0" result="BackgroundImageFix"/>
<feColorMatrix in="SourceAlpha" type="matrix" values="0 0 0 0 0 0 0 0 0 0 0 0 0 0 0 0 0 0 127 0" result="hardAlpha"/>
<feOffset/>
<feGaussianBlur stdDeviation="10"/>
<feComposite in2="hardAlpha" operator="out"/>
<feColorMatrix type="matrix" values="0 0 0 0 0.641198 0 0 0 0 0.761107 0 0 0 0 0.8125 0 0 0 0.6 0"/>
<feBlend mode="normal" in2="BackgroundImageFix" result="effect1_dropShadow_6650_57285"/>
<feBlend mode="normal" in="SourceGraphic" in2="effect1_dropShadow_6650_57285" result="shape"/>
</filter>
<linearGradient id="paint0_linear_6650_57285" x1="311" y1="73.2034" x2="341" y2="41.2034" gradientUnits="userSpaceOnUse">
<stop stop-color="#26B53C"/>
<stop offset="1" stop-color="#52CE60"/>
</linearGradient>
<clipPath id="clip0_6650_57285">
<rect width="337" height="344" fill="white" transform="translate(20 94.4067)"/>
</clipPath>
</defs>
</svg>
