<svg width="648" height="280" viewBox="0 0 648 280" fill="none" xmlns="http://www.w3.org/2000/svg">
<g filter="url(#filter0_d_7170_60600)">
<rect x="20" y="20" width="608" height="240" rx="24" fill="#FCFDFF"/>
<g opacity="0.5">
<path d="M45.9657 51.8H49.6514V58.6309H57.0229V51.8H60.7086V69H57.0229V61.6777H49.6514V69H45.9657V51.8ZM70.04 69.2949C69.1554 69.2949 68.3118 69.1638 67.5091 68.9017C66.7228 68.6232 66.0348 68.2055 65.4451 67.6486C64.8554 67.0916 64.3885 66.3954 64.0445 65.56C63.7005 64.7246 63.5285 63.7417 63.5285 62.6114V62.12C63.5285 61.0552 63.7005 60.1215 64.0445 59.3189C64.3885 58.5162 64.8554 57.8446 65.4451 57.304C66.0348 56.7634 66.7228 56.3621 67.5091 56.1C68.3118 55.8215 69.1554 55.6823 70.04 55.6823C70.9245 55.6823 71.76 55.8215 72.5462 56.1C73.3325 56.3621 74.0205 56.7634 74.6102 57.304C75.2163 57.8446 75.6914 58.5162 76.0354 59.3189C76.3794 60.1215 76.5514 61.0552 76.5514 62.12V62.6114C76.5514 63.7253 76.3794 64.7 76.0354 65.5354C75.6914 66.3709 75.2163 67.067 74.6102 67.624C74.0205 68.181 73.3325 68.5987 72.5462 68.8771C71.76 69.1556 70.9245 69.2949 70.04 69.2949ZM70.04 66.5429C70.9573 66.5429 71.719 66.2152 72.3251 65.56C72.9476 64.9048 73.2588 63.9219 73.2588 62.6114V62.12C73.2588 60.9242 72.9476 60.015 72.3251 59.3926C71.719 58.7537 70.9573 58.4343 70.04 58.4343C69.1062 58.4343 68.3363 58.7537 67.7302 59.3926C67.1241 60.015 66.8211 60.9242 66.8211 62.12V62.6114C66.8211 63.9383 67.1241 64.9293 67.7302 65.5846C68.3363 66.2234 69.1062 66.5429 70.04 66.5429ZM78.8761 55.9771H85.4121C86.2475 55.9771 86.9601 56.0672 87.5498 56.2474C88.1559 56.4112 88.6555 56.6488 89.0486 56.96C89.4418 57.2712 89.7285 57.6398 89.9086 58.0657C90.0888 58.4916 90.1789 58.9585 90.1789 59.4663C90.1789 60.0724 89.9906 60.6457 89.6138 61.1863C89.2534 61.7105 88.7538 62.0627 88.1149 62.2429C88.9176 62.4394 89.5401 62.8162 89.9824 63.3731C90.441 63.9137 90.6704 64.5526 90.6704 65.2897C90.6704 66.42 90.2772 67.321 89.4909 67.9926C88.7046 68.6642 87.5088 69 85.9035 69H78.8761V55.9771ZM85.2646 66.3954C86.0018 66.3954 86.5424 66.289 86.8864 66.076C87.2467 65.8467 87.4269 65.4863 87.4269 64.9949C87.4269 64.5034 87.2549 64.1512 86.9109 63.9383C86.5833 63.709 86.0345 63.5943 85.2646 63.5943H82.1195V66.3954H85.2646ZM84.9452 61.1863C85.6987 61.1863 86.2147 61.0798 86.4932 60.8669C86.7881 60.6539 86.9355 60.3263 86.9355 59.884C86.9355 59.4581 86.7881 59.1387 86.4932 58.9257C86.1984 58.6964 85.6824 58.5817 84.9452 58.5817H82.1195V61.1863H84.9452ZM93.0094 55.9771H96.2529V60.3509H98.538C101.896 60.3509 103.575 61.7924 103.575 64.6754C103.575 65.3143 103.477 65.904 103.28 66.4446C103.1 66.9688 102.805 67.4192 102.396 67.796C101.986 68.1728 101.462 68.4676 100.823 68.6806C100.184 68.8935 99.4226 69 98.538 69H93.0094V55.9771ZM98.1694 66.3954C98.9557 66.3954 99.5127 66.2562 99.8403 65.9777C100.168 65.6829 100.332 65.2488 100.332 64.6754C100.332 64.1021 100.16 63.6762 99.8157 63.3977C99.4881 63.1029 98.9394 62.9554 98.1694 62.9554H96.2529V66.3954H98.1694ZM105 55.9771H108.244V69H105V55.9771ZM111.198 55.9771H114.441V64.3314L120.24 55.9771H123.238V69H119.995V60.6457L114.196 69H111.198V55.9771ZM117.218 54.6257C115.76 54.6257 114.695 54.3145 114.024 53.692C113.369 53.0695 113.041 52.1522 113.041 50.94H115.916C115.916 51.5789 116.022 52.0293 116.235 52.2914C116.465 52.5371 116.792 52.66 117.218 52.66C117.677 52.66 118.013 52.5371 118.225 52.2914C118.455 52.0293 118.569 51.5789 118.569 50.94H121.395C121.395 52.1522 121.059 53.0695 120.388 53.692C119.733 54.3145 118.676 54.6257 117.218 54.6257ZM137.498 69.2949C135.614 69.2949 134.181 68.9099 133.198 68.14C132.215 67.3701 131.683 66.2644 131.601 64.8229H134.894C134.926 65.1013 134.992 65.347 135.09 65.56C135.188 65.773 135.336 65.9531 135.532 66.1006C135.729 66.248 135.983 66.3627 136.294 66.4446C136.622 66.5101 137.023 66.5429 137.498 66.5429C138.448 66.5429 139.12 66.4036 139.513 66.1251C139.906 65.8303 140.103 65.4781 140.103 65.0686C140.103 64.5771 139.939 64.2086 139.611 63.9629C139.284 63.7171 138.702 63.5943 137.867 63.5943H135.901V61.1863H137.695C138.317 61.1863 138.792 61.0552 139.12 60.7931C139.447 60.531 139.611 60.187 139.611 59.7611C139.611 59.3844 139.447 59.0731 139.12 58.8274C138.809 58.5653 138.268 58.4343 137.498 58.4343C136.695 58.4343 136.114 58.5735 135.754 58.852C135.41 59.1141 135.205 59.5072 135.139 60.0314H131.847C131.929 58.6227 132.445 57.5497 133.395 56.8126C134.345 56.059 135.713 55.6823 137.498 55.6823C138.448 55.6823 139.259 55.7724 139.931 55.9526C140.619 56.1328 141.184 56.3949 141.626 56.7389C142.068 57.0665 142.388 57.4678 142.584 57.9429C142.797 58.4015 142.904 58.9175 142.904 59.4909C142.904 60.1133 142.74 60.6703 142.412 61.1617C142.101 61.6531 141.602 62.0135 140.914 62.2429C141.847 62.4722 142.494 62.849 142.855 63.3731C143.215 63.881 143.395 64.487 143.395 65.1914C143.395 65.7811 143.272 66.3299 143.027 66.8377C142.797 67.3291 142.437 67.7632 141.946 68.14C141.471 68.5004 140.864 68.787 140.127 69C139.39 69.1966 138.514 69.2949 137.498 69.2949ZM149.635 69.2949C148.93 69.2949 148.308 69.1966 147.767 69C147.227 68.787 146.768 68.5004 146.391 68.14C146.014 67.7632 145.728 67.3291 145.531 66.8377C145.334 66.3299 145.236 65.7811 145.236 65.1914C145.236 62.5705 146.792 61.26 149.905 61.26H153.787V60.6457C153.787 59.7939 153.591 59.196 153.197 58.852C152.821 58.508 152.215 58.336 151.379 58.336C150.642 58.336 150.11 58.467 149.782 58.7291C149.454 58.9749 149.266 59.2861 149.217 59.6629H145.973C146.006 59.1059 146.145 58.5817 146.391 58.0903C146.653 57.5989 147.014 57.1811 147.472 56.8371C147.947 56.4768 148.521 56.1983 149.192 56.0017C149.864 55.7888 150.634 55.6823 151.502 55.6823C152.337 55.6823 153.091 55.7724 153.763 55.9526C154.451 56.1328 155.032 56.4276 155.507 56.8371C155.999 57.2303 156.375 57.7463 156.637 58.3851C156.899 59.024 157.031 59.7939 157.031 60.6949V65.6829C157.031 66.3709 157.039 66.977 157.055 67.5011C157.088 68.009 157.137 68.5086 157.203 69H154.18C154.115 68.6396 154.074 68.3693 154.057 68.1891C154.057 67.9926 154.057 67.7059 154.057 67.3291C153.697 67.8533 153.148 68.312 152.411 68.7051C151.69 69.0983 150.765 69.2949 149.635 69.2949ZM150.642 66.7886C151.035 66.7886 151.42 66.7394 151.797 66.6411C152.174 66.5265 152.509 66.3627 152.804 66.1497C153.099 65.9204 153.337 65.6337 153.517 65.2897C153.697 64.9457 153.787 64.5444 153.787 64.0857V63.4714H150.519C149.897 63.4714 149.405 63.6189 149.045 63.9137C148.701 64.1922 148.529 64.5771 148.529 65.0686C148.529 65.5928 148.709 66.0105 149.069 66.3217C149.43 66.633 149.954 66.7886 150.642 66.7886ZM159.861 55.9771H163.104V61.088H164.333L168.314 55.9771H171.901L166.987 62.1446L172.147 69H168.264L164.333 63.6434H163.104V69H159.861V55.9771ZM177.661 69.2949C176.957 69.2949 176.334 69.1966 175.794 69C175.253 68.787 174.795 68.5004 174.418 68.14C174.041 67.7632 173.754 67.3291 173.558 66.8377C173.361 66.3299 173.263 65.7811 173.263 65.1914C173.263 62.5705 174.819 61.26 177.932 61.26H181.814V60.6457C181.814 59.7939 181.617 59.196 181.224 58.852C180.847 58.508 180.241 58.336 179.406 58.336C178.669 58.336 178.136 58.467 177.809 58.7291C177.481 58.9749 177.293 59.2861 177.244 59.6629H174C174.033 59.1059 174.172 58.5817 174.418 58.0903C174.68 57.5989 175.04 57.1811 175.499 56.8371C175.974 56.4768 176.547 56.1983 177.219 56.0017C177.891 55.7888 178.661 55.6823 179.529 55.6823C180.364 55.6823 181.118 55.7724 181.789 55.9526C182.477 56.1328 183.059 56.4276 183.534 56.8371C184.025 57.2303 184.402 57.7463 184.664 58.3851C184.926 59.024 185.057 59.7939 185.057 60.6949V65.6829C185.057 66.3709 185.065 66.977 185.082 67.5011C185.115 68.009 185.164 68.5086 185.229 69H182.207C182.141 68.6396 182.101 68.3693 182.084 68.1891C182.084 67.9926 182.084 67.7059 182.084 67.3291C181.724 67.8533 181.175 68.312 180.438 68.7051C179.717 69.0983 178.792 69.2949 177.661 69.2949ZM178.669 66.7886C179.062 66.7886 179.447 66.7394 179.824 66.6411C180.2 66.5265 180.536 66.3627 180.831 66.1497C181.126 65.9204 181.363 65.6337 181.544 65.2897C181.724 64.9457 181.814 64.5444 181.814 64.0857V63.4714H178.546C177.923 63.4714 177.432 63.6189 177.072 63.9137C176.728 64.1922 176.556 64.5771 176.556 65.0686C176.556 65.5928 176.736 66.0105 177.096 66.3217C177.457 66.633 177.981 66.7886 178.669 66.7886ZM193.048 69.2949C191.164 69.2949 189.731 68.9099 188.748 68.14C187.765 67.3701 187.233 66.2644 187.151 64.8229H190.443C190.476 65.1013 190.542 65.347 190.64 65.56C190.738 65.773 190.886 65.9531 191.082 66.1006C191.279 66.248 191.533 66.3627 191.844 66.4446C192.171 66.5101 192.573 66.5429 193.048 66.5429C193.998 66.5429 194.67 66.4036 195.063 66.1251C195.456 65.8303 195.652 65.4781 195.652 65.0686C195.652 64.5771 195.489 64.2086 195.161 63.9629C194.833 63.7171 194.252 63.5943 193.416 63.5943H191.451V61.1863H193.244C193.867 61.1863 194.342 61.0552 194.67 60.7931C194.997 60.531 195.161 60.187 195.161 59.7611C195.161 59.3844 194.997 59.0731 194.67 58.8274C194.358 58.5653 193.818 58.4343 193.048 58.4343C192.245 58.4343 191.664 58.5735 191.303 58.852C190.959 59.1141 190.754 59.5072 190.689 60.0314H187.396C187.478 58.6227 187.994 57.5497 188.944 56.8126C189.894 56.059 191.262 55.6823 193.048 55.6823C193.998 55.6823 194.809 55.7724 195.48 55.9526C196.168 56.1328 196.734 56.3949 197.176 56.7389C197.618 57.0665 197.938 57.4678 198.134 57.9429C198.347 58.4015 198.454 58.9175 198.454 59.4909C198.454 60.1133 198.29 60.6703 197.962 61.1617C197.651 61.6531 197.151 62.0135 196.463 62.2429C197.397 62.4722 198.044 62.849 198.404 63.3731C198.765 63.881 198.945 64.487 198.945 65.1914C198.945 65.7811 198.822 66.3299 198.576 66.8377C198.347 67.3291 197.987 67.7632 197.495 68.14C197.02 68.5004 196.414 68.787 195.677 69C194.94 69.1966 194.063 69.2949 193.048 69.2949Z" fill="#2261EB"/>
</g>
<path d="M45.2 92.6H46.328V100.016H49.256V92.6H50.384V100.016H53.312V92.6H54.44V101H45.2V92.6ZM58.4087 101.12C58.0567 101.12 57.7447 101.072 57.4727 100.976C57.2087 100.872 56.9847 100.732 56.8007 100.556C56.6167 100.38 56.4767 100.172 56.3807 99.932C56.2847 99.692 56.2367 99.428 56.2367 99.14C56.2367 98.508 56.4207 98.052 56.7887 97.772C57.1647 97.492 57.7007 97.352 58.3967 97.352H60.4607V96.92C60.4607 96.376 60.3367 96 60.0887 95.792C59.8487 95.584 59.4847 95.48 58.9967 95.48C58.5407 95.48 58.2087 95.568 58.0007 95.744C57.7927 95.912 57.6767 96.104 57.6527 96.32H56.5967C56.6127 96.064 56.6807 95.828 56.8007 95.612C56.9287 95.388 57.0967 95.196 57.3047 95.036C57.5207 94.876 57.7767 94.752 58.0727 94.664C58.3687 94.568 58.6967 94.52 59.0567 94.52C59.8087 94.52 60.4047 94.7 60.8447 95.06C61.2927 95.412 61.5167 95.992 61.5167 96.8V99.38C61.5167 99.716 61.5167 100.012 61.5167 100.268C61.5247 100.516 61.5447 100.76 61.5767 101H60.6527C60.6287 100.816 60.6127 100.644 60.6047 100.484C60.5967 100.316 60.5927 100.128 60.5927 99.92C60.4247 100.256 60.1527 100.54 59.7767 100.772C59.4007 101.004 58.9447 101.12 58.4087 101.12ZM58.6367 100.16C58.8847 100.16 59.1167 100.128 59.3327 100.064C59.5567 99.992 59.7527 99.892 59.9207 99.764C60.0887 99.628 60.2207 99.464 60.3167 99.272C60.4127 99.08 60.4607 98.856 60.4607 98.6V98.168H58.5767C58.1847 98.168 57.8767 98.248 57.6527 98.408C57.4287 98.56 57.3167 98.804 57.3167 99.14C57.3167 99.436 57.4207 99.68 57.6287 99.872C57.8447 100.064 58.1807 100.16 58.6367 100.16ZM63.3819 94.64H67.7019V95.576H64.4379V101H63.3819V94.64ZM71.6014 100.016H73.6054V93.836L71.6014 95.264V94.04L73.6294 92.6H74.7574V100.016H76.4014V101H71.6014V100.016Z" fill="#1F1F25" fill-opacity="0.8"/>
<path d="M45.44 115.8H47.36V120.488H48.48L52.544 115.8H54.72L50 121.128L54.88 127H52.544L48.48 121.992H47.36V127H45.44V115.8ZM59.7688 127.176C59.1821 127.176 58.6328 127.085 58.1208 126.904C57.6194 126.712 57.1821 126.435 56.8088 126.072C56.4354 125.709 56.1421 125.261 55.9288 124.728C55.7154 124.184 55.6088 123.555 55.6088 122.84V122.52C55.6088 121.848 55.7154 121.256 55.9288 120.744C56.1421 120.221 56.4354 119.784 56.8088 119.432C57.1821 119.069 57.6194 118.797 58.1208 118.616C58.6328 118.435 59.1821 118.344 59.7688 118.344C60.3554 118.344 60.8994 118.435 61.4008 118.616C61.9128 118.797 62.3554 119.069 62.7288 119.432C63.1021 119.784 63.3954 120.221 63.6088 120.744C63.8221 121.256 63.9288 121.848 63.9288 122.52V122.84C63.9288 123.555 63.8221 124.184 63.6088 124.728C63.3954 125.261 63.1021 125.709 62.7288 126.072C62.3554 126.435 61.9128 126.712 61.4008 126.904C60.8994 127.085 60.3554 127.176 59.7688 127.176ZM59.7688 125.64C60.0781 125.64 60.3714 125.587 60.6488 125.48C60.9368 125.373 61.1874 125.208 61.4008 124.984C61.6248 124.76 61.8008 124.472 61.9288 124.12C62.0674 123.768 62.1368 123.341 62.1368 122.84V122.52C62.1368 122.061 62.0674 121.667 61.9288 121.336C61.8008 121.005 61.6248 120.733 61.4008 120.52C61.1874 120.307 60.9368 120.147 60.6488 120.04C60.3714 119.933 60.0781 119.88 59.7688 119.88C59.4594 119.88 59.1608 119.933 58.8728 120.04C58.5954 120.147 58.3448 120.307 58.1208 120.52C57.9074 120.733 57.7314 121.005 57.5928 121.336C57.4648 121.667 57.4008 122.061 57.4008 122.52V122.84C57.4008 123.341 57.4648 123.768 57.5928 124.12C57.7314 124.472 57.9074 124.76 58.1208 124.984C58.3448 125.208 58.5954 125.373 58.8728 125.48C59.1608 125.587 59.4594 125.64 59.7688 125.64ZM65.6825 118.52H67.4425V121.928H71.4425V118.52H73.2025V127H71.4425V123.432H67.4425V127H65.6825V118.52ZM77.4481 120.024H74.6481V118.52H82.0081V120.024H79.2081V127H77.4481V120.024ZM85.4438 127.176C84.9851 127.176 84.5744 127.112 84.2118 126.984C83.8598 126.845 83.5611 126.659 83.3158 126.424C83.0704 126.179 82.8838 125.896 82.7558 125.576C82.6278 125.256 82.5638 124.904 82.5638 124.52C82.5638 123.677 82.8144 123.053 83.3158 122.648C83.8171 122.232 84.5531 122.024 85.5238 122.024H88.1638V121.56C88.1638 120.92 88.0198 120.483 87.7318 120.248C87.4544 120.003 87.0118 119.88 86.4038 119.88C85.8598 119.88 85.4598 119.965 85.2038 120.136C84.9478 120.307 84.7984 120.541 84.7558 120.84H83.0438C83.0651 120.477 83.1558 120.147 83.3158 119.848C83.4864 119.539 83.7158 119.272 84.0038 119.048C84.3024 118.824 84.6598 118.653 85.0758 118.536C85.4918 118.408 85.9611 118.344 86.4838 118.344C87.0064 118.344 87.4758 118.403 87.8918 118.52C88.3184 118.637 88.6811 118.824 88.9798 119.08C89.2784 119.325 89.5078 119.645 89.6678 120.04C89.8384 120.435 89.9237 120.909 89.9237 121.464V124.84C89.9237 125.288 89.9291 125.683 89.9398 126.024C89.9504 126.355 89.9771 126.68 90.0198 127H88.4198C88.3878 126.755 88.3611 126.547 88.3398 126.376C88.3291 126.205 88.3238 125.992 88.3238 125.736C88.1211 126.131 87.7691 126.472 87.2678 126.76C86.7771 127.037 86.1691 127.176 85.4438 127.176ZM85.9238 125.64C86.2224 125.64 86.5051 125.603 86.7718 125.528C87.0491 125.443 87.2891 125.325 87.4918 125.176C87.6944 125.016 87.8544 124.824 87.9718 124.6C88.0998 124.365 88.1638 124.099 88.1638 123.8V123.336H85.8438C85.3958 123.336 85.0331 123.432 84.7558 123.624C84.4891 123.816 84.3558 124.099 84.3558 124.472C84.3558 124.824 84.4784 125.107 84.7238 125.32C84.9798 125.533 85.3798 125.64 85.9238 125.64ZM92.0888 118.52H93.8488V121.96H94.8088L97.7848 118.52H99.7688L96.1688 122.568L99.9288 127H97.7848L94.8088 123.4H93.8488V127H92.0888V118.52ZM103.37 120.024H100.57V118.52H107.93V120.024H105.13V127H103.37V120.024ZM109.37 118.52H111.13V121.496H112.73C113.818 121.496 114.623 121.731 115.146 122.2C115.669 122.659 115.93 123.341 115.93 124.248C115.93 125.101 115.674 125.773 115.162 126.264C114.65 126.755 113.839 127 112.73 127H109.37V118.52ZM112.57 125.496C113.157 125.496 113.567 125.395 113.802 125.192C114.047 124.979 114.17 124.664 114.17 124.248C114.17 123.832 114.047 123.523 113.802 123.32C113.567 123.107 113.157 123 112.57 123H111.13V125.496H112.57ZM117.05 118.52H118.81V127H117.05V118.52Z" fill="#1F1F25"/>
<path d="M184 138H44V140H184V138Z" fill="#2261EB" fill-opacity="0.5" mask="url(#path-3-inside-1_7170_60600)"/>
<path d="M185.2 92.6H186.328V100.016H189.256V92.6H190.384V100.016H193.312V92.6H194.44V101H185.2V92.6ZM198.409 101.12C198.057 101.12 197.745 101.072 197.473 100.976C197.209 100.872 196.985 100.732 196.801 100.556C196.617 100.38 196.477 100.172 196.381 99.932C196.285 99.692 196.237 99.428 196.237 99.14C196.237 98.508 196.421 98.052 196.789 97.772C197.165 97.492 197.701 97.352 198.397 97.352H200.461V96.92C200.461 96.376 200.337 96 200.089 95.792C199.849 95.584 199.485 95.48 198.997 95.48C198.541 95.48 198.209 95.568 198.001 95.744C197.793 95.912 197.677 96.104 197.653 96.32H196.597C196.613 96.064 196.681 95.828 196.801 95.612C196.929 95.388 197.097 95.196 197.305 95.036C197.521 94.876 197.777 94.752 198.073 94.664C198.369 94.568 198.697 94.52 199.057 94.52C199.809 94.52 200.405 94.7 200.845 95.06C201.293 95.412 201.517 95.992 201.517 96.8V99.38C201.517 99.716 201.517 100.012 201.517 100.268C201.525 100.516 201.545 100.76 201.577 101H200.653C200.629 100.816 200.613 100.644 200.605 100.484C200.597 100.316 200.593 100.128 200.593 99.92C200.425 100.256 200.153 100.54 199.777 100.772C199.401 101.004 198.945 101.12 198.409 101.12ZM198.637 100.16C198.885 100.16 199.117 100.128 199.333 100.064C199.557 99.992 199.753 99.892 199.921 99.764C200.089 99.628 200.221 99.464 200.317 99.272C200.413 99.08 200.461 98.856 200.461 98.6V98.168H198.577C198.185 98.168 197.877 98.248 197.653 98.408C197.429 98.56 197.317 98.804 197.317 99.14C197.317 99.436 197.421 99.68 197.629 99.872C197.845 100.064 198.181 100.16 198.637 100.16ZM203.382 94.64H207.702V95.576H204.438V101H203.382V94.64ZM211.421 100.076L214.781 97.16C215.037 96.944 215.245 96.748 215.405 96.572C215.573 96.396 215.705 96.232 215.801 96.08C215.897 95.92 215.961 95.764 215.993 95.612C216.033 95.46 216.053 95.296 216.053 95.12C216.053 94.648 215.913 94.26 215.633 93.956C215.353 93.644 214.969 93.488 214.481 93.488C213.897 93.488 213.449 93.648 213.137 93.968C212.825 94.28 212.669 94.724 212.669 95.3H211.541C211.541 94.892 211.609 94.516 211.745 94.172C211.889 93.82 212.089 93.52 212.345 93.272C212.609 93.024 212.921 92.832 213.281 92.696C213.641 92.552 214.041 92.48 214.481 92.48C214.905 92.48 215.285 92.548 215.621 92.684C215.957 92.812 216.241 92.996 216.473 93.236C216.705 93.468 216.881 93.744 217.001 94.064C217.121 94.384 217.181 94.736 217.181 95.12C217.181 95.408 217.137 95.676 217.049 95.924C216.961 96.172 216.837 96.408 216.677 96.632C216.525 96.856 216.337 97.076 216.113 97.292C215.897 97.5 215.657 97.716 215.393 97.94L212.885 100.016H217.301V101H211.421V100.076Z" fill="#1F1F25" fill-opacity="0.8"/>
<path d="M185.44 115.8H194.56V127H192.64V117.464H187.36V127H185.44V115.8ZM200.8 127.176C200.213 127.176 199.664 127.085 199.152 126.904C198.651 126.712 198.213 126.435 197.84 126.072C197.467 125.709 197.173 125.261 196.96 124.728C196.747 124.184 196.64 123.555 196.64 122.84V122.52C196.64 121.848 196.747 121.256 196.96 120.744C197.173 120.221 197.467 119.784 197.84 119.432C198.213 119.069 198.651 118.797 199.152 118.616C199.664 118.435 200.213 118.344 200.8 118.344C201.387 118.344 201.931 118.435 202.432 118.616C202.944 118.797 203.387 119.069 203.76 119.432C204.133 119.784 204.427 120.221 204.64 120.744C204.853 121.256 204.96 121.848 204.96 122.52V122.84C204.96 123.555 204.853 124.184 204.64 124.728C204.427 125.261 204.133 125.709 203.76 126.072C203.387 126.435 202.944 126.712 202.432 126.904C201.931 127.085 201.387 127.176 200.8 127.176ZM200.8 125.64C201.109 125.64 201.403 125.587 201.68 125.48C201.968 125.373 202.219 125.208 202.432 124.984C202.656 124.76 202.832 124.472 202.96 124.12C203.099 123.768 203.168 123.341 203.168 122.84V122.52C203.168 122.061 203.099 121.667 202.96 121.336C202.832 121.005 202.656 120.733 202.432 120.52C202.219 120.307 201.968 120.147 201.68 120.04C201.403 119.933 201.109 119.88 200.8 119.88C200.491 119.88 200.192 119.933 199.904 120.04C199.627 120.147 199.376 120.307 199.152 120.52C198.939 120.733 198.763 121.005 198.624 121.336C198.496 121.667 198.432 122.061 198.432 122.52V122.84C198.432 123.341 198.496 123.768 198.624 124.12C198.763 124.472 198.939 124.76 199.152 124.984C199.376 125.208 199.627 125.373 199.904 125.48C200.192 125.587 200.491 125.64 200.8 125.64ZM206.398 127.176C206.312 127.176 206.216 127.171 206.11 127.16C206.014 127.16 205.923 127.149 205.838 127.128V125.464C205.891 125.475 205.971 125.48 206.078 125.48C206.302 125.48 206.494 125.416 206.654 125.288C206.814 125.149 206.942 124.915 207.038 124.584C207.144 124.243 207.224 123.789 207.278 123.224C207.331 122.659 207.358 121.944 207.358 121.08V118.52H213.758V127H211.998V120.024H209.054V121.4C209.054 122.541 208.995 123.485 208.878 124.232C208.771 124.968 208.606 125.555 208.382 125.992C208.158 126.429 207.88 126.739 207.549 126.92C207.219 127.091 206.835 127.176 206.398 127.176ZM217.355 130.376C217.195 130.376 217.035 130.36 216.875 130.328V128.792C217.035 128.824 217.195 128.84 217.355 128.84C217.536 128.84 217.686 128.808 217.803 128.744C217.931 128.691 218.043 128.589 218.139 128.44C218.246 128.301 218.347 128.115 218.443 127.88C218.55 127.645 218.667 127.352 218.795 127L215.195 118.52H217.115L219.707 125.08L222.043 118.52H223.835L220.555 127C220.32 127.597 220.102 128.109 219.899 128.536C219.696 128.963 219.472 129.309 219.227 129.576C218.992 129.853 218.726 130.056 218.427 130.184C218.128 130.312 217.771 130.376 217.355 130.376ZM230.393 123.752C230.147 123.901 229.854 124.035 229.513 124.152C229.182 124.269 228.755 124.328 228.233 124.328C227.219 124.328 226.446 124.088 225.913 123.608C225.379 123.128 225.113 122.365 225.113 121.32V118.52H226.873V121.08C226.873 121.72 227.001 122.168 227.257 122.424C227.523 122.669 227.982 122.792 228.633 122.792C229.081 122.792 229.454 122.744 229.753 122.648C230.062 122.541 230.275 122.44 230.393 122.344V118.52H232.153V127H230.393V123.752ZM238.066 127.176C237.5 127.176 236.967 127.091 236.466 126.92C235.964 126.739 235.522 126.472 235.138 126.12C234.764 125.757 234.466 125.304 234.242 124.76C234.018 124.216 233.906 123.576 233.906 122.84V122.52C233.906 121.816 234.012 121.203 234.226 120.68C234.439 120.157 234.727 119.725 235.09 119.384C235.463 119.032 235.89 118.771 236.37 118.6C236.85 118.429 237.362 118.344 237.906 118.344C239.196 118.344 240.183 118.691 240.866 119.384C241.559 120.077 241.906 121.069 241.906 122.36V123.256H235.698C235.708 123.693 235.778 124.067 235.906 124.376C236.044 124.675 236.22 124.92 236.434 125.112C236.658 125.293 236.908 125.427 237.186 125.512C237.474 125.597 237.767 125.64 238.066 125.64C238.674 125.64 239.116 125.544 239.394 125.352C239.682 125.16 239.879 124.909 239.986 124.6H241.746C241.575 125.443 241.154 126.083 240.482 126.52C239.82 126.957 239.015 127.176 238.066 127.176ZM237.986 119.88C237.687 119.88 237.399 119.917 237.122 119.992C236.855 120.067 236.615 120.189 236.402 120.36C236.199 120.52 236.034 120.733 235.906 121C235.778 121.256 235.708 121.571 235.698 121.944H240.146C240.135 121.549 240.071 121.219 239.954 120.952C239.847 120.685 239.698 120.472 239.506 120.312C239.314 120.152 239.084 120.04 238.818 119.976C238.562 119.912 238.284 119.88 237.986 119.88ZM243.667 118.52H245.427V121.928H249.427V118.52H251.187V127H249.427V123.432H245.427V127H243.667V118.52ZM253.433 118.52H255.193V124.52L259.273 118.52H260.953V127H259.193V121L255.113 127H253.433V118.52ZM266.878 127.176C266.313 127.176 265.779 127.091 265.278 126.92C264.777 126.739 264.334 126.472 263.95 126.12C263.577 125.757 263.278 125.304 263.054 124.76C262.83 124.216 262.718 123.576 262.718 122.84V122.52C262.718 121.816 262.825 121.203 263.038 120.68C263.251 120.157 263.539 119.725 263.902 119.384C264.275 119.032 264.702 118.771 265.182 118.6C265.662 118.429 266.174 118.344 266.718 118.344C268.009 118.344 268.995 118.691 269.678 119.384C270.371 120.077 270.718 121.069 270.718 122.36V123.256H264.51C264.521 123.693 264.59 124.067 264.718 124.376C264.857 124.675 265.033 124.92 265.246 125.112C265.47 125.293 265.721 125.427 265.998 125.512C266.286 125.597 266.579 125.64 266.878 125.64C267.486 125.64 267.929 125.544 268.206 125.352C268.494 125.16 268.691 124.909 268.798 124.6H270.558C270.387 125.443 269.966 126.083 269.294 126.52C268.633 126.957 267.827 127.176 266.878 127.176ZM266.798 119.88C266.499 119.88 266.211 119.917 265.934 119.992C265.667 120.067 265.427 120.189 265.214 120.36C265.011 120.52 264.846 120.733 264.718 121C264.59 121.256 264.521 121.571 264.51 121.944H268.958C268.947 121.549 268.883 121.219 268.766 120.952C268.659 120.685 268.51 120.472 268.318 120.312C268.126 120.152 267.897 120.04 267.63 119.976C267.374 119.912 267.097 119.88 266.798 119.88Z" fill="#1F1F25"/>
<path d="M324 138H184V140H324V138Z" fill="#D5D5D5" mask="url(#path-7-inside-2_7170_60600)"/>
<path d="M325.2 92.6H326.328V100.016H329.256V92.6H330.384V100.016H333.312V92.6H334.44V101H325.2V92.6ZM338.409 101.12C338.057 101.12 337.745 101.072 337.473 100.976C337.209 100.872 336.985 100.732 336.801 100.556C336.617 100.38 336.477 100.172 336.381 99.932C336.285 99.692 336.237 99.428 336.237 99.14C336.237 98.508 336.421 98.052 336.789 97.772C337.165 97.492 337.701 97.352 338.397 97.352H340.461V96.92C340.461 96.376 340.337 96 340.089 95.792C339.849 95.584 339.485 95.48 338.997 95.48C338.541 95.48 338.209 95.568 338.001 95.744C337.793 95.912 337.677 96.104 337.653 96.32H336.597C336.613 96.064 336.681 95.828 336.801 95.612C336.929 95.388 337.097 95.196 337.305 95.036C337.521 94.876 337.777 94.752 338.073 94.664C338.369 94.568 338.697 94.52 339.057 94.52C339.809 94.52 340.405 94.7 340.845 95.06C341.293 95.412 341.517 95.992 341.517 96.8V99.38C341.517 99.716 341.517 100.012 341.517 100.268C341.525 100.516 341.545 100.76 341.577 101H340.653C340.629 100.816 340.613 100.644 340.605 100.484C340.597 100.316 340.593 100.128 340.593 99.92C340.425 100.256 340.153 100.54 339.777 100.772C339.401 101.004 338.945 101.12 338.409 101.12ZM338.637 100.16C338.885 100.16 339.117 100.128 339.333 100.064C339.557 99.992 339.753 99.892 339.921 99.764C340.089 99.628 340.221 99.464 340.317 99.272C340.413 99.08 340.461 98.856 340.461 98.6V98.168H338.577C338.185 98.168 337.877 98.248 337.653 98.408C337.429 98.56 337.317 98.804 337.317 99.14C337.317 99.436 337.421 99.68 337.629 99.872C337.845 100.064 338.181 100.16 338.637 100.16ZM343.382 94.64H347.702V95.576H344.438V101H343.382V94.64ZM354.361 101.12C353.905 101.12 353.497 101.06 353.137 100.94C352.785 100.812 352.485 100.64 352.237 100.424C351.989 100.208 351.801 99.956 351.673 99.668C351.545 99.372 351.481 99.056 351.481 98.72H352.609C352.609 99.128 352.749 99.464 353.029 99.728C353.309 99.984 353.753 100.112 354.361 100.112C354.969 100.112 355.413 99.98 355.693 99.716C355.973 99.444 356.113 99.092 356.113 98.66C356.113 98.212 355.969 97.852 355.681 97.58C355.401 97.3 354.961 97.16 354.361 97.16H353.461V96.2H354.361C354.937 96.2 355.353 96.08 355.609 95.84C355.865 95.592 355.993 95.252 355.993 94.82C355.993 94.404 355.869 94.08 355.621 93.848C355.373 93.608 354.953 93.488 354.361 93.488C353.793 93.488 353.377 93.612 353.113 93.86C352.857 94.1 352.729 94.4 352.729 94.76H351.601C351.601 94.448 351.661 94.152 351.781 93.872C351.909 93.592 352.089 93.352 352.321 93.152C352.561 92.944 352.849 92.78 353.185 92.66C353.529 92.54 353.921 92.48 354.361 92.48C354.801 92.48 355.193 92.54 355.537 92.66C355.881 92.78 356.169 92.94 356.401 93.14C356.641 93.34 356.821 93.576 356.941 93.848C357.061 94.12 357.121 94.404 357.121 94.7C357.121 95.18 356.993 95.588 356.737 95.924C356.489 96.252 356.137 96.484 355.681 96.62C356.161 96.772 356.541 97.02 356.821 97.364C357.101 97.708 357.241 98.18 357.241 98.78C357.241 99.1 357.177 99.404 357.049 99.692C356.921 99.972 356.733 100.22 356.485 100.436C356.245 100.644 355.945 100.812 355.585 100.94C355.225 101.06 354.817 101.12 354.361 101.12Z" fill="#1F1F25" fill-opacity="0.8"/>
<path d="M325.44 115.8H334.56V127H332.64V117.464H327.36V127H325.44V115.8ZM340.8 127.176C340.213 127.176 339.664 127.085 339.152 126.904C338.651 126.712 338.213 126.435 337.84 126.072C337.467 125.709 337.173 125.261 336.96 124.728C336.747 124.184 336.64 123.555 336.64 122.84V122.52C336.64 121.848 336.747 121.256 336.96 120.744C337.173 120.221 337.467 119.784 337.84 119.432C338.213 119.069 338.651 118.797 339.152 118.616C339.664 118.435 340.213 118.344 340.8 118.344C341.387 118.344 341.931 118.435 342.432 118.616C342.944 118.797 343.387 119.069 343.76 119.432C344.133 119.784 344.427 120.221 344.64 120.744C344.853 121.256 344.96 121.848 344.96 122.52V122.84C344.96 123.555 344.853 124.184 344.64 124.728C344.427 125.261 344.133 125.709 343.76 126.072C343.387 126.435 342.944 126.712 342.432 126.904C341.931 127.085 341.387 127.176 340.8 127.176ZM340.8 125.64C341.109 125.64 341.403 125.587 341.68 125.48C341.968 125.373 342.219 125.208 342.432 124.984C342.656 124.76 342.832 124.472 342.96 124.12C343.099 123.768 343.168 123.341 343.168 122.84V122.52C343.168 122.061 343.099 121.667 342.96 121.336C342.832 121.005 342.656 120.733 342.432 120.52C342.219 120.307 341.968 120.147 341.68 120.04C341.403 119.933 341.109 119.88 340.8 119.88C340.491 119.88 340.192 119.933 339.904 120.04C339.627 120.147 339.376 120.307 339.152 120.52C338.939 120.733 338.763 121.005 338.624 121.336C338.496 121.667 338.432 122.061 338.432 122.52V122.84C338.432 123.341 338.496 123.768 338.624 124.12C338.763 124.472 338.939 124.76 339.152 124.984C339.376 125.208 339.627 125.373 339.904 125.48C340.192 125.587 340.491 125.64 340.8 125.64ZM348.641 122.632L345.761 118.52H347.777L350.081 121.928H350.881V118.52H352.641V121.928H353.441L355.937 118.52H357.761L354.721 122.552L357.921 127H355.937L353.441 123.432H352.641V127H350.881V123.432H350.081L347.681 127H345.601L348.641 122.632ZM362.722 127.176C362.157 127.176 361.623 127.091 361.122 126.92C360.621 126.739 360.178 126.472 359.794 126.12C359.421 125.757 359.122 125.304 358.898 124.76C358.674 124.216 358.562 123.576 358.562 122.84V122.52C358.562 121.816 358.669 121.203 358.882 120.68C359.095 120.157 359.383 119.725 359.746 119.384C360.119 119.032 360.546 118.771 361.026 118.6C361.506 118.429 362.018 118.344 362.562 118.344C363.853 118.344 364.839 118.691 365.522 119.384C366.215 120.077 366.562 121.069 366.562 122.36V123.256H360.354C360.365 123.693 360.434 124.067 360.562 124.376C360.701 124.675 360.877 124.92 361.09 125.112C361.314 125.293 361.565 125.427 361.842 125.512C362.13 125.597 362.423 125.64 362.722 125.64C363.33 125.64 363.773 125.544 364.05 125.352C364.338 125.16 364.535 124.909 364.642 124.6H366.402C366.231 125.443 365.81 126.083 365.138 126.52C364.477 126.957 363.671 127.176 362.722 127.176ZM362.642 119.88C362.343 119.88 362.055 119.917 361.778 119.992C361.511 120.067 361.271 120.189 361.058 120.36C360.855 120.52 360.69 120.733 360.562 121C360.434 121.256 360.365 121.571 360.354 121.944H364.802C364.791 121.549 364.727 121.219 364.61 120.952C364.503 120.685 364.354 120.472 364.162 120.312C363.97 120.152 363.741 120.04 363.474 119.976C363.218 119.912 362.941 119.88 362.642 119.88ZM368.007 127.176C367.922 127.176 367.826 127.171 367.719 127.16C367.623 127.16 367.532 127.149 367.447 127.128V125.464C367.5 125.475 367.58 125.48 367.687 125.48C367.911 125.48 368.103 125.416 368.263 125.288C368.423 125.149 368.551 124.915 368.647 124.584C368.754 124.243 368.834 123.789 368.887 123.224C368.94 122.659 368.967 121.944 368.967 121.08V118.52H375.367V127H373.607V120.024H370.663V121.4C370.663 122.541 370.604 123.485 370.487 124.232C370.38 124.968 370.215 125.555 369.991 125.992C369.767 126.429 369.49 126.739 369.159 126.92C368.828 127.091 368.444 127.176 368.007 127.176ZM380.084 127.176C379.626 127.176 379.215 127.112 378.852 126.984C378.5 126.845 378.202 126.659 377.956 126.424C377.711 126.179 377.524 125.896 377.396 125.576C377.268 125.256 377.204 124.904 377.204 124.52C377.204 123.677 377.455 123.053 377.956 122.648C378.458 122.232 379.194 122.024 380.164 122.024H382.804V121.56C382.804 120.92 382.66 120.483 382.372 120.248C382.095 120.003 381.652 119.88 381.044 119.88C380.5 119.88 380.1 119.965 379.844 120.136C379.588 120.307 379.439 120.541 379.396 120.84H377.684C377.706 120.477 377.796 120.147 377.956 119.848C378.127 119.539 378.356 119.272 378.644 119.048C378.943 118.824 379.3 118.653 379.716 118.536C380.132 118.408 380.602 118.344 381.124 118.344C381.647 118.344 382.116 118.403 382.532 118.52C382.959 118.637 383.322 118.824 383.62 119.08C383.919 119.325 384.148 119.645 384.308 120.04C384.479 120.435 384.564 120.909 384.564 121.464V124.84C384.564 125.288 384.57 125.683 384.58 126.024C384.591 126.355 384.618 126.68 384.66 127H383.06C383.028 126.755 383.002 126.547 382.98 126.376C382.97 126.205 382.964 125.992 382.964 125.736C382.762 126.131 382.41 126.472 381.908 126.76C381.418 127.037 380.81 127.176 380.084 127.176ZM380.564 125.64C380.863 125.64 381.146 125.603 381.412 125.528C381.69 125.443 381.93 125.325 382.132 125.176C382.335 125.016 382.495 124.824 382.612 124.6C382.74 124.365 382.804 124.099 382.804 123.8V123.336H380.484C380.036 123.336 379.674 123.432 379.396 123.624C379.13 123.816 378.996 124.099 378.996 124.472C378.996 124.824 379.119 125.107 379.364 125.32C379.62 125.533 380.02 125.64 380.564 125.64ZM386.729 118.52H388.489V121.928H392.489V118.52H394.249V127H392.489V123.432H388.489V127H386.729V118.52ZM396.495 118.52H398.255V124.52L402.335 118.52H404.015V127H402.255V121L398.175 127H396.495V118.52ZM407.909 123.784C407.269 123.592 406.794 123.277 406.485 122.84C406.175 122.403 406.021 121.875 406.021 121.256C406.021 120.424 406.298 119.763 406.853 119.272C407.407 118.771 408.25 118.52 409.381 118.52H413.221V127H411.461V123.992H409.637L407.749 127H405.701L407.909 123.784ZM407.813 121.256C407.813 121.704 407.946 122.024 408.213 122.216C408.479 122.397 408.842 122.488 409.301 122.488H411.461V120.024H409.301C408.842 120.024 408.479 120.12 408.213 120.312C407.946 120.493 407.813 120.808 407.813 121.256Z" fill="#1F1F25"/>
<path d="M464 138H324V140H464V138Z" fill="#D5D5D5" mask="url(#path-11-inside-3_7170_60600)"/>
<path d="M45.6 158H48.6V163.7H49.8L54.28 158H57.6L52.1 164.62L57.8 172H54.28L49.8 165.9H48.6V172H45.6V158ZM62.3839 172.24C61.8106 172.24 61.3039 172.16 60.8639 172C60.4239 171.827 60.0506 171.593 59.7439 171.3C59.4372 170.993 59.2039 170.64 59.0439 170.24C58.8839 169.827 58.8039 169.38 58.8039 168.9C58.8039 166.767 60.0706 165.7 62.6039 165.7H65.7639V165.2C65.7639 164.507 65.6039 164.02 65.2839 163.74C64.9772 163.46 64.4839 163.32 63.8039 163.32C63.2039 163.32 62.7706 163.427 62.5039 163.64C62.2372 163.84 62.0839 164.093 62.0439 164.4H59.4039C59.4306 163.947 59.5439 163.52 59.7439 163.12C59.9572 162.72 60.2506 162.38 60.6239 162.1C61.0106 161.807 61.4772 161.58 62.0239 161.42C62.5706 161.247 63.1972 161.16 63.9039 161.16C64.5839 161.16 65.1972 161.233 65.7439 161.38C66.3039 161.527 66.7772 161.767 67.1639 162.1C67.5639 162.42 67.8706 162.84 68.0839 163.36C68.2972 163.88 68.4039 164.507 68.4039 165.24V169.3C68.4039 169.86 68.4106 170.353 68.4239 170.78C68.4506 171.193 68.4906 171.6 68.5439 172H66.0839C66.0306 171.707 65.9972 171.487 65.9839 171.34C65.9839 171.18 65.9839 170.947 65.9839 170.64C65.6906 171.067 65.2439 171.44 64.6439 171.76C64.0572 172.08 63.3039 172.24 62.3839 172.24ZM63.2039 170.2C63.5239 170.2 63.8372 170.16 64.1439 170.08C64.4506 169.987 64.7239 169.853 64.9639 169.68C65.2039 169.493 65.3972 169.26 65.5439 168.98C65.6906 168.7 65.7639 168.373 65.7639 168V167.5H63.1039C62.5972 167.5 62.1972 167.62 61.9039 167.86C61.6239 168.087 61.4839 168.4 61.4839 168.8C61.4839 169.227 61.6306 169.567 61.9239 169.82C62.2172 170.073 62.6439 170.2 63.2039 170.2ZM70.7078 161.4H73.3478V165.56H74.3478L77.5878 161.4H80.5078L76.5078 166.42L80.7078 172H77.5478L74.3478 167.64H73.3478V172H70.7078V161.4ZM91.9117 172.24C91.1784 172.24 90.4917 172.127 89.8517 171.9C89.2251 171.673 88.6784 171.333 88.2117 170.88C87.7451 170.427 87.3784 169.86 87.1117 169.18C86.8451 168.5 86.7117 167.707 86.7117 166.8V166.4C86.7117 165.547 86.8517 164.793 87.1317 164.14C87.4117 163.487 87.7851 162.94 88.2517 162.5C88.7317 162.06 89.2851 161.727 89.9117 161.5C90.5384 161.273 91.2051 161.16 91.9117 161.16C92.6584 161.16 93.3184 161.26 93.8917 161.46C94.4784 161.66 94.9717 161.933 95.3717 162.28C95.7717 162.627 96.0851 163.033 96.3117 163.5C96.5384 163.967 96.6717 164.467 96.7117 165H94.0317C93.9251 164.507 93.7051 164.12 93.3717 163.84C93.0517 163.547 92.5651 163.4 91.9117 163.4C91.5651 163.4 91.2384 163.46 90.9317 163.58C90.6384 163.7 90.3717 163.887 90.1317 164.14C89.9051 164.38 89.7251 164.687 89.5917 165.06C89.4584 165.433 89.3917 165.88 89.3917 166.4V166.8C89.3917 167.36 89.4517 167.847 89.5717 168.26C89.7051 168.66 89.8851 168.993 90.1117 169.26C90.3384 169.513 90.6051 169.7 90.9117 169.82C91.2184 169.94 91.5517 170 91.9117 170C92.4317 170 92.8784 169.867 93.2517 169.6C93.6384 169.32 93.8984 168.92 94.0317 168.4H96.7117C96.6451 168.987 96.4784 169.52 96.2117 170C95.9584 170.467 95.6184 170.867 95.1917 171.2C94.7784 171.533 94.2917 171.793 93.7317 171.98C93.1717 172.153 92.5651 172.24 91.9117 172.24ZM103.52 161.4H108.84C109.52 161.4 110.1 161.473 110.58 161.62C111.074 161.753 111.48 161.947 111.8 162.2C112.12 162.453 112.354 162.753 112.5 163.1C112.647 163.447 112.72 163.827 112.72 164.24C112.72 164.733 112.567 165.2 112.26 165.64C111.967 166.067 111.56 166.353 111.04 166.5C111.694 166.66 112.2 166.967 112.56 167.42C112.934 167.86 113.12 168.38 113.12 168.98C113.12 169.9 112.8 170.633 112.16 171.18C111.52 171.727 110.547 172 109.24 172H103.52V161.4ZM108.72 169.88C109.32 169.88 109.76 169.793 110.04 169.62C110.334 169.433 110.48 169.14 110.48 168.74C110.48 168.34 110.34 168.053 110.06 167.88C109.794 167.693 109.347 167.6 108.72 167.6H106.16V169.88H108.72ZM108.46 165.64C109.074 165.64 109.494 165.553 109.72 165.38C109.96 165.207 110.08 164.94 110.08 164.58C110.08 164.233 109.96 163.973 109.72 163.8C109.48 163.613 109.06 163.52 108.46 163.52H106.16V165.64H108.46ZM118.204 172.24C117.631 172.24 117.124 172.16 116.684 172C116.244 171.827 115.871 171.593 115.564 171.3C115.258 170.993 115.024 170.64 114.864 170.24C114.704 169.827 114.624 169.38 114.624 168.9C114.624 166.767 115.891 165.7 118.424 165.7H121.584V165.2C121.584 164.507 121.424 164.02 121.104 163.74C120.798 163.46 120.304 163.32 119.624 163.32C119.024 163.32 118.591 163.427 118.324 163.64C118.058 163.84 117.904 164.093 117.864 164.4H115.224C115.251 163.947 115.364 163.52 115.564 163.12C115.778 162.72 116.071 162.38 116.444 162.1C116.831 161.807 117.298 161.58 117.844 161.42C118.391 161.247 119.018 161.16 119.724 161.16C120.404 161.16 121.018 161.233 121.564 161.38C122.124 161.527 122.598 161.767 122.984 162.1C123.384 162.42 123.691 162.84 123.904 163.36C124.118 163.88 124.224 164.507 124.224 165.24V169.3C124.224 169.86 124.231 170.353 124.244 170.78C124.271 171.193 124.311 171.6 124.364 172H121.904C121.851 171.707 121.818 171.487 121.804 171.34C121.804 171.18 121.804 170.947 121.804 170.64C121.511 171.067 121.064 171.44 120.464 171.76C119.878 172.08 119.124 172.24 118.204 172.24ZM119.024 170.2C119.344 170.2 119.658 170.16 119.964 170.08C120.271 169.987 120.544 169.853 120.784 169.68C121.024 169.493 121.218 169.26 121.364 168.98C121.511 168.7 121.584 168.373 121.584 168V167.5H118.924C118.418 167.5 118.018 167.62 117.724 167.86C117.444 168.087 117.304 168.4 117.304 168.8C117.304 169.227 117.451 169.567 117.744 169.82C118.038 170.073 118.464 170.2 119.024 170.2ZM126.528 161.4H129.648L132.588 167.12L135.528 161.4H138.528V172H136.008V165.1L133.428 169.9H131.628L129.048 165.1V172H126.528V161.4ZM140.923 161.4H143.563V168.2L148.283 161.4H150.723V172H148.083V165.2L143.363 172H140.923V161.4ZM162.83 172.24C162.096 172.24 161.41 172.127 160.77 171.9C160.143 171.673 159.596 171.333 159.13 170.88C158.663 170.427 158.296 169.86 158.03 169.18C157.763 168.5 157.63 167.707 157.63 166.8V166.4C157.63 165.547 157.77 164.793 158.05 164.14C158.33 163.487 158.703 162.94 159.17 162.5C159.65 162.06 160.203 161.727 160.83 161.5C161.456 161.273 162.123 161.16 162.83 161.16C163.576 161.16 164.236 161.26 164.81 161.46C165.396 161.66 165.89 161.933 166.29 162.28C166.69 162.627 167.003 163.033 167.23 163.5C167.456 163.967 167.59 164.467 167.63 165H164.95C164.843 164.507 164.623 164.12 164.29 163.84C163.97 163.547 163.483 163.4 162.83 163.4C162.483 163.4 162.156 163.46 161.85 163.58C161.556 163.7 161.29 163.887 161.05 164.14C160.823 164.38 160.643 164.687 160.51 165.06C160.376 165.433 160.31 165.88 160.31 166.4V166.8C160.31 167.36 160.37 167.847 160.49 168.26C160.623 168.66 160.803 168.993 161.03 169.26C161.256 169.513 161.523 169.7 161.83 169.82C162.136 169.94 162.47 170 162.83 170C163.35 170 163.796 169.867 164.17 169.6C164.556 169.32 164.816 168.92 164.95 168.4H167.63C167.563 168.987 167.396 169.52 167.13 170C166.876 170.467 166.536 170.867 166.11 171.2C165.696 171.533 165.21 171.793 164.65 171.98C164.09 172.153 163.483 172.24 162.83 172.24ZM169.438 161.4H174.758C175.438 161.4 176.018 161.473 176.498 161.62C176.992 161.753 177.398 161.947 177.718 162.2C178.038 162.453 178.272 162.753 178.418 163.1C178.565 163.447 178.638 163.827 178.638 164.24C178.638 164.733 178.485 165.2 178.178 165.64C177.885 166.067 177.478 166.353 176.958 166.5C177.612 166.66 178.118 166.967 178.478 167.42C178.852 167.86 179.038 168.38 179.038 168.98C179.038 169.9 178.718 170.633 178.078 171.18C177.438 171.727 176.465 172 175.158 172H169.438V161.4ZM174.638 169.88C175.238 169.88 175.678 169.793 175.958 169.62C176.252 169.433 176.398 169.14 176.398 168.74C176.398 168.34 176.258 168.053 175.978 167.88C175.712 167.693 175.265 167.6 174.638 167.6H172.078V169.88H174.638ZM174.378 165.64C174.992 165.64 175.412 165.553 175.638 165.38C175.878 165.207 175.998 164.94 175.998 164.58C175.998 164.233 175.878 163.973 175.638 163.8C175.398 163.613 174.978 163.52 174.378 163.52H172.078V165.64H174.378ZM183.082 168.02C182.269 167.753 181.676 167.353 181.302 166.82C180.929 166.287 180.742 165.66 180.742 164.94C180.742 164.42 180.829 163.947 181.002 163.52C181.189 163.08 181.462 162.707 181.822 162.4C182.182 162.08 182.636 161.833 183.182 161.66C183.742 161.487 184.396 161.4 185.142 161.4H190.142V172H187.502V168.34H185.602L183.302 172H180.342L183.082 168.02ZM183.382 164.94C183.382 165.393 183.529 165.727 183.822 165.94C184.129 166.153 184.536 166.26 185.042 166.26H187.502V163.6H185.042C184.536 163.6 184.129 163.713 183.822 163.94C183.529 164.153 183.382 164.487 183.382 164.94ZM196.744 172.24C195.21 172.24 194.044 171.927 193.244 171.3C192.444 170.673 192.01 169.773 191.944 168.6H194.624C194.65 168.827 194.704 169.027 194.784 169.2C194.864 169.373 194.984 169.52 195.144 169.64C195.304 169.76 195.51 169.853 195.764 169.92C196.03 169.973 196.357 170 196.744 170C197.517 170 198.064 169.887 198.384 169.66C198.704 169.42 198.864 169.133 198.864 168.8C198.864 168.4 198.73 168.1 198.464 167.9C198.197 167.7 197.724 167.6 197.044 167.6H195.444V165.64H196.904C197.41 165.64 197.797 165.533 198.064 165.32C198.33 165.107 198.464 164.827 198.464 164.48C198.464 164.173 198.33 163.92 198.064 163.72C197.81 163.507 197.37 163.4 196.744 163.4C196.09 163.4 195.617 163.513 195.324 163.74C195.044 163.953 194.877 164.273 194.824 164.7H192.144C192.21 163.553 192.63 162.68 193.404 162.08C194.177 161.467 195.29 161.16 196.744 161.16C197.517 161.16 198.177 161.233 198.724 161.38C199.284 161.527 199.744 161.74 200.104 162.02C200.464 162.287 200.724 162.613 200.884 163C201.057 163.373 201.144 163.793 201.144 164.26C201.144 164.767 201.01 165.22 200.744 165.62C200.49 166.02 200.084 166.313 199.524 166.5C200.284 166.687 200.81 166.993 201.104 167.42C201.397 167.833 201.544 168.327 201.544 168.9C201.544 169.38 201.444 169.827 201.244 170.24C201.057 170.64 200.764 170.993 200.364 171.3C199.977 171.593 199.484 171.827 198.884 172C198.284 172.16 197.57 172.24 196.744 172.24ZM206.622 172.24C206.049 172.24 205.542 172.16 205.102 172C204.662 171.827 204.289 171.593 203.982 171.3C203.676 170.993 203.442 170.64 203.282 170.24C203.122 169.827 203.042 169.38 203.042 168.9C203.042 166.767 204.309 165.7 206.842 165.7H210.002V165.2C210.002 164.507 209.842 164.02 209.522 163.74C209.216 163.46 208.722 163.32 208.042 163.32C207.442 163.32 207.009 163.427 206.742 163.64C206.476 163.84 206.322 164.093 206.282 164.4H203.642C203.669 163.947 203.782 163.52 203.982 163.12C204.196 162.72 204.489 162.38 204.862 162.1C205.249 161.807 205.716 161.58 206.262 161.42C206.809 161.247 207.436 161.16 208.142 161.16C208.822 161.16 209.436 161.233 209.982 161.38C210.542 161.527 211.016 161.767 211.402 162.1C211.802 162.42 212.109 162.84 212.322 163.36C212.536 163.88 212.642 164.507 212.642 165.24V169.3C212.642 169.86 212.649 170.353 212.662 170.78C212.689 171.193 212.729 171.6 212.782 172H210.322C210.269 171.707 210.236 171.487 210.222 171.34C210.222 171.18 210.222 170.947 210.222 170.64C209.929 171.067 209.482 171.44 208.882 171.76C208.296 172.08 207.542 172.24 206.622 172.24ZM207.442 170.2C207.762 170.2 208.076 170.16 208.382 170.08C208.689 169.987 208.962 169.853 209.202 169.68C209.442 169.493 209.636 169.26 209.782 168.98C209.929 168.7 210.002 168.373 210.002 168V167.5H207.342C206.836 167.5 206.436 167.62 206.142 167.86C205.862 168.087 205.722 168.4 205.722 168.8C205.722 169.227 205.869 169.567 206.162 169.82C206.456 170.073 206.882 170.2 207.442 170.2ZM217.35 163.6H213.97V161.4H223.37V163.6H219.99V172H217.35V163.6ZM224.966 161.4H227.606V164.96H229.866C232.599 164.96 233.966 166.133 233.966 168.48C233.966 169 233.886 169.48 233.726 169.92C233.579 170.347 233.339 170.713 233.006 171.02C232.672 171.327 232.246 171.567 231.726 171.74C231.206 171.913 230.586 172 229.866 172H224.966V161.4ZM229.566 169.88C230.206 169.88 230.659 169.767 230.926 169.54C231.192 169.3 231.326 168.947 231.326 168.48C231.326 168.013 231.186 167.667 230.906 167.44C230.639 167.2 230.192 167.08 229.566 167.08H227.606V169.88H229.566ZM240.564 172.24C239.831 172.24 239.144 172.127 238.504 171.9C237.877 171.673 237.331 171.333 236.864 170.88C236.397 170.427 236.031 169.86 235.764 169.18C235.497 168.5 235.364 167.707 235.364 166.8V166.4C235.364 165.547 235.504 164.793 235.784 164.14C236.064 163.487 236.437 162.94 236.904 162.5C237.384 162.06 237.937 161.727 238.564 161.5C239.191 161.273 239.857 161.16 240.564 161.16C241.311 161.16 241.971 161.26 242.544 161.46C243.131 161.66 243.624 161.933 244.024 162.28C244.424 162.627 244.737 163.033 244.964 163.5C245.191 163.967 245.324 164.467 245.364 165H242.684C242.577 164.507 242.357 164.12 242.024 163.84C241.704 163.547 241.217 163.4 240.564 163.4C240.217 163.4 239.891 163.46 239.584 163.58C239.291 163.7 239.024 163.887 238.784 164.14C238.557 164.38 238.377 164.687 238.244 165.06C238.111 165.433 238.044 165.88 238.044 166.4V166.8C238.044 167.36 238.104 167.847 238.224 168.26C238.357 168.66 238.537 168.993 238.764 169.26C238.991 169.513 239.257 169.7 239.564 169.82C239.871 169.94 240.204 170 240.564 170C241.084 170 241.531 169.867 241.904 169.6C242.291 169.32 242.551 168.92 242.684 168.4H245.364C245.297 168.987 245.131 169.52 244.864 170C244.611 170.467 244.271 170.867 243.844 171.2C243.431 171.533 242.944 171.793 242.384 171.98C241.824 172.153 241.217 172.24 240.564 172.24ZM249.313 168.02C248.499 167.753 247.906 167.353 247.533 166.82C247.159 166.287 246.973 165.66 246.973 164.94C246.973 164.42 247.059 163.947 247.233 163.52C247.419 163.08 247.693 162.707 248.053 162.4C248.413 162.08 248.866 161.833 249.413 161.66C249.973 161.487 250.626 161.4 251.373 161.4H256.373V172H253.733V168.34H251.833L249.533 172H246.573L249.313 168.02ZM249.613 164.94C249.613 165.393 249.759 165.727 250.053 165.94C250.359 166.153 250.766 166.26 251.273 166.26H253.733V163.6H251.273C250.766 163.6 250.359 163.713 250.053 163.94C249.759 164.153 249.613 164.487 249.613 164.94ZM261.554 166.6C261.554 166.093 261.688 165.64 261.954 165.24C262.221 164.827 262.654 164.367 263.254 163.86C263.734 163.447 264.108 163.087 264.374 162.78C264.654 162.473 264.794 162.113 264.794 161.7C264.794 161.193 264.628 160.787 264.294 160.48C263.974 160.16 263.501 160 262.874 160C262.301 160 261.834 160.16 261.474 160.48C261.128 160.787 260.954 161.227 260.954 161.8H258.274C258.274 161.253 258.388 160.74 258.614 160.26C258.854 159.767 259.174 159.333 259.574 158.96C259.988 158.587 260.474 158.293 261.034 158.08C261.594 157.867 262.208 157.76 262.874 157.76C263.594 157.76 264.234 157.86 264.794 158.06C265.368 158.247 265.854 158.513 266.254 158.86C266.654 159.207 266.954 159.613 267.154 160.08C267.368 160.547 267.474 161.053 267.474 161.6C267.474 161.96 267.441 162.287 267.374 162.58C267.308 162.873 267.194 163.153 267.034 163.42C266.888 163.687 266.688 163.96 266.434 164.24C266.181 164.507 265.874 164.8 265.514 165.12C265.208 165.387 264.968 165.613 264.794 165.8C264.621 165.973 264.488 166.133 264.394 166.28C264.314 166.413 264.261 166.54 264.234 166.66C264.208 166.767 264.194 166.88 264.194 167V167.4H261.554V166.6ZM262.874 172.24C262.408 172.24 262.008 172.073 261.674 171.74C261.341 171.407 261.174 171.007 261.174 170.54C261.174 170.047 261.341 169.64 261.674 169.32C262.008 169 262.408 168.84 262.874 168.84C263.341 168.84 263.741 169 264.074 169.32C264.408 169.64 264.574 170.047 264.574 170.54C264.574 171.007 264.408 171.407 264.074 171.74C263.741 172.073 263.341 172.24 262.874 172.24Z" fill="#1F1F25"/>
<path d="M45.7701 191.706L44.826 192.306L44.4992 191.743L45.4977 191.234L44.4992 190.726L44.826 190.163L45.7701 190.762L45.7156 189.646H46.3691L46.3147 190.762L47.2587 190.163L47.5855 190.726L46.587 191.234L47.5855 191.743L47.2587 192.306L46.3147 191.706L46.3691 192.823H45.7156L45.7701 191.706ZM51.5631 195.61C51.0971 195.61 50.6796 195.543 50.3104 195.41C49.9413 195.277 49.6296 195.089 49.3755 194.847C49.1213 194.599 48.9246 194.306 48.7855 193.967C48.6523 193.622 48.5858 193.241 48.5858 192.823V192.641C48.5858 192.272 48.6523 191.927 48.7855 191.607C48.9246 191.286 49.1213 191.011 49.3755 190.781C49.6296 190.551 49.9413 190.369 50.3104 190.236C50.6796 190.103 51.0971 190.036 51.5631 190.036V189.374H52.4163V190.036C52.8823 190.036 53.2998 190.103 53.669 190.236C54.0381 190.369 54.3498 190.551 54.6039 190.781C54.8581 191.011 55.0517 191.286 55.1849 191.607C55.3241 191.927 55.3936 192.272 55.3936 192.641V192.823C55.3936 193.241 55.3241 193.622 55.1849 193.967C55.0517 194.306 54.8581 194.599 54.6039 194.847C54.3498 195.089 54.0381 195.277 53.669 195.41C53.2998 195.543 52.8823 195.61 52.4163 195.61V196.272H51.5631V195.61ZM54.4859 192.641C54.4859 192.381 54.4405 192.139 54.3498 191.915C54.259 191.691 54.1259 191.498 53.9504 191.334C53.7749 191.165 53.557 191.035 53.2968 190.944C53.0427 190.847 52.7492 190.799 52.4163 190.799V194.847C52.7492 194.847 53.0427 194.799 53.2968 194.702C53.557 194.605 53.7749 194.469 53.9504 194.293C54.1259 194.118 54.259 193.906 54.3498 193.658C54.4405 193.41 54.4859 193.132 54.4859 192.823V192.641ZM49.4935 192.823C49.4935 193.132 49.5389 193.41 49.6296 193.658C49.7204 193.906 49.8535 194.118 50.029 194.293C50.2045 194.469 50.4193 194.605 50.6735 194.702C50.9337 194.799 51.2302 194.847 51.5631 194.847V190.799C51.2302 190.799 50.9337 190.847 50.6735 190.944C50.4193 191.035 50.2045 191.165 50.029 191.334C49.8535 191.498 49.7204 191.691 49.6296 191.915C49.5389 192.139 49.4935 192.381 49.4935 192.641V192.823ZM56.8038 189.646H57.6571V194.638L61.0338 189.646H61.887V196H61.0338V191.008L57.6571 196H56.8038V189.646ZM66.1512 196.091C65.7881 196.091 65.4371 196.03 65.0982 195.909C64.7593 195.782 64.4598 195.589 64.1996 195.328C63.9394 195.068 63.7306 194.735 63.5733 194.33C63.4159 193.924 63.3372 193.437 63.3372 192.868V192.687C63.3372 192.142 63.4159 191.673 63.5733 191.28C63.7306 190.887 63.9394 190.563 64.1996 190.309C64.4598 190.048 64.7593 189.858 65.0982 189.737C65.4371 189.616 65.7881 189.555 66.1512 189.555C66.5143 189.555 66.8652 189.616 67.2041 189.737C67.543 189.858 67.8426 190.048 68.1028 190.309C68.363 190.563 68.5718 190.887 68.7291 191.28C68.8864 191.673 68.9651 192.142 68.9651 192.687V192.868C68.9651 193.437 68.8864 193.924 68.7291 194.33C68.5718 194.735 68.363 195.068 68.1028 195.328C67.8426 195.589 67.543 195.782 67.2041 195.909C66.8652 196.03 66.5143 196.091 66.1512 196.091ZM66.1512 195.328C66.3993 195.328 66.6383 195.283 66.8683 195.192C67.0982 195.101 67.301 194.959 67.4764 194.766C67.6519 194.566 67.7911 194.312 67.894 194.003C68.0029 193.688 68.0574 193.31 68.0574 192.868V192.687C68.0574 192.269 68.0029 191.912 67.894 191.616C67.7911 191.313 67.6519 191.068 67.4764 190.88C67.301 190.687 67.0982 190.545 66.8683 190.454C66.6383 190.363 66.3993 190.318 66.1512 190.318C65.9031 190.318 65.664 190.363 65.4341 190.454C65.2041 190.545 65.0014 190.687 64.8259 190.88C64.6504 191.068 64.5082 191.313 64.3993 191.616C64.2964 191.912 64.245 192.269 64.245 192.687V192.868C64.245 193.31 64.2964 193.688 64.3993 194.003C64.5082 194.312 64.6504 194.566 64.8259 194.766C65.0014 194.959 65.2041 195.101 65.4341 195.192C65.664 195.283 65.9031 195.328 66.1512 195.328Z" fill="#1F1F25" fill-opacity="0.8"/>
<path d="M53.2933 215.772H55.8748C56.3085 215.772 56.6802 215.82 56.99 215.916C57.2998 216.013 57.5545 216.147 57.7541 216.319C57.9606 216.484 58.1121 216.687 58.2085 216.928C58.3048 217.162 58.353 217.421 58.353 217.703C58.353 218.075 58.2498 218.395 58.0432 218.663C57.8367 218.925 57.582 219.114 57.2791 219.231C57.7059 219.327 58.0432 219.524 58.2911 219.82C58.5389 220.109 58.6628 220.487 58.6628 220.955C58.6628 221.251 58.6146 221.523 58.5182 221.771C58.4219 222.019 58.2704 222.236 58.0639 222.422C57.8574 222.601 57.5889 222.742 57.2585 222.845C56.9349 222.948 56.5425 223 56.0813 223H53.2933V215.772ZM56.0813 222.153C56.3911 222.153 56.6493 222.126 56.8558 222.071C57.0623 222.009 57.2275 221.926 57.3514 221.823C57.4753 221.713 57.5614 221.582 57.6096 221.43C57.6646 221.279 57.6922 221.11 57.6922 220.924C57.6922 220.739 57.6646 220.57 57.6096 220.419C57.5614 220.26 57.4753 220.129 57.3514 220.026C57.2275 219.916 57.0588 219.833 56.8454 219.778C56.6389 219.716 56.3808 219.685 56.071 219.685H54.264V222.153H56.0813ZM55.8748 218.88C56.1639 218.88 56.4049 218.852 56.5976 218.797C56.7904 218.742 56.9453 218.663 57.0623 218.56C57.1793 218.457 57.2619 218.336 57.3101 218.198C57.3583 218.061 57.3824 217.909 57.3824 217.744C57.3824 217.579 57.3583 217.427 57.3101 217.29C57.2619 217.145 57.1793 217.025 57.0623 216.928C56.9453 216.832 56.7904 216.756 56.5976 216.701C56.4049 216.646 56.1639 216.619 55.8748 216.619H54.264V218.88H55.8748ZM60.0044 217.527H62.3793C63.0539 217.527 63.5496 217.668 63.8662 217.951C64.1829 218.226 64.3412 218.584 64.3412 219.025C64.3412 219.142 64.3206 219.262 64.2793 219.386C64.238 219.503 64.1795 219.613 64.1037 219.716C64.0349 219.82 63.9489 219.909 63.8456 219.985C63.7492 220.061 63.6391 220.119 63.5152 220.16C63.8525 220.243 64.1072 220.401 64.2793 220.635C64.4583 220.863 64.5478 221.131 64.5478 221.441C64.5478 221.916 64.3894 222.294 64.0728 222.577C63.7561 222.859 63.2605 223 62.5858 223H60.0044V217.527ZM62.5858 222.195C62.9713 222.195 63.2433 222.126 63.4016 221.988C63.5599 221.85 63.6391 221.654 63.6391 221.399C63.6391 221.138 63.5599 220.938 63.4016 220.801C63.2433 220.656 62.9713 220.584 62.5858 220.584H60.913V222.195H62.5858ZM62.3793 219.84C62.7717 219.84 63.0436 219.771 63.1951 219.634C63.3534 219.496 63.4326 219.307 63.4326 219.066C63.4326 218.839 63.3534 218.66 63.1951 218.529C63.0436 218.398 62.7717 218.333 62.3793 218.333H60.913V219.84H62.3793ZM68.1146 223.103C67.7635 223.103 67.4297 223.048 67.113 222.938C66.7964 222.828 66.5176 222.659 66.2766 222.432C66.0357 222.198 65.8429 221.905 65.6984 221.554C65.5538 221.203 65.4815 220.79 65.4815 220.315V220.109C65.4815 219.654 65.5504 219.262 65.688 218.932C65.8257 218.594 66.0081 218.315 66.2353 218.095C66.4694 217.868 66.7378 217.699 67.0407 217.589C67.3505 217.479 67.6741 217.424 68.0114 217.424C68.8168 217.424 69.4398 217.644 69.8804 218.085C70.3209 218.525 70.5412 219.148 70.5412 219.954V220.532H66.3902C66.3902 220.856 66.4418 221.128 66.5451 221.348C66.6484 221.568 66.7826 221.747 66.9478 221.885C67.113 222.022 67.2954 222.122 67.4951 222.184C67.7016 222.246 67.9081 222.277 68.1146 222.277C68.5277 222.277 68.8443 222.208 69.0646 222.071C69.2918 221.933 69.4536 221.744 69.5499 221.503H70.438C70.3829 221.764 70.2831 221.995 70.1385 222.195C70.0008 222.394 69.8287 222.563 69.6222 222.701C69.4226 222.831 69.192 222.931 68.9304 223C68.6757 223.069 68.4038 223.103 68.1146 223.103ZM68.063 218.25C67.8496 218.25 67.6431 218.281 67.4434 218.343C67.2438 218.398 67.0648 218.491 66.9065 218.622C66.7551 218.746 66.6311 218.904 66.5348 219.097C66.4384 219.29 66.3902 219.52 66.3902 219.789H69.6842C69.6773 219.506 69.6291 219.269 69.5396 219.076C69.457 218.877 69.3434 218.718 69.1989 218.601C69.0543 218.477 68.8822 218.388 68.6826 218.333C68.4898 218.278 68.2833 218.25 68.063 218.25ZM71.1124 222.195H71.7836C71.8593 222.091 71.9281 221.933 71.9901 221.72C72.052 221.506 72.1071 221.255 72.1553 220.966C72.2035 220.677 72.2379 220.363 72.2585 220.026C72.2861 219.682 72.2998 219.331 72.2998 218.973V217.527H76.1204V222.195H76.8949V224.291H76.0275V223H71.9797V224.291H71.1124V222.195ZM75.2118 222.195V218.333H73.1879V219.179C73.1879 219.469 73.1775 219.758 73.1569 220.047C73.1362 220.329 73.1053 220.601 73.064 220.863C73.0227 221.117 72.971 221.362 72.9091 221.596C72.854 221.823 72.7886 222.022 72.7129 222.195H75.2118ZM77.9839 217.527H78.8926V221.658L81.7219 217.527H82.6306V223H81.7219V218.87L78.8926 223H77.9839V217.527ZM85.5358 218.333H83.6668V217.527H88.3135V218.333H86.4445V223H85.5358V218.333ZM91.5193 223.103C91.1683 223.103 90.8344 223.048 90.5177 222.938C90.2011 222.828 89.9223 222.659 89.6813 222.432C89.4404 222.198 89.2476 221.905 89.1031 221.554C88.9585 221.203 88.8862 220.79 88.8862 220.315V220.109C88.8862 219.654 88.9551 219.262 89.0927 218.932C89.2304 218.594 89.4128 218.315 89.64 218.095C89.8741 217.868 90.1425 217.699 90.4454 217.589C90.7552 217.479 91.0788 217.424 91.4161 217.424C92.2215 217.424 92.8445 217.644 93.2851 218.085C93.7256 218.525 93.9459 219.148 93.9459 219.954V220.532H89.7949C89.7949 220.856 89.8465 221.128 89.9498 221.348C90.0531 221.568 90.1873 221.747 90.3525 221.885C90.5177 222.022 90.7001 222.122 90.8998 222.184C91.1063 222.246 91.3128 222.277 91.5193 222.277C91.9324 222.277 92.249 222.208 92.4693 222.071C92.6965 221.933 92.8583 221.744 92.9546 221.503H93.8427C93.7876 221.764 93.6878 221.995 93.5432 222.195C93.4055 222.394 93.2334 222.563 93.0269 222.701C92.8273 222.831 92.5967 222.931 92.3351 223C92.0804 223.069 91.8085 223.103 91.5193 223.103ZM91.4677 218.25C91.2543 218.25 91.0478 218.281 90.8481 218.343C90.6485 218.398 90.4695 218.491 90.3112 218.622C90.1598 218.746 90.0358 218.904 89.9395 219.097C89.8431 219.29 89.7949 219.52 89.7949 219.789H93.0889C93.082 219.506 93.0338 219.269 92.9443 219.076C92.8617 218.877 92.7481 218.718 92.6036 218.601C92.459 218.477 92.2869 218.388 92.0873 218.333C91.8945 218.278 91.688 218.25 91.4677 218.25ZM97.8189 217.527H100.194C100.869 217.527 101.364 217.668 101.681 217.951C101.997 218.226 102.156 218.584 102.156 219.025C102.156 219.142 102.135 219.262 102.094 219.386C102.053 219.503 101.994 219.613 101.918 219.716C101.849 219.82 101.763 219.909 101.66 219.985C101.564 220.061 101.454 220.119 101.33 220.16C101.667 220.243 101.922 220.401 102.094 220.635C102.273 220.863 102.362 221.131 102.362 221.441C102.362 221.916 102.204 222.294 101.887 222.577C101.571 222.859 101.075 223 100.4 223H97.8189V217.527ZM100.4 222.195C100.786 222.195 101.058 222.126 101.216 221.988C101.374 221.85 101.454 221.654 101.454 221.399C101.454 221.138 101.374 220.938 101.216 220.801C101.058 220.656 100.786 220.584 100.4 220.584H98.7276V222.195H100.4ZM100.194 219.84C100.586 219.84 100.858 219.771 101.01 219.634C101.168 219.496 101.247 219.307 101.247 219.066C101.247 218.839 101.168 218.66 101.01 218.529C100.858 218.398 100.586 218.333 100.194 218.333H98.7276V219.84H100.194ZM105.217 223.103C104.914 223.103 104.645 223.062 104.411 222.979C104.184 222.89 103.991 222.769 103.833 222.618C103.675 222.466 103.554 222.288 103.472 222.081C103.389 221.874 103.348 221.647 103.348 221.399C103.348 220.856 103.506 220.463 103.823 220.222C104.146 219.981 104.607 219.861 105.206 219.861H106.982V219.489C106.982 219.021 106.876 218.698 106.662 218.519C106.456 218.34 106.143 218.25 105.723 218.25C105.33 218.25 105.045 218.326 104.866 218.477C104.687 218.622 104.587 218.787 104.566 218.973H103.658C103.671 218.753 103.73 218.55 103.833 218.364C103.943 218.171 104.088 218.006 104.267 217.868C104.453 217.73 104.673 217.624 104.928 217.548C105.182 217.465 105.465 217.424 105.774 217.424C106.421 217.424 106.934 217.579 107.313 217.889C107.698 218.192 107.891 218.691 107.891 219.386V221.606C107.891 221.895 107.891 222.15 107.891 222.37C107.898 222.584 107.915 222.793 107.943 223H107.148C107.127 222.842 107.113 222.694 107.106 222.556C107.099 222.411 107.096 222.25 107.096 222.071C106.951 222.36 106.717 222.604 106.394 222.804C106.07 223.003 105.678 223.103 105.217 223.103ZM105.413 222.277C105.626 222.277 105.826 222.25 106.012 222.195C106.205 222.133 106.373 222.047 106.518 221.936C106.662 221.819 106.776 221.678 106.859 221.513C106.941 221.348 106.982 221.155 106.982 220.935V220.563H105.361C105.024 220.563 104.759 220.632 104.566 220.77C104.373 220.9 104.277 221.11 104.277 221.399C104.277 221.654 104.367 221.864 104.546 222.029C104.731 222.195 105.021 222.277 105.413 222.277ZM109.496 217.527H110.405V222.195H112.398V217.527H113.306V222.195H115.299V217.527H116.208V223H109.496V217.527ZM117.856 217.527H118.764V221.658L121.594 217.527H122.502V223H121.594V218.87L118.764 223H117.856V217.527ZM129.868 222.556C129.338 222.556 128.863 222.48 128.443 222.329C128.023 222.177 127.669 221.964 127.38 221.689C127.091 221.406 126.867 221.072 126.709 220.687C126.557 220.295 126.481 219.861 126.481 219.386V219.179C126.481 218.759 126.557 218.367 126.709 218.002C126.867 217.637 127.091 217.324 127.38 217.063C127.669 216.801 128.023 216.594 128.443 216.443C128.863 216.292 129.338 216.216 129.868 216.216V215.462H130.839V216.216C131.369 216.216 131.844 216.292 132.264 216.443C132.684 216.594 133.038 216.801 133.327 217.063C133.617 217.324 133.837 217.637 133.988 218.002C134.147 218.367 134.226 218.759 134.226 219.179V219.386C134.226 219.861 134.147 220.295 133.988 220.687C133.837 221.072 133.617 221.406 133.327 221.689C133.038 221.964 132.684 222.177 132.264 222.329C131.844 222.48 131.369 222.556 130.839 222.556V223.31H129.868V222.556ZM133.193 219.179C133.193 218.883 133.142 218.608 133.038 218.353C132.935 218.099 132.784 217.878 132.584 217.692C132.384 217.5 132.137 217.352 131.841 217.248C131.551 217.138 131.218 217.083 130.839 217.083V221.689C131.218 221.689 131.551 221.634 131.841 221.523C132.137 221.413 132.384 221.258 132.584 221.059C132.784 220.859 132.935 220.618 133.038 220.336C133.142 220.054 133.193 219.737 133.193 219.386V219.179ZM127.514 219.386C127.514 219.737 127.566 220.054 127.669 220.336C127.772 220.618 127.924 220.859 128.123 221.059C128.323 221.258 128.567 221.413 128.856 221.523C129.152 221.634 129.49 221.689 129.868 221.689V217.083C129.49 217.083 129.152 217.138 128.856 217.248C128.567 217.352 128.323 217.5 128.123 217.692C127.924 217.878 127.772 218.099 127.669 218.353C127.566 218.608 127.514 218.883 127.514 219.179V219.386ZM135.83 215.772H136.801V221.451L140.642 215.772H141.612V223H140.642V217.321L136.801 223H135.83V215.772ZM146.463 223.103C146.05 223.103 145.651 223.034 145.265 222.897C144.88 222.752 144.539 222.532 144.243 222.236C143.947 221.94 143.71 221.561 143.531 221.1C143.352 220.639 143.262 220.085 143.262 219.438V219.231C143.262 218.611 143.352 218.078 143.531 217.631C143.71 217.183 143.947 216.815 144.243 216.526C144.539 216.23 144.88 216.013 145.265 215.875C145.651 215.737 146.05 215.669 146.463 215.669C146.876 215.669 147.276 215.737 147.661 215.875C148.047 216.013 148.387 216.23 148.683 216.526C148.979 216.815 149.217 217.183 149.396 217.631C149.575 218.078 149.664 218.611 149.664 219.231V219.438C149.664 220.085 149.575 220.639 149.396 221.1C149.217 221.561 148.979 221.94 148.683 222.236C148.387 222.532 148.047 222.752 147.661 222.897C147.276 223.034 146.876 223.103 146.463 223.103ZM146.463 222.236C146.745 222.236 147.017 222.184 147.279 222.081C147.541 221.978 147.771 221.816 147.971 221.596C148.17 221.369 148.329 221.079 148.446 220.728C148.57 220.37 148.632 219.94 148.632 219.438V219.231C148.632 218.756 148.57 218.35 148.446 218.013C148.329 217.668 148.17 217.39 147.971 217.176C147.771 216.956 147.541 216.794 147.279 216.691C147.017 216.588 146.745 216.536 146.463 216.536C146.181 216.536 145.909 216.588 145.647 216.691C145.386 216.794 145.155 216.956 144.956 217.176C144.756 217.39 144.594 217.668 144.47 218.013C144.353 218.35 144.295 218.756 144.295 219.231V219.438C144.295 219.94 144.353 220.37 144.47 220.728C144.594 221.079 144.756 221.369 144.956 221.596C145.155 221.816 145.386 221.978 145.647 222.081C145.909 222.184 146.181 222.236 146.463 222.236Z" fill="#D5D5D5"/>
<rect x="44.3782" y="203.378" width="274.244" height="32.2436" rx="7.8825" stroke="#2261EB" stroke-width="0.756432"/>
</g>
<defs>
<filter id="filter0_d_7170_60600" x="0" y="0" width="648" height="280" filterUnits="userSpaceOnUse" color-interpolation-filters="sRGB">
<feFlood flood-opacity="0" result="BackgroundImageFix"/>
<feColorMatrix in="SourceAlpha" type="matrix" values="0 0 0 0 0 0 0 0 0 0 0 0 0 0 0 0 0 0 127 0" result="hardAlpha"/>
<feOffset/>
<feGaussianBlur stdDeviation="10"/>
<feComposite in2="hardAlpha" operator="out"/>
<feColorMatrix type="matrix" values="0 0 0 0 0.641198 0 0 0 0 0.761107 0 0 0 0 0.8125 0 0 0 0.6 0"/>
<feBlend mode="normal" in2="BackgroundImageFix" result="effect1_dropShadow_7170_60600"/>
<feBlend mode="normal" in="SourceGraphic" in2="effect1_dropShadow_7170_60600" result="shape"/>
</filter>
</defs>
</svg>
