<svg width="648" height="280" viewBox="0 0 648 280" fill="none" xmlns="http://www.w3.org/2000/svg">
<g filter="url(#filter0_d_7170_61342)">
<rect x="20" y="20" width="608" height="240" rx="24" fill="#FCFDFF"/>
<rect x="105.5" y="80" width="120" height="120" rx="60" fill="#FBB36C"/>
<path d="M167.43 173C164.295 173 161.517 172.01 159.097 170.03C156.677 168.05 155.165 165.52 154.56 162.44C151.645 163.375 148.702 163.32 145.732 162.275C142.762 161.23 140.48 159.415 138.885 156.83C137.235 154.19 136.63 151.261 137.07 148.044C137.51 144.826 138.94 142.145 141.36 140C139.05 137.91 137.661 135.325 137.193 132.245C136.726 129.165 137.235 126.305 138.72 123.665C140.205 121.025 142.446 119.114 145.443 117.931C148.441 116.749 151.425 116.625 154.395 117.56C155 114.48 156.512 111.95 158.932 109.97C161.352 107.99 164.13 107 167.265 107C170.4 107 173.177 107.99 175.597 109.97C178.017 111.95 179.53 114.48 180.135 117.56C183.215 116.625 186.198 116.708 189.086 117.807C191.973 118.908 194.215 120.86 195.81 123.665C197.295 126.415 197.831 129.289 197.418 132.286C197.006 135.284 195.59 137.855 193.17 140C195.59 142.145 197.033 144.799 197.501 147.961C197.968 151.124 197.46 154.08 195.975 156.83C194.38 159.635 192.138 161.505 189.251 162.44C186.363 163.375 183.38 163.375 180.3 162.44C179.695 165.52 178.182 168.05 175.762 170.03C173.342 172.01 170.565 173 167.43 173ZM167.265 153.2C170.895 153.2 174.002 151.907 176.587 149.322C179.172 146.737 180.465 143.63 180.465 140C180.465 136.37 179.172 133.263 176.587 130.677C174.002 128.093 170.895 126.8 167.265 126.8C163.635 126.8 160.527 128.093 157.942 130.677C155.357 133.263 154.065 136.37 154.065 140C154.065 143.63 155.357 146.737 157.942 149.322C160.527 151.907 163.635 153.2 167.265 153.2Z" fill="#FBFBFB"/>
<path d="M263.42 112.66C262.78 112.66 262.161 112.553 261.564 112.34C260.967 112.116 260.439 111.775 259.98 111.316C259.521 110.857 259.153 110.271 258.876 109.556C258.599 108.841 258.46 107.983 258.46 106.98V106.66C258.46 105.7 258.599 104.873 258.876 104.18C259.153 103.487 259.521 102.916 259.98 102.468C260.439 102.009 260.967 101.673 261.564 101.46C262.161 101.247 262.78 101.14 263.42 101.14C264.06 101.14 264.679 101.247 265.276 101.46C265.873 101.673 266.401 102.009 266.86 102.468C267.319 102.916 267.687 103.487 267.964 104.18C268.241 104.873 268.38 105.7 268.38 106.66V106.98C268.38 107.983 268.241 108.841 267.964 109.556C267.687 110.271 267.319 110.857 266.86 111.316C266.401 111.775 265.873 112.116 265.276 112.34C264.679 112.553 264.06 112.66 263.42 112.66ZM263.42 111.316C263.857 111.316 264.279 111.236 264.684 111.076C265.089 110.916 265.447 110.665 265.756 110.324C266.065 109.972 266.311 109.524 266.492 108.98C266.684 108.425 266.78 107.759 266.78 106.98V106.66C266.78 105.924 266.684 105.295 266.492 104.772C266.311 104.239 266.065 103.807 265.756 103.476C265.447 103.135 265.089 102.884 264.684 102.724C264.279 102.564 263.857 102.484 263.42 102.484C262.983 102.484 262.561 102.564 262.156 102.724C261.751 102.884 261.393 103.135 261.084 103.476C260.775 103.807 260.524 104.239 260.332 104.772C260.151 105.295 260.06 105.924 260.06 106.66V106.98C260.06 107.759 260.151 108.425 260.332 108.98C260.524 109.524 260.775 109.972 261.084 110.324C261.393 110.665 261.751 110.916 262.156 111.076C262.561 111.236 262.983 111.316 263.42 111.316ZM272.56 105.268H269.664V104.02H276.864V105.268H273.968V112.5H272.56V105.268ZM278.468 104.02H285.508V112.5H284.1V105.268H279.876V112.5H278.468V104.02ZM288.061 104.02H289.373V105.62C289.661 105.055 290.061 104.623 290.573 104.324C291.096 104.015 291.699 103.86 292.381 103.86C293.448 103.86 294.301 104.212 294.941 104.916C295.581 105.609 295.901 106.644 295.901 108.02V108.34C295.901 109.065 295.816 109.7 295.645 110.244C295.475 110.777 295.235 111.225 294.925 111.588C294.616 111.94 294.243 112.207 293.805 112.388C293.379 112.569 292.904 112.66 292.381 112.66C291.656 112.66 291.048 112.5 290.557 112.18C290.077 111.86 289.715 111.46 289.469 110.98V115.7H288.061V104.02ZM292.061 111.412C292.403 111.412 292.723 111.348 293.021 111.22C293.32 111.081 293.576 110.884 293.789 110.628C294.013 110.372 294.184 110.052 294.301 109.668C294.429 109.284 294.493 108.841 294.493 108.34V108.02C294.493 107.561 294.429 107.151 294.301 106.788C294.184 106.425 294.013 106.121 293.789 105.876C293.576 105.62 293.32 105.428 293.021 105.3C292.723 105.172 292.403 105.108 292.061 105.108C291.677 105.108 291.325 105.172 291.005 105.3C290.685 105.417 290.413 105.588 290.189 105.812C289.965 106.025 289.789 106.281 289.661 106.58C289.533 106.879 289.469 107.199 289.469 107.54V108.82C289.469 109.204 289.533 109.556 289.661 109.876C289.789 110.196 289.965 110.468 290.189 110.692C290.413 110.916 290.685 111.092 291.005 111.22C291.325 111.348 291.677 111.412 292.061 111.412ZM300.321 112.66C299.852 112.66 299.436 112.596 299.073 112.468C298.721 112.329 298.422 112.143 298.177 111.908C297.932 111.673 297.745 111.396 297.617 111.076C297.489 110.756 297.425 110.404 297.425 110.02C297.425 109.177 297.67 108.569 298.161 108.196C298.662 107.823 299.377 107.636 300.305 107.636H303.057V107.06C303.057 106.335 302.892 105.833 302.561 105.556C302.241 105.279 301.756 105.14 301.105 105.14C300.497 105.14 300.054 105.257 299.777 105.492C299.5 105.716 299.345 105.972 299.313 106.26H297.905C297.926 105.919 298.017 105.604 298.177 105.316C298.348 105.017 298.572 104.761 298.849 104.548C299.137 104.335 299.478 104.169 299.873 104.052C300.268 103.924 300.705 103.86 301.185 103.86C302.188 103.86 302.982 104.1 303.569 104.58C304.166 105.049 304.465 105.823 304.465 106.9V110.34C304.465 110.788 304.465 111.183 304.465 111.524C304.476 111.855 304.502 112.18 304.545 112.5H303.313C303.281 112.255 303.26 112.025 303.249 111.812C303.238 111.588 303.233 111.337 303.233 111.06C303.009 111.508 302.646 111.887 302.145 112.196C301.644 112.505 301.036 112.66 300.321 112.66ZM300.625 111.38C300.956 111.38 301.265 111.337 301.553 111.252C301.852 111.156 302.113 111.023 302.337 110.852C302.561 110.671 302.737 110.452 302.865 110.196C302.993 109.94 303.057 109.641 303.057 109.3V108.724H300.545C300.022 108.724 299.612 108.831 299.313 109.044C299.014 109.247 298.865 109.572 298.865 110.02C298.865 110.415 299.004 110.74 299.281 110.996C299.569 111.252 300.017 111.38 300.625 111.38ZM306.952 104.02H310.632C311.677 104.02 312.445 104.239 312.936 104.676C313.427 105.103 313.672 105.657 313.672 106.34C313.672 106.521 313.64 106.708 313.576 106.9C313.512 107.081 313.421 107.252 313.304 107.412C313.197 107.572 313.064 107.711 312.904 107.828C312.755 107.945 312.584 108.036 312.392 108.1C312.915 108.228 313.309 108.473 313.576 108.836C313.853 109.188 313.992 109.604 313.992 110.084C313.992 110.82 313.747 111.407 313.256 111.844C312.765 112.281 311.997 112.5 310.952 112.5H306.952V104.02ZM310.952 111.252C311.549 111.252 311.971 111.145 312.216 110.932C312.461 110.719 312.584 110.415 312.584 110.02C312.584 109.615 312.461 109.305 312.216 109.092C311.971 108.868 311.549 108.756 310.952 108.756H308.36V111.252H310.952ZM310.632 107.604C311.24 107.604 311.661 107.497 311.896 107.284C312.141 107.071 312.264 106.777 312.264 106.404C312.264 106.052 312.141 105.775 311.896 105.572C311.661 105.369 311.24 105.268 310.632 105.268H308.36V107.604H310.632ZM315.999 104.02H317.407V107.572H318.527L321.695 104.02H323.359L319.679 108.084L323.519 112.5H321.727L318.527 108.788H317.407V112.5H315.999V104.02ZM327.462 112.66C326.992 112.66 326.576 112.596 326.214 112.468C325.862 112.329 325.563 112.143 325.318 111.908C325.072 111.673 324.886 111.396 324.758 111.076C324.63 110.756 324.566 110.404 324.566 110.02C324.566 109.177 324.811 108.569 325.302 108.196C325.803 107.823 326.518 107.636 327.446 107.636H330.198V107.06C330.198 106.335 330.032 105.833 329.702 105.556C329.382 105.279 328.896 105.14 328.246 105.14C327.638 105.14 327.195 105.257 326.918 105.492C326.64 105.716 326.486 105.972 326.454 106.26H325.046C325.067 105.919 325.158 105.604 325.318 105.316C325.488 105.017 325.712 104.761 325.99 104.548C326.278 104.335 326.619 104.169 327.014 104.052C327.408 103.924 327.846 103.86 328.326 103.86C329.328 103.86 330.123 104.1 330.71 104.58C331.307 105.049 331.606 105.823 331.606 106.9V110.34C331.606 110.788 331.606 111.183 331.606 111.524C331.616 111.855 331.643 112.18 331.686 112.5H330.454C330.422 112.255 330.4 112.025 330.39 111.812C330.379 111.588 330.374 111.337 330.374 111.06C330.15 111.508 329.787 111.887 329.286 112.196C328.784 112.505 328.176 112.66 327.462 112.66ZM327.766 111.38C328.096 111.38 328.406 111.337 328.694 111.252C328.992 111.156 329.254 111.023 329.478 110.852C329.702 110.671 329.878 110.452 330.006 110.196C330.134 109.94 330.198 109.641 330.198 109.3V108.724H327.686C327.163 108.724 326.752 108.831 326.454 109.044C326.155 109.247 326.006 109.572 326.006 110.02C326.006 110.415 326.144 110.74 326.422 110.996C326.71 111.252 327.158 111.38 327.766 111.38ZM340.973 112.66C339.906 112.66 339.069 112.436 338.461 111.988C337.853 111.54 337.517 110.911 337.453 110.1H338.861C338.935 110.516 339.154 110.836 339.517 111.06C339.89 111.273 340.375 111.38 340.973 111.38C341.709 111.38 342.242 111.257 342.573 111.012C342.914 110.756 343.085 110.452 343.085 110.1C343.085 109.684 342.946 109.359 342.669 109.124C342.391 108.879 341.911 108.756 341.229 108.756H339.773V107.604H341.133C341.719 107.604 342.135 107.492 342.381 107.268C342.637 107.044 342.765 106.729 342.765 106.324C342.765 106.004 342.615 105.727 342.317 105.492C342.018 105.257 341.57 105.14 340.973 105.14C340.322 105.14 339.847 105.247 339.549 105.46C339.261 105.663 339.085 105.956 339.021 106.34H337.613C337.645 105.988 337.741 105.663 337.901 105.364C338.071 105.055 338.301 104.788 338.589 104.564C338.877 104.34 339.218 104.169 339.613 104.052C340.018 103.924 340.471 103.86 340.973 103.86C341.517 103.86 341.986 103.924 342.381 104.052C342.786 104.169 343.122 104.34 343.389 104.564C343.655 104.777 343.853 105.033 343.981 105.332C344.109 105.631 344.173 105.961 344.173 106.324C344.173 106.729 344.071 107.087 343.869 107.396C343.666 107.695 343.341 107.929 342.893 108.1C343.49 108.26 343.906 108.516 344.141 108.868C344.375 109.22 344.493 109.631 344.493 110.1C344.493 110.452 344.418 110.783 344.269 111.092C344.119 111.401 343.895 111.673 343.597 111.908C343.309 112.132 342.941 112.313 342.493 112.452C342.055 112.591 341.549 112.66 340.973 112.66ZM348.915 112.66C348.445 112.66 348.029 112.596 347.667 112.468C347.315 112.329 347.016 112.143 346.771 111.908C346.525 111.673 346.339 111.396 346.211 111.076C346.083 110.756 346.019 110.404 346.019 110.02C346.019 109.177 346.264 108.569 346.755 108.196C347.256 107.823 347.971 107.636 348.899 107.636H351.651V107.06C351.651 106.335 351.485 105.833 351.155 105.556C350.835 105.279 350.349 105.14 349.699 105.14C349.091 105.14 348.648 105.257 348.371 105.492C348.093 105.716 347.939 105.972 347.907 106.26H346.499C346.52 105.919 346.611 105.604 346.771 105.316C346.941 105.017 347.165 104.761 347.443 104.548C347.731 104.335 348.072 104.169 348.467 104.052C348.861 103.924 349.299 103.86 349.779 103.86C350.781 103.86 351.576 104.1 352.163 104.58C352.76 105.049 353.059 105.823 353.059 106.9V110.34C353.059 110.788 353.059 111.183 353.059 111.524C353.069 111.855 353.096 112.18 353.139 112.5H351.907C351.875 112.255 351.853 112.025 351.843 111.812C351.832 111.588 351.827 111.337 351.827 111.06C351.603 111.508 351.24 111.887 350.739 112.196C350.237 112.505 349.629 112.66 348.915 112.66ZM349.219 111.38C349.549 111.38 349.859 111.337 350.147 111.252C350.445 111.156 350.707 111.023 350.931 110.852C351.155 110.671 351.331 110.452 351.459 110.196C351.587 109.94 351.651 109.641 351.651 109.3V108.724H349.139C348.616 108.724 348.205 108.831 347.907 109.044C347.608 109.247 347.459 109.572 347.459 110.02C347.459 110.415 347.597 110.74 347.875 110.996C348.163 111.252 348.611 111.38 349.219 111.38ZM355.546 104.02H356.954V107.572H358.074L361.242 104.02H362.906L359.226 108.084L363.066 112.5H361.274L358.074 108.788H356.954V112.5H355.546V104.02ZM367.009 112.66C366.539 112.66 366.123 112.596 365.761 112.468C365.409 112.329 365.11 112.143 364.865 111.908C364.619 111.673 364.433 111.396 364.305 111.076C364.177 110.756 364.113 110.404 364.113 110.02C364.113 109.177 364.358 108.569 364.849 108.196C365.35 107.823 366.065 107.636 366.993 107.636H369.745V107.06C369.745 106.335 369.579 105.833 369.249 105.556C368.929 105.279 368.443 105.14 367.793 105.14C367.185 105.14 366.742 105.257 366.465 105.492C366.187 105.716 366.033 105.972 366.001 106.26H364.593C364.614 105.919 364.705 105.604 364.865 105.316C365.035 105.017 365.259 104.761 365.537 104.548C365.825 104.335 366.166 104.169 366.561 104.052C366.955 103.924 367.393 103.86 367.873 103.86C368.875 103.86 369.67 104.1 370.257 104.58C370.854 105.049 371.153 105.823 371.153 106.9V110.34C371.153 110.788 371.153 111.183 371.153 111.524C371.163 111.855 371.19 112.18 371.233 112.5H370.001C369.969 112.255 369.947 112.025 369.937 111.812C369.926 111.588 369.921 111.337 369.921 111.06C369.697 111.508 369.334 111.887 368.833 112.196C368.331 112.505 367.723 112.66 367.009 112.66ZM367.312 111.38C367.643 111.38 367.953 111.337 368.241 111.252C368.539 111.156 368.801 111.023 369.025 110.852C369.249 110.671 369.425 110.452 369.553 110.196C369.681 109.94 369.745 109.641 369.745 109.3V108.724H367.233C366.71 108.724 366.299 108.831 366.001 109.044C365.702 109.247 365.553 109.572 365.553 110.02C365.553 110.415 365.691 110.74 365.969 110.996C366.257 111.252 366.705 111.38 367.312 111.38ZM376.519 112.66C375.453 112.66 374.615 112.436 374.007 111.988C373.399 111.54 373.063 110.911 372.999 110.1H374.407C374.482 110.516 374.701 110.836 375.063 111.06C375.437 111.273 375.922 111.38 376.519 111.38C377.255 111.38 377.789 111.257 378.119 111.012C378.461 110.756 378.631 110.452 378.631 110.1C378.631 109.684 378.493 109.359 378.215 109.124C377.938 108.879 377.458 108.756 376.775 108.756H375.319V107.604H376.679C377.266 107.604 377.682 107.492 377.927 107.268C378.183 107.044 378.311 106.729 378.311 106.324C378.311 106.004 378.162 105.727 377.863 105.492C377.565 105.257 377.117 105.14 376.519 105.14C375.869 105.14 375.394 105.247 375.095 105.46C374.807 105.663 374.631 105.956 374.567 106.34H373.159C373.191 105.988 373.287 105.663 373.447 105.364C373.618 105.055 373.847 104.788 374.135 104.564C374.423 104.34 374.765 104.169 375.159 104.052C375.565 103.924 376.018 103.86 376.519 103.86C377.063 103.86 377.533 103.924 377.927 104.052C378.333 104.169 378.669 104.34 378.935 104.564C379.202 104.777 379.399 105.033 379.527 105.332C379.655 105.631 379.719 105.961 379.719 106.324C379.719 106.729 379.618 107.087 379.415 107.396C379.213 107.695 378.887 107.929 378.439 108.1C379.037 108.26 379.453 108.516 379.687 108.868C379.922 109.22 380.039 109.631 380.039 110.1C380.039 110.452 379.965 110.783 379.815 111.092C379.666 111.401 379.442 111.673 379.143 111.908C378.855 112.132 378.487 112.313 378.039 112.452C377.602 112.591 377.095 112.66 376.519 112.66ZM384.462 112.66C383.992 112.66 383.576 112.596 383.214 112.468C382.862 112.329 382.563 112.143 382.318 111.908C382.072 111.673 381.886 111.396 381.758 111.076C381.63 110.756 381.566 110.404 381.566 110.02C381.566 109.177 381.811 108.569 382.302 108.196C382.803 107.823 383.518 107.636 384.446 107.636H387.198V107.06C387.198 106.335 387.032 105.833 386.702 105.556C386.382 105.279 385.896 105.14 385.246 105.14C384.638 105.14 384.195 105.257 383.918 105.492C383.64 105.716 383.486 105.972 383.454 106.26H382.046C382.067 105.919 382.158 105.604 382.318 105.316C382.488 105.017 382.712 104.761 382.99 104.548C383.278 104.335 383.619 104.169 384.014 104.052C384.408 103.924 384.846 103.86 385.326 103.86C386.328 103.86 387.123 104.1 387.71 104.58C388.307 105.049 388.606 105.823 388.606 106.9V110.34C388.606 110.788 388.606 111.183 388.606 111.524C388.616 111.855 388.643 112.18 388.686 112.5H387.454C387.422 112.255 387.4 112.025 387.39 111.812C387.379 111.588 387.374 111.337 387.374 111.06C387.15 111.508 386.787 111.887 386.286 112.196C385.784 112.505 385.176 112.66 384.462 112.66ZM384.766 111.38C385.096 111.38 385.406 111.337 385.694 111.252C385.992 111.156 386.254 111.023 386.478 110.852C386.702 110.671 386.878 110.452 387.006 110.196C387.134 109.94 387.198 109.641 387.198 109.3V108.724H384.686C384.163 108.724 383.752 108.831 383.454 109.044C383.155 109.247 383.006 109.572 383.006 110.02C383.006 110.415 383.144 110.74 383.422 110.996C383.71 111.252 384.158 111.38 384.766 111.38Z" fill="#1F1F25" fill-opacity="0.8"/>
<g opacity="0.5">
<mask id="mask0_7170_61342" style="mask-type:alpha" maskUnits="userSpaceOnUse" x="292" y="120" width="64" height="65">
<rect x="292" y="120.5" width="64" height="64" fill="#D9D9D9"/>
</mask>
<g mask="url(#mask0_7170_61342)">
<path d="M310.8 173.834L300 163.034L310.8 152.234L313.6 155.034L307.6 161.034H326.667V165.034H307.6L313.6 171.034L310.8 173.834ZM332.667 165.034C332.133 165.034 331.667 164.834 331.267 164.434C330.867 164.034 330.667 163.567 330.667 163.034C330.667 162.456 330.867 161.978 331.267 161.6C331.667 161.223 332.133 161.034 332.667 161.034C333.244 161.034 333.722 161.223 334.1 161.6C334.478 161.978 334.667 162.456 334.667 163.034C334.667 163.567 334.478 164.034 334.1 164.434C333.722 164.834 333.244 165.034 332.667 165.034ZM340.667 165.034C340.133 165.034 339.667 164.834 339.267 164.434C338.867 164.034 338.667 163.567 338.667 163.034C338.667 162.456 338.867 161.978 339.267 161.6C339.667 161.223 340.133 161.034 340.667 161.034C341.244 161.034 341.722 161.223 342.1 161.6C342.478 161.978 342.667 162.456 342.667 163.034C342.667 163.567 342.478 164.034 342.1 164.434C341.722 164.834 341.244 165.034 340.667 165.034ZM337.2 152.767L334.4 149.967L340.4 143.967H321.333V139.967H340.4L334.4 133.967L337.2 131.167L348 141.967L337.2 152.767ZM307.333 143.967C306.8 143.967 306.333 143.767 305.933 143.367C305.533 142.967 305.333 142.5 305.333 141.967C305.333 141.389 305.533 140.911 305.933 140.534C306.333 140.156 306.8 139.967 307.333 139.967C307.911 139.967 308.389 140.156 308.767 140.534C309.144 140.911 309.333 141.389 309.333 141.967C309.333 142.5 309.144 142.967 308.767 143.367C308.389 143.767 307.911 143.967 307.333 143.967ZM315.333 143.967C314.8 143.967 314.333 143.767 313.933 143.367C313.533 142.967 313.333 142.5 313.333 141.967C313.333 141.389 313.533 140.911 313.933 140.534C314.333 140.156 314.8 139.967 315.333 139.967C315.911 139.967 316.389 140.156 316.767 140.534C317.144 140.911 317.333 141.389 317.333 141.967C317.333 142.5 317.144 142.967 316.767 143.367C316.389 143.767 315.911 143.967 315.333 143.967Z" fill="#2261EB"/>
</g>
</g>
<rect x="422.5" y="80" width="120" height="120" rx="60" fill="#EEF0FE"/>
<path d="M492.399 139.855C492.399 145.689 487.659 150.418 481.812 150.418C475.965 150.418 471.225 145.689 471.225 139.855C471.225 134.021 475.965 129.292 481.812 129.292C487.659 129.292 492.399 134.021 492.399 139.855Z" fill="#E87595"/>
<path d="M519.848 139.965L519.851 139.708C519.851 139.516 519.853 139.329 519.848 139.135L519.802 137.622L513.025 137.625L510.759 137.733L510.751 140.925C510.537 145.956 508.593 150.327 504.973 153.919C501.135 157.748 496.44 159.691 491.021 159.691H488.677L488.679 168.71L490.471 168.773C490.653 168.787 490.836 168.797 491.022 168.797C491.209 168.797 491.387 168.787 491.563 168.773L491.842 168.761C499.448 168.567 506.039 165.743 511.432 160.362C516.823 154.981 519.656 148.394 519.85 140.778C519.852 140.621 519.852 140.468 519.85 140.228L519.848 139.965Z" fill="#FBB36C"/>
<path d="M468.059 153.919C464.221 150.087 462.274 145.406 462.274 139.999C462.274 134.594 464.223 129.909 468.065 126.073C471.904 122.221 476.596 120.267 482.013 120.267C487.43 120.267 492.125 122.223 495.969 126.081C499.215 129.305 501.09 133.187 501.589 137.618H510.712C510.188 130.671 507.415 124.618 502.423 119.634C496.816 114.039 489.949 111.2 482.013 111.2C474.078 111.2 467.21 114.039 461.603 119.634C455.991 125.232 453.147 132.083 453.147 139.999C453.147 147.914 455.991 154.766 461.604 160.364C466.994 165.742 473.584 168.568 481.194 168.762L482.746 168.8V159.727L481.282 159.68C476.174 159.516 471.725 157.575 468.059 153.919Z" fill="#00AAB2"/>
</g>
<defs>
<filter id="filter0_d_7170_61342" x="0" y="0" width="648" height="280" filterUnits="userSpaceOnUse" color-interpolation-filters="sRGB">
<feFlood flood-opacity="0" result="BackgroundImageFix"/>
<feColorMatrix in="SourceAlpha" type="matrix" values="0 0 0 0 0 0 0 0 0 0 0 0 0 0 0 0 0 0 127 0" result="hardAlpha"/>
<feOffset/>
<feGaussianBlur stdDeviation="10"/>
<feComposite in2="hardAlpha" operator="out"/>
<feColorMatrix type="matrix" values="0 0 0 0 0.641198 0 0 0 0 0.761107 0 0 0 0 0.8125 0 0 0 0.6 0"/>
<feBlend mode="normal" in2="BackgroundImageFix" result="effect1_dropShadow_7170_61342"/>
<feBlend mode="normal" in="SourceGraphic" in2="effect1_dropShadow_7170_61342" result="shape"/>
</filter>
</defs>
</svg>
