<svg width="648" height="280" viewBox="0 0 648 280" fill="none" xmlns="http://www.w3.org/2000/svg">
<g filter="url(#filter0_d_7170_61355)">
<rect x="20" y="20" width="608" height="240" rx="24" fill="#FCFDFF"/>
<rect x="44" y="44" width="180" height="192" rx="16" fill="#F2F6FF"/>
<g opacity="0.5">
<path d="M66 83.9999C64.3546 83.9999 62.802 83.6845 61.3421 83.0538C59.8822 82.423 58.6089 81.5643 57.5223 80.4777C56.4356 79.391 55.5769 78.1178 54.9462 76.6578C54.3154 75.1979 54 73.6453 54 72C54 70.3417 54.3154 68.7858 54.9462 67.3324C55.5769 65.8789 56.4356 64.6089 57.5223 63.5223C58.6089 62.4356 59.8822 61.5769 61.3421 60.9462C62.802 60.3154 64.3546 60 66 60C67.6583 60 69.2141 60.3154 70.6676 60.9462C72.121 61.5769 73.391 62.4356 74.4777 63.5223C75.5643 64.6089 76.423 65.8789 77.0538 67.3324C77.6845 68.7858 77.9999 70.3417 77.9999 72C77.9999 73.6453 77.6845 75.1979 77.0538 76.6578C76.423 78.1178 75.5643 79.391 74.4777 80.4777C73.391 81.5643 72.121 82.423 70.6676 83.0538C69.2141 83.6845 67.6583 83.9999 66 83.9999ZM66 82.0785C66.6445 81.2234 67.187 80.3611 67.6275 79.4914C68.068 78.6218 68.4267 77.6712 68.7036 76.6396H63.2963C63.5894 77.7036 63.9522 78.6704 64.3846 79.54C64.817 80.4097 65.3554 81.2558 66 82.0785ZM63.5539 81.7311C63.0697 81.0364 62.6348 80.2465 62.2494 79.3615C61.864 78.4765 61.5644 77.5692 61.3506 76.6396H57.0655C57.7327 77.9514 58.6275 79.0534 59.7498 79.9457C60.8721 80.8381 62.1401 81.4332 63.5539 81.7311ZM68.4461 81.7311C69.8598 81.4332 71.1279 80.8381 72.2502 79.9457C73.3724 79.0534 74.2672 77.9514 74.9344 76.6396H70.6493C70.3951 77.5773 70.0752 78.4886 69.6898 79.3737C69.3044 80.2587 68.8898 81.0445 68.4461 81.7311ZM56.2712 74.7449H60.9668C60.8874 74.2753 60.83 73.815 60.7943 73.364C60.7587 72.9129 60.7409 72.4583 60.7409 72C60.7409 71.5417 60.7587 71.087 60.7943 70.636C60.83 70.185 60.8874 69.7246 60.9668 69.255H56.2712C56.1498 69.6842 56.0567 70.1303 55.9919 70.5935C55.9271 71.0566 55.8947 71.5255 55.8947 72C55.8947 72.4745 55.9271 72.9433 55.9919 73.4065C56.0567 73.8696 56.1498 74.3158 56.2712 74.7449ZM62.8615 74.7449H69.1384C69.2178 74.2753 69.2753 73.819 69.3109 73.3761C69.3465 72.9332 69.3644 72.4745 69.3644 72C69.3644 71.5255 69.3465 71.0668 69.3109 70.6239C69.2753 70.1809 69.2178 69.7246 69.1384 69.255H62.8615C62.7821 69.7246 62.7247 70.1809 62.689 70.6239C62.6534 71.0668 62.6356 71.5255 62.6356 72C62.6356 72.4745 62.6534 72.9332 62.689 73.3761C62.7247 73.819 62.7821 74.2753 62.8615 74.7449ZM71.0331 74.7449H75.7287C75.8502 74.3158 75.9433 73.8696 76.0081 73.4065C76.0728 72.9433 76.1052 72.4745 76.1052 72C76.1052 71.5255 76.0728 71.0566 76.0081 70.5935C75.9433 70.1303 75.8502 69.6842 75.7287 69.255H71.0331C71.1125 69.7246 71.17 70.185 71.2056 70.636C71.2412 71.087 71.259 71.5417 71.259 72C71.259 72.4583 71.2412 72.9129 71.2056 73.364C71.17 73.815 71.1125 74.2753 71.0331 74.7449ZM70.6493 67.3603H74.9344C74.2591 66.0324 73.3704 64.9303 72.2684 64.0542C71.1663 63.1781 69.8922 62.5789 68.4461 62.2566C68.9303 62.9919 69.3611 63.7959 69.7384 64.6688C70.1157 65.5417 70.4194 66.4389 70.6493 67.3603ZM63.2963 67.3603H68.7036C68.4105 66.3045 68.0417 65.3316 67.5971 64.4417C67.1526 63.5518 66.6202 62.7117 66 61.9214C65.3797 62.7117 64.8473 63.5518 64.4028 64.4417C63.9583 65.3316 63.5894 66.3045 63.2963 67.3603ZM57.0655 67.3603H61.3506C61.5806 66.4389 61.8842 65.5417 62.2616 64.6688C62.6389 63.7959 63.0697 62.9919 63.5539 62.2566C62.0996 62.5789 60.8235 63.1801 59.7255 64.0603C58.6275 64.9405 57.7409 66.0405 57.0655 67.3603Z" fill="#2261EB"/>
</g>
<path d="M55 102H55.94V107.5L59.66 102H60.6V109H59.66V103.5L55.94 109H55V102ZM64.4477 109.1C64.1077 109.1 63.791 109.047 63.4977 108.94C63.2043 108.827 62.951 108.66 62.7377 108.44C62.5243 108.213 62.3543 107.93 62.2277 107.59C62.1077 107.25 62.0477 106.853 62.0477 106.4V106.2C62.0477 105.773 62.1143 105.397 62.2477 105.07C62.381 104.743 62.5577 104.473 62.7777 104.26C62.9977 104.04 63.251 103.877 63.5377 103.77C63.831 103.657 64.1343 103.6 64.4477 103.6C64.761 103.6 65.041 103.643 65.2877 103.73C65.541 103.817 65.7577 103.937 65.9377 104.09C66.1243 104.243 66.2743 104.423 66.3877 104.63C66.5077 104.837 66.5943 105.06 66.6477 105.3H65.7477C65.6943 105.173 65.631 105.057 65.5577 104.95C65.491 104.837 65.4043 104.74 65.2977 104.66C65.1977 104.58 65.0777 104.517 64.9377 104.47C64.7977 104.423 64.6343 104.4 64.4477 104.4C64.2543 104.4 64.0677 104.437 63.8877 104.51C63.7077 104.577 63.5477 104.683 63.4077 104.83C63.2677 104.97 63.1543 105.153 63.0677 105.38C62.9877 105.607 62.9477 105.88 62.9477 106.2V106.4C62.9477 106.74 62.9877 107.033 63.0677 107.28C63.1543 107.52 63.2677 107.717 63.4077 107.87C63.5477 108.017 63.7077 108.127 63.8877 108.2C64.0677 108.267 64.2543 108.3 64.4477 108.3C64.7743 108.3 65.0477 108.22 65.2677 108.06C65.4943 107.9 65.6543 107.68 65.7477 107.4H66.6477C66.521 107.927 66.261 108.343 65.8677 108.65C65.4743 108.95 65.001 109.1 64.4477 109.1ZM69.0569 104.48H67.2469V103.7H71.7469V104.48H69.9369V109H69.0569V104.48ZM74.8516 109.1C74.5116 109.1 74.1882 109.047 73.8816 108.94C73.5749 108.827 73.3049 108.66 73.0716 108.44C72.8382 108.213 72.6516 107.93 72.5116 107.59C72.3716 107.25 72.3016 106.853 72.3016 106.4V106.2C72.3016 105.773 72.3716 105.397 72.5116 105.07C72.6516 104.743 72.8382 104.473 73.0716 104.26C73.3049 104.04 73.5749 103.877 73.8816 103.77C74.1882 103.657 74.5116 103.6 74.8516 103.6C75.1916 103.6 75.5149 103.657 75.8216 103.77C76.1282 103.877 76.3982 104.04 76.6316 104.26C76.8649 104.473 77.0516 104.743 77.1916 105.07C77.3316 105.397 77.4016 105.773 77.4016 106.2V106.4C77.4016 106.853 77.3316 107.25 77.1916 107.59C77.0516 107.93 76.8649 108.213 76.6316 108.44C76.3982 108.66 76.1282 108.827 75.8216 108.94C75.5149 109.047 75.1916 109.1 74.8516 109.1ZM74.8516 108.3C75.0516 108.3 75.2516 108.267 75.4516 108.2C75.6516 108.127 75.8282 108.017 75.9816 107.87C76.1349 107.717 76.2582 107.52 76.3516 107.28C76.4516 107.04 76.5016 106.747 76.5016 106.4V106.2C76.5016 105.88 76.4516 105.607 76.3516 105.38C76.2582 105.153 76.1349 104.967 75.9816 104.82C75.8282 104.673 75.6516 104.567 75.4516 104.5C75.2516 104.433 75.0516 104.4 74.8516 104.4C74.6516 104.4 74.4516 104.433 74.2516 104.5C74.0516 104.567 73.8749 104.673 73.7216 104.82C73.5682 104.967 73.4416 105.153 73.3416 105.38C73.2482 105.607 73.2016 105.88 73.2016 106.2V106.4C73.2016 106.747 73.2482 107.04 73.3416 107.28C73.4416 107.52 73.5682 107.717 73.7216 107.87C73.8749 108.017 74.0516 108.127 74.2516 108.2C74.4516 108.267 74.6516 108.3 74.8516 108.3ZM81.7177 106.89C81.5643 106.983 81.3777 107.067 81.1577 107.14C80.9443 107.213 80.6743 107.25 80.3477 107.25C80.041 107.25 79.7643 107.217 79.5177 107.15C79.2777 107.083 79.0743 106.977 78.9077 106.83C78.741 106.683 78.6143 106.493 78.5277 106.26C78.441 106.027 78.3977 105.74 78.3977 105.4V103.7H79.2777V105.25C79.2777 105.477 79.2977 105.667 79.3377 105.82C79.3843 105.973 79.4577 106.097 79.5577 106.19C79.6577 106.283 79.7843 106.35 79.9377 106.39C80.091 106.43 80.2777 106.45 80.4977 106.45C80.7977 106.45 81.0543 106.42 81.2677 106.36C81.481 106.3 81.631 106.237 81.7177 106.17V103.7H82.5977V109H81.7177V106.89ZM84.1945 103.7H85.0745V105.91H87.8145V103.7H88.6945V109H87.8145V106.69H85.0745V109H84.1945V103.7ZM90.298 103.7H91.178V107.7L93.918 103.7H94.798V109H93.918V105L91.178 109H90.298V103.7ZM96.4016 103.7H97.2816V105.92H97.9816L99.9616 103.7H101.002L98.7016 106.24L101.102 109H99.9816L97.9816 106.68H97.2816V109H96.4016V103.7Z" fill="#1F1F25" fill-opacity="0.8"/>
<path opacity="0.5" d="M59.11 128.168C58.466 128.168 57.8733 128.075 57.332 127.888C56.8 127.701 56.338 127.412 55.946 127.02C55.554 126.619 55.246 126.101 55.022 125.466C54.8073 124.831 54.7 124.066 54.7 123.17V122.89C54.7 122.031 54.812 121.299 55.036 120.692C55.2693 120.076 55.582 119.572 55.974 119.18C56.3753 118.788 56.842 118.499 57.374 118.312C57.9153 118.125 58.494 118.032 59.11 118.032C59.6607 118.032 60.1787 118.097 60.664 118.228C61.1493 118.359 61.574 118.564 61.938 118.844C62.3113 119.115 62.61 119.465 62.834 119.894C63.0673 120.323 63.2027 120.832 63.24 121.42H61.056C60.9533 120.86 60.7293 120.449 60.384 120.188C60.0387 119.927 59.614 119.796 59.11 119.796C58.8207 119.796 58.5407 119.847 58.27 119.95C58.0087 120.053 57.7753 120.225 57.57 120.468C57.3647 120.711 57.1967 121.028 57.066 121.42C56.9447 121.812 56.884 122.302 56.884 122.89V123.17C56.884 123.786 56.9493 124.304 57.08 124.724C57.2107 125.135 57.3787 125.466 57.584 125.718C57.7987 125.961 58.0367 126.138 58.298 126.25C58.5687 126.353 58.8393 126.404 59.11 126.404C59.642 126.404 60.0807 126.269 60.426 125.998C60.7713 125.718 60.9813 125.312 61.056 124.78H63.24C63.1933 125.396 63.058 125.919 62.834 126.348C62.61 126.777 62.316 127.127 61.952 127.398C61.588 127.669 61.1633 127.865 60.678 127.986C60.1927 128.107 59.67 128.168 59.11 128.168ZM66.8687 128.168C66.4674 128.168 66.1127 128.112 65.8047 128C65.4967 127.879 65.2354 127.715 65.0207 127.51C64.8061 127.295 64.6427 127.048 64.5307 126.768C64.4187 126.479 64.3627 126.166 64.3627 125.83C64.3627 124.337 65.2494 123.59 67.0227 123.59H69.2347V123.24C69.2347 122.755 69.1227 122.414 68.8987 122.218C68.6841 122.022 68.3387 121.924 67.8627 121.924C67.4427 121.924 67.1394 121.999 66.9527 122.148C66.7661 122.288 66.6587 122.465 66.6307 122.68H64.7827C64.8014 122.363 64.8807 122.064 65.0207 121.784C65.1701 121.504 65.3754 121.266 65.6367 121.07C65.9074 120.865 66.2341 120.706 66.6167 120.594C66.9994 120.473 67.4381 120.412 67.9327 120.412C68.4087 120.412 68.8381 120.463 69.2207 120.566C69.6127 120.669 69.9441 120.837 70.2147 121.07C70.4947 121.294 70.7094 121.588 70.8587 121.952C71.0081 122.316 71.0827 122.755 71.0827 123.268V126.11C71.0827 126.502 71.0874 126.847 71.0967 127.146C71.1154 127.435 71.1434 127.72 71.1807 128H69.4587C69.4214 127.795 69.3981 127.641 69.3887 127.538C69.3887 127.426 69.3887 127.263 69.3887 127.048C69.1834 127.347 68.8707 127.608 68.4507 127.832C68.0401 128.056 67.5127 128.168 66.8687 128.168ZM67.4427 126.74C67.6667 126.74 67.8861 126.712 68.1007 126.656C68.3154 126.591 68.5067 126.497 68.6747 126.376C68.8427 126.245 68.9781 126.082 69.0807 125.886C69.1834 125.69 69.2347 125.461 69.2347 125.2V124.85H67.3727C67.0181 124.85 66.7381 124.934 66.5327 125.102C66.3367 125.261 66.2387 125.48 66.2387 125.76C66.2387 126.059 66.3414 126.297 66.5467 126.474C66.7521 126.651 67.0507 126.74 67.4427 126.74ZM72.6955 120.58H74.5435V125.34L77.8475 120.58H79.5555V128H77.7075V123.24L74.4035 128H72.6955V120.58ZM76.1255 119.81C75.2948 119.81 74.6881 119.633 74.3055 119.278C73.9321 118.923 73.7455 118.401 73.7455 117.71H75.3835C75.3835 118.074 75.4441 118.331 75.5655 118.48C75.6961 118.62 75.8828 118.69 76.1255 118.69C76.3868 118.69 76.5781 118.62 76.6995 118.48C76.8301 118.331 76.8955 118.074 76.8955 117.71H78.5055C78.5055 118.401 78.3141 118.923 77.9315 119.278C77.5581 119.633 76.9561 119.81 76.1255 119.81ZM83.0464 122.12H80.6804V120.58H87.2604V122.12H84.8944V128H83.0464V122.12Z" fill="#2261EB"/>
<path d="M57.55 149.1C57.1567 149.1 56.7833 149.033 56.43 148.9C56.0767 148.76 55.7633 148.547 55.49 148.26C55.2167 147.967 55 147.597 54.84 147.15C54.68 146.703 54.6 146.17 54.6 145.55V145.35C54.6 144.75 54.68 144.233 54.84 143.8C55 143.367 55.2167 143.01 55.49 142.73C55.7633 142.45 56.0767 142.243 56.43 142.11C56.7833 141.97 57.1567 141.9 57.55 141.9C57.93 141.9 58.2767 141.95 58.59 142.05C58.91 142.15 59.19 142.293 59.43 142.48C59.67 142.667 59.8633 142.897 60.01 143.17C60.1633 143.443 60.26 143.753 60.3 144.1H59.3C59.2067 143.647 59.01 143.307 58.71 143.08C58.41 142.853 58.0233 142.74 57.55 142.74C57.3033 142.74 57.0633 142.787 56.83 142.88C56.5967 142.973 56.3867 143.123 56.2 143.33C56.02 143.53 55.8733 143.797 55.76 144.13C55.6533 144.463 55.6 144.87 55.6 145.35V145.55C55.6 146.057 55.66 146.483 55.78 146.83C55.9 147.17 56.0533 147.447 56.24 147.66C56.4267 147.873 56.6367 148.027 56.87 148.12C57.1033 148.213 57.33 148.26 57.55 148.26C58.07 148.26 58.4767 148.133 58.77 147.88C59.0633 147.627 59.24 147.3 59.3 146.9H60.3C60.2467 147.287 60.14 147.62 59.98 147.9C59.82 148.173 59.6167 148.4 59.37 148.58C59.13 148.76 58.8533 148.893 58.54 148.98C58.2333 149.06 57.9033 149.1 57.55 149.1ZM62.2969 151.1C62.1969 151.1 62.0969 151.09 61.9969 151.07V150.27C62.0969 150.29 62.1969 150.3 62.2969 150.3C62.3969 150.3 62.4835 150.283 62.5569 150.25C62.6302 150.217 62.7002 150.153 62.7669 150.06C62.8335 149.967 62.9035 149.833 62.9769 149.66C63.0569 149.493 63.1469 149.273 63.2469 149L60.9969 143.7H61.9769L63.6969 148L65.2569 143.7H66.1969L64.1969 149C64.0569 149.373 63.9235 149.693 63.7969 149.96C63.6702 150.227 63.5335 150.443 63.3869 150.61C63.2469 150.783 63.0902 150.907 62.9169 150.98C62.7435 151.06 62.5369 151.1 62.2969 151.1ZM67.1926 143.7H68.1326L70.0226 147L71.9126 143.7H72.7926V149H71.9126V145.15L70.3426 147.85H69.6426L68.0726 145.15V149H67.1926V143.7ZM74.3898 143.7H75.3298L77.2198 147L79.1098 143.7H79.9898V149H79.1098V145.15L77.5398 147.85H76.8398L75.2698 145.15V149H74.3898V143.7ZM83.0971 149.1C82.8038 149.1 82.5438 149.06 82.3171 148.98C82.0971 148.893 81.9104 148.777 81.7571 148.63C81.6038 148.483 81.4871 148.31 81.4071 148.11C81.3271 147.91 81.2871 147.69 81.2871 147.45C81.2871 146.923 81.4404 146.543 81.7471 146.31C82.0604 146.077 82.5071 145.96 83.0871 145.96H84.8071V145.6C84.8071 145.147 84.7038 144.833 84.4971 144.66C84.2971 144.487 83.9938 144.4 83.5871 144.4C83.2071 144.4 82.9304 144.473 82.7571 144.62C82.5838 144.76 82.4871 144.92 82.4671 145.1H81.5871C81.6004 144.887 81.6571 144.69 81.7571 144.51C81.8638 144.323 82.0038 144.163 82.1771 144.03C82.3571 143.897 82.5704 143.793 82.8171 143.72C83.0638 143.64 83.3371 143.6 83.6371 143.6C84.2638 143.6 84.7604 143.75 85.1271 144.05C85.5004 144.343 85.6871 144.827 85.6871 145.5V147.65C85.6871 147.93 85.6871 148.177 85.6871 148.39C85.6938 148.597 85.7104 148.8 85.7371 149H84.9671C84.9471 148.847 84.9338 148.703 84.9271 148.57C84.9204 148.43 84.9171 148.273 84.9171 148.1C84.7771 148.38 84.5504 148.617 84.2371 148.81C83.9238 149.003 83.5438 149.1 83.0971 149.1ZM83.2871 148.3C83.4938 148.3 83.6871 148.273 83.8671 148.22C84.0538 148.16 84.2171 148.077 84.3571 147.97C84.4971 147.857 84.6071 147.72 84.6871 147.56C84.7671 147.4 84.8071 147.213 84.8071 147V146.64H83.2371C82.9104 146.64 82.6538 146.707 82.4671 146.84C82.2804 146.967 82.1871 147.17 82.1871 147.45C82.1871 147.697 82.2738 147.9 82.4471 148.06C82.6271 148.22 82.9071 148.3 83.2871 148.3Z" fill="#1F1F25" fill-opacity="0.8"/>
<path opacity="0.5" d="M58.41 168.168C57.822 168.168 57.29 168.103 56.814 167.972C56.3473 167.832 55.9507 167.641 55.624 167.398C55.3067 167.146 55.0593 166.847 54.882 166.502C54.714 166.147 54.63 165.755 54.63 165.326C54.63 164.775 54.798 164.285 55.134 163.856C55.47 163.417 55.9693 163.109 56.632 162.932C56.1373 162.773 55.7267 162.498 55.4 162.106C55.0733 161.714 54.91 161.247 54.91 160.706C54.91 160.314 54.9847 159.955 55.134 159.628C55.2927 159.301 55.5213 159.021 55.82 158.788C56.1187 158.545 56.4827 158.359 56.912 158.228C57.3507 158.097 57.85 158.032 58.41 158.032C58.97 158.032 59.4647 158.097 59.894 158.228C60.3327 158.359 60.7013 158.545 61 158.788C61.308 159.021 61.5367 159.301 61.686 159.628C61.8447 159.955 61.924 160.314 61.924 160.706C61.924 161.247 61.7607 161.709 61.434 162.092C61.1073 162.465 60.692 162.745 60.188 162.932C61.5227 163.343 62.19 164.141 62.19 165.326C62.19 165.755 62.1013 166.147 61.924 166.502C61.756 166.847 61.5087 167.146 61.182 167.398C60.8647 167.641 60.4727 167.832 60.006 167.972C59.5393 168.103 59.0073 168.168 58.41 168.168ZM58.41 166.404C58.9887 166.404 59.4133 166.292 59.684 166.068C59.9547 165.844 60.09 165.541 60.09 165.158C60.09 164.738 59.9313 164.407 59.614 164.164C59.306 163.912 58.9047 163.749 58.41 163.674C57.9153 163.749 57.5093 163.912 57.192 164.164C56.884 164.407 56.73 164.738 56.73 165.158C56.73 165.541 56.87 165.844 57.15 166.068C57.43 166.292 57.85 166.404 58.41 166.404ZM58.41 162.246C58.83 162.171 59.1707 162.027 59.432 161.812C59.6933 161.588 59.824 161.28 59.824 160.888C59.824 160.524 59.698 160.253 59.446 160.076C59.2033 159.889 58.858 159.796 58.41 159.796C57.9713 159.796 57.626 159.889 57.374 160.076C57.1313 160.253 57.01 160.524 57.01 160.888C57.01 161.28 57.136 161.588 57.388 161.812C57.6493 162.027 57.99 162.171 58.41 162.246ZM66.9484 168.168C66.015 168.168 65.2637 167.967 64.6944 167.566C64.125 167.165 63.7797 166.539 63.6584 165.69H65.6184C65.7117 165.933 65.861 166.115 66.0664 166.236C66.281 166.348 66.5984 166.404 67.0184 166.404C67.2704 166.404 67.5037 166.367 67.7184 166.292C67.9424 166.208 68.1384 166.063 68.3064 165.858C68.4744 165.643 68.6097 165.354 68.7124 164.99C68.815 164.626 68.8804 164.159 68.9084 163.59C68.787 163.777 68.6377 163.935 68.4604 164.066C68.283 164.187 68.087 164.29 67.8724 164.374C67.667 164.449 67.4477 164.505 67.2144 164.542C66.9904 164.579 66.7617 164.598 66.5284 164.598C65.539 164.598 64.7784 164.332 64.2464 163.8C63.7144 163.259 63.4484 162.498 63.4484 161.518V161.364C63.4484 160.869 63.537 160.417 63.7144 160.006C63.8917 159.595 64.1344 159.245 64.4424 158.956C64.7597 158.657 65.1377 158.429 65.5764 158.27C66.015 158.111 66.4957 158.032 67.0184 158.032C68.2597 158.032 69.2117 158.396 69.8744 159.124C70.537 159.852 70.8684 161.037 70.8684 162.68V162.946C70.8684 163.889 70.7704 164.691 70.5744 165.354C70.3784 166.007 70.103 166.544 69.7484 166.964C69.403 167.384 68.9877 167.692 68.5024 167.888C68.0264 168.075 67.5084 168.168 66.9484 168.168ZM67.1584 162.974C67.6624 162.974 68.0544 162.834 68.3344 162.554C68.6237 162.274 68.7684 161.91 68.7684 161.462V161.322C68.7684 160.883 68.619 160.519 68.3204 160.23C68.031 159.941 67.6437 159.796 67.1584 159.796C66.6544 159.796 66.2577 159.941 65.9684 160.23C65.6884 160.51 65.5484 160.874 65.5484 161.322V161.462C65.5484 161.91 65.6884 162.274 65.9684 162.554C66.2577 162.834 66.6544 162.974 67.1584 162.974ZM76.0484 168.168C75.5164 168.168 75.017 168.084 74.5504 167.916C74.093 167.739 73.6964 167.454 73.3604 167.062C73.0244 166.661 72.7584 166.138 72.5624 165.494C72.3664 164.841 72.2684 164.043 72.2684 163.1V162.82C72.2684 161.943 72.3664 161.201 72.5624 160.594C72.7584 159.987 73.0244 159.497 73.3604 159.124C73.6964 158.741 74.093 158.466 74.5504 158.298C75.017 158.121 75.5164 158.032 76.0484 158.032C76.5804 158.032 77.075 158.121 77.5324 158.298C77.999 158.466 78.4004 158.741 78.7364 159.124C79.0724 159.497 79.3384 159.987 79.5344 160.594C79.7304 161.201 79.8284 161.943 79.8284 162.82V163.1C79.8284 164.043 79.7304 164.841 79.5344 165.494C79.3384 166.138 79.0724 166.661 78.7364 167.062C78.4004 167.454 77.999 167.739 77.5324 167.916C77.075 168.084 76.5804 168.168 76.0484 168.168ZM76.0484 166.404C76.2817 166.404 76.501 166.357 76.7064 166.264C76.9117 166.171 77.089 166.003 77.2384 165.76C77.397 165.508 77.5184 165.167 77.6024 164.738C77.6864 164.309 77.7284 163.763 77.7284 163.1V162.82C77.7284 162.223 77.6864 161.733 77.6024 161.35C77.5184 160.958 77.397 160.65 77.2384 160.426C77.089 160.193 76.9117 160.029 76.7064 159.936C76.501 159.843 76.2817 159.796 76.0484 159.796C75.8057 159.796 75.5817 159.843 75.3764 159.936C75.1804 160.029 75.003 160.193 74.8444 160.426C74.695 160.65 74.5784 160.958 74.4944 161.35C74.4104 161.733 74.3684 162.223 74.3684 162.82V163.1C74.3684 163.763 74.4104 164.309 74.4944 164.738C74.5784 165.167 74.695 165.508 74.8444 165.76C75.003 166.003 75.1804 166.171 75.3764 166.264C75.5817 166.357 75.8057 166.404 76.0484 166.404ZM85.5634 166.768H84.3034V165.312H85.5634V164.5H84.3034V162.764H85.5634V158.2H89.0634C89.6608 158.2 90.1834 158.275 90.6314 158.424C91.0888 158.573 91.4714 158.788 91.7794 159.068C92.0874 159.339 92.3161 159.67 92.4654 160.062C92.6241 160.445 92.7034 160.874 92.7034 161.35C92.7034 161.826 92.6241 162.26 92.4654 162.652C92.3161 163.035 92.0874 163.366 91.7794 163.646C91.4714 163.917 91.0888 164.127 90.6314 164.276C90.1834 164.425 89.6608 164.5 89.0634 164.5H87.6634V165.312H90.7434V166.768H87.6634V168H85.5634V166.768ZM88.8534 162.764C89.4694 162.764 89.9128 162.643 90.1834 162.4C90.4634 162.148 90.6034 161.798 90.6034 161.35C90.6034 160.902 90.4728 160.557 90.2114 160.314C89.9501 160.062 89.4974 159.936 88.8534 159.936H87.6634V162.764H88.8534Z" fill="#2261EB"/>
<rect x="54" y="197" width="160" height="29" rx="8" fill="#8FAFF5"/>
<path d="M97.9 208H100.7C101.493 208 102.073 208.17 102.44 208.51C102.813 208.85 103 209.303 103 209.87C103 210.23 102.907 210.54 102.72 210.8C102.533 211.053 102.277 211.237 101.95 211.35C102.363 211.443 102.69 211.633 102.93 211.92C103.177 212.2 103.3 212.567 103.3 213.02C103.3 213.313 103.253 213.583 103.16 213.83C103.067 214.07 102.92 214.277 102.72 214.45C102.527 214.623 102.277 214.76 101.97 214.86C101.663 214.953 101.293 215 100.86 215H97.9V208ZM100.73 213.96C101.25 213.96 101.607 213.877 101.8 213.71C102 213.543 102.1 213.287 102.1 212.94C102.1 212.773 102.077 212.623 102.03 212.49C101.983 212.357 101.907 212.247 101.8 212.16C101.693 212.067 101.55 211.997 101.37 211.95C101.197 211.903 100.98 211.88 100.72 211.88H99.1V213.96H100.73ZM100.55 210.92C101.017 210.92 101.34 210.833 101.52 210.66C101.707 210.487 101.8 210.253 101.8 209.96C101.8 209.66 101.71 209.433 101.53 209.28C101.35 209.12 101.023 209.04 100.55 209.04H99.1V210.92H100.55ZM106.398 215.11C105.678 215.11 105.121 214.963 104.728 214.67C104.341 214.37 104.131 213.947 104.098 213.4H105.218C105.251 213.64 105.358 213.827 105.538 213.96C105.718 214.087 105.998 214.15 106.378 214.15C106.831 214.15 107.145 214.077 107.318 213.93C107.491 213.783 107.578 213.6 107.578 213.38C107.578 213.18 107.501 213.023 107.348 212.91C107.201 212.79 106.941 212.73 106.568 212.73H105.698V211.87H106.498C106.805 211.87 107.028 211.807 107.168 211.68C107.308 211.553 107.378 211.393 107.378 211.2C107.378 211.027 107.305 210.877 107.158 210.75C107.011 210.617 106.758 210.55 106.398 210.55C106.011 210.55 105.741 210.613 105.588 210.74C105.441 210.867 105.351 211.037 105.318 211.25H104.198C104.231 210.743 104.435 210.34 104.808 210.04C105.188 209.74 105.718 209.59 106.398 209.59C107.125 209.59 107.655 209.733 107.988 210.02C108.328 210.307 108.498 210.68 108.498 211.14C108.498 211.393 108.435 211.617 108.308 211.81C108.188 212.003 107.988 212.15 107.708 212.25C108.081 212.343 108.338 212.5 108.478 212.72C108.625 212.94 108.698 213.193 108.698 213.48C108.698 213.707 108.651 213.92 108.558 214.12C108.465 214.32 108.321 214.493 108.128 214.64C107.941 214.787 107.701 214.903 107.408 214.99C107.121 215.07 106.785 215.11 106.398 215.11ZM110.83 212.99C110.43 212.87 110.133 212.673 109.94 212.4C109.746 212.127 109.65 211.797 109.65 211.41C109.65 210.89 109.823 210.477 110.17 210.17C110.516 209.857 111.043 209.7 111.75 209.7H114.15V215H113.05V213.12H111.91L110.73 215H109.45L110.83 212.99ZM110.77 211.41C110.77 211.69 110.853 211.89 111.02 212.01C111.186 212.123 111.413 212.18 111.7 212.18H113.05V210.64H111.7C111.413 210.64 111.186 210.7 111.02 210.82C110.853 210.933 110.77 211.13 110.77 211.41ZM116.802 210.64H115.052V209.7H119.652V210.64H117.902V215H116.802V210.64ZM120.652 209.7H121.752V211.56H122.952C123.632 211.56 124.135 211.707 124.462 212C124.788 212.287 124.952 212.713 124.952 213.28C124.952 213.813 124.792 214.233 124.472 214.54C124.152 214.847 123.645 215 122.952 215H120.652V209.7ZM122.852 214.06C123.218 214.06 123.475 213.997 123.622 213.87C123.775 213.737 123.852 213.54 123.852 213.28C123.852 213.02 123.775 212.827 123.622 212.7C123.475 212.567 123.218 212.5 122.852 212.5H121.752V214.06H122.852ZM128.452 209.7H130.952C131.619 209.7 132.102 209.837 132.402 210.11C132.702 210.377 132.852 210.72 132.852 211.14C132.852 211.373 132.782 211.6 132.642 211.82C132.502 212.033 132.305 212.177 132.052 212.25C132.379 212.33 132.625 212.483 132.792 212.71C132.965 212.93 133.052 213.19 133.052 213.49C133.052 213.95 132.899 214.317 132.592 214.59C132.285 214.863 131.805 215 131.152 215H128.452V209.7ZM131.002 214.06C131.362 214.06 131.609 214.003 131.742 213.89C131.882 213.77 131.952 213.603 131.952 213.39C131.952 213.177 131.882 213.017 131.742 212.91C131.609 212.797 131.362 212.74 131.002 212.74H129.552V214.06H131.002ZM130.852 211.88C131.185 211.88 131.419 211.827 131.552 211.72C131.685 211.607 131.752 211.453 131.752 211.26C131.752 211.067 131.685 210.917 131.552 210.81C131.419 210.697 131.185 210.64 130.852 210.64H129.552V211.88H130.852ZM136.655 209.7H137.675V210.59C137.835 210.283 138.072 210.04 138.385 209.86C138.705 209.68 139.065 209.59 139.465 209.59C140.158 209.59 140.705 209.807 141.105 210.24C141.505 210.673 141.705 211.327 141.705 212.2V212.4C141.705 212.853 141.652 213.25 141.545 213.59C141.438 213.93 141.285 214.213 141.085 214.44C140.892 214.66 140.658 214.827 140.385 214.94C140.112 215.053 139.805 215.11 139.465 215.11C139.085 215.11 138.738 215.027 138.425 214.86C138.112 214.693 137.888 214.46 137.755 214.16V217H136.655V209.7ZM139.205 214.15C139.618 214.15 139.952 214.007 140.205 213.72C140.458 213.433 140.585 212.993 140.585 212.4V212.2C140.585 211.64 140.462 211.227 140.215 210.96C139.968 210.687 139.632 210.55 139.205 210.55C139.018 210.55 138.838 210.58 138.665 210.64C138.492 210.7 138.335 210.79 138.195 210.91C138.062 211.023 137.955 211.17 137.875 211.35C137.795 211.523 137.755 211.723 137.755 211.95V212.65C137.755 212.903 137.795 213.123 137.875 213.31C137.955 213.497 138.062 213.653 138.195 213.78C138.328 213.907 138.482 214 138.655 214.06C138.828 214.12 139.012 214.15 139.205 214.15ZM144.357 215.11C144.071 215.11 143.814 215.07 143.587 214.99C143.367 214.903 143.181 214.787 143.027 214.64C142.874 214.487 142.757 214.31 142.677 214.11C142.597 213.91 142.557 213.69 142.557 213.45C142.557 212.923 142.714 212.533 143.027 212.28C143.341 212.02 143.801 211.89 144.407 211.89H146.057V211.6C146.057 211.2 145.967 210.927 145.787 210.78C145.614 210.627 145.337 210.55 144.957 210.55C144.617 210.55 144.367 210.603 144.207 210.71C144.047 210.817 143.954 210.963 143.927 211.15H142.857C142.871 210.923 142.927 210.717 143.027 210.53C143.134 210.337 143.277 210.17 143.457 210.03C143.644 209.89 143.867 209.783 144.127 209.71C144.387 209.63 144.681 209.59 145.007 209.59C145.334 209.59 145.627 209.627 145.887 209.7C146.154 209.773 146.381 209.89 146.567 210.05C146.754 210.203 146.897 210.403 146.997 210.65C147.104 210.897 147.157 211.193 147.157 211.54V213.65C147.157 213.93 147.161 214.177 147.167 214.39C147.174 214.597 147.191 214.8 147.217 215H146.217C146.197 214.847 146.181 214.717 146.167 214.61C146.161 214.503 146.157 214.37 146.157 214.21C146.031 214.457 145.811 214.67 145.497 214.85C145.191 215.023 144.811 215.11 144.357 215.11ZM144.657 214.15C144.844 214.15 145.021 214.127 145.187 214.08C145.361 214.027 145.511 213.953 145.637 213.86C145.764 213.76 145.864 213.64 145.937 213.5C146.017 213.353 146.057 213.187 146.057 213V212.71H144.607C144.327 212.71 144.101 212.77 143.927 212.89C143.761 213.01 143.677 213.187 143.677 213.42C143.677 213.64 143.754 213.817 143.907 213.95C144.067 214.083 144.317 214.15 144.657 214.15ZM150.811 215.11C150.451 215.11 150.114 215.043 149.801 214.91C149.487 214.777 149.217 214.583 148.991 214.33C148.764 214.07 148.584 213.753 148.451 213.38C148.324 213 148.261 212.567 148.261 212.08V211.88C148.261 211.28 148.304 210.747 148.391 210.28C148.477 209.813 148.624 209.417 148.831 209.09C149.044 208.757 149.324 208.5 149.671 208.32C150.024 208.133 150.461 208.027 150.981 208C151.401 207.98 151.781 207.963 152.121 207.95C152.461 207.93 152.741 207.863 152.961 207.75V208.76C152.854 208.82 152.657 208.87 152.371 208.91C152.084 208.943 151.671 208.967 151.131 208.98C150.817 208.987 150.544 209.023 150.311 209.09C150.084 209.157 149.891 209.263 149.731 209.41C149.577 209.557 149.454 209.75 149.361 209.99C149.274 210.223 149.217 210.51 149.191 210.85C149.344 210.537 149.584 210.283 149.911 210.09C150.244 209.89 150.644 209.79 151.111 209.79C151.437 209.79 151.737 209.847 152.011 209.96C152.291 210.067 152.531 210.227 152.731 210.44C152.931 210.647 153.084 210.903 153.191 211.21C153.304 211.51 153.361 211.85 153.361 212.23V212.46C153.361 212.873 153.294 213.247 153.161 213.58C153.034 213.907 152.857 214.183 152.631 214.41C152.404 214.637 152.134 214.81 151.821 214.93C151.514 215.05 151.177 215.11 150.811 215.11ZM150.811 214.15C151.244 214.15 151.591 214.007 151.851 213.72C152.111 213.433 152.241 213.013 152.241 212.46V212.23C152.241 211.763 152.107 211.4 151.841 211.14C151.581 210.88 151.237 210.75 150.811 210.75C150.384 210.75 150.037 210.88 149.771 211.14C149.511 211.393 149.381 211.757 149.381 212.23V212.46C149.381 212.727 149.417 212.967 149.491 213.18C149.564 213.387 149.664 213.563 149.791 213.71C149.924 213.85 150.077 213.96 150.251 214.04C150.424 214.113 150.611 214.15 150.811 214.15ZM156.758 215.11C156.391 215.11 156.048 215.053 155.728 214.94C155.414 214.82 155.141 214.647 154.908 214.42C154.674 214.193 154.491 213.913 154.358 213.58C154.224 213.24 154.158 212.847 154.158 212.4V212.2C154.158 211.78 154.224 211.41 154.358 211.09C154.491 210.763 154.674 210.49 154.908 210.27C155.141 210.043 155.414 209.873 155.728 209.76C156.048 209.647 156.391 209.59 156.758 209.59C157.124 209.59 157.464 209.647 157.778 209.76C158.098 209.873 158.374 210.043 158.608 210.27C158.841 210.49 159.024 210.763 159.158 211.09C159.291 211.41 159.358 211.78 159.358 212.2V212.4C159.358 212.847 159.291 213.24 159.158 213.58C159.024 213.913 158.841 214.193 158.608 214.42C158.374 214.647 158.098 214.82 157.778 214.94C157.464 215.053 157.124 215.11 156.758 215.11ZM156.758 214.15C156.951 214.15 157.134 214.117 157.308 214.05C157.488 213.983 157.644 213.88 157.778 213.74C157.918 213.6 158.028 213.42 158.108 213.2C158.194 212.98 158.238 212.713 158.238 212.4V212.2C158.238 211.913 158.194 211.667 158.108 211.46C158.028 211.253 157.918 211.083 157.778 210.95C157.644 210.817 157.488 210.717 157.308 210.65C157.134 210.583 156.951 210.55 156.758 210.55C156.564 210.55 156.378 210.583 156.198 210.65C156.024 210.717 155.868 210.817 155.728 210.95C155.594 211.083 155.484 211.253 155.398 211.46C155.318 211.667 155.278 211.913 155.278 212.2V212.4C155.278 212.713 155.318 212.98 155.398 213.2C155.484 213.42 155.594 213.6 155.728 213.74C155.868 213.88 156.024 213.983 156.198 214.05C156.378 214.117 156.564 214.15 156.758 214.15ZM161.606 210.64H159.856V209.7H164.456V210.64H162.706V215H161.606V210.64ZM166.402 217.11C166.302 217.11 166.202 217.1 166.102 217.08V216.12C166.202 216.14 166.302 216.15 166.402 216.15C166.515 216.15 166.608 216.13 166.682 216.09C166.762 216.057 166.832 215.993 166.892 215.9C166.958 215.813 167.022 215.697 167.082 215.55C167.148 215.403 167.222 215.22 167.302 215L165.052 209.7H166.252L167.872 213.8L169.332 209.7H170.452L168.402 215C168.255 215.373 168.118 215.693 167.992 215.96C167.865 216.227 167.725 216.443 167.572 216.61C167.425 216.783 167.258 216.91 167.072 216.99C166.885 217.07 166.662 217.11 166.402 217.11Z" fill="white"/>
<rect x="234" y="44" width="180" height="192" rx="16" fill="#F2F6FF"/>
<g opacity="0.5">
<path d="M251.714 67.9999V66.2857H260.286V67.9999H251.714ZM250.637 83.9999C250.06 83.9999 249.571 83.7999 249.171 83.3999C248.771 82.9999 248.571 82.5113 248.571 81.934V62.0659C248.571 61.4886 248.771 61 249.171 60.6C249.571 60.2 250.06 60 250.637 60H261.362C261.94 60 262.428 60.2 262.828 60.6C263.228 61 263.428 61.4886 263.428 62.0659V81.934C263.428 82.5113 263.228 82.9999 262.828 83.3999C262.428 83.7999 261.94 83.9999 261.362 83.9999H250.637ZM250.286 80.8571V81.934C250.286 82.0219 250.322 82.1025 250.395 82.1758C250.469 82.2491 250.549 82.2857 250.637 82.2857H261.362C261.45 82.2857 261.531 82.2491 261.604 82.1758C261.677 82.1025 261.714 82.0219 261.714 81.934V80.8571H250.286ZM250.286 79.1429H261.714V64.8571H250.286V79.1429ZM250.286 63.1429H261.714V62.0659C261.714 61.978 261.677 61.8974 261.604 61.8241C261.531 61.7509 261.45 61.7143 261.362 61.7143H250.637C250.549 61.7143 250.469 61.7509 250.395 61.8241C250.322 61.8974 250.286 61.978 250.286 62.0659V63.1429Z" fill="#2261EB"/>
</g>
<path d="M245 102H245.94V107.5L249.66 102H250.6V109H249.66V103.5L245.94 109H245V102ZM254.448 109.1C254.108 109.1 253.791 109.047 253.498 108.94C253.204 108.827 252.951 108.66 252.738 108.44C252.524 108.213 252.354 107.93 252.228 107.59C252.108 107.25 252.048 106.853 252.048 106.4V106.2C252.048 105.773 252.114 105.397 252.248 105.07C252.381 104.743 252.558 104.473 252.778 104.26C252.998 104.04 253.251 103.877 253.538 103.77C253.831 103.657 254.134 103.6 254.448 103.6C254.761 103.6 255.041 103.643 255.288 103.73C255.541 103.817 255.758 103.937 255.938 104.09C256.124 104.243 256.274 104.423 256.388 104.63C256.508 104.837 256.594 105.06 256.648 105.3H255.748C255.694 105.173 255.631 105.057 255.558 104.95C255.491 104.837 255.404 104.74 255.298 104.66C255.198 104.58 255.078 104.517 254.938 104.47C254.798 104.423 254.634 104.4 254.448 104.4C254.254 104.4 254.068 104.437 253.888 104.51C253.708 104.577 253.548 104.683 253.408 104.83C253.268 104.97 253.154 105.153 253.068 105.38C252.988 105.607 252.948 105.88 252.948 106.2V106.4C252.948 106.74 252.988 107.033 253.068 107.28C253.154 107.52 253.268 107.717 253.408 107.87C253.548 108.017 253.708 108.127 253.888 108.2C254.068 108.267 254.254 108.3 254.448 108.3C254.774 108.3 255.048 108.22 255.268 108.06C255.494 107.9 255.654 107.68 255.748 107.4H256.648C256.521 107.927 256.261 108.343 255.868 108.65C255.474 108.95 255.001 109.1 254.448 109.1ZM259.057 104.48H257.247V103.7H261.747V104.48H259.937V109H259.057V104.48ZM264.852 109.1C264.512 109.1 264.188 109.047 263.882 108.94C263.575 108.827 263.305 108.66 263.072 108.44C262.838 108.213 262.652 107.93 262.512 107.59C262.372 107.25 262.302 106.853 262.302 106.4V106.2C262.302 105.773 262.372 105.397 262.512 105.07C262.652 104.743 262.838 104.473 263.072 104.26C263.305 104.04 263.575 103.877 263.882 103.77C264.188 103.657 264.512 103.6 264.852 103.6C265.192 103.6 265.515 103.657 265.822 103.77C266.128 103.877 266.398 104.04 266.632 104.26C266.865 104.473 267.052 104.743 267.192 105.07C267.332 105.397 267.402 105.773 267.402 106.2V106.4C267.402 106.853 267.332 107.25 267.192 107.59C267.052 107.93 266.865 108.213 266.632 108.44C266.398 108.66 266.128 108.827 265.822 108.94C265.515 109.047 265.192 109.1 264.852 109.1ZM264.852 108.3C265.052 108.3 265.252 108.267 265.452 108.2C265.652 108.127 265.828 108.017 265.982 107.87C266.135 107.717 266.258 107.52 266.352 107.28C266.452 107.04 266.502 106.747 266.502 106.4V106.2C266.502 105.88 266.452 105.607 266.352 105.38C266.258 105.153 266.135 104.967 265.982 104.82C265.828 104.673 265.652 104.567 265.452 104.5C265.252 104.433 265.052 104.4 264.852 104.4C264.652 104.4 264.452 104.433 264.252 104.5C264.052 104.567 263.875 104.673 263.722 104.82C263.568 104.967 263.442 105.153 263.342 105.38C263.248 105.607 263.202 105.88 263.202 106.2V106.4C263.202 106.747 263.248 107.04 263.342 107.28C263.442 107.52 263.568 107.717 263.722 107.87C263.875 108.017 264.052 108.127 264.252 108.2C264.452 108.267 264.652 108.3 264.852 108.3ZM271.718 106.89C271.564 106.983 271.378 107.067 271.158 107.14C270.944 107.213 270.674 107.25 270.348 107.25C270.041 107.25 269.764 107.217 269.518 107.15C269.278 107.083 269.074 106.977 268.908 106.83C268.741 106.683 268.614 106.493 268.528 106.26C268.441 106.027 268.398 105.74 268.398 105.4V103.7H269.278V105.25C269.278 105.477 269.298 105.667 269.338 105.82C269.384 105.973 269.458 106.097 269.558 106.19C269.658 106.283 269.784 106.35 269.938 106.39C270.091 106.43 270.278 106.45 270.498 106.45C270.798 106.45 271.054 106.42 271.268 106.36C271.481 106.3 271.631 106.237 271.718 106.17V103.7H272.598V109H271.718V106.89ZM274.195 103.7H275.075V105.91H277.815V103.7H278.695V109H277.815V106.69H275.075V109H274.195V103.7ZM280.298 103.7H281.178V107.7L283.918 103.7H284.798V109H283.918V105L281.178 109H280.298V103.7ZM286.402 103.7H287.282V105.92H287.982L289.962 103.7H291.002L288.702 106.24L291.102 109H289.982L287.982 106.68H287.282V109H286.402V103.7Z" fill="#1F1F25" fill-opacity="0.8"/>
<path opacity="0.5" d="M245.12 118.2H253.38V128H251.28V119.936H247.22V128H245.12V118.2ZM255.34 120.58H257.062V121.672C257.249 121.336 257.543 121.042 257.944 120.79C258.345 120.538 258.854 120.412 259.47 120.412C260.459 120.412 261.229 120.72 261.78 121.336C262.34 121.943 262.62 122.857 262.62 124.08V124.36C262.62 125.639 262.335 126.595 261.766 127.23C261.206 127.855 260.441 128.168 259.47 128.168C258.966 128.168 258.518 128.061 258.126 127.846C257.743 127.622 257.431 127.333 257.188 126.978V130.8H255.34V120.58ZM259.036 126.6C259.521 126.6 259.927 126.418 260.254 126.054C260.581 125.681 260.744 125.116 260.744 124.36V124.08C260.744 123.38 260.585 122.857 260.268 122.512C259.951 122.157 259.54 121.98 259.036 121.98C258.504 121.98 258.061 122.134 257.706 122.442C257.361 122.741 257.188 123.193 257.188 123.8V124.64C257.188 125.303 257.356 125.797 257.692 126.124C258.037 126.441 258.485 126.6 259.036 126.6ZM263.953 120.58H265.801V125.34L269.105 120.58H270.813V128H268.965V123.24L265.661 128H263.953V120.58ZM272.568 128.168C272.494 128.168 272.4 128.163 272.288 128.154C272.176 128.154 272.083 128.145 272.008 128.126V126.46C272.055 126.469 272.125 126.474 272.218 126.474C272.396 126.474 272.55 126.423 272.68 126.32C272.811 126.208 272.918 126.021 273.002 125.76C273.096 125.499 273.161 125.153 273.198 124.724C273.245 124.285 273.268 123.744 273.268 123.1V120.58H279.148V128H277.3V122.12H274.976V123.38C274.976 124.341 274.925 125.135 274.822 125.76C274.729 126.376 274.58 126.861 274.374 127.216C274.178 127.571 273.926 127.818 273.618 127.958C273.32 128.098 272.97 128.168 272.568 128.168ZM284.184 128.168C283.68 128.168 283.2 128.093 282.742 127.944C282.294 127.785 281.902 127.547 281.566 127.23C281.23 126.913 280.964 126.516 280.768 126.04C280.572 125.564 280.474 125.004 280.474 124.36V124.08C280.474 123.473 280.572 122.941 280.768 122.484C280.964 122.027 281.23 121.644 281.566 121.336C281.902 121.028 282.294 120.799 282.742 120.65C283.2 120.491 283.68 120.412 284.184 120.412C284.688 120.412 285.164 120.491 285.612 120.65C286.06 120.799 286.452 121.028 286.788 121.336C287.134 121.644 287.404 122.027 287.6 122.484C287.796 122.941 287.894 123.473 287.894 124.08V124.36C287.894 124.995 287.796 125.55 287.6 126.026C287.404 126.502 287.134 126.899 286.788 127.216C286.452 127.533 286.06 127.771 285.612 127.93C285.164 128.089 284.688 128.168 284.184 128.168ZM284.184 126.6C284.707 126.6 285.141 126.413 285.486 126.04C285.841 125.667 286.018 125.107 286.018 124.36V124.08C286.018 123.399 285.841 122.881 285.486 122.526C285.141 122.162 284.707 121.98 284.184 121.98C283.652 121.98 283.214 122.162 282.868 122.526C282.523 122.881 282.35 123.399 282.35 124.08V124.36C282.35 125.116 282.523 125.681 282.868 126.054C283.214 126.418 283.652 126.6 284.184 126.6ZM290.947 124.136L288.455 120.58H290.387L292.375 123.492H292.921V120.58H294.769V123.492H295.329L297.331 120.58H299.235L296.757 124.094L299.375 128H297.303L295.329 124.948H294.769V128H292.921V124.948H292.361L290.331 128H288.315L290.947 124.136ZM303.516 128.168C303.012 128.168 302.532 128.093 302.074 127.944C301.626 127.785 301.234 127.552 300.898 127.244C300.562 126.927 300.296 126.53 300.1 126.054C299.904 125.569 299.806 125.004 299.806 124.36V124.08C299.806 123.464 299.9 122.927 300.086 122.47C300.273 122.013 300.53 121.635 300.856 121.336C301.183 121.028 301.561 120.799 301.99 120.65C302.42 120.491 302.882 120.412 303.376 120.412C304.543 120.412 305.43 120.72 306.036 121.336C306.643 121.952 306.946 122.843 306.946 124.01V124.794H301.696C301.706 125.121 301.762 125.405 301.864 125.648C301.967 125.881 302.102 126.073 302.27 126.222C302.438 126.371 302.63 126.483 302.844 126.558C303.068 126.623 303.292 126.656 303.516 126.656C303.992 126.656 304.352 126.586 304.594 126.446C304.837 126.306 305.01 126.101 305.112 125.83H306.806C306.657 126.605 306.288 127.188 305.7 127.58C305.112 127.972 304.384 128.168 303.516 128.168ZM303.446 121.924C303.232 121.924 303.017 121.952 302.802 122.008C302.597 122.064 302.415 122.153 302.256 122.274C302.098 122.395 301.967 122.559 301.864 122.764C301.762 122.969 301.706 123.217 301.696 123.506H305.154C305.145 123.198 305.094 122.941 305 122.736C304.916 122.531 304.795 122.367 304.636 122.246C304.487 122.125 304.31 122.041 304.104 121.994C303.899 121.947 303.68 121.924 303.446 121.924ZM308.278 120.58H310.126V123.45H313.29V120.58H315.138V128H313.29V124.99H310.126V128H308.278V120.58ZM316.822 120.58H318.67V125.34L321.974 120.58H323.682V128H321.834V123.24L318.53 128H316.822V120.58ZM328.727 128.168C328.223 128.168 327.743 128.093 327.285 127.944C326.837 127.785 326.445 127.552 326.109 127.244C325.773 126.927 325.507 126.53 325.311 126.054C325.115 125.569 325.017 125.004 325.017 124.36V124.08C325.017 123.464 325.111 122.927 325.297 122.47C325.484 122.013 325.741 121.635 326.067 121.336C326.394 121.028 326.772 120.799 327.201 120.65C327.631 120.491 328.093 120.412 328.587 120.412C329.754 120.412 330.641 120.72 331.247 121.336C331.854 121.952 332.157 122.843 332.157 124.01V124.794H326.907C326.917 125.121 326.973 125.405 327.075 125.648C327.178 125.881 327.313 126.073 327.481 126.222C327.649 126.371 327.841 126.483 328.055 126.558C328.279 126.623 328.503 126.656 328.727 126.656C329.203 126.656 329.563 126.586 329.805 126.446C330.048 126.306 330.221 126.101 330.323 125.83H332.017C331.868 126.605 331.499 127.188 330.911 127.58C330.323 127.972 329.595 128.168 328.727 128.168ZM328.657 121.924C328.443 121.924 328.228 121.952 328.013 122.008C327.808 122.064 327.626 122.153 327.467 122.274C327.309 122.395 327.178 122.559 327.075 122.764C326.973 122.969 326.917 123.217 326.907 123.506H330.365C330.356 123.198 330.305 122.941 330.211 122.736C330.127 122.531 330.006 122.367 329.847 122.246C329.698 122.125 329.521 122.041 329.315 121.994C329.11 121.947 328.891 121.924 328.657 121.924Z" fill="#2261EB"/>
<path d="M247.55 149.1C247.157 149.1 246.783 149.033 246.43 148.9C246.077 148.76 245.763 148.547 245.49 148.26C245.217 147.967 245 147.597 244.84 147.15C244.68 146.703 244.6 146.17 244.6 145.55V145.35C244.6 144.75 244.68 144.233 244.84 143.8C245 143.367 245.217 143.01 245.49 142.73C245.763 142.45 246.077 142.243 246.43 142.11C246.783 141.97 247.157 141.9 247.55 141.9C247.93 141.9 248.277 141.95 248.59 142.05C248.91 142.15 249.19 142.293 249.43 142.48C249.67 142.667 249.863 142.897 250.01 143.17C250.163 143.443 250.26 143.753 250.3 144.1H249.3C249.207 143.647 249.01 143.307 248.71 143.08C248.41 142.853 248.023 142.74 247.55 142.74C247.303 142.74 247.063 142.787 246.83 142.88C246.597 142.973 246.387 143.123 246.2 143.33C246.02 143.53 245.873 143.797 245.76 144.13C245.653 144.463 245.6 144.87 245.6 145.35V145.55C245.6 146.057 245.66 146.483 245.78 146.83C245.9 147.17 246.053 147.447 246.24 147.66C246.427 147.873 246.637 148.027 246.87 148.12C247.103 148.213 247.33 148.26 247.55 148.26C248.07 148.26 248.477 148.133 248.77 147.88C249.063 147.627 249.24 147.3 249.3 146.9H250.3C250.247 147.287 250.14 147.62 249.98 147.9C249.82 148.173 249.617 148.4 249.37 148.58C249.13 148.76 248.853 148.893 248.54 148.98C248.233 149.06 247.903 149.1 247.55 149.1ZM252.297 151.1C252.197 151.1 252.097 151.09 251.997 151.07V150.27C252.097 150.29 252.197 150.3 252.297 150.3C252.397 150.3 252.484 150.283 252.557 150.25C252.63 150.217 252.7 150.153 252.767 150.06C252.834 149.967 252.904 149.833 252.977 149.66C253.057 149.493 253.147 149.273 253.247 149L250.997 143.7H251.977L253.697 148L255.257 143.7H256.197L254.197 149C254.057 149.373 253.924 149.693 253.797 149.96C253.67 150.227 253.534 150.443 253.387 150.61C253.247 150.783 253.09 150.907 252.917 150.98C252.744 151.06 252.537 151.1 252.297 151.1ZM257.193 143.7H258.133L260.023 147L261.913 143.7H262.793V149H261.913V145.15L260.343 147.85H259.643L258.073 145.15V149H257.193V143.7ZM264.39 143.7H265.33L267.22 147L269.11 143.7H269.99V149H269.11V145.15L267.54 147.85H266.84L265.27 145.15V149H264.39V143.7ZM273.097 149.1C272.804 149.1 272.544 149.06 272.317 148.98C272.097 148.893 271.91 148.777 271.757 148.63C271.604 148.483 271.487 148.31 271.407 148.11C271.327 147.91 271.287 147.69 271.287 147.45C271.287 146.923 271.44 146.543 271.747 146.31C272.06 146.077 272.507 145.96 273.087 145.96H274.807V145.6C274.807 145.147 274.704 144.833 274.497 144.66C274.297 144.487 273.994 144.4 273.587 144.4C273.207 144.4 272.93 144.473 272.757 144.62C272.584 144.76 272.487 144.92 272.467 145.1H271.587C271.6 144.887 271.657 144.69 271.757 144.51C271.864 144.323 272.004 144.163 272.177 144.03C272.357 143.897 272.57 143.793 272.817 143.72C273.064 143.64 273.337 143.6 273.637 143.6C274.264 143.6 274.76 143.75 275.127 144.05C275.5 144.343 275.687 144.827 275.687 145.5V147.65C275.687 147.93 275.687 148.177 275.687 148.39C275.694 148.597 275.71 148.8 275.737 149H274.967C274.947 148.847 274.934 148.703 274.927 148.57C274.92 148.43 274.917 148.273 274.917 148.1C274.777 148.38 274.55 148.617 274.237 148.81C273.924 149.003 273.544 149.1 273.097 149.1ZM273.287 148.3C273.494 148.3 273.687 148.273 273.867 148.22C274.054 148.16 274.217 148.077 274.357 147.97C274.497 147.857 274.607 147.72 274.687 147.56C274.767 147.4 274.807 147.213 274.807 147V146.64H273.237C272.91 146.64 272.654 146.707 272.467 146.84C272.28 146.967 272.187 147.17 272.187 147.45C272.187 147.697 272.274 147.9 272.447 148.06C272.627 148.22 272.907 148.3 273.287 148.3Z" fill="#1F1F25" fill-opacity="0.8"/>
<path opacity="0.5" d="M244.42 166.474L247.85 163.52C248.167 163.24 248.438 162.997 248.662 162.792C248.886 162.577 249.068 162.381 249.208 162.204C249.348 162.027 249.446 161.854 249.502 161.686C249.567 161.518 249.6 161.336 249.6 161.14C249.6 160.739 249.488 160.417 249.264 160.174C249.04 159.922 248.709 159.796 248.27 159.796C247.766 159.796 247.369 159.936 247.08 160.216C246.8 160.487 246.66 160.958 246.66 161.63H244.56C244.56 160.519 244.873 159.642 245.498 158.998C246.133 158.354 247.057 158.032 248.27 158.032C248.839 158.032 249.334 158.111 249.754 158.27C250.183 158.419 250.543 158.634 250.832 158.914C251.121 159.185 251.336 159.511 251.476 159.894C251.625 160.277 251.7 160.692 251.7 161.14C251.7 161.476 251.639 161.798 251.518 162.106C251.397 162.405 251.229 162.694 251.014 162.974C250.809 163.254 250.566 163.529 250.286 163.8C250.006 164.061 249.707 164.323 249.39 164.584L247.374 166.264H251.84V168H244.42V166.474ZM260.025 168.168C259.091 168.168 258.34 167.967 257.771 167.566C257.201 167.165 256.856 166.539 256.735 165.69H258.695C258.788 165.933 258.937 166.115 259.143 166.236C259.357 166.348 259.675 166.404 260.095 166.404C260.347 166.404 260.58 166.367 260.795 166.292C261.019 166.208 261.215 166.063 261.383 165.858C261.551 165.643 261.686 165.354 261.789 164.99C261.891 164.626 261.957 164.159 261.985 163.59C261.863 163.777 261.714 163.935 261.537 164.066C261.359 164.187 261.163 164.29 260.949 164.374C260.743 164.449 260.524 164.505 260.291 164.542C260.067 164.579 259.838 164.598 259.605 164.598C258.615 164.598 257.855 164.332 257.323 163.8C256.791 163.259 256.525 162.498 256.525 161.518V161.364C256.525 160.869 256.613 160.417 256.791 160.006C256.968 159.595 257.211 159.245 257.519 158.956C257.836 158.657 258.214 158.429 258.653 158.27C259.091 158.111 259.572 158.032 260.095 158.032C261.336 158.032 262.288 158.396 262.951 159.124C263.613 159.852 263.945 161.037 263.945 162.68V162.946C263.945 163.889 263.847 164.691 263.651 165.354C263.455 166.007 263.179 166.544 262.825 166.964C262.479 167.384 262.064 167.692 261.579 167.888C261.103 168.075 260.585 168.168 260.025 168.168ZM260.235 162.974C260.739 162.974 261.131 162.834 261.411 162.554C261.7 162.274 261.845 161.91 261.845 161.462V161.322C261.845 160.883 261.695 160.519 261.397 160.23C261.107 159.941 260.72 159.796 260.235 159.796C259.731 159.796 259.334 159.941 259.045 160.23C258.765 160.51 258.625 160.874 258.625 161.322V161.462C258.625 161.91 258.765 162.274 259.045 162.554C259.334 162.834 259.731 162.974 260.235 162.974ZM268.775 168.168C267.841 168.168 267.09 167.967 266.521 167.566C265.951 167.165 265.606 166.539 265.485 165.69H267.445C267.538 165.933 267.687 166.115 267.893 166.236C268.107 166.348 268.425 166.404 268.845 166.404C269.097 166.404 269.33 166.367 269.545 166.292C269.769 166.208 269.965 166.063 270.133 165.858C270.301 165.643 270.436 165.354 270.539 164.99C270.641 164.626 270.707 164.159 270.735 163.59C270.613 163.777 270.464 163.935 270.287 164.066C270.109 164.187 269.913 164.29 269.699 164.374C269.493 164.449 269.274 164.505 269.041 164.542C268.817 164.579 268.588 164.598 268.355 164.598C267.365 164.598 266.605 164.332 266.073 163.8C265.541 163.259 265.275 162.498 265.275 161.518V161.364C265.275 160.869 265.363 160.417 265.541 160.006C265.718 159.595 265.961 159.245 266.269 158.956C266.586 158.657 266.964 158.429 267.403 158.27C267.841 158.111 268.322 158.032 268.845 158.032C270.086 158.032 271.038 158.396 271.701 159.124C272.363 159.852 272.695 161.037 272.695 162.68V162.946C272.695 163.889 272.597 164.691 272.401 165.354C272.205 166.007 271.929 166.544 271.575 166.964C271.229 167.384 270.814 167.692 270.329 167.888C269.853 168.075 269.335 168.168 268.775 168.168ZM268.985 162.974C269.489 162.974 269.881 162.834 270.161 162.554C270.45 162.274 270.595 161.91 270.595 161.462V161.322C270.595 160.883 270.445 160.519 270.147 160.23C269.857 159.941 269.47 159.796 268.985 159.796C268.481 159.796 268.084 159.941 267.795 160.23C267.515 160.51 267.375 160.874 267.375 161.322V161.462C267.375 161.91 267.515 162.274 267.795 162.554C268.084 162.834 268.481 162.974 268.985 162.974ZM277.875 168.168C277.343 168.168 276.843 168.084 276.377 167.916C275.919 167.739 275.523 167.454 275.187 167.062C274.851 166.661 274.585 166.138 274.389 165.494C274.193 164.841 274.095 164.043 274.095 163.1V162.82C274.095 161.943 274.193 161.201 274.389 160.594C274.585 159.987 274.851 159.497 275.187 159.124C275.523 158.741 275.919 158.466 276.377 158.298C276.843 158.121 277.343 158.032 277.875 158.032C278.407 158.032 278.901 158.121 279.359 158.298C279.825 158.466 280.227 158.741 280.563 159.124C280.899 159.497 281.165 159.987 281.361 160.594C281.557 161.201 281.655 161.943 281.655 162.82V163.1C281.655 164.043 281.557 164.841 281.361 165.494C281.165 166.138 280.899 166.661 280.563 167.062C280.227 167.454 279.825 167.739 279.359 167.916C278.901 168.084 278.407 168.168 277.875 168.168ZM277.875 166.404C278.108 166.404 278.327 166.357 278.533 166.264C278.738 166.171 278.915 166.003 279.065 165.76C279.223 165.508 279.345 165.167 279.429 164.738C279.513 164.309 279.555 163.763 279.555 163.1V162.82C279.555 162.223 279.513 161.733 279.429 161.35C279.345 160.958 279.223 160.65 279.065 160.426C278.915 160.193 278.738 160.029 278.533 159.936C278.327 159.843 278.108 159.796 277.875 159.796C277.632 159.796 277.408 159.843 277.203 159.936C277.007 160.029 276.829 160.193 276.671 160.426C276.521 160.65 276.405 160.958 276.321 161.35C276.237 161.733 276.195 162.223 276.195 162.82V163.1C276.195 163.763 276.237 164.309 276.321 164.738C276.405 165.167 276.521 165.508 276.671 165.76C276.829 166.003 277.007 166.171 277.203 166.264C277.408 166.357 277.632 166.404 277.875 166.404ZM287.39 166.768H286.13V165.312H287.39V164.5H286.13V162.764H287.39V158.2H290.89C291.487 158.2 292.01 158.275 292.458 158.424C292.915 158.573 293.298 158.788 293.606 159.068C293.914 159.339 294.142 159.67 294.292 160.062C294.45 160.445 294.53 160.874 294.53 161.35C294.53 161.826 294.45 162.26 294.292 162.652C294.142 163.035 293.914 163.366 293.606 163.646C293.298 163.917 292.915 164.127 292.458 164.276C292.01 164.425 291.487 164.5 290.89 164.5H289.49V165.312H292.57V166.768H289.49V168H287.39V166.768ZM290.68 162.764C291.296 162.764 291.739 162.643 292.01 162.4C292.29 162.148 292.43 161.798 292.43 161.35C292.43 160.902 292.299 160.557 292.038 160.314C291.776 160.062 291.324 159.936 290.68 159.936H289.49V162.764H290.68Z" fill="#2261EB"/>
<rect x="244" y="197" width="160" height="29" rx="8" fill="#8FAFF5"/>
<path d="M287.9 208H290.7C291.493 208 292.073 208.17 292.44 208.51C292.813 208.85 293 209.303 293 209.87C293 210.23 292.907 210.54 292.72 210.8C292.533 211.053 292.277 211.237 291.95 211.35C292.363 211.443 292.69 211.633 292.93 211.92C293.177 212.2 293.3 212.567 293.3 213.02C293.3 213.313 293.253 213.583 293.16 213.83C293.067 214.07 292.92 214.277 292.72 214.45C292.527 214.623 292.277 214.76 291.97 214.86C291.663 214.953 291.293 215 290.86 215H287.9V208ZM290.73 213.96C291.25 213.96 291.607 213.877 291.8 213.71C292 213.543 292.1 213.287 292.1 212.94C292.1 212.773 292.077 212.623 292.03 212.49C291.983 212.357 291.907 212.247 291.8 212.16C291.693 212.067 291.55 211.997 291.37 211.95C291.197 211.903 290.98 211.88 290.72 211.88H289.1V213.96H290.73ZM290.55 210.92C291.017 210.92 291.34 210.833 291.52 210.66C291.707 210.487 291.8 210.253 291.8 209.96C291.8 209.66 291.71 209.433 291.53 209.28C291.35 209.12 291.023 209.04 290.55 209.04H289.1V210.92H290.55ZM296.398 215.11C295.678 215.11 295.121 214.963 294.728 214.67C294.341 214.37 294.131 213.947 294.098 213.4H295.218C295.251 213.64 295.358 213.827 295.538 213.96C295.718 214.087 295.998 214.15 296.378 214.15C296.831 214.15 297.145 214.077 297.318 213.93C297.491 213.783 297.578 213.6 297.578 213.38C297.578 213.18 297.501 213.023 297.348 212.91C297.201 212.79 296.941 212.73 296.568 212.73H295.698V211.87H296.498C296.805 211.87 297.028 211.807 297.168 211.68C297.308 211.553 297.378 211.393 297.378 211.2C297.378 211.027 297.305 210.877 297.158 210.75C297.011 210.617 296.758 210.55 296.398 210.55C296.011 210.55 295.741 210.613 295.588 210.74C295.441 210.867 295.351 211.037 295.318 211.25H294.198C294.231 210.743 294.435 210.34 294.808 210.04C295.188 209.74 295.718 209.59 296.398 209.59C297.125 209.59 297.655 209.733 297.988 210.02C298.328 210.307 298.498 210.68 298.498 211.14C298.498 211.393 298.435 211.617 298.308 211.81C298.188 212.003 297.988 212.15 297.708 212.25C298.081 212.343 298.338 212.5 298.478 212.72C298.625 212.94 298.698 213.193 298.698 213.48C298.698 213.707 298.651 213.92 298.558 214.12C298.465 214.32 298.321 214.493 298.128 214.64C297.941 214.787 297.701 214.903 297.408 214.99C297.121 215.07 296.785 215.11 296.398 215.11ZM300.83 212.99C300.43 212.87 300.133 212.673 299.94 212.4C299.746 212.127 299.65 211.797 299.65 211.41C299.65 210.89 299.823 210.477 300.17 210.17C300.516 209.857 301.043 209.7 301.75 209.7H304.15V215H303.05V213.12H301.91L300.73 215H299.45L300.83 212.99ZM300.77 211.41C300.77 211.69 300.853 211.89 301.02 212.01C301.186 212.123 301.413 212.18 301.7 212.18H303.05V210.64H301.7C301.413 210.64 301.186 210.7 301.02 210.82C300.853 210.933 300.77 211.13 300.77 211.41ZM306.802 210.64H305.052V209.7H309.652V210.64H307.902V215H306.802V210.64ZM310.652 209.7H311.752V211.56H312.952C313.632 211.56 314.135 211.707 314.462 212C314.788 212.287 314.952 212.713 314.952 213.28C314.952 213.813 314.792 214.233 314.472 214.54C314.152 214.847 313.645 215 312.952 215H310.652V209.7ZM312.852 214.06C313.218 214.06 313.475 213.997 313.622 213.87C313.775 213.737 313.852 213.54 313.852 213.28C313.852 213.02 313.775 212.827 313.622 212.7C313.475 212.567 313.218 212.5 312.852 212.5H311.752V214.06H312.852ZM318.452 209.7H320.952C321.619 209.7 322.102 209.837 322.402 210.11C322.702 210.377 322.852 210.72 322.852 211.14C322.852 211.373 322.782 211.6 322.642 211.82C322.502 212.033 322.305 212.177 322.052 212.25C322.379 212.33 322.625 212.483 322.792 212.71C322.965 212.93 323.052 213.19 323.052 213.49C323.052 213.95 322.899 214.317 322.592 214.59C322.285 214.863 321.805 215 321.152 215H318.452V209.7ZM321.002 214.06C321.362 214.06 321.609 214.003 321.742 213.89C321.882 213.77 321.952 213.603 321.952 213.39C321.952 213.177 321.882 213.017 321.742 212.91C321.609 212.797 321.362 212.74 321.002 212.74H319.552V214.06H321.002ZM320.852 211.88C321.185 211.88 321.419 211.827 321.552 211.72C321.685 211.607 321.752 211.453 321.752 211.26C321.752 211.067 321.685 210.917 321.552 210.81C321.419 210.697 321.185 210.64 320.852 210.64H319.552V211.88H320.852ZM326.655 209.7H327.675V210.59C327.835 210.283 328.072 210.04 328.385 209.86C328.705 209.68 329.065 209.59 329.465 209.59C330.158 209.59 330.705 209.807 331.105 210.24C331.505 210.673 331.705 211.327 331.705 212.2V212.4C331.705 212.853 331.652 213.25 331.545 213.59C331.438 213.93 331.285 214.213 331.085 214.44C330.892 214.66 330.658 214.827 330.385 214.94C330.112 215.053 329.805 215.11 329.465 215.11C329.085 215.11 328.738 215.027 328.425 214.86C328.112 214.693 327.888 214.46 327.755 214.16V217H326.655V209.7ZM329.205 214.15C329.618 214.15 329.952 214.007 330.205 213.72C330.458 213.433 330.585 212.993 330.585 212.4V212.2C330.585 211.64 330.462 211.227 330.215 210.96C329.968 210.687 329.632 210.55 329.205 210.55C329.018 210.55 328.838 210.58 328.665 210.64C328.492 210.7 328.335 210.79 328.195 210.91C328.062 211.023 327.955 211.17 327.875 211.35C327.795 211.523 327.755 211.723 327.755 211.95V212.65C327.755 212.903 327.795 213.123 327.875 213.31C327.955 213.497 328.062 213.653 328.195 213.78C328.328 213.907 328.482 214 328.655 214.06C328.828 214.12 329.012 214.15 329.205 214.15ZM334.357 215.11C334.071 215.11 333.814 215.07 333.587 214.99C333.367 214.903 333.181 214.787 333.027 214.64C332.874 214.487 332.757 214.31 332.677 214.11C332.597 213.91 332.557 213.69 332.557 213.45C332.557 212.923 332.714 212.533 333.027 212.28C333.341 212.02 333.801 211.89 334.407 211.89H336.057V211.6C336.057 211.2 335.967 210.927 335.787 210.78C335.614 210.627 335.337 210.55 334.957 210.55C334.617 210.55 334.367 210.603 334.207 210.71C334.047 210.817 333.954 210.963 333.927 211.15H332.857C332.871 210.923 332.927 210.717 333.027 210.53C333.134 210.337 333.277 210.17 333.457 210.03C333.644 209.89 333.867 209.783 334.127 209.71C334.387 209.63 334.681 209.59 335.007 209.59C335.334 209.59 335.627 209.627 335.887 209.7C336.154 209.773 336.381 209.89 336.567 210.05C336.754 210.203 336.897 210.403 336.997 210.65C337.104 210.897 337.157 211.193 337.157 211.54V213.65C337.157 213.93 337.161 214.177 337.167 214.39C337.174 214.597 337.191 214.8 337.217 215H336.217C336.197 214.847 336.181 214.717 336.167 214.61C336.161 214.503 336.157 214.37 336.157 214.21C336.031 214.457 335.811 214.67 335.497 214.85C335.191 215.023 334.811 215.11 334.357 215.11ZM334.657 214.15C334.844 214.15 335.021 214.127 335.187 214.08C335.361 214.027 335.511 213.953 335.637 213.86C335.764 213.76 335.864 213.64 335.937 213.5C336.017 213.353 336.057 213.187 336.057 213V212.71H334.607C334.327 212.71 334.101 212.77 333.927 212.89C333.761 213.01 333.677 213.187 333.677 213.42C333.677 213.64 333.754 213.817 333.907 213.95C334.067 214.083 334.317 214.15 334.657 214.15ZM340.811 215.11C340.451 215.11 340.114 215.043 339.801 214.91C339.487 214.777 339.217 214.583 338.991 214.33C338.764 214.07 338.584 213.753 338.451 213.38C338.324 213 338.261 212.567 338.261 212.08V211.88C338.261 211.28 338.304 210.747 338.391 210.28C338.477 209.813 338.624 209.417 338.831 209.09C339.044 208.757 339.324 208.5 339.671 208.32C340.024 208.133 340.461 208.027 340.981 208C341.401 207.98 341.781 207.963 342.121 207.95C342.461 207.93 342.741 207.863 342.961 207.75V208.76C342.854 208.82 342.657 208.87 342.371 208.91C342.084 208.943 341.671 208.967 341.131 208.98C340.817 208.987 340.544 209.023 340.311 209.09C340.084 209.157 339.891 209.263 339.731 209.41C339.577 209.557 339.454 209.75 339.361 209.99C339.274 210.223 339.217 210.51 339.191 210.85C339.344 210.537 339.584 210.283 339.911 210.09C340.244 209.89 340.644 209.79 341.111 209.79C341.437 209.79 341.737 209.847 342.011 209.96C342.291 210.067 342.531 210.227 342.731 210.44C342.931 210.647 343.084 210.903 343.191 211.21C343.304 211.51 343.361 211.85 343.361 212.23V212.46C343.361 212.873 343.294 213.247 343.161 213.58C343.034 213.907 342.857 214.183 342.631 214.41C342.404 214.637 342.134 214.81 341.821 214.93C341.514 215.05 341.177 215.11 340.811 215.11ZM340.811 214.15C341.244 214.15 341.591 214.007 341.851 213.72C342.111 213.433 342.241 213.013 342.241 212.46V212.23C342.241 211.763 342.107 211.4 341.841 211.14C341.581 210.88 341.237 210.75 340.811 210.75C340.384 210.75 340.037 210.88 339.771 211.14C339.511 211.393 339.381 211.757 339.381 212.23V212.46C339.381 212.727 339.417 212.967 339.491 213.18C339.564 213.387 339.664 213.563 339.791 213.71C339.924 213.85 340.077 213.96 340.251 214.04C340.424 214.113 340.611 214.15 340.811 214.15ZM346.758 215.11C346.391 215.11 346.048 215.053 345.728 214.94C345.414 214.82 345.141 214.647 344.908 214.42C344.674 214.193 344.491 213.913 344.358 213.58C344.224 213.24 344.158 212.847 344.158 212.4V212.2C344.158 211.78 344.224 211.41 344.358 211.09C344.491 210.763 344.674 210.49 344.908 210.27C345.141 210.043 345.414 209.873 345.728 209.76C346.048 209.647 346.391 209.59 346.758 209.59C347.124 209.59 347.464 209.647 347.778 209.76C348.098 209.873 348.374 210.043 348.608 210.27C348.841 210.49 349.024 210.763 349.158 211.09C349.291 211.41 349.358 211.78 349.358 212.2V212.4C349.358 212.847 349.291 213.24 349.158 213.58C349.024 213.913 348.841 214.193 348.608 214.42C348.374 214.647 348.098 214.82 347.778 214.94C347.464 215.053 347.124 215.11 346.758 215.11ZM346.758 214.15C346.951 214.15 347.134 214.117 347.308 214.05C347.488 213.983 347.644 213.88 347.778 213.74C347.918 213.6 348.028 213.42 348.108 213.2C348.194 212.98 348.238 212.713 348.238 212.4V212.2C348.238 211.913 348.194 211.667 348.108 211.46C348.028 211.253 347.918 211.083 347.778 210.95C347.644 210.817 347.488 210.717 347.308 210.65C347.134 210.583 346.951 210.55 346.758 210.55C346.564 210.55 346.378 210.583 346.198 210.65C346.024 210.717 345.868 210.817 345.728 210.95C345.594 211.083 345.484 211.253 345.398 211.46C345.318 211.667 345.278 211.913 345.278 212.2V212.4C345.278 212.713 345.318 212.98 345.398 213.2C345.484 213.42 345.594 213.6 345.728 213.74C345.868 213.88 346.024 213.983 346.198 214.05C346.378 214.117 346.564 214.15 346.758 214.15ZM351.606 210.64H349.856V209.7H354.456V210.64H352.706V215H351.606V210.64ZM356.402 217.11C356.302 217.11 356.202 217.1 356.102 217.08V216.12C356.202 216.14 356.302 216.15 356.402 216.15C356.515 216.15 356.608 216.13 356.682 216.09C356.762 216.057 356.832 215.993 356.892 215.9C356.958 215.813 357.022 215.697 357.082 215.55C357.148 215.403 357.222 215.22 357.302 215L355.052 209.7H356.252L357.872 213.8L359.332 209.7H360.452L358.402 215C358.255 215.373 358.118 215.693 357.992 215.96C357.865 216.227 357.725 216.443 357.572 216.61C357.425 216.783 357.258 216.91 357.072 216.99C356.885 217.07 356.662 217.11 356.402 217.11Z" fill="white"/>
<rect x="424" y="44" width="180" height="192" rx="16" fill="#F2F6FF"/>
<g opacity="0.5">
<path d="M442.842 73.5789C441.702 73.5789 440.733 73.1797 439.934 72.3813C439.136 71.583 438.737 70.6137 438.737 69.4737C438.737 68.3336 439.136 67.3643 439.934 66.566C440.733 65.7676 441.702 65.3684 442.842 65.3684C443.982 65.3684 444.951 65.7676 445.75 66.566C446.548 67.3643 446.947 68.3336 446.947 69.4737C446.947 70.6137 446.548 71.583 445.75 72.3813C444.951 73.1797 443.982 73.5789 442.842 73.5789ZM442.842 71.6842C443.449 71.6842 443.97 71.4676 444.403 71.0344C444.836 70.6012 445.053 70.0809 445.053 69.4737C445.053 68.8664 444.836 68.3461 444.403 67.9129C443.97 67.4797 443.449 67.2631 442.842 67.2631C442.235 67.2631 441.715 67.4797 441.281 67.9129C440.848 68.3461 440.632 68.8664 440.632 69.4737C440.632 70.0809 440.848 70.6012 441.281 71.0344C441.715 71.4676 442.235 71.6842 442.842 71.6842ZM451.684 75.085C450.82 75.085 450.09 74.7868 449.494 74.1903C448.897 73.5939 448.599 72.8638 448.599 72C448.599 71.1362 448.897 70.406 449.494 69.8096C450.09 69.2132 450.82 68.915 451.684 68.915C452.548 68.915 453.278 69.2132 453.875 69.8096C454.471 70.406 454.769 71.1362 454.769 72C454.769 72.8638 454.471 73.5939 453.875 74.1903C453.278 74.7868 452.548 75.085 451.684 75.085ZM444.168 81.9255C445.108 80.1474 446.326 78.9433 447.824 78.3134C449.322 77.6834 450.609 77.3684 451.684 77.3684C452.144 77.3684 452.587 77.4045 453.014 77.4765C453.441 77.5486 453.859 77.6437 454.269 77.7619C454.798 77.0024 455.237 76.1291 455.584 75.1421C455.932 74.1551 456.105 73.1077 456.105 72C456.105 69.1789 455.126 66.7894 453.168 64.8315C451.21 62.8737 448.821 61.8947 446 61.8947C443.179 61.8947 440.789 62.8737 438.832 64.8315C436.874 66.7894 435.895 69.1789 435.895 72C435.895 73.0202 436.036 73.9882 436.319 74.904C436.601 75.8198 437.001 76.6623 437.517 77.4316C438.282 77.0267 439.138 76.7044 440.086 76.4648C441.034 76.2251 441.953 76.1053 442.842 76.1053C443.378 76.1053 443.912 76.151 444.444 76.2425C444.976 76.334 445.462 76.4502 445.903 76.5911C445.532 76.787 445.177 77.017 444.839 77.2809C444.5 77.5449 444.194 77.8137 443.921 78.0874C443.717 78.0453 443.527 78.0202 443.352 78.0121C443.177 78.004 443.007 77.9999 442.842 77.9999C442.155 77.9999 441.443 78.0878 440.706 78.2635C439.968 78.4392 439.302 78.6785 438.708 78.9813C439.438 79.7603 440.27 80.3983 441.202 80.8955C442.135 81.3927 443.124 81.736 444.168 81.9255ZM446.002 83.9999C444.342 83.9999 442.782 83.685 441.322 83.0551C439.862 82.4252 438.591 81.5704 437.511 80.4906C436.431 79.4108 435.575 78.141 434.945 76.6812C434.315 75.2215 434 73.6618 434 72.0021C434 70.3424 434.315 68.7823 434.945 67.322C435.575 65.8616 436.43 64.5912 437.509 63.5109C438.589 62.4307 439.859 61.5754 441.319 60.9453C442.778 60.3151 444.338 60 445.998 60C447.658 60 449.218 60.3149 450.678 60.9448C452.138 61.5747 453.409 62.4296 454.489 63.5094C455.569 64.5892 456.425 65.859 457.055 67.3187C457.685 68.7784 458 70.3381 458 71.9979C458 73.6576 457.685 75.2176 457.055 76.678C456.425 78.1384 455.57 79.4087 454.491 80.489C453.411 81.5693 452.141 82.4245 450.681 83.0547C449.222 83.6849 447.662 83.9999 446.002 83.9999Z" fill="#2261EB"/>
</g>
<path d="M435 102H435.94V107.5L439.66 102H440.6V109H439.66V103.5L435.94 109H435V102ZM444.448 109.1C444.108 109.1 443.791 109.047 443.498 108.94C443.204 108.827 442.951 108.66 442.738 108.44C442.524 108.213 442.354 107.93 442.228 107.59C442.108 107.25 442.048 106.853 442.048 106.4V106.2C442.048 105.773 442.114 105.397 442.248 105.07C442.381 104.743 442.558 104.473 442.778 104.26C442.998 104.04 443.251 103.877 443.538 103.77C443.831 103.657 444.134 103.6 444.448 103.6C444.761 103.6 445.041 103.643 445.288 103.73C445.541 103.817 445.758 103.937 445.938 104.09C446.124 104.243 446.274 104.423 446.388 104.63C446.508 104.837 446.594 105.06 446.648 105.3H445.748C445.694 105.173 445.631 105.057 445.558 104.95C445.491 104.837 445.404 104.74 445.298 104.66C445.198 104.58 445.078 104.517 444.938 104.47C444.798 104.423 444.634 104.4 444.448 104.4C444.254 104.4 444.068 104.437 443.888 104.51C443.708 104.577 443.548 104.683 443.408 104.83C443.268 104.97 443.154 105.153 443.068 105.38C442.988 105.607 442.948 105.88 442.948 106.2V106.4C442.948 106.74 442.988 107.033 443.068 107.28C443.154 107.52 443.268 107.717 443.408 107.87C443.548 108.017 443.708 108.127 443.888 108.2C444.068 108.267 444.254 108.3 444.448 108.3C444.774 108.3 445.048 108.22 445.268 108.06C445.494 107.9 445.654 107.68 445.748 107.4H446.648C446.521 107.927 446.261 108.343 445.868 108.65C445.474 108.95 445.001 109.1 444.448 109.1ZM449.057 104.48H447.247V103.7H451.747V104.48H449.937V109H449.057V104.48ZM454.852 109.1C454.512 109.1 454.188 109.047 453.882 108.94C453.575 108.827 453.305 108.66 453.072 108.44C452.838 108.213 452.652 107.93 452.512 107.59C452.372 107.25 452.302 106.853 452.302 106.4V106.2C452.302 105.773 452.372 105.397 452.512 105.07C452.652 104.743 452.838 104.473 453.072 104.26C453.305 104.04 453.575 103.877 453.882 103.77C454.188 103.657 454.512 103.6 454.852 103.6C455.192 103.6 455.515 103.657 455.822 103.77C456.128 103.877 456.398 104.04 456.632 104.26C456.865 104.473 457.052 104.743 457.192 105.07C457.332 105.397 457.402 105.773 457.402 106.2V106.4C457.402 106.853 457.332 107.25 457.192 107.59C457.052 107.93 456.865 108.213 456.632 108.44C456.398 108.66 456.128 108.827 455.822 108.94C455.515 109.047 455.192 109.1 454.852 109.1ZM454.852 108.3C455.052 108.3 455.252 108.267 455.452 108.2C455.652 108.127 455.828 108.017 455.982 107.87C456.135 107.717 456.258 107.52 456.352 107.28C456.452 107.04 456.502 106.747 456.502 106.4V106.2C456.502 105.88 456.452 105.607 456.352 105.38C456.258 105.153 456.135 104.967 455.982 104.82C455.828 104.673 455.652 104.567 455.452 104.5C455.252 104.433 455.052 104.4 454.852 104.4C454.652 104.4 454.452 104.433 454.252 104.5C454.052 104.567 453.875 104.673 453.722 104.82C453.568 104.967 453.442 105.153 453.342 105.38C453.248 105.607 453.202 105.88 453.202 106.2V106.4C453.202 106.747 453.248 107.04 453.342 107.28C453.442 107.52 453.568 107.717 453.722 107.87C453.875 108.017 454.052 108.127 454.252 108.2C454.452 108.267 454.652 108.3 454.852 108.3ZM461.718 106.89C461.564 106.983 461.378 107.067 461.158 107.14C460.944 107.213 460.674 107.25 460.348 107.25C460.041 107.25 459.764 107.217 459.518 107.15C459.278 107.083 459.074 106.977 458.908 106.83C458.741 106.683 458.614 106.493 458.528 106.26C458.441 106.027 458.398 105.74 458.398 105.4V103.7H459.278V105.25C459.278 105.477 459.298 105.667 459.338 105.82C459.384 105.973 459.458 106.097 459.558 106.19C459.658 106.283 459.784 106.35 459.938 106.39C460.091 106.43 460.278 106.45 460.498 106.45C460.798 106.45 461.054 106.42 461.268 106.36C461.481 106.3 461.631 106.237 461.718 106.17V103.7H462.598V109H461.718V106.89ZM464.195 103.7H465.075V105.91H467.815V103.7H468.695V109H467.815V106.69H465.075V109H464.195V103.7ZM470.298 103.7H471.178V107.7L473.918 103.7H474.798V109H473.918V105L471.178 109H470.298V103.7ZM476.402 103.7H477.282V105.92H477.982L479.962 103.7H481.002L478.702 106.24L481.102 109H479.982L477.982 106.68H477.282V109H476.402V103.7Z" fill="#1F1F25" fill-opacity="0.8"/>
<path opacity="0.5" d="M439.11 128.168C438.466 128.168 437.873 128.075 437.332 127.888C436.8 127.701 436.338 127.412 435.946 127.02C435.554 126.619 435.246 126.101 435.022 125.466C434.807 124.831 434.7 124.066 434.7 123.17V122.89C434.7 122.031 434.812 121.299 435.036 120.692C435.269 120.076 435.582 119.572 435.974 119.18C436.375 118.788 436.842 118.499 437.374 118.312C437.915 118.125 438.494 118.032 439.11 118.032C439.661 118.032 440.179 118.097 440.664 118.228C441.149 118.359 441.574 118.564 441.938 118.844C442.311 119.115 442.61 119.465 442.834 119.894C443.067 120.323 443.203 120.832 443.24 121.42H441.056C440.953 120.86 440.729 120.449 440.384 120.188C440.039 119.927 439.614 119.796 439.11 119.796C438.821 119.796 438.541 119.847 438.27 119.95C438.009 120.053 437.775 120.225 437.57 120.468C437.365 120.711 437.197 121.028 437.066 121.42C436.945 121.812 436.884 122.302 436.884 122.89V123.17C436.884 123.786 436.949 124.304 437.08 124.724C437.211 125.135 437.379 125.466 437.584 125.718C437.799 125.961 438.037 126.138 438.298 126.25C438.569 126.353 438.839 126.404 439.11 126.404C439.642 126.404 440.081 126.269 440.426 125.998C440.771 125.718 440.981 125.312 441.056 124.78H443.24C443.193 125.396 443.058 125.919 442.834 126.348C442.61 126.777 442.316 127.127 441.952 127.398C441.588 127.669 441.163 127.865 440.678 127.986C440.193 128.107 439.67 128.168 439.11 128.168ZM448.003 128.168C447.499 128.168 447.018 128.093 446.561 127.944C446.113 127.785 445.721 127.547 445.385 127.23C445.049 126.913 444.783 126.516 444.587 126.04C444.391 125.564 444.293 125.004 444.293 124.36V124.08C444.293 123.473 444.391 122.941 444.587 122.484C444.783 122.027 445.049 121.644 445.385 121.336C445.721 121.028 446.113 120.799 446.561 120.65C447.018 120.491 447.499 120.412 448.003 120.412C448.507 120.412 448.983 120.491 449.431 120.65C449.879 120.799 450.271 121.028 450.607 121.336C450.952 121.644 451.223 122.027 451.419 122.484C451.615 122.941 451.713 123.473 451.713 124.08V124.36C451.713 124.995 451.615 125.55 451.419 126.026C451.223 126.502 450.952 126.899 450.607 127.216C450.271 127.533 449.879 127.771 449.431 127.93C448.983 128.089 448.507 128.168 448.003 128.168ZM448.003 126.6C448.525 126.6 448.959 126.413 449.305 126.04C449.659 125.667 449.837 125.107 449.837 124.36V124.08C449.837 123.399 449.659 122.881 449.305 122.526C448.959 122.162 448.525 121.98 448.003 121.98C447.471 121.98 447.032 122.162 446.687 122.526C446.341 122.881 446.169 123.399 446.169 124.08V124.36C446.169 125.116 446.341 125.681 446.687 126.054C447.032 126.418 447.471 126.6 448.003 126.6ZM459.043 128H453.037V120.58H454.885V126.46H457.769V120.58H459.617V126.46H460.667V129.75H459.043V128ZM463.691 128.168C463.365 128.168 463.085 128.051 462.851 127.818C462.618 127.585 462.501 127.305 462.501 126.978C462.501 126.633 462.618 126.348 462.851 126.124C463.085 125.9 463.365 125.788 463.691 125.788C464.018 125.788 464.298 125.9 464.531 126.124C464.765 126.348 464.881 126.633 464.881 126.978C464.881 127.305 464.765 127.585 464.531 127.818C464.298 128.051 464.018 128.168 463.691 128.168ZM469.739 128.168C469.226 128.168 468.745 128.089 468.297 127.93C467.859 127.771 467.476 127.533 467.149 127.216C466.823 126.899 466.566 126.502 466.379 126.026C466.193 125.55 466.099 124.995 466.099 124.36V124.08C466.099 123.483 466.197 122.955 466.393 122.498C466.589 122.041 466.851 121.658 467.177 121.35C467.513 121.042 467.901 120.809 468.339 120.65C468.778 120.491 469.245 120.412 469.739 120.412C470.262 120.412 470.724 120.482 471.125 120.622C471.536 120.762 471.881 120.953 472.161 121.196C472.441 121.439 472.661 121.723 472.819 122.05C472.978 122.377 473.071 122.727 473.099 123.1H471.223C471.149 122.755 470.995 122.484 470.761 122.288C470.537 122.083 470.197 121.98 469.739 121.98C469.497 121.98 469.268 122.022 469.053 122.106C468.848 122.19 468.661 122.321 468.493 122.498C468.335 122.666 468.209 122.881 468.115 123.142C468.022 123.403 467.975 123.716 467.975 124.08V124.36C467.975 124.752 468.017 125.093 468.101 125.382C468.195 125.662 468.321 125.895 468.479 126.082C468.638 126.259 468.825 126.39 469.039 126.474C469.254 126.558 469.487 126.6 469.739 126.6C470.103 126.6 470.416 126.507 470.677 126.32C470.948 126.124 471.13 125.844 471.223 125.48H473.099C473.053 125.891 472.936 126.264 472.749 126.6C472.572 126.927 472.334 127.207 472.035 127.44C471.746 127.673 471.405 127.855 471.013 127.986C470.621 128.107 470.197 128.168 469.739 128.168ZM477.725 128.168C477.221 128.168 476.741 128.093 476.283 127.944C475.835 127.785 475.443 127.552 475.107 127.244C474.771 126.927 474.505 126.53 474.309 126.054C474.113 125.569 474.015 125.004 474.015 124.36V124.08C474.015 123.464 474.109 122.927 474.295 122.47C474.482 122.013 474.739 121.635 475.065 121.336C475.392 121.028 475.77 120.799 476.199 120.65C476.629 120.491 477.091 120.412 477.585 120.412C478.752 120.412 479.639 120.72 480.245 121.336C480.852 121.952 481.155 122.843 481.155 124.01V124.794H475.905C475.915 125.121 475.971 125.405 476.073 125.648C476.176 125.881 476.311 126.073 476.479 126.222C476.647 126.371 476.839 126.483 477.053 126.558C477.277 126.623 477.501 126.656 477.725 126.656C478.201 126.656 478.561 126.586 478.803 126.446C479.046 126.306 479.219 126.101 479.321 125.83H481.015C480.866 126.605 480.497 127.188 479.909 127.58C479.321 127.972 478.593 128.168 477.725 128.168ZM477.655 121.924C477.441 121.924 477.226 121.952 477.011 122.008C476.806 122.064 476.624 122.153 476.465 122.274C476.307 122.395 476.176 122.559 476.073 122.764C475.971 122.969 475.915 123.217 475.905 123.506H479.363C479.354 123.198 479.303 122.941 479.209 122.736C479.125 122.531 479.004 122.367 478.845 122.246C478.696 122.125 478.519 122.041 478.313 121.994C478.108 121.947 477.889 121.924 477.655 121.924ZM484.156 122.12H481.79V120.58H488.37V122.12H486.004V128H484.156V122.12ZM489.486 120.58H491.334V125.34L494.638 120.58H496.346V128H494.498V123.24L491.194 128H489.486V120.58Z" fill="#2261EB"/>
<path d="M437.55 149.1C437.157 149.1 436.783 149.033 436.43 148.9C436.077 148.76 435.763 148.547 435.49 148.26C435.217 147.967 435 147.597 434.84 147.15C434.68 146.703 434.6 146.17 434.6 145.55V145.35C434.6 144.75 434.68 144.233 434.84 143.8C435 143.367 435.217 143.01 435.49 142.73C435.763 142.45 436.077 142.243 436.43 142.11C436.783 141.97 437.157 141.9 437.55 141.9C437.93 141.9 438.277 141.95 438.59 142.05C438.91 142.15 439.19 142.293 439.43 142.48C439.67 142.667 439.863 142.897 440.01 143.17C440.163 143.443 440.26 143.753 440.3 144.1H439.3C439.207 143.647 439.01 143.307 438.71 143.08C438.41 142.853 438.023 142.74 437.55 142.74C437.303 142.74 437.063 142.787 436.83 142.88C436.597 142.973 436.387 143.123 436.2 143.33C436.02 143.53 435.873 143.797 435.76 144.13C435.653 144.463 435.6 144.87 435.6 145.35V145.55C435.6 146.057 435.66 146.483 435.78 146.83C435.9 147.17 436.053 147.447 436.24 147.66C436.427 147.873 436.637 148.027 436.87 148.12C437.103 148.213 437.33 148.26 437.55 148.26C438.07 148.26 438.477 148.133 438.77 147.88C439.063 147.627 439.24 147.3 439.3 146.9H440.3C440.247 147.287 440.14 147.62 439.98 147.9C439.82 148.173 439.617 148.4 439.37 148.58C439.13 148.76 438.853 148.893 438.54 148.98C438.233 149.06 437.903 149.1 437.55 149.1ZM442.297 151.1C442.197 151.1 442.097 151.09 441.997 151.07V150.27C442.097 150.29 442.197 150.3 442.297 150.3C442.397 150.3 442.484 150.283 442.557 150.25C442.63 150.217 442.7 150.153 442.767 150.06C442.834 149.967 442.904 149.833 442.977 149.66C443.057 149.493 443.147 149.273 443.247 149L440.997 143.7H441.977L443.697 148L445.257 143.7H446.197L444.197 149C444.057 149.373 443.924 149.693 443.797 149.96C443.67 150.227 443.534 150.443 443.387 150.61C443.247 150.783 443.09 150.907 442.917 150.98C442.744 151.06 442.537 151.1 442.297 151.1ZM447.193 143.7H448.133L450.023 147L451.913 143.7H452.793V149H451.913V145.15L450.343 147.85H449.643L448.073 145.15V149H447.193V143.7ZM454.39 143.7H455.33L457.22 147L459.11 143.7H459.99V149H459.11V145.15L457.54 147.85H456.84L455.27 145.15V149H454.39V143.7ZM463.097 149.1C462.804 149.1 462.544 149.06 462.317 148.98C462.097 148.893 461.91 148.777 461.757 148.63C461.604 148.483 461.487 148.31 461.407 148.11C461.327 147.91 461.287 147.69 461.287 147.45C461.287 146.923 461.44 146.543 461.747 146.31C462.06 146.077 462.507 145.96 463.087 145.96H464.807V145.6C464.807 145.147 464.704 144.833 464.497 144.66C464.297 144.487 463.994 144.4 463.587 144.4C463.207 144.4 462.93 144.473 462.757 144.62C462.584 144.76 462.487 144.92 462.467 145.1H461.587C461.6 144.887 461.657 144.69 461.757 144.51C461.864 144.323 462.004 144.163 462.177 144.03C462.357 143.897 462.57 143.793 462.817 143.72C463.064 143.64 463.337 143.6 463.637 143.6C464.264 143.6 464.76 143.75 465.127 144.05C465.5 144.343 465.687 144.827 465.687 145.5V147.65C465.687 147.93 465.687 148.177 465.687 148.39C465.694 148.597 465.71 148.8 465.737 149H464.967C464.947 148.847 464.934 148.703 464.927 148.57C464.92 148.43 464.917 148.273 464.917 148.1C464.777 148.38 464.55 148.617 464.237 148.81C463.924 149.003 463.544 149.1 463.097 149.1ZM463.287 148.3C463.494 148.3 463.687 148.273 463.867 148.22C464.054 148.16 464.217 148.077 464.357 147.97C464.497 147.857 464.607 147.72 464.687 147.56C464.767 147.4 464.807 147.213 464.807 147V146.64H463.237C462.91 146.64 462.654 146.707 462.467 146.84C462.28 146.967 462.187 147.17 462.187 147.45C462.187 147.697 462.274 147.9 462.447 148.06C462.627 148.22 462.907 148.3 463.287 148.3Z" fill="#1F1F25" fill-opacity="0.8"/>
<path opacity="0.5" d="M438.2 168.168C437.575 168.168 437.043 168.089 436.604 167.93C436.175 167.771 435.82 167.561 435.54 167.3C435.26 167.029 435.05 166.721 434.91 166.376C434.779 166.021 434.709 165.653 434.7 165.27H436.8C436.828 165.606 436.954 165.881 437.178 166.096C437.411 166.301 437.752 166.404 438.2 166.404C439.227 166.404 439.74 165.825 439.74 164.668C439.74 164.36 439.698 164.099 439.614 163.884C439.53 163.669 439.418 163.497 439.278 163.366C439.138 163.235 438.975 163.142 438.788 163.086C438.601 163.021 438.405 162.988 438.2 162.988C437.873 162.988 437.603 163.049 437.388 163.17C437.173 163.291 437.001 163.455 436.87 163.66H434.91V158.2H441.294V159.936H437.01V161.728C437.206 161.551 437.444 161.425 437.724 161.35C438.013 161.266 438.335 161.224 438.69 161.224C439.166 161.224 439.595 161.299 439.978 161.448C440.37 161.588 440.701 161.803 440.972 162.092C441.252 162.381 441.467 162.741 441.616 163.17C441.765 163.599 441.84 164.094 441.84 164.654C441.84 165.186 441.751 165.671 441.574 166.11C441.406 166.539 441.163 166.908 440.846 167.216C440.529 167.524 440.146 167.762 439.698 167.93C439.25 168.089 438.751 168.168 438.2 168.168ZM450.305 168.168C449.717 168.168 449.185 168.103 448.709 167.972C448.242 167.832 447.845 167.641 447.519 167.398C447.201 167.146 446.954 166.847 446.777 166.502C446.609 166.147 446.525 165.755 446.525 165.326C446.525 164.775 446.693 164.285 447.029 163.856C447.365 163.417 447.864 163.109 448.527 162.932C448.032 162.773 447.621 162.498 447.295 162.106C446.968 161.714 446.805 161.247 446.805 160.706C446.805 160.314 446.879 159.955 447.029 159.628C447.187 159.301 447.416 159.021 447.715 158.788C448.013 158.545 448.377 158.359 448.807 158.228C449.245 158.097 449.745 158.032 450.305 158.032C450.865 158.032 451.359 158.097 451.789 158.228C452.227 158.359 452.596 158.545 452.895 158.788C453.203 159.021 453.431 159.301 453.581 159.628C453.739 159.955 453.819 160.314 453.819 160.706C453.819 161.247 453.655 161.709 453.329 162.092C453.002 162.465 452.587 162.745 452.083 162.932C453.417 163.343 454.085 164.141 454.085 165.326C454.085 165.755 453.996 166.147 453.819 166.502C453.651 166.847 453.403 167.146 453.077 167.398C452.759 167.641 452.367 167.832 451.901 167.972C451.434 168.103 450.902 168.168 450.305 168.168ZM450.305 166.404C450.883 166.404 451.308 166.292 451.579 166.068C451.849 165.844 451.985 165.541 451.985 165.158C451.985 164.738 451.826 164.407 451.509 164.164C451.201 163.912 450.799 163.749 450.305 163.674C449.81 163.749 449.404 163.912 449.087 164.164C448.779 164.407 448.625 164.738 448.625 165.158C448.625 165.541 448.765 165.844 449.045 166.068C449.325 166.292 449.745 166.404 450.305 166.404ZM450.305 162.246C450.725 162.171 451.065 162.027 451.327 161.812C451.588 161.588 451.719 161.28 451.719 160.888C451.719 160.524 451.593 160.253 451.341 160.076C451.098 159.889 450.753 159.796 450.305 159.796C449.866 159.796 449.521 159.889 449.269 160.076C449.026 160.253 448.905 160.524 448.905 160.888C448.905 161.28 449.031 161.588 449.283 161.812C449.544 162.027 449.885 162.171 450.305 162.246ZM458.843 168.168C457.91 168.168 457.158 167.967 456.589 167.566C456.02 167.165 455.674 166.539 455.553 165.69H457.513C457.606 165.933 457.756 166.115 457.961 166.236C458.176 166.348 458.493 166.404 458.913 166.404C459.165 166.404 459.398 166.367 459.613 166.292C459.837 166.208 460.033 166.063 460.201 165.858C460.369 165.643 460.504 165.354 460.607 164.99C460.71 164.626 460.775 164.159 460.803 163.59C460.682 163.777 460.532 163.935 460.355 164.066C460.178 164.187 459.982 164.29 459.767 164.374C459.562 164.449 459.342 164.505 459.109 164.542C458.885 164.579 458.656 164.598 458.423 164.598C457.434 164.598 456.673 164.332 456.141 163.8C455.609 163.259 455.343 162.498 455.343 161.518V161.364C455.343 160.869 455.432 160.417 455.609 160.006C455.786 159.595 456.029 159.245 456.337 158.956C456.654 158.657 457.032 158.429 457.471 158.27C457.91 158.111 458.39 158.032 458.913 158.032C460.154 158.032 461.106 158.396 461.769 159.124C462.432 159.852 462.763 161.037 462.763 162.68V162.946C462.763 163.889 462.665 164.691 462.469 165.354C462.273 166.007 461.998 166.544 461.643 166.964C461.298 167.384 460.882 167.692 460.397 167.888C459.921 168.075 459.403 168.168 458.843 168.168ZM459.053 162.974C459.557 162.974 459.949 162.834 460.229 162.554C460.518 162.274 460.663 161.91 460.663 161.462V161.322C460.663 160.883 460.514 160.519 460.215 160.23C459.926 159.941 459.538 159.796 459.053 159.796C458.549 159.796 458.152 159.941 457.863 160.23C457.583 160.51 457.443 160.874 457.443 161.322V161.462C457.443 161.91 457.583 162.274 457.863 162.554C458.152 162.834 458.549 162.974 459.053 162.974ZM467.943 168.168C467.411 168.168 466.912 168.084 466.445 167.916C465.988 167.739 465.591 167.454 465.255 167.062C464.919 166.661 464.653 166.138 464.457 165.494C464.261 164.841 464.163 164.043 464.163 163.1V162.82C464.163 161.943 464.261 161.201 464.457 160.594C464.653 159.987 464.919 159.497 465.255 159.124C465.591 158.741 465.988 158.466 466.445 158.298C466.912 158.121 467.411 158.032 467.943 158.032C468.475 158.032 468.97 158.121 469.427 158.298C469.894 158.466 470.295 158.741 470.631 159.124C470.967 159.497 471.233 159.987 471.429 160.594C471.625 161.201 471.723 161.943 471.723 162.82V163.1C471.723 164.043 471.625 164.841 471.429 165.494C471.233 166.138 470.967 166.661 470.631 167.062C470.295 167.454 469.894 167.739 469.427 167.916C468.97 168.084 468.475 168.168 467.943 168.168ZM467.943 166.404C468.176 166.404 468.396 166.357 468.601 166.264C468.806 166.171 468.984 166.003 469.133 165.76C469.292 165.508 469.413 165.167 469.497 164.738C469.581 164.309 469.623 163.763 469.623 163.1V162.82C469.623 162.223 469.581 161.733 469.497 161.35C469.413 160.958 469.292 160.65 469.133 160.426C468.984 160.193 468.806 160.029 468.601 159.936C468.396 159.843 468.176 159.796 467.943 159.796C467.7 159.796 467.476 159.843 467.271 159.936C467.075 160.029 466.898 160.193 466.739 160.426C466.59 160.65 466.473 160.958 466.389 161.35C466.305 161.733 466.263 162.223 466.263 162.82V163.1C466.263 163.763 466.305 164.309 466.389 164.738C466.473 165.167 466.59 165.508 466.739 165.76C466.898 166.003 467.075 166.171 467.271 166.264C467.476 166.357 467.7 166.404 467.943 166.404ZM477.458 166.768H476.198V165.312H477.458V164.5H476.198V162.764H477.458V158.2H480.958C481.555 158.2 482.078 158.275 482.526 158.424C482.983 158.573 483.366 158.788 483.674 159.068C483.982 159.339 484.211 159.67 484.36 160.062C484.519 160.445 484.598 160.874 484.598 161.35C484.598 161.826 484.519 162.26 484.36 162.652C484.211 163.035 483.982 163.366 483.674 163.646C483.366 163.917 482.983 164.127 482.526 164.276C482.078 164.425 481.555 164.5 480.958 164.5H479.558V165.312H482.638V166.768H479.558V168H477.458V166.768ZM480.748 162.764C481.364 162.764 481.807 162.643 482.078 162.4C482.358 162.148 482.498 161.798 482.498 161.35C482.498 160.902 482.367 160.557 482.106 160.314C481.845 160.062 481.392 159.936 480.748 159.936H479.558V162.764H480.748Z" fill="#2261EB"/>
<rect x="434" y="197" width="160" height="29" rx="8" fill="#8FAFF5"/>
<path d="M477.9 208H480.7C481.493 208 482.073 208.17 482.44 208.51C482.813 208.85 483 209.303 483 209.87C483 210.23 482.907 210.54 482.72 210.8C482.533 211.053 482.277 211.237 481.95 211.35C482.363 211.443 482.69 211.633 482.93 211.92C483.177 212.2 483.3 212.567 483.3 213.02C483.3 213.313 483.253 213.583 483.16 213.83C483.067 214.07 482.92 214.277 482.72 214.45C482.527 214.623 482.277 214.76 481.97 214.86C481.663 214.953 481.293 215 480.86 215H477.9V208ZM480.73 213.96C481.25 213.96 481.607 213.877 481.8 213.71C482 213.543 482.1 213.287 482.1 212.94C482.1 212.773 482.077 212.623 482.03 212.49C481.983 212.357 481.907 212.247 481.8 212.16C481.693 212.067 481.55 211.997 481.37 211.95C481.197 211.903 480.98 211.88 480.72 211.88H479.1V213.96H480.73ZM480.55 210.92C481.017 210.92 481.34 210.833 481.52 210.66C481.707 210.487 481.8 210.253 481.8 209.96C481.8 209.66 481.71 209.433 481.53 209.28C481.35 209.12 481.023 209.04 480.55 209.04H479.1V210.92H480.55ZM486.398 215.11C485.678 215.11 485.121 214.963 484.728 214.67C484.341 214.37 484.131 213.947 484.098 213.4H485.218C485.251 213.64 485.358 213.827 485.538 213.96C485.718 214.087 485.998 214.15 486.378 214.15C486.831 214.15 487.145 214.077 487.318 213.93C487.491 213.783 487.578 213.6 487.578 213.38C487.578 213.18 487.501 213.023 487.348 212.91C487.201 212.79 486.941 212.73 486.568 212.73H485.698V211.87H486.498C486.805 211.87 487.028 211.807 487.168 211.68C487.308 211.553 487.378 211.393 487.378 211.2C487.378 211.027 487.305 210.877 487.158 210.75C487.011 210.617 486.758 210.55 486.398 210.55C486.011 210.55 485.741 210.613 485.588 210.74C485.441 210.867 485.351 211.037 485.318 211.25H484.198C484.231 210.743 484.435 210.34 484.808 210.04C485.188 209.74 485.718 209.59 486.398 209.59C487.125 209.59 487.655 209.733 487.988 210.02C488.328 210.307 488.498 210.68 488.498 211.14C488.498 211.393 488.435 211.617 488.308 211.81C488.188 212.003 487.988 212.15 487.708 212.25C488.081 212.343 488.338 212.5 488.478 212.72C488.625 212.94 488.698 213.193 488.698 213.48C488.698 213.707 488.651 213.92 488.558 214.12C488.465 214.32 488.321 214.493 488.128 214.64C487.941 214.787 487.701 214.903 487.408 214.99C487.121 215.07 486.785 215.11 486.398 215.11ZM490.83 212.99C490.43 212.87 490.133 212.673 489.94 212.4C489.746 212.127 489.65 211.797 489.65 211.41C489.65 210.89 489.823 210.477 490.17 210.17C490.516 209.857 491.043 209.7 491.75 209.7H494.15V215H493.05V213.12H491.91L490.73 215H489.45L490.83 212.99ZM490.77 211.41C490.77 211.69 490.853 211.89 491.02 212.01C491.186 212.123 491.413 212.18 491.7 212.18H493.05V210.64H491.7C491.413 210.64 491.186 210.7 491.02 210.82C490.853 210.933 490.77 211.13 490.77 211.41ZM496.802 210.64H495.052V209.7H499.652V210.64H497.902V215H496.802V210.64ZM500.652 209.7H501.752V211.56H502.952C503.632 211.56 504.135 211.707 504.462 212C504.788 212.287 504.952 212.713 504.952 213.28C504.952 213.813 504.792 214.233 504.472 214.54C504.152 214.847 503.645 215 502.952 215H500.652V209.7ZM502.852 214.06C503.218 214.06 503.475 213.997 503.622 213.87C503.775 213.737 503.852 213.54 503.852 213.28C503.852 213.02 503.775 212.827 503.622 212.7C503.475 212.567 503.218 212.5 502.852 212.5H501.752V214.06H502.852ZM508.452 209.7H510.952C511.619 209.7 512.102 209.837 512.402 210.11C512.702 210.377 512.852 210.72 512.852 211.14C512.852 211.373 512.782 211.6 512.642 211.82C512.502 212.033 512.305 212.177 512.052 212.25C512.379 212.33 512.625 212.483 512.792 212.71C512.965 212.93 513.052 213.19 513.052 213.49C513.052 213.95 512.899 214.317 512.592 214.59C512.285 214.863 511.805 215 511.152 215H508.452V209.7ZM511.002 214.06C511.362 214.06 511.609 214.003 511.742 213.89C511.882 213.77 511.952 213.603 511.952 213.39C511.952 213.177 511.882 213.017 511.742 212.91C511.609 212.797 511.362 212.74 511.002 212.74H509.552V214.06H511.002ZM510.852 211.88C511.185 211.88 511.419 211.827 511.552 211.72C511.685 211.607 511.752 211.453 511.752 211.26C511.752 211.067 511.685 210.917 511.552 210.81C511.419 210.697 511.185 210.64 510.852 210.64H509.552V211.88H510.852ZM516.655 209.7H517.675V210.59C517.835 210.283 518.072 210.04 518.385 209.86C518.705 209.68 519.065 209.59 519.465 209.59C520.158 209.59 520.705 209.807 521.105 210.24C521.505 210.673 521.705 211.327 521.705 212.2V212.4C521.705 212.853 521.652 213.25 521.545 213.59C521.438 213.93 521.285 214.213 521.085 214.44C520.892 214.66 520.658 214.827 520.385 214.94C520.112 215.053 519.805 215.11 519.465 215.11C519.085 215.11 518.738 215.027 518.425 214.86C518.112 214.693 517.888 214.46 517.755 214.16V217H516.655V209.7ZM519.205 214.15C519.618 214.15 519.952 214.007 520.205 213.72C520.458 213.433 520.585 212.993 520.585 212.4V212.2C520.585 211.64 520.462 211.227 520.215 210.96C519.968 210.687 519.632 210.55 519.205 210.55C519.018 210.55 518.838 210.58 518.665 210.64C518.492 210.7 518.335 210.79 518.195 210.91C518.062 211.023 517.955 211.17 517.875 211.35C517.795 211.523 517.755 211.723 517.755 211.95V212.65C517.755 212.903 517.795 213.123 517.875 213.31C517.955 213.497 518.062 213.653 518.195 213.78C518.328 213.907 518.482 214 518.655 214.06C518.828 214.12 519.012 214.15 519.205 214.15ZM524.357 215.11C524.071 215.11 523.814 215.07 523.587 214.99C523.367 214.903 523.181 214.787 523.027 214.64C522.874 214.487 522.757 214.31 522.677 214.11C522.597 213.91 522.557 213.69 522.557 213.45C522.557 212.923 522.714 212.533 523.027 212.28C523.341 212.02 523.801 211.89 524.407 211.89H526.057V211.6C526.057 211.2 525.967 210.927 525.787 210.78C525.614 210.627 525.337 210.55 524.957 210.55C524.617 210.55 524.367 210.603 524.207 210.71C524.047 210.817 523.954 210.963 523.927 211.15H522.857C522.871 210.923 522.927 210.717 523.027 210.53C523.134 210.337 523.277 210.17 523.457 210.03C523.644 209.89 523.867 209.783 524.127 209.71C524.387 209.63 524.681 209.59 525.007 209.59C525.334 209.59 525.627 209.627 525.887 209.7C526.154 209.773 526.381 209.89 526.567 210.05C526.754 210.203 526.897 210.403 526.997 210.65C527.104 210.897 527.157 211.193 527.157 211.54V213.65C527.157 213.93 527.161 214.177 527.167 214.39C527.174 214.597 527.191 214.8 527.217 215H526.217C526.197 214.847 526.181 214.717 526.167 214.61C526.161 214.503 526.157 214.37 526.157 214.21C526.031 214.457 525.811 214.67 525.497 214.85C525.191 215.023 524.811 215.11 524.357 215.11ZM524.657 214.15C524.844 214.15 525.021 214.127 525.187 214.08C525.361 214.027 525.511 213.953 525.637 213.86C525.764 213.76 525.864 213.64 525.937 213.5C526.017 213.353 526.057 213.187 526.057 213V212.71H524.607C524.327 212.71 524.101 212.77 523.927 212.89C523.761 213.01 523.677 213.187 523.677 213.42C523.677 213.64 523.754 213.817 523.907 213.95C524.067 214.083 524.317 214.15 524.657 214.15ZM530.811 215.11C530.451 215.11 530.114 215.043 529.801 214.91C529.487 214.777 529.217 214.583 528.991 214.33C528.764 214.07 528.584 213.753 528.451 213.38C528.324 213 528.261 212.567 528.261 212.08V211.88C528.261 211.28 528.304 210.747 528.391 210.28C528.477 209.813 528.624 209.417 528.831 209.09C529.044 208.757 529.324 208.5 529.671 208.32C530.024 208.133 530.461 208.027 530.981 208C531.401 207.98 531.781 207.963 532.121 207.95C532.461 207.93 532.741 207.863 532.961 207.75V208.76C532.854 208.82 532.657 208.87 532.371 208.91C532.084 208.943 531.671 208.967 531.131 208.98C530.817 208.987 530.544 209.023 530.311 209.09C530.084 209.157 529.891 209.263 529.731 209.41C529.577 209.557 529.454 209.75 529.361 209.99C529.274 210.223 529.217 210.51 529.191 210.85C529.344 210.537 529.584 210.283 529.911 210.09C530.244 209.89 530.644 209.79 531.111 209.79C531.437 209.79 531.737 209.847 532.011 209.96C532.291 210.067 532.531 210.227 532.731 210.44C532.931 210.647 533.084 210.903 533.191 211.21C533.304 211.51 533.361 211.85 533.361 212.23V212.46C533.361 212.873 533.294 213.247 533.161 213.58C533.034 213.907 532.857 214.183 532.631 214.41C532.404 214.637 532.134 214.81 531.821 214.93C531.514 215.05 531.177 215.11 530.811 215.11ZM530.811 214.15C531.244 214.15 531.591 214.007 531.851 213.72C532.111 213.433 532.241 213.013 532.241 212.46V212.23C532.241 211.763 532.107 211.4 531.841 211.14C531.581 210.88 531.237 210.75 530.811 210.75C530.384 210.75 530.037 210.88 529.771 211.14C529.511 211.393 529.381 211.757 529.381 212.23V212.46C529.381 212.727 529.417 212.967 529.491 213.18C529.564 213.387 529.664 213.563 529.791 213.71C529.924 213.85 530.077 213.96 530.251 214.04C530.424 214.113 530.611 214.15 530.811 214.15ZM536.758 215.11C536.391 215.11 536.048 215.053 535.728 214.94C535.414 214.82 535.141 214.647 534.908 214.42C534.674 214.193 534.491 213.913 534.358 213.58C534.224 213.24 534.158 212.847 534.158 212.4V212.2C534.158 211.78 534.224 211.41 534.358 211.09C534.491 210.763 534.674 210.49 534.908 210.27C535.141 210.043 535.414 209.873 535.728 209.76C536.048 209.647 536.391 209.59 536.758 209.59C537.124 209.59 537.464 209.647 537.778 209.76C538.098 209.873 538.374 210.043 538.608 210.27C538.841 210.49 539.024 210.763 539.158 211.09C539.291 211.41 539.358 211.78 539.358 212.2V212.4C539.358 212.847 539.291 213.24 539.158 213.58C539.024 213.913 538.841 214.193 538.608 214.42C538.374 214.647 538.098 214.82 537.778 214.94C537.464 215.053 537.124 215.11 536.758 215.11ZM536.758 214.15C536.951 214.15 537.134 214.117 537.308 214.05C537.488 213.983 537.644 213.88 537.778 213.74C537.918 213.6 538.028 213.42 538.108 213.2C538.194 212.98 538.238 212.713 538.238 212.4V212.2C538.238 211.913 538.194 211.667 538.108 211.46C538.028 211.253 537.918 211.083 537.778 210.95C537.644 210.817 537.488 210.717 537.308 210.65C537.134 210.583 536.951 210.55 536.758 210.55C536.564 210.55 536.378 210.583 536.198 210.65C536.024 210.717 535.868 210.817 535.728 210.95C535.594 211.083 535.484 211.253 535.398 211.46C535.318 211.667 535.278 211.913 535.278 212.2V212.4C535.278 212.713 535.318 212.98 535.398 213.2C535.484 213.42 535.594 213.6 535.728 213.74C535.868 213.88 536.024 213.983 536.198 214.05C536.378 214.117 536.564 214.15 536.758 214.15ZM541.606 210.64H539.856V209.7H544.456V210.64H542.706V215H541.606V210.64ZM546.402 217.11C546.302 217.11 546.202 217.1 546.102 217.08V216.12C546.202 216.14 546.302 216.15 546.402 216.15C546.515 216.15 546.608 216.13 546.682 216.09C546.762 216.057 546.832 215.993 546.892 215.9C546.958 215.813 547.022 215.697 547.082 215.55C547.148 215.403 547.222 215.22 547.302 215L545.052 209.7H546.252L547.872 213.8L549.332 209.7H550.452L548.402 215C548.255 215.373 548.118 215.693 547.992 215.96C547.865 216.227 547.725 216.443 547.572 216.61C547.425 216.783 547.258 216.91 547.072 216.99C546.885 217.07 546.662 217.11 546.402 217.11Z" fill="white"/>
</g>
<defs>
<filter id="filter0_d_7170_61355" x="0" y="0" width="648" height="280" filterUnits="userSpaceOnUse" color-interpolation-filters="sRGB">
<feFlood flood-opacity="0" result="BackgroundImageFix"/>
<feColorMatrix in="SourceAlpha" type="matrix" values="0 0 0 0 0 0 0 0 0 0 0 0 0 0 0 0 0 0 127 0" result="hardAlpha"/>
<feOffset/>
<feGaussianBlur stdDeviation="10"/>
<feComposite in2="hardAlpha" operator="out"/>
<feColorMatrix type="matrix" values="0 0 0 0 0.641198 0 0 0 0 0.761107 0 0 0 0 0.8125 0 0 0 0.6 0"/>
<feBlend mode="normal" in2="BackgroundImageFix" result="effect1_dropShadow_7170_61355"/>
<feBlend mode="normal" in="SourceGraphic" in2="effect1_dropShadow_7170_61355" result="shape"/>
</filter>
</defs>
</svg>
