<svg width="546" height="500" viewBox="0 0 546 500" fill="none" xmlns="http://www.w3.org/2000/svg">
<g filter="url(#filter0_d_7175_66207)">
<rect x="28" y="27.7935" width="490.064" height="285.143" rx="32" fill="white" shape-rendering="crispEdges"/>
<g clip-path="url(#clip0_7175_66207)">
<path d="M54.4915 59.5647H61.6915C63.5795 59.5647 64.9715 59.9647 65.8675 60.7647C66.7635 61.5487 67.2115 62.6447 67.2115 64.0527C67.2115 64.9167 66.9955 65.6607 66.5635 66.2847C66.1475 66.8927 65.5715 67.3327 64.8355 67.6047C65.7955 67.8287 66.5475 68.2847 67.0915 68.9727C67.6515 69.6447 67.9315 70.5247 67.9315 71.6127C67.9315 72.3327 67.8195 72.9887 67.5955 73.5807C67.3715 74.1567 67.0195 74.6527 66.5395 75.0687C66.0755 75.4847 65.4675 75.8047 64.7155 76.0287C63.9635 76.2527 63.0595 76.3647 62.0035 76.3647H54.4915V59.5647ZM61.3555 73.6287C62.4755 73.6287 63.2515 73.4367 63.6835 73.0527C64.1155 72.6687 64.3315 72.1007 64.3315 71.3487C64.3315 70.5967 64.1155 70.0127 63.6835 69.5967C63.2515 69.1647 62.4675 68.9487 61.3315 68.9487H58.0915V73.6287H61.3555ZM60.9715 66.5007C61.9475 66.5007 62.6275 66.3087 63.0115 65.9247C63.4115 65.5407 63.6115 65.0207 63.6115 64.3647C63.6115 63.6927 63.4195 63.1807 63.0355 62.8287C62.6515 62.4767 61.9715 62.3007 60.9955 62.3007H58.0915V66.5007H60.9715ZM70.324 63.6447H73.492V67.9167H75.724C79.004 67.9167 80.644 69.3247 80.644 72.1407C80.644 72.7647 80.548 73.3407 80.356 73.8687C80.18 74.3807 79.892 74.8207 79.492 75.1887C79.092 75.5567 78.58 75.8447 77.956 76.0527C77.332 76.2607 76.588 76.3647 75.724 76.3647H70.324V63.6447ZM75.364 73.8207C76.132 73.8207 76.676 73.6847 76.996 73.4127C77.316 73.1247 77.476 72.7007 77.476 72.1407C77.476 71.5807 77.308 71.1647 76.972 70.8927C76.652 70.6047 76.116 70.4607 75.364 70.4607H73.492V73.8207H75.364ZM82.036 63.6447H85.204V76.3647H82.036V63.6447ZM88.0897 63.6447H91.0417V65.5167C91.3617 64.9407 91.8657 64.4367 92.5537 64.0047C93.2417 63.5727 94.1137 63.3567 95.1697 63.3567C96.8657 63.3567 98.1857 63.8847 99.1297 64.9407C100.09 65.9807 100.57 67.5487 100.57 69.6447V70.1247C100.57 72.3167 100.082 73.9567 99.1057 75.0447C98.1457 76.1167 96.8337 76.6527 95.1697 76.6527C94.3057 76.6527 93.5377 76.4687 92.8657 76.1007C92.2097 75.7167 91.6737 75.2207 91.2577 74.6127V81.1647H88.0897V63.6447ZM94.4257 73.9647C95.2577 73.9647 95.9537 73.6527 96.5137 73.0287C97.0737 72.3887 97.3537 71.4207 97.3537 70.1247V69.6447C97.3537 68.4447 97.0817 67.5487 96.5377 66.9567C95.9937 66.3487 95.2897 66.0447 94.4257 66.0447C93.5137 66.0447 92.7537 66.3087 92.1457 66.8367C91.5537 67.3487 91.2577 68.1247 91.2577 69.1647V70.6047C91.2577 71.7407 91.5457 72.5887 92.1217 73.1487C92.7137 73.6927 93.4817 73.9647 94.4257 73.9647ZM104.547 81.4527C104.307 81.4527 104.067 81.4287 103.827 81.3807V78.6927C104.067 78.7407 104.307 78.7647 104.547 78.7647C105.027 78.7647 105.395 78.5807 105.651 78.2127C105.923 77.8607 106.227 77.2447 106.563 76.3647L101.187 63.6447H104.739L108.195 72.4287L111.363 63.6447H114.627L109.731 76.3647C109.379 77.2607 109.043 78.0287 108.723 78.6687C108.419 79.3247 108.075 79.8527 107.691 80.2527C107.307 80.6687 106.867 80.9727 106.371 81.1647C105.875 81.3567 105.267 81.4527 104.547 81.4527ZM124.055 71.6847C123.687 71.9087 123.247 72.1087 122.735 72.2847C122.223 72.4607 121.599 72.5487 120.863 72.5487C119.311 72.5487 118.143 72.1807 117.359 71.4447C116.575 70.7087 116.183 69.5487 116.183 67.9647V63.6447H119.351V67.6047C119.351 68.4367 119.527 69.0207 119.879 69.3567C120.231 69.6927 120.839 69.8607 121.703 69.8607C122.311 69.8607 122.807 69.7887 123.191 69.6447C123.591 69.5007 123.879 69.3647 124.055 69.2367V63.6447H127.223V76.3647H124.055V71.6847ZM130.113 63.6447H133.281V68.6367H134.481L138.369 63.6447H141.873L137.073 69.6687L142.113 76.3647H138.321L134.481 71.1327H133.281V76.3647H130.113V63.6447ZM147.499 76.6527C146.811 76.6527 146.203 76.5567 145.675 76.3647C145.147 76.1567 144.699 75.8767 144.331 75.5247C143.963 75.1567 143.683 74.7327 143.491 74.2527C143.299 73.7567 143.203 73.2207 143.203 72.6447C143.203 70.0847 144.723 68.8047 147.763 68.8047H151.555V68.2047C151.555 67.3727 151.363 66.7887 150.979 66.4527C150.611 66.1167 150.019 65.9487 149.203 65.9487C148.483 65.9487 147.963 66.0767 147.643 66.3327C147.323 66.5727 147.139 66.8767 147.091 67.2447H143.923C143.955 66.7007 144.091 66.1887 144.331 65.7087C144.587 65.2287 144.939 64.8207 145.387 64.4847C145.851 64.1327 146.411 63.8607 147.067 63.6687C147.723 63.4607 148.475 63.3567 149.323 63.3567C150.139 63.3567 150.875 63.4447 151.531 63.6207C152.203 63.7967 152.771 64.0847 153.235 64.4847C153.715 64.8687 154.083 65.3727 154.339 65.9967C154.595 66.6207 154.723 67.3727 154.723 68.2527V73.1247C154.723 73.7967 154.731 74.3887 154.747 74.9007C154.779 75.3967 154.827 75.8847 154.891 76.3647H151.939C151.875 76.0127 151.835 75.7487 151.819 75.5727C151.819 75.3807 151.819 75.1007 151.819 74.7327C151.467 75.2447 150.931 75.6927 150.211 76.0767C149.507 76.4607 148.603 76.6527 147.499 76.6527ZM148.483 74.2047C148.867 74.2047 149.243 74.1567 149.611 74.0607C149.979 73.9487 150.307 73.7887 150.595 73.5807C150.883 73.3567 151.115 73.0767 151.291 72.7407C151.467 72.4047 151.555 72.0127 151.555 71.5647V70.9647H148.363C147.755 70.9647 147.275 71.1087 146.923 71.3967C146.587 71.6687 146.419 72.0447 146.419 72.5247C146.419 73.0367 146.595 73.4447 146.947 73.7487C147.299 74.0527 147.811 74.2047 148.483 74.2047ZM163.488 63.6447H167.232L170.76 70.5087L174.288 63.6447H177.888V76.3647H174.864V68.0847L171.768 73.8447H169.608L166.512 68.0847V76.3647H163.488V63.6447ZM184.578 76.6527C183.89 76.6527 183.282 76.5567 182.754 76.3647C182.226 76.1567 181.778 75.8767 181.41 75.5247C181.042 75.1567 180.762 74.7327 180.57 74.2527C180.378 73.7567 180.282 73.2207 180.282 72.6447C180.282 70.0847 181.802 68.8047 184.842 68.8047H188.634V68.2047C188.634 67.3727 188.442 66.7887 188.058 66.4527C187.69 66.1167 187.098 65.9487 186.282 65.9487C185.562 65.9487 185.042 66.0767 184.722 66.3327C184.402 66.5727 184.218 66.8767 184.17 67.2447H181.002C181.034 66.7007 181.17 66.1887 181.41 65.7087C181.666 65.2287 182.018 64.8207 182.466 64.4847C182.93 64.1327 183.49 63.8607 184.146 63.6687C184.802 63.4607 185.554 63.3567 186.402 63.3567C187.218 63.3567 187.954 63.4447 188.61 63.6207C189.282 63.7967 189.85 64.0847 190.314 64.4847C190.794 64.8687 191.162 65.3727 191.418 65.9967C191.674 66.6207 191.802 67.3727 191.802 68.2527V73.1247C191.802 73.7967 191.81 74.3887 191.826 74.9007C191.858 75.3967 191.906 75.8847 191.97 76.3647H189.018C188.954 76.0127 188.914 75.7487 188.898 75.5727C188.898 75.3807 188.898 75.1007 188.898 74.7327C188.546 75.2447 188.01 75.6927 187.29 76.0767C186.586 76.4607 185.682 76.6527 184.578 76.6527ZM185.562 74.2047C185.946 74.2047 186.322 74.1567 186.69 74.0607C187.058 73.9487 187.386 73.7887 187.674 73.5807C187.962 73.3567 188.194 73.0767 188.37 72.7407C188.546 72.4047 188.634 72.0127 188.634 71.5647V70.9647H185.442C184.834 70.9647 184.354 71.1087 184.002 71.3967C183.666 71.6687 183.498 72.0447 183.498 72.5247C183.498 73.0367 183.674 73.4447 184.026 73.7487C184.378 74.0527 184.89 74.2047 185.562 74.2047ZM194.806 63.6447H203.926V66.2847H197.974V76.3647H194.806V63.6447ZM209.187 76.6527C208.499 76.6527 207.891 76.5567 207.363 76.3647C206.835 76.1567 206.387 75.8767 206.019 75.5247C205.651 75.1567 205.371 74.7327 205.179 74.2527C204.987 73.7567 204.891 73.2207 204.891 72.6447C204.891 70.0847 206.411 68.8047 209.451 68.8047H213.243V68.2047C213.243 67.3727 213.051 66.7887 212.667 66.4527C212.299 66.1167 211.707 65.9487 210.891 65.9487C210.171 65.9487 209.651 66.0767 209.331 66.3327C209.011 66.5727 208.827 66.8767 208.779 67.2447H205.611C205.643 66.7007 205.779 66.1887 206.019 65.7087C206.275 65.2287 206.627 64.8207 207.075 64.4847C207.539 64.1327 208.099 63.8607 208.755 63.6687C209.411 63.4607 210.163 63.3567 211.011 63.3567C211.827 63.3567 212.563 63.4447 213.219 63.6207C213.891 63.7967 214.459 64.0847 214.923 64.4847C215.403 64.8687 215.771 65.3727 216.027 65.9967C216.283 66.6207 216.411 67.3727 216.411 68.2527V73.1247C216.411 73.7967 216.419 74.3887 216.435 74.9007C216.467 75.3967 216.515 75.8847 216.579 76.3647H213.627C213.563 76.0127 213.523 75.7487 213.507 75.5727C213.507 75.3807 213.507 75.1007 213.507 74.7327C213.155 75.2447 212.619 75.6927 211.899 76.0767C211.195 76.4607 210.291 76.6527 209.187 76.6527ZM210.171 74.2047C210.555 74.2047 210.931 74.1567 211.299 74.0607C211.667 73.9487 211.995 73.7887 212.283 73.5807C212.571 73.3567 212.803 73.0767 212.979 72.7407C213.155 72.4047 213.243 72.0127 213.243 71.5647V70.9647H210.051C209.443 70.9647 208.963 71.1087 208.611 71.3967C208.275 71.6687 208.107 72.0447 208.107 72.5247C208.107 73.0367 208.283 73.4447 208.635 73.7487C208.987 74.0527 209.499 74.2047 210.171 74.2047ZM224.216 76.6527C222.376 76.6527 220.976 76.2767 220.016 75.5247C219.056 74.7727 218.536 73.6927 218.456 72.2847H221.672C221.704 72.5567 221.768 72.7967 221.864 73.0047C221.96 73.2127 222.104 73.3887 222.296 73.5327C222.488 73.6767 222.736 73.7887 223.04 73.8687C223.36 73.9327 223.752 73.9647 224.216 73.9647C225.144 73.9647 225.8 73.8287 226.184 73.5567C226.568 73.2687 226.76 72.9247 226.76 72.5247C226.76 72.0447 226.6 71.6847 226.28 71.4447C225.96 71.2047 225.392 71.0847 224.576 71.0847H222.656V68.7327H224.408C225.016 68.7327 225.48 68.6047 225.8 68.3487C226.12 68.0927 226.28 67.7567 226.28 67.3407C226.28 66.9727 226.12 66.6687 225.8 66.4287C225.496 66.1727 224.968 66.0447 224.216 66.0447C223.432 66.0447 222.864 66.1807 222.512 66.4527C222.176 66.7087 221.976 67.0927 221.912 67.6047H218.696C218.776 66.2287 219.28 65.1807 220.208 64.4607C221.136 63.7247 222.472 63.3567 224.216 63.3567C225.144 63.3567 225.936 63.4447 226.592 63.6207C227.264 63.7967 227.816 64.0527 228.248 64.3887C228.68 64.7087 228.992 65.1007 229.184 65.5647C229.392 66.0127 229.496 66.5167 229.496 67.0767C229.496 67.6847 229.336 68.2287 229.016 68.7087C228.712 69.1887 228.224 69.5407 227.552 69.7647C228.464 69.9887 229.096 70.3567 229.448 70.8687C229.8 71.3647 229.976 71.9567 229.976 72.6447C229.976 73.2207 229.856 73.7567 229.616 74.2527C229.392 74.7327 229.04 75.1567 228.56 75.5247C228.096 75.8767 227.504 76.1567 226.784 76.3647C226.064 76.5567 225.208 76.6527 224.216 76.6527ZM232.254 63.6447H235.422V71.8047L241.086 63.6447H244.014V76.3647H240.846V68.2047L235.182 76.3647H232.254V63.6447ZM246.902 63.6447H250.07V68.5647H255.494V63.6447H258.662V76.3647H255.494V71.2047H250.07V76.3647H246.902V63.6447ZM265.367 76.6527C264.679 76.6527 264.071 76.5567 263.543 76.3647C263.015 76.1567 262.567 75.8767 262.199 75.5247C261.831 75.1567 261.551 74.7327 261.359 74.2527C261.167 73.7567 261.071 73.2207 261.071 72.6447C261.071 70.0847 262.591 68.8047 265.631 68.8047H269.423V68.2047C269.423 67.3727 269.231 66.7887 268.847 66.4527C268.479 66.1167 267.887 65.9487 267.071 65.9487C266.351 65.9487 265.831 66.0767 265.511 66.3327C265.191 66.5727 265.007 66.8767 264.959 67.2447H261.791C261.823 66.7007 261.959 66.1887 262.199 65.7087C262.455 65.2287 262.807 64.8207 263.255 64.4847C263.719 64.1327 264.279 63.8607 264.935 63.6687C265.591 63.4607 266.343 63.3567 267.191 63.3567C268.007 63.3567 268.743 63.4447 269.399 63.6207C270.071 63.7967 270.639 64.0847 271.103 64.4847C271.583 64.8687 271.951 65.3727 272.207 65.9967C272.463 66.6207 272.591 67.3727 272.591 68.2527V73.1247C272.591 73.7967 272.599 74.3887 272.615 74.9007C272.647 75.3967 272.695 75.8847 272.759 76.3647H269.807C269.743 76.0127 269.703 75.7487 269.687 75.5727C269.687 75.3807 269.687 75.1007 269.687 74.7327C269.335 75.2447 268.799 75.6927 268.079 76.0767C267.375 76.4607 266.471 76.6527 265.367 76.6527ZM266.351 74.2047C266.735 74.2047 267.111 74.1567 267.479 74.0607C267.847 73.9487 268.175 73.7887 268.463 73.5807C268.751 73.3567 268.983 73.0767 269.159 72.7407C269.335 72.4047 269.423 72.0127 269.423 71.5647V70.9647H266.231C265.623 70.9647 265.143 71.1087 264.791 71.3967C264.455 71.6687 264.287 72.0447 264.287 72.5247C264.287 73.0367 264.463 73.4447 264.815 73.7487C265.167 74.0527 265.679 74.2047 266.351 74.2047Z" fill="#1F1F25"/>
<g opacity="0.5">
<mask id="mask0_7175_66207" style="mask-type:alpha" maskUnits="userSpaceOnUse" x="52" y="112" width="26" height="26">
<rect x="52.5715" y="112.873" width="24.5714" height="24.5714" fill="#D9D9D9"/>
</mask>
<g mask="url(#mask0_7175_66207)">
<path d="M57.9976 134.885C57.4857 134.885 57.0506 134.705 56.6923 134.347C56.334 133.989 56.1548 133.554 56.1548 133.042V119.323C56.1548 118.811 56.334 118.376 56.6923 118.017C57.0506 117.659 57.4857 117.48 57.9976 117.48H59.431V115.304H60.9923V117.48H68.7476V115.304H70.2834V117.48H71.7167C72.2286 117.48 72.6637 117.659 73.022 118.017C73.3804 118.376 73.5595 118.811 73.5595 119.323V133.042C73.5595 133.554 73.3804 133.989 73.022 134.347C72.6637 134.705 72.2286 134.885 71.7167 134.885H57.9976ZM57.9976 133.349H71.7167C71.7849 133.349 71.8532 133.315 71.9215 133.246C71.9897 133.178 72.0238 133.11 72.0238 133.042V123.418H57.6905V133.042C57.6905 133.11 57.7246 133.178 57.7929 133.246C57.8611 133.315 57.9294 133.349 57.9976 133.349ZM57.6905 121.882H72.0238V119.323C72.0238 119.254 71.9897 119.186 71.9215 119.118C71.8532 119.05 71.7849 119.016 71.7167 119.016H57.9976C57.9294 119.016 57.8611 119.05 57.7929 119.118C57.7246 119.186 57.6905 119.254 57.6905 119.323V121.882ZM64.8572 127.283C64.6012 127.283 64.3879 127.193 64.2173 127.014C64.0467 126.835 63.9613 126.626 63.9613 126.387C63.9613 126.131 64.0467 125.913 64.2173 125.734C64.3879 125.555 64.6012 125.466 64.8572 125.466C65.1131 125.466 65.3264 125.555 65.497 125.734C65.6677 125.913 65.753 126.131 65.753 126.387C65.753 126.626 65.6677 126.835 65.497 127.014C65.3264 127.193 65.1131 127.283 64.8572 127.283ZM60.7619 127.283C60.506 127.283 60.2927 127.193 60.122 127.014C59.9514 126.835 59.8661 126.626 59.8661 126.387C59.8661 126.131 59.9514 125.913 60.122 125.734C60.2927 125.555 60.506 125.466 60.7619 125.466C61.0179 125.466 61.2312 125.555 61.4018 125.734C61.5724 125.913 61.6578 126.131 61.6578 126.387C61.6578 126.626 61.5724 126.835 61.4018 127.014C61.2312 127.193 61.0179 127.283 60.7619 127.283ZM68.9524 127.283C68.6965 127.283 68.4832 127.193 68.3125 127.014C68.1419 126.835 68.0566 126.626 68.0566 126.387C68.0566 126.131 68.1419 125.913 68.3125 125.734C68.4832 125.555 68.6965 125.466 68.9524 125.466C69.2084 125.466 69.4217 125.555 69.5923 125.734C69.7629 125.913 69.8482 126.131 69.8482 126.387C69.8482 126.626 69.7629 126.835 69.5923 127.014C69.4217 127.193 69.2084 127.283 68.9524 127.283ZM64.8572 131.301C64.6012 131.301 64.3879 131.212 64.2173 131.033C64.0467 130.853 63.9613 130.644 63.9613 130.405C63.9613 130.149 64.0467 129.932 64.2173 129.753C64.3879 129.574 64.6012 129.484 64.8572 129.484C65.1131 129.484 65.3264 129.574 65.497 129.753C65.6677 129.932 65.753 130.149 65.753 130.405C65.753 130.644 65.6677 130.853 65.497 131.033C65.3264 131.212 65.1131 131.301 64.8572 131.301ZM60.7619 131.301C60.506 131.301 60.2927 131.212 60.122 131.033C59.9514 130.853 59.8661 130.644 59.8661 130.405C59.8661 130.149 59.9514 129.932 60.122 129.753C60.2927 129.574 60.506 129.484 60.7619 129.484C61.0179 129.484 61.2312 129.574 61.4018 129.753C61.5724 129.932 61.6578 130.149 61.6578 130.405C61.6578 130.644 61.5724 130.853 61.4018 131.033C61.2312 131.212 61.0179 131.301 60.7619 131.301ZM68.9524 131.301C68.6965 131.301 68.4832 131.212 68.3125 131.033C68.1419 130.853 68.0566 130.644 68.0566 130.405C68.0566 130.149 68.1419 129.932 68.3125 129.753C68.4832 129.574 68.6965 129.484 68.9524 129.484C69.2084 129.484 69.4217 129.574 69.5923 129.753C69.7629 129.932 69.8482 130.149 69.8482 130.405C69.8482 130.644 69.7629 130.853 69.5923 131.033C69.4217 131.212 69.2084 131.301 68.9524 131.301Z" fill="#2261EB"/>
</g>
</g>
<path opacity="0.8" d="M85.6174 128.218C84.8966 128.054 84.3779 127.76 84.0612 127.334C83.7445 126.897 83.5861 126.34 83.5861 125.663C83.5861 124.811 83.8428 124.15 84.356 123.681C84.8802 123.211 85.7157 122.976 86.8623 122.976H90.6299V131.658H89.1884V128.349H86.977L84.8638 131.658H83.2585L85.6174 128.218ZM85.0277 125.663C85.0277 126.121 85.1587 126.471 85.4208 126.711C85.6938 126.951 86.147 127.072 86.7804 127.072H89.1884V124.254H86.7804C86.147 124.254 85.6938 124.374 85.4208 124.614C85.1587 124.855 85.0277 125.204 85.0277 125.663ZM93.256 122.976H94.6975V126.596H99.1859V122.976H100.627V131.658H99.1859V127.874H94.6975V131.658H93.256V122.976ZM103.254 122.976H107.022C108.092 122.976 108.878 123.2 109.381 123.648C109.883 124.085 110.134 124.653 110.134 125.352C110.134 125.537 110.101 125.728 110.036 125.925C109.97 126.111 109.878 126.285 109.757 126.449C109.648 126.613 109.512 126.755 109.348 126.875C109.195 126.995 109.02 127.088 108.824 127.153C109.359 127.284 109.763 127.536 110.036 127.907C110.32 128.267 110.462 128.693 110.462 129.185C110.462 129.938 110.211 130.539 109.708 130.987C109.206 131.434 108.42 131.658 107.349 131.658H103.254V122.976ZM107.349 130.38C107.961 130.38 108.392 130.271 108.643 130.053C108.895 129.834 109.02 129.523 109.02 129.119C109.02 128.704 108.895 128.387 108.643 128.169C108.392 127.94 107.961 127.825 107.349 127.825H104.696V130.38H107.349ZM107.022 126.646C107.644 126.646 108.076 126.536 108.316 126.318C108.567 126.1 108.693 125.799 108.693 125.417C108.693 125.057 108.567 124.773 108.316 124.565C108.076 124.358 107.644 124.254 107.022 124.254H104.696V126.646H107.022ZM114.99 131.822C114.509 131.822 114.084 131.756 113.712 131.625C113.352 131.483 113.046 131.292 112.795 131.052C112.544 130.812 112.353 130.528 112.222 130.2C112.091 129.873 112.025 129.512 112.025 129.119C112.025 128.256 112.276 127.634 112.779 127.252C113.292 126.87 114.023 126.678 114.974 126.678H117.791V126.089C117.791 125.346 117.622 124.833 117.283 124.549C116.956 124.265 116.459 124.123 115.793 124.123C115.17 124.123 114.717 124.243 114.433 124.483C114.149 124.713 113.991 124.975 113.958 125.27H112.516C112.538 124.92 112.631 124.598 112.795 124.303C112.97 123.997 113.199 123.735 113.483 123.517C113.778 123.298 114.127 123.129 114.531 123.009C114.935 122.878 115.383 122.812 115.875 122.812C116.901 122.812 117.715 123.058 118.315 123.55C118.927 124.03 119.233 124.822 119.233 125.925V129.447C119.233 129.905 119.233 130.31 119.233 130.659C119.244 130.998 119.271 131.331 119.315 131.658H118.053C118.02 131.407 117.999 131.172 117.988 130.954C117.977 130.724 117.971 130.468 117.971 130.184C117.742 130.643 117.371 131.03 116.857 131.347C116.344 131.664 115.722 131.822 114.99 131.822ZM115.301 130.512C115.64 130.512 115.956 130.468 116.251 130.38C116.557 130.282 116.825 130.146 117.054 129.971C117.283 129.785 117.463 129.561 117.595 129.299C117.726 129.037 117.791 128.731 117.791 128.382V127.792H115.219C114.684 127.792 114.264 127.902 113.958 128.12C113.652 128.327 113.499 128.66 113.499 129.119C113.499 129.523 113.641 129.856 113.925 130.118C114.22 130.38 114.679 130.512 115.301 130.512ZM121.779 122.976H123.122V124.614C123.417 124.036 123.826 123.593 124.351 123.288C124.886 122.971 125.503 122.812 126.202 122.812C127.294 122.812 128.167 123.173 128.823 123.894C129.478 124.603 129.805 125.663 129.805 127.072V127.399C129.805 128.142 129.718 128.792 129.543 129.348C129.369 129.895 129.123 130.353 128.806 130.724C128.489 131.085 128.107 131.358 127.659 131.544C127.223 131.729 126.737 131.822 126.202 131.822C125.459 131.822 124.836 131.658 124.334 131.331C123.843 131.003 123.471 130.593 123.22 130.102V134.934H121.779V122.976ZM125.874 130.544C126.223 130.544 126.551 130.479 126.857 130.348C127.163 130.206 127.425 130.004 127.643 129.742C127.872 129.48 128.047 129.152 128.167 128.759C128.298 128.366 128.364 127.912 128.364 127.399V127.072C128.364 126.602 128.298 126.182 128.167 125.81C128.047 125.439 127.872 125.128 127.643 124.876C127.425 124.614 127.163 124.418 126.857 124.287C126.551 124.156 126.223 124.09 125.874 124.09C125.481 124.09 125.12 124.156 124.793 124.287C124.465 124.407 124.187 124.582 123.957 124.811C123.728 125.029 123.548 125.291 123.417 125.597C123.286 125.903 123.22 126.231 123.22 126.58V127.891C123.22 128.284 123.286 128.644 123.417 128.972C123.548 129.299 123.728 129.578 123.957 129.807C124.187 130.036 124.465 130.217 124.793 130.348C125.12 130.479 125.481 130.544 125.874 130.544ZM131.857 122.976H133.298V126.252H135.379C136.471 126.252 137.273 126.493 137.787 126.973C138.311 127.454 138.573 128.12 138.573 128.972C138.573 129.802 138.311 130.457 137.787 130.937C137.273 131.418 136.471 131.658 135.379 131.658H131.857V122.976ZM135.297 130.38C135.974 130.38 136.449 130.26 136.722 130.02C136.995 129.78 137.131 129.425 137.131 128.955C137.131 128.486 136.995 128.131 136.722 127.891C136.449 127.65 135.974 127.53 135.297 127.53H133.298V130.38H135.297ZM143.903 130.397L148.49 126.416C148.839 126.121 149.123 125.854 149.342 125.614C149.571 125.373 149.751 125.15 149.882 124.942C150.013 124.724 150.101 124.511 150.144 124.303C150.199 124.096 150.226 123.872 150.226 123.632C150.226 122.987 150.035 122.458 149.653 122.043C149.271 121.617 148.747 121.404 148.08 121.404C147.283 121.404 146.672 121.622 146.246 122.059C145.82 122.485 145.607 123.091 145.607 123.877H144.067C144.067 123.32 144.16 122.807 144.346 122.337C144.542 121.857 144.815 121.447 145.165 121.109C145.525 120.77 145.951 120.508 146.442 120.323C146.934 120.126 147.48 120.028 148.08 120.028C148.659 120.028 149.178 120.121 149.637 120.306C150.095 120.481 150.483 120.732 150.8 121.06C151.116 121.376 151.357 121.753 151.52 122.19C151.684 122.627 151.766 123.107 151.766 123.632C151.766 124.025 151.706 124.391 151.586 124.729C151.466 125.068 151.296 125.39 151.078 125.696C150.871 126.001 150.614 126.302 150.308 126.596C150.013 126.88 149.686 127.175 149.325 127.481L145.902 130.315H151.93V131.658H143.903V130.397ZM157.828 131.822C157.271 131.822 156.742 131.729 156.239 131.544C155.748 131.358 155.317 131.041 154.945 130.593C154.574 130.135 154.279 129.529 154.061 128.775C153.842 128.011 153.733 127.061 153.733 125.925V125.597C153.733 124.538 153.842 123.653 154.061 122.944C154.279 122.234 154.574 121.666 154.945 121.24C155.317 120.803 155.748 120.492 156.239 120.306C156.742 120.121 157.271 120.028 157.828 120.028C158.385 120.028 158.909 120.121 159.401 120.306C159.903 120.492 160.34 120.803 160.711 121.24C161.083 121.666 161.378 122.234 161.596 122.944C161.814 123.653 161.924 124.538 161.924 125.597V125.925C161.924 127.061 161.814 128.011 161.596 128.775C161.378 129.529 161.083 130.135 160.711 130.593C160.34 131.041 159.903 131.358 159.401 131.544C158.909 131.729 158.385 131.822 157.828 131.822ZM157.828 130.479C158.167 130.479 158.489 130.419 158.795 130.299C159.111 130.168 159.385 129.938 159.614 129.611C159.854 129.272 160.04 128.808 160.171 128.218C160.313 127.628 160.384 126.864 160.384 125.925V125.597C160.384 124.745 160.313 124.047 160.171 123.5C160.04 122.954 159.854 122.523 159.614 122.206C159.385 121.89 159.111 121.671 158.795 121.551C158.489 121.431 158.167 121.371 157.828 121.371C157.479 121.371 157.151 121.431 156.845 121.551C156.54 121.671 156.267 121.89 156.026 122.206C155.797 122.523 155.611 122.954 155.469 123.5C155.338 124.047 155.273 124.745 155.273 125.597V125.925C155.273 126.864 155.338 127.628 155.469 128.218C155.611 128.808 155.797 129.272 156.026 129.611C156.267 129.938 156.54 130.168 156.845 130.299C157.151 130.419 157.479 130.479 157.828 130.479ZM163.564 130.397L168.15 126.416C168.5 126.121 168.784 125.854 169.002 125.614C169.231 125.373 169.412 125.15 169.543 124.942C169.674 124.724 169.761 124.511 169.805 124.303C169.859 124.096 169.887 123.872 169.887 123.632C169.887 122.987 169.696 122.458 169.313 122.043C168.931 121.617 168.407 121.404 167.741 121.404C166.944 121.404 166.332 121.622 165.906 122.059C165.48 122.485 165.267 123.091 165.267 123.877H163.727C163.727 123.32 163.82 122.807 164.006 122.337C164.202 121.857 164.475 121.447 164.825 121.109C165.185 120.77 165.611 120.508 166.103 120.323C166.594 120.126 167.14 120.028 167.741 120.028C168.32 120.028 168.838 120.121 169.297 120.306C169.756 120.481 170.143 120.732 170.46 121.06C170.777 121.376 171.017 121.753 171.181 122.19C171.345 122.627 171.426 123.107 171.426 123.632C171.426 124.025 171.366 124.391 171.246 124.729C171.126 125.068 170.957 125.39 170.738 125.696C170.531 126.001 170.274 126.302 169.969 126.596C169.674 126.88 169.346 127.175 168.986 127.481L165.562 130.315H171.59V131.658H163.564V130.397ZM173.066 130.397L177.652 126.416C178.002 126.121 178.286 125.854 178.504 125.614C178.734 125.373 178.914 125.15 179.045 124.942C179.176 124.724 179.263 124.511 179.307 124.303C179.362 124.096 179.389 123.872 179.389 123.632C179.389 122.987 179.198 122.458 178.816 122.043C178.433 121.617 177.909 121.404 177.243 121.404C176.446 121.404 175.834 121.622 175.408 122.059C174.982 122.485 174.769 123.091 174.769 123.877H173.23C173.23 123.32 173.322 122.807 173.508 122.337C173.705 121.857 173.978 121.447 174.327 121.109C174.688 120.77 175.113 120.508 175.605 120.323C176.096 120.126 176.642 120.028 177.243 120.028C177.822 120.028 178.34 120.121 178.799 120.306C179.258 120.481 179.645 120.732 179.962 121.06C180.279 121.376 180.519 121.753 180.683 122.19C180.847 122.627 180.929 123.107 180.929 123.632C180.929 124.025 180.869 124.391 180.748 124.729C180.628 125.068 180.459 125.39 180.241 125.696C180.033 126.001 179.777 126.302 179.471 126.596C179.176 126.88 178.848 127.175 178.488 127.481L175.064 130.315H181.092V131.658H173.066V130.397ZM187.319 122.976H193.216V124.254H188.76V131.658H187.319V122.976ZM193.712 131.822C193.396 131.822 193.122 131.713 192.893 131.494C192.675 131.265 192.566 130.992 192.566 130.675C192.566 130.348 192.675 130.075 192.893 129.856C193.122 129.638 193.396 129.529 193.712 129.529C194.029 129.529 194.296 129.638 194.515 129.856C194.744 130.075 194.859 130.348 194.859 130.675C194.859 130.992 194.744 131.265 194.515 131.494C194.296 131.713 194.029 131.822 193.712 131.822ZM200.917 126.4H205.831V127.743H200.917V126.4ZM213.594 128.218C212.873 128.054 212.354 127.76 212.037 127.334C211.721 126.897 211.562 126.34 211.562 125.663C211.562 124.811 211.819 124.15 212.332 123.681C212.856 123.211 213.692 122.976 214.839 122.976H218.606V131.658H217.165V128.349H214.953L212.84 131.658H211.235L213.594 128.218ZM213.004 125.663C213.004 126.121 213.135 126.471 213.397 126.711C213.67 126.951 214.123 127.072 214.757 127.072H217.165V124.254H214.757C214.123 124.254 213.67 124.374 213.397 124.614C213.135 124.855 213.004 125.204 213.004 125.663ZM221.232 122.976H222.674V126.596H227.162V122.976H228.604V131.658H227.162V127.874H222.674V131.658H221.232V122.976ZM231.23 122.976H234.998C236.068 122.976 236.854 123.2 237.357 123.648C237.859 124.085 238.11 124.653 238.11 125.352C238.11 125.537 238.078 125.728 238.012 125.925C237.947 126.111 237.854 126.285 237.734 126.449C237.624 126.613 237.488 126.755 237.324 126.875C237.171 126.995 236.996 127.088 236.8 127.153C237.335 127.284 237.739 127.536 238.012 127.907C238.296 128.267 238.438 128.693 238.438 129.185C238.438 129.938 238.187 130.539 237.684 130.987C237.182 131.434 236.396 131.658 235.326 131.658H231.23V122.976ZM235.326 130.38C235.937 130.38 236.368 130.271 236.62 130.053C236.871 129.834 236.996 129.523 236.996 129.119C236.996 128.704 236.871 128.387 236.62 128.169C236.368 127.94 235.937 127.825 235.326 127.825H232.672V130.38H235.326ZM234.998 126.646C235.62 126.646 236.052 126.536 236.292 126.318C236.543 126.1 236.669 125.799 236.669 125.417C236.669 125.057 236.543 124.773 236.292 124.565C236.052 124.358 235.62 124.254 234.998 124.254H232.672V126.646H234.998ZM242.966 131.822C242.486 131.822 242.06 131.756 241.688 131.625C241.328 131.483 241.022 131.292 240.771 131.052C240.52 130.812 240.329 130.528 240.198 130.2C240.067 129.873 240.001 129.512 240.001 129.119C240.001 128.256 240.252 127.634 240.755 127.252C241.268 126.87 242 126.678 242.95 126.678H245.767V126.089C245.767 125.346 245.598 124.833 245.259 124.549C244.932 124.265 244.435 124.123 243.769 124.123C243.146 124.123 242.693 124.243 242.409 124.483C242.125 124.713 241.967 124.975 241.934 125.27H240.493C240.514 124.92 240.607 124.598 240.771 124.303C240.946 123.997 241.175 123.735 241.459 123.517C241.754 123.298 242.103 123.129 242.507 123.009C242.912 122.878 243.359 122.812 243.851 122.812C244.877 122.812 245.691 123.058 246.291 123.55C246.903 124.03 247.209 124.822 247.209 125.925V129.447C247.209 129.905 247.209 130.31 247.209 130.659C247.22 130.998 247.247 131.331 247.291 131.658H246.029C245.997 131.407 245.975 131.172 245.964 130.954C245.953 130.724 245.947 130.468 245.947 130.184C245.718 130.643 245.347 131.03 244.834 131.347C244.32 131.664 243.698 131.822 242.966 131.822ZM243.277 130.512C243.616 130.512 243.933 130.468 244.227 130.38C244.533 130.282 244.801 130.146 245.03 129.971C245.259 129.785 245.44 129.561 245.571 129.299C245.702 129.037 245.767 128.731 245.767 128.382V127.792H243.195C242.66 127.792 242.24 127.902 241.934 128.12C241.628 128.327 241.475 128.66 241.475 129.119C241.475 129.523 241.617 129.856 241.901 130.118C242.196 130.38 242.655 130.512 243.277 130.512ZM249.755 122.976H251.098V124.614C251.393 124.036 251.803 123.593 252.327 123.288C252.862 122.971 253.479 122.812 254.178 122.812C255.27 122.812 256.143 123.173 256.799 123.894C257.454 124.603 257.782 125.663 257.782 127.072V127.399C257.782 128.142 257.694 128.792 257.519 129.348C257.345 129.895 257.099 130.353 256.782 130.724C256.466 131.085 256.083 131.358 255.636 131.544C255.199 131.729 254.713 131.822 254.178 131.822C253.435 131.822 252.813 131.658 252.31 131.331C251.819 131.003 251.448 130.593 251.196 130.102V134.934H249.755V122.976ZM253.85 130.544C254.2 130.544 254.527 130.479 254.833 130.348C255.139 130.206 255.401 130.004 255.619 129.742C255.849 129.48 256.023 129.152 256.143 128.759C256.275 128.366 256.34 127.912 256.34 127.399V127.072C256.34 126.602 256.275 126.182 256.143 125.81C256.023 125.439 255.849 125.128 255.619 124.876C255.401 124.614 255.139 124.418 254.833 124.287C254.527 124.156 254.2 124.09 253.85 124.09C253.457 124.09 253.097 124.156 252.769 124.287C252.441 124.407 252.163 124.582 251.934 124.811C251.704 125.029 251.524 125.291 251.393 125.597C251.262 125.903 251.196 126.231 251.196 126.58V127.891C251.196 128.284 251.262 128.644 251.393 128.972C251.524 129.299 251.704 129.578 251.934 129.807C252.163 130.036 252.441 130.217 252.769 130.348C253.097 130.479 253.457 130.544 253.85 130.544ZM259.833 122.976H261.275V126.252H263.355C264.447 126.252 265.25 126.493 265.763 126.973C266.287 127.454 266.549 128.12 266.549 128.972C266.549 129.802 266.287 130.457 265.763 130.937C265.25 131.418 264.447 131.658 263.355 131.658H259.833V122.976ZM263.273 130.38C263.95 130.38 264.425 130.26 264.698 130.02C264.971 129.78 265.108 129.425 265.108 128.955C265.108 128.486 264.971 128.131 264.698 127.891C264.425 127.65 263.95 127.53 263.273 127.53H261.275V130.38H263.273ZM271.879 130.397L276.466 126.416C276.816 126.121 277.099 125.854 277.318 125.614C277.547 125.373 277.727 125.15 277.858 124.942C277.99 124.724 278.077 124.511 278.121 124.303C278.175 124.096 278.202 123.872 278.202 123.632C278.202 122.987 278.011 122.458 277.629 122.043C277.247 121.617 276.723 121.404 276.057 121.404C275.259 121.404 274.648 121.622 274.222 122.059C273.796 122.485 273.583 123.091 273.583 123.877H272.043C272.043 123.32 272.136 122.807 272.322 122.337C272.518 121.857 272.791 121.447 273.141 121.109C273.501 120.77 273.927 120.508 274.418 120.323C274.91 120.126 275.456 120.028 276.057 120.028C276.635 120.028 277.154 120.121 277.613 120.306C278.071 120.481 278.459 120.732 278.776 121.06C279.093 121.376 279.333 121.753 279.497 122.19C279.66 122.627 279.742 123.107 279.742 123.632C279.742 124.025 279.682 124.391 279.562 124.729C279.442 125.068 279.273 125.39 279.054 125.696C278.847 126.001 278.59 126.302 278.284 126.596C277.99 126.88 277.662 127.175 277.302 127.481L273.878 130.315H279.906V131.658H271.879V130.397ZM285.805 131.822C285.248 131.822 284.718 131.729 284.216 131.544C283.724 131.358 283.293 131.041 282.921 130.593C282.55 130.135 282.255 129.529 282.037 128.775C281.818 128.011 281.709 127.061 281.709 125.925V125.597C281.709 124.538 281.818 123.653 282.037 122.944C282.255 122.234 282.55 121.666 282.921 121.24C283.293 120.803 283.724 120.492 284.216 120.306C284.718 120.121 285.248 120.028 285.805 120.028C286.361 120.028 286.886 120.121 287.377 120.306C287.879 120.492 288.316 120.803 288.688 121.24C289.059 121.666 289.354 122.234 289.572 122.944C289.791 123.653 289.9 124.538 289.9 125.597V125.925C289.9 127.061 289.791 128.011 289.572 128.775C289.354 129.529 289.059 130.135 288.688 130.593C288.316 131.041 287.879 131.358 287.377 131.544C286.886 131.729 286.361 131.822 285.805 131.822ZM285.805 130.479C286.143 130.479 286.465 130.419 286.771 130.299C287.088 130.168 287.361 129.938 287.59 129.611C287.83 129.272 288.016 128.808 288.147 128.218C288.289 127.628 288.36 126.864 288.36 125.925V125.597C288.36 124.745 288.289 124.047 288.147 123.5C288.016 122.954 287.83 122.523 287.59 122.206C287.361 121.89 287.088 121.671 286.771 121.551C286.465 121.431 286.143 121.371 285.805 121.371C285.455 121.371 285.127 121.431 284.822 121.551C284.516 121.671 284.243 121.89 284.003 122.206C283.773 122.523 283.588 122.954 283.446 123.5C283.315 124.047 283.249 124.745 283.249 125.597V125.925C283.249 126.864 283.315 127.628 283.446 128.218C283.588 128.808 283.773 129.272 284.003 129.611C284.243 129.938 284.516 130.168 284.822 130.299C285.127 130.419 285.455 130.479 285.805 130.479ZM291.54 130.397L296.126 126.416C296.476 126.121 296.76 125.854 296.978 125.614C297.208 125.373 297.388 125.15 297.519 124.942C297.65 124.724 297.737 124.511 297.781 124.303C297.836 124.096 297.863 123.872 297.863 123.632C297.863 122.987 297.672 122.458 297.289 122.043C296.907 121.617 296.383 121.404 295.717 121.404C294.92 121.404 294.308 121.622 293.882 122.059C293.456 122.485 293.243 123.091 293.243 123.877H291.704C291.704 123.32 291.796 122.807 291.982 122.337C292.179 121.857 292.452 121.447 292.801 121.109C293.161 120.77 293.587 120.508 294.079 120.323C294.57 120.126 295.116 120.028 295.717 120.028C296.296 120.028 296.814 120.121 297.273 120.306C297.732 120.481 298.119 120.732 298.436 121.06C298.753 121.376 298.993 121.753 299.157 122.19C299.321 122.627 299.403 123.107 299.403 123.632C299.403 124.025 299.343 124.391 299.222 124.729C299.102 125.068 298.933 125.39 298.715 125.696C298.507 126.001 298.25 126.302 297.945 126.596C297.65 126.88 297.322 127.175 296.962 127.481L293.538 130.315H299.566V131.658H291.54V130.397ZM305.055 131.822C304.433 131.822 303.876 131.74 303.384 131.576C302.904 131.402 302.494 131.167 302.156 130.872C301.817 130.577 301.561 130.233 301.386 129.84C301.211 129.436 301.124 129.004 301.124 128.546H302.664C302.664 129.103 302.855 129.561 303.237 129.922C303.619 130.271 304.225 130.446 305.055 130.446C305.885 130.446 306.491 130.266 306.874 129.905C307.256 129.534 307.447 129.054 307.447 128.464C307.447 127.852 307.25 127.361 306.857 126.99C306.475 126.607 305.874 126.416 305.055 126.416H303.827V125.106H305.055C305.842 125.106 306.409 124.942 306.759 124.614C307.108 124.276 307.283 123.812 307.283 123.222C307.283 122.654 307.114 122.212 306.775 121.895C306.437 121.568 305.863 121.404 305.055 121.404C304.28 121.404 303.712 121.573 303.352 121.912C303.002 122.239 302.828 122.649 302.828 123.14H301.288C301.288 122.714 301.37 122.31 301.533 121.928C301.708 121.546 301.954 121.218 302.271 120.945C302.598 120.661 302.991 120.437 303.45 120.273C303.92 120.11 304.455 120.028 305.055 120.028C305.656 120.028 306.191 120.11 306.661 120.273C307.13 120.437 307.523 120.656 307.84 120.929C308.168 121.202 308.413 121.524 308.577 121.895C308.741 122.266 308.823 122.654 308.823 123.058C308.823 123.713 308.648 124.27 308.299 124.729C307.96 125.177 307.48 125.494 306.857 125.679C307.512 125.887 308.031 126.225 308.413 126.695C308.796 127.164 308.987 127.809 308.987 128.628C308.987 129.065 308.899 129.48 308.725 129.873C308.55 130.255 308.293 130.593 307.955 130.888C307.627 131.172 307.218 131.402 306.726 131.576C306.235 131.74 305.678 131.822 305.055 131.822ZM315.375 122.976H321.272V124.254H316.816V131.658H315.375V122.976ZM321.768 131.822C321.452 131.822 321.179 131.713 320.949 131.494C320.731 131.265 320.622 130.992 320.622 130.675C320.622 130.348 320.731 130.075 320.949 129.856C321.179 129.638 321.452 129.529 321.768 129.529C322.085 129.529 322.353 129.638 322.571 129.856C322.8 130.075 322.915 130.348 322.915 130.675C322.915 130.992 322.8 131.265 322.571 131.494C322.353 131.713 322.085 131.822 321.768 131.822Z" fill="#1F1F25"/>
<mask id="mask1_7175_66207" style="mask-type:alpha" maskUnits="userSpaceOnUse" x="330" y="112" width="25" height="26">
<rect x="330.064" y="112.873" width="24.5714" height="24.5714" fill="#D9D9D9"/>
</mask>
<g mask="url(#mask1_7175_66207)">
<path d="M342.349 127.871L337.844 123.367H346.854L342.349 127.871Z" fill="#1C1B1F"/>
</g>
<g opacity="0.5">
<path d="M379.574 134.714C379.275 134.714 379.025 134.614 378.824 134.414C378.624 134.213 378.524 133.963 378.524 133.664V126.051L371.158 116.737C370.974 116.492 370.949 116.242 371.083 115.986C371.217 115.731 371.431 115.603 371.725 115.603H388.053C388.347 115.603 388.561 115.731 388.695 115.986C388.829 116.242 388.804 116.492 388.62 116.737L381.254 126.051V133.664C381.254 133.963 381.154 134.213 380.953 134.414C380.753 134.614 380.503 134.714 380.204 134.714H379.574Z" fill="#2261EB"/>
<rect x="360.778" y="106.047" width="38.2222" height="38.2222" rx="10.2381" stroke="#2261EB" stroke-width="1.36508"/>
<path d="M431.005 135.397L430.594 132.106C430.231 131.997 429.838 131.825 429.416 131.59C428.994 131.355 428.634 131.104 428.338 130.835L425.304 132.126L423.182 128.429L425.805 126.451C425.772 126.246 425.744 126.034 425.722 125.816C425.7 125.598 425.689 125.386 425.689 125.18C425.689 124.989 425.7 124.788 425.722 124.578C425.744 124.367 425.772 124.13 425.805 123.866L423.182 121.888L425.304 118.235L428.316 119.503C428.656 119.221 429.024 118.965 429.419 118.738C429.814 118.51 430.199 118.335 430.572 118.211L431.005 114.92H435.249L435.66 118.232C436.096 118.386 436.482 118.561 436.817 118.76C437.151 118.958 437.496 119.206 437.85 119.503L440.95 118.235L443.072 121.888L440.362 123.931C440.424 124.166 440.459 124.382 440.467 124.578C440.474 124.774 440.478 124.967 440.478 125.159C440.478 125.335 440.47 125.521 440.456 125.717C440.441 125.914 440.407 126.151 440.355 126.43L443.022 128.429L440.9 132.126L437.85 130.814C437.496 131.111 437.139 131.366 436.78 131.579C436.422 131.792 436.048 131.961 435.66 132.085L435.249 135.397H431.005ZM433.096 128.002C433.89 128.002 434.562 127.727 435.113 127.175C435.665 126.624 435.94 125.952 435.94 125.159C435.94 124.365 435.665 123.693 435.113 123.142C434.562 122.59 433.89 122.315 433.096 122.315C432.299 122.315 431.625 122.59 431.076 123.142C430.527 123.693 430.253 124.365 430.253 125.159C430.253 125.952 430.527 126.624 431.076 127.175C431.625 127.727 432.299 128.002 433.096 128.002Z" fill="#2261EB"/>
<rect x="414.016" y="106.047" width="38.2222" height="38.2222" rx="10.2381" stroke="#2261EB" stroke-width="1.36508"/>
</g>
<g clip-path="url(#clip1_7175_66207)">
<g clip-path="url(#clip2_7175_66207)">
<line x1="52.5715" y1="192.452" x2="724.572" y2="192.452" stroke="#D5D5D5"/>
<line x1="52.5715" y1="216.452" x2="724.572" y2="216.452" stroke="#D5D5D5"/>
<line x1="52.5715" y1="240.452" x2="724.572" y2="240.452" stroke="#D5D5D5"/>
<line x1="52.5715" y1="264.452" x2="724.572" y2="264.452" stroke="#D5D5D5"/>
<line x1="52.5715" y1="288.452" x2="724.572" y2="288.452" stroke="#D5D5D5"/>
</g>
</g>
<path opacity="0.1" d="M125.803 241.329C104.043 241.329 111.793 224.81 52.1775 218.153V288.024H492.143V164.159C483.002 172.46 470.383 189.061 444.748 189.061C419.113 189.061 398.248 178.952 371.42 179.445C344.593 179.938 335.353 197.936 320.151 197.936C304.949 197.936 300.18 184.869 268.285 184.869C236.391 184.869 238.477 195.224 198.833 197.936C159.188 200.648 147.563 241.329 125.803 241.329Z" fill="url(#paint0_linear_7175_66207)"/>
<path d="M52.1775 217.723C111.793 224.327 104.043 240.714 125.803 240.714C147.563 240.714 159.188 200.358 198.833 197.667C238.477 194.977 236.391 184.704 268.285 184.704C300.18 184.704 304.949 197.667 320.151 197.667C335.353 197.667 344.593 179.813 371.421 179.323C398.248 178.834 419.113 188.862 444.748 188.862C470.383 188.862 483.002 172.394 492.143 164.159" stroke="url(#paint1_linear_7175_66207)" stroke-width="0.711864"/>
<circle cx="122.3" cy="241.578" r="2" fill="url(#paint2_linear_7175_66207)"/>
<circle cx="233.484" cy="191.023" r="2" fill="url(#paint3_linear_7175_66207)"/>
<circle cx="370.022" cy="179.634" r="2" fill="url(#paint4_linear_7175_66207)"/>
<circle cx="453.551" cy="188.066" r="2" fill="url(#paint5_linear_7175_66207)"/>
<g clip-path="url(#clip3_7175_66207)">
<path opacity="0.1" d="M409.295 241.329C433.65 241.329 424.976 224.81 491.699 218.153V288.024H-0.721771V164.159C9.50919 172.46 23.6324 189.061 52.3236 189.061C81.0148 189.061 104.368 178.952 134.394 179.445C164.419 179.938 174.762 197.936 191.776 197.936C208.791 197.936 214.129 184.869 249.826 184.869C285.523 184.869 283.188 195.224 327.559 197.936C371.93 200.648 384.941 241.329 409.295 241.329Z" fill="#2261EB"/>
<path d="M491.699 217.723C424.976 224.327 433.65 240.714 409.295 240.714C384.941 240.714 371.93 200.358 327.559 197.667C283.188 194.977 285.523 184.704 249.826 184.704C214.129 184.704 208.791 197.667 191.776 197.667C174.762 197.667 164.419 179.813 134.394 179.323C104.368 178.834 81.0148 188.862 52.3236 188.862C23.6324 188.862 9.50921 172.394 -0.721758 164.159" stroke="#2261EB" stroke-width="0.711864"/>
<circle cx="2.13559" cy="2.13559" r="2.13559" transform="matrix(-1 0 0 1 456.499 221.82)" fill="#2261EB"/>
<circle cx="2.13559" cy="2.13559" r="2.13559" transform="matrix(-1 0 0 1 372.287 214.302)" fill="#2261EB"/>
<circle cx="2.13559" cy="2.13559" r="2.13559" transform="matrix(-1 0 0 1 235.484 183.152)" fill="#2261EB"/>
<circle cx="2.13559" cy="2.13559" r="2.13559" transform="matrix(-1 0 0 1 123.762 177.041)" fill="#2261EB"/>
</g>
<g clip-path="url(#clip4_7175_66207)">
<path opacity="0.1" d="M700.639 291.349C742.629 291.349 727.673 274.812 842.714 268.148V338.095H-6.28589V214.095C11.3537 222.404 35.704 239.023 85.1714 239.023C134.639 239.023 174.903 228.904 226.671 229.397C278.44 229.891 296.271 247.909 325.606 247.909C354.942 247.909 364.145 234.827 425.692 234.827C487.239 234.827 483.212 245.194 559.714 247.909C636.216 250.624 658.649 291.349 700.639 291.349Z" fill="#1EA2A9"/>
<path d="M842.714 267.27C727.673 273.826 742.629 290.095 700.639 290.095C658.649 290.095 636.216 250.031 559.714 247.36C483.212 244.689 487.239 234.491 425.692 234.491C364.145 234.491 354.942 247.36 325.606 247.36C296.271 247.36 278.44 229.635 226.671 229.149C174.903 228.663 134.639 238.619 85.1714 238.619C35.7039 238.619 11.3537 222.269 -6.28585 214.095" stroke="#1EA2A9" stroke-width="0.711864"/>
<circle cx="122.164" cy="236.592" r="2.13559" fill="#1EA2A9"/>
<circle cx="233.929" cy="229.288" r="2.13559" fill="#1EA2A9"/>
<circle cx="370.177" cy="239.132" r="2.13559" fill="#1EA2A9"/>
<circle cx="454.789" cy="235.647" r="2.13559" fill="#1EA2A9"/>
</g>
</g>
</g>
<g filter="url(#filter1_d_7175_66207)">
<rect x="28" y="338" width="281" height="142" rx="32" fill="#FCFDFF"/>
<path opacity="0.5" d="M54.16 403.048H61.84V382.696L54.16 388.168V381.16L62.272 375.4H69.04V403.048H75.28V409H54.16V403.048ZM93.0344 401.896H77.1944V396.904L93.0344 375.4H100.234V395.944H104.074V401.896H100.234V409H93.0344V401.896ZM93.0344 395.944V383.416L83.9144 395.944H93.0344ZM119.815 403.768L131.575 393.64C132.663 392.68 133.591 391.848 134.359 391.144C135.127 390.408 135.751 389.736 136.231 389.128C136.711 388.52 137.047 387.928 137.239 387.352C137.463 386.776 137.575 386.152 137.575 385.48C137.575 384.104 137.191 383 136.423 382.168C135.655 381.304 134.519 380.872 133.015 380.872C131.287 380.872 129.927 381.352 128.935 382.312C127.975 383.24 127.495 384.856 127.495 387.16H120.295C120.295 383.352 121.367 380.344 123.511 378.136C125.687 375.928 128.855 374.824 133.015 374.824C134.967 374.824 136.663 375.096 138.103 375.64C139.575 376.152 140.807 376.888 141.799 377.848C142.791 378.776 143.527 379.896 144.007 381.208C144.519 382.52 144.775 383.944 144.775 385.48C144.775 386.632 144.567 387.736 144.151 388.792C143.735 389.816 143.159 390.808 142.423 391.768C141.719 392.728 140.887 393.672 139.927 394.6C138.967 395.496 137.943 396.392 136.855 397.288L129.943 403.048H145.255V409H119.815V403.768ZM164.244 381.352H148.116V375.4H171.636V380.632L160.596 409H152.916L164.244 381.352ZM188.438 409.576C186.614 409.576 184.902 409.288 183.302 408.712C181.734 408.104 180.374 407.128 179.222 405.784C178.07 404.408 177.158 402.616 176.486 400.408C175.814 398.168 175.478 395.432 175.478 392.2V391.24C175.478 388.232 175.814 385.688 176.486 383.608C177.158 381.528 178.07 379.848 179.222 378.568C180.374 377.256 181.734 376.312 183.302 375.736C184.902 375.128 186.614 374.824 188.438 374.824C190.262 374.824 191.958 375.128 193.526 375.736C195.126 376.312 196.502 377.256 197.654 378.568C198.806 379.848 199.718 381.528 200.39 383.608C201.062 385.688 201.398 388.232 201.398 391.24V392.2C201.398 395.432 201.062 398.168 200.39 400.408C199.718 402.616 198.806 404.408 197.654 405.784C196.502 407.128 195.126 408.104 193.526 408.712C191.958 409.288 190.262 409.576 188.438 409.576ZM188.438 403.528C189.238 403.528 189.99 403.368 190.694 403.048C191.398 402.728 192.006 402.152 192.518 401.32C193.062 400.456 193.478 399.288 193.766 397.816C194.054 396.344 194.198 394.472 194.198 392.2V391.24C194.198 389.192 194.054 387.512 193.766 386.2C193.478 384.856 193.062 383.8 192.518 383.032C192.006 382.232 191.398 381.672 190.694 381.352C189.99 381.032 189.238 380.872 188.438 380.872C187.606 380.872 186.838 381.032 186.134 381.352C185.462 381.672 184.854 382.232 184.31 383.032C183.798 383.8 183.398 384.856 183.11 386.2C182.822 387.512 182.678 389.192 182.678 391.24V392.2C182.678 394.472 182.822 396.344 183.11 397.816C183.398 399.288 183.798 400.456 184.31 401.32C184.854 402.152 185.462 402.728 186.134 403.048C186.838 403.368 187.606 403.528 188.438 403.528ZM221.061 404.776H216.741V399.784H221.061V397H216.741V391.048H221.061V375.4H233.061C235.109 375.4 236.901 375.656 238.437 376.168C240.005 376.68 241.317 377.416 242.373 378.376C243.429 379.304 244.213 380.44 244.725 381.784C245.269 383.096 245.541 384.568 245.541 386.2C245.541 387.832 245.269 389.32 244.725 390.664C244.213 391.976 243.429 393.112 242.373 394.072C241.317 395 240.005 395.72 238.437 396.232C236.901 396.744 235.109 397 233.061 397H228.261V399.784H238.821V404.776H228.261V409H221.061V404.776ZM232.341 391.048C234.453 391.048 235.973 390.632 236.901 389.8C237.861 388.936 238.341 387.736 238.341 386.2C238.341 384.664 237.893 383.48 236.997 382.648C236.101 381.784 234.549 381.352 232.341 381.352H228.261V391.048H232.341Z" fill="#2261EB"/>
<path opacity="0.9" d="M52.36 442.524H53.71C53.938 442.068 54.13 441.504 54.286 440.832C54.442 440.16 54.562 439.44 54.646 438.672C54.73 437.892 54.79 437.094 54.826 436.278C54.862 435.45 54.88 434.664 54.88 433.92V431.4H63.07V442.524H64.6V446.34H62.98V444H53.98V446.34H52.36V442.524ZM61.378 442.524V432.876H56.536V434.28C56.536 436.104 56.452 437.682 56.284 439.014C56.128 440.346 55.87 441.516 55.51 442.524H61.378ZM70.3727 444.18C69.7607 444.18 69.1787 444.084 68.6267 443.892C68.0747 443.7 67.5887 443.406 67.1687 443.01C66.7487 442.602 66.4127 442.092 66.1607 441.48C65.9087 440.868 65.7827 440.148 65.7827 439.32V438.96C65.7827 438.168 65.9027 437.484 66.1427 436.908C66.3827 436.32 66.7007 435.834 67.0967 435.45C67.5047 435.054 67.9727 434.76 68.5007 434.568C69.0407 434.376 69.6047 434.28 70.1927 434.28C71.5967 434.28 72.6827 434.664 73.4507 435.432C74.2187 436.2 74.6027 437.286 74.6027 438.69V439.698H67.3667C67.3667 440.262 67.4567 440.736 67.6367 441.12C67.8167 441.504 68.0507 441.816 68.3387 442.056C68.6267 442.296 68.9447 442.47 69.2927 442.578C69.6527 442.686 70.0127 442.74 70.3727 442.74C71.0927 442.74 71.6447 442.62 72.0287 442.38C72.4247 442.14 72.7067 441.81 72.8747 441.39H74.4227C74.3267 441.846 74.1527 442.248 73.9007 442.596C73.6607 442.944 73.3607 443.238 73.0007 443.478C72.6527 443.706 72.2507 443.88 71.7947 444C71.3507 444.12 70.8767 444.18 70.3727 444.18ZM70.2827 435.72C69.9107 435.72 69.5507 435.774 69.2027 435.882C68.8547 435.978 68.5427 436.14 68.2667 436.368C68.0027 436.584 67.7867 436.86 67.6187 437.196C67.4507 437.532 67.3667 437.934 67.3667 438.402H73.1087C73.0967 437.91 73.0127 437.496 72.8567 437.16C72.7127 436.812 72.5147 436.536 72.2627 436.332C72.0107 436.116 71.7107 435.96 71.3627 435.864C71.0267 435.768 70.6667 435.72 70.2827 435.72ZM76.8541 434.46H78.4381V438.438H83.3701V434.46H84.9541V444H83.3701V439.842H78.4381V444H76.8541V434.46ZM91.8004 444.18C91.1884 444.18 90.6064 444.084 90.0544 443.892C89.5024 443.7 89.0164 443.406 88.5964 443.01C88.1764 442.602 87.8404 442.092 87.5884 441.48C87.3364 440.868 87.2104 440.148 87.2104 439.32V438.96C87.2104 438.168 87.3304 437.484 87.5704 436.908C87.8104 436.32 88.1284 435.834 88.5244 435.45C88.9324 435.054 89.4004 434.76 89.9284 434.568C90.4684 434.376 91.0324 434.28 91.6204 434.28C93.0244 434.28 94.1104 434.664 94.8784 435.432C95.6464 436.2 96.0304 437.286 96.0304 438.69V439.698H88.7944C88.7944 440.262 88.8844 440.736 89.0644 441.12C89.2444 441.504 89.4784 441.816 89.7664 442.056C90.0544 442.296 90.3724 442.47 90.7204 442.578C91.0804 442.686 91.4404 442.74 91.8004 442.74C92.5204 442.74 93.0724 442.62 93.4564 442.38C93.8524 442.14 94.1344 441.81 94.3024 441.39H95.8504C95.7544 441.846 95.5804 442.248 95.3284 442.596C95.0884 442.944 94.7884 443.238 94.4284 443.478C94.0804 443.706 93.6784 443.88 93.2224 444C92.7784 444.12 92.3044 444.18 91.8004 444.18ZM91.7104 435.72C91.3384 435.72 90.9784 435.774 90.6304 435.882C90.2824 435.978 89.9704 436.14 89.6944 436.368C89.4304 436.584 89.2144 436.86 89.0464 437.196C88.8784 437.532 88.7944 437.934 88.7944 438.402H94.5364C94.5244 437.91 94.4404 437.496 94.2844 437.16C94.1404 436.812 93.9424 436.536 93.6904 436.332C93.4384 436.116 93.1384 435.96 92.7904 435.864C92.4544 435.768 92.0944 435.72 91.7104 435.72ZM98.2818 434.46H104.762V435.864H99.8658V444H98.2818V434.46ZM111.061 434.46H115.201C116.377 434.46 117.241 434.706 117.793 435.198C118.345 435.678 118.621 436.302 118.621 437.07C118.621 437.274 118.585 437.484 118.513 437.7C118.441 437.904 118.339 438.096 118.207 438.276C118.087 438.456 117.937 438.612 117.757 438.744C117.589 438.876 117.397 438.978 117.181 439.05C117.769 439.194 118.213 439.47 118.513 439.878C118.825 440.274 118.981 440.742 118.981 441.282C118.981 442.11 118.705 442.77 118.153 443.262C117.601 443.754 116.737 444 115.561 444H111.061V434.46ZM115.561 442.596C116.233 442.596 116.707 442.476 116.983 442.236C117.259 441.996 117.397 441.654 117.397 441.21C117.397 440.754 117.259 440.406 116.983 440.166C116.707 439.914 116.233 439.788 115.561 439.788H112.645V442.596H115.561ZM115.201 438.492C115.885 438.492 116.359 438.372 116.623 438.132C116.899 437.892 117.037 437.562 117.037 437.142C117.037 436.746 116.899 436.434 116.623 436.206C116.359 435.978 115.885 435.864 115.201 435.864H112.645V438.492H115.201ZM125.739 434.46H127.323V438.456H128.583L132.147 434.46H134.019L129.879 439.032L134.199 444H132.183L128.583 439.824H127.323V444H125.739V434.46ZM138.635 444.18C138.107 444.18 137.639 444.108 137.231 443.964C136.835 443.808 136.499 443.598 136.223 443.334C135.947 443.07 135.737 442.758 135.593 442.398C135.449 442.038 135.377 441.642 135.377 441.21C135.377 440.262 135.653 439.578 136.205 439.158C136.769 438.738 137.573 438.528 138.617 438.528H141.713V437.88C141.713 437.064 141.527 436.5 141.155 436.188C140.795 435.876 140.249 435.72 139.517 435.72C138.833 435.72 138.335 435.852 138.023 436.116C137.711 436.368 137.537 436.656 137.501 436.98H135.917C135.941 436.596 136.043 436.242 136.223 435.918C136.415 435.582 136.667 435.294 136.979 435.054C137.303 434.814 137.687 434.628 138.131 434.496C138.575 434.352 139.067 434.28 139.607 434.28C140.735 434.28 141.629 434.55 142.289 435.09C142.961 435.618 143.297 436.488 143.297 437.7V441.57C143.297 442.074 143.297 442.518 143.297 442.902C143.309 443.274 143.339 443.64 143.387 444H142.001C141.965 443.724 141.941 443.466 141.929 443.226C141.917 442.974 141.911 442.692 141.911 442.38C141.659 442.884 141.251 443.31 140.687 443.658C140.123 444.006 139.439 444.18 138.635 444.18ZM138.977 442.74C139.349 442.74 139.697 442.692 140.021 442.596C140.357 442.488 140.651 442.338 140.903 442.146C141.155 441.942 141.353 441.696 141.497 441.408C141.641 441.12 141.713 440.784 141.713 440.4V439.752H138.887C138.299 439.752 137.837 439.872 137.501 440.112C137.165 440.34 136.997 440.706 136.997 441.21C136.997 441.654 137.153 442.02 137.465 442.308C137.789 442.596 138.293 442.74 138.977 442.74ZM149.784 444.18C149.172 444.18 148.602 444.084 148.074 443.892C147.546 443.688 147.09 443.388 146.706 442.992C146.322 442.584 146.016 442.074 145.788 441.462C145.572 440.85 145.464 440.136 145.464 439.32V438.96C145.464 438.192 145.584 437.514 145.824 436.926C146.064 436.338 146.382 435.852 146.778 435.468C147.174 435.072 147.63 434.778 148.146 434.586C148.674 434.382 149.22 434.28 149.784 434.28C150.348 434.28 150.852 434.358 151.296 434.514C151.752 434.67 152.142 434.886 152.466 435.162C152.802 435.438 153.072 435.762 153.276 436.134C153.492 436.506 153.648 436.908 153.744 437.34H152.124C152.028 437.112 151.914 436.902 151.782 436.71C151.662 436.506 151.506 436.332 151.314 436.188C151.134 436.044 150.918 435.93 150.666 435.846C150.414 435.762 150.12 435.72 149.784 435.72C149.436 435.72 149.1 435.786 148.776 435.918C148.452 436.038 148.164 436.23 147.912 436.494C147.66 436.746 147.456 437.076 147.3 437.484C147.156 437.892 147.084 438.384 147.084 438.96V439.32C147.084 439.932 147.156 440.46 147.3 440.904C147.456 441.336 147.66 441.69 147.912 441.966C148.164 442.23 148.452 442.428 148.776 442.56C149.1 442.68 149.436 442.74 149.784 442.74C150.372 442.74 150.864 442.596 151.26 442.308C151.668 442.02 151.956 441.624 152.124 441.12H153.744C153.516 442.068 153.048 442.818 152.34 443.37C151.632 443.91 150.78 444.18 149.784 444.18ZM159.593 444.18C158.981 444.18 158.411 444.084 157.883 443.892C157.355 443.688 156.899 443.388 156.515 442.992C156.131 442.584 155.825 442.074 155.597 441.462C155.381 440.85 155.273 440.136 155.273 439.32V438.96C155.273 438.192 155.393 437.514 155.633 436.926C155.873 436.338 156.191 435.852 156.587 435.468C156.983 435.072 157.439 434.778 157.955 434.586C158.483 434.382 159.029 434.28 159.593 434.28C160.157 434.28 160.661 434.358 161.105 434.514C161.561 434.67 161.951 434.886 162.275 435.162C162.611 435.438 162.881 435.762 163.085 436.134C163.301 436.506 163.457 436.908 163.553 437.34H161.933C161.837 437.112 161.723 436.902 161.591 436.71C161.471 436.506 161.315 436.332 161.123 436.188C160.943 436.044 160.727 435.93 160.475 435.846C160.223 435.762 159.929 435.72 159.593 435.72C159.245 435.72 158.909 435.786 158.585 435.918C158.261 436.038 157.973 436.23 157.721 436.494C157.469 436.746 157.265 437.076 157.109 437.484C156.965 437.892 156.893 438.384 156.893 438.96V439.32C156.893 439.932 156.965 440.46 157.109 440.904C157.265 441.336 157.469 441.69 157.721 441.966C157.973 442.23 158.261 442.428 158.585 442.56C158.909 442.68 159.245 442.74 159.593 442.74C160.181 442.74 160.673 442.596 161.069 442.308C161.477 442.02 161.765 441.624 161.933 441.12H163.553C163.325 442.068 162.857 442.818 162.149 443.37C161.441 443.91 160.589 444.18 159.593 444.18ZM169.671 444.18C169.059 444.18 168.477 444.084 167.925 443.892C167.373 443.7 166.887 443.406 166.467 443.01C166.047 442.602 165.711 442.092 165.459 441.48C165.207 440.868 165.081 440.148 165.081 439.32V438.96C165.081 438.168 165.201 437.484 165.441 436.908C165.681 436.32 165.999 435.834 166.395 435.45C166.803 435.054 167.271 434.76 167.799 434.568C168.339 434.376 168.903 434.28 169.491 434.28C170.895 434.28 171.981 434.664 172.749 435.432C173.517 436.2 173.901 437.286 173.901 438.69V439.698H166.665C166.665 440.262 166.755 440.736 166.935 441.12C167.115 441.504 167.349 441.816 167.637 442.056C167.925 442.296 168.243 442.47 168.591 442.578C168.951 442.686 169.311 442.74 169.671 442.74C170.391 442.74 170.943 442.62 171.327 442.38C171.723 442.14 172.005 441.81 172.173 441.39H173.721C173.625 441.846 173.451 442.248 173.199 442.596C172.959 442.944 172.659 443.238 172.299 443.478C171.951 443.706 171.549 443.88 171.093 444C170.649 444.12 170.175 444.18 169.671 444.18ZM169.581 435.72C169.209 435.72 168.849 435.774 168.501 435.882C168.153 435.978 167.841 436.14 167.565 436.368C167.301 436.584 167.085 436.86 166.917 437.196C166.749 437.532 166.665 437.934 166.665 438.402H172.407C172.395 437.91 172.311 437.496 172.155 437.16C172.011 436.812 171.813 436.536 171.561 436.332C171.309 436.116 171.009 435.96 170.661 435.864C170.325 435.768 169.965 435.72 169.581 435.72Z" fill="#1F1F25" fill-opacity="0.8"/>
</g>
<defs>
<filter id="filter0_d_7175_66207" x="0.698412" y="0.491869" width="544.667" height="339.746" filterUnits="userSpaceOnUse" color-interpolation-filters="sRGB">
<feFlood flood-opacity="0" result="BackgroundImageFix"/>
<feColorMatrix in="SourceAlpha" type="matrix" values="0 0 0 0 0 0 0 0 0 0 0 0 0 0 0 0 0 0 127 0" result="hardAlpha"/>
<feOffset/>
<feGaussianBlur stdDeviation="13.6508"/>
<feComposite in2="hardAlpha" operator="out"/>
<feColorMatrix type="matrix" values="0 0 0 0 0.641198 0 0 0 0 0.761107 0 0 0 0 0.8125 0 0 0 0.6 0"/>
<feBlend mode="normal" in2="BackgroundImageFix" result="effect1_dropShadow_7175_66207"/>
<feBlend mode="normal" in="SourceGraphic" in2="effect1_dropShadow_7175_66207" result="shape"/>
</filter>
<filter id="filter1_d_7175_66207" x="8" y="318" width="321" height="182" filterUnits="userSpaceOnUse" color-interpolation-filters="sRGB">
<feFlood flood-opacity="0" result="BackgroundImageFix"/>
<feColorMatrix in="SourceAlpha" type="matrix" values="0 0 0 0 0 0 0 0 0 0 0 0 0 0 0 0 0 0 127 0" result="hardAlpha"/>
<feOffset/>
<feGaussianBlur stdDeviation="10"/>
<feComposite in2="hardAlpha" operator="out"/>
<feColorMatrix type="matrix" values="0 0 0 0 0.641198 0 0 0 0 0.761107 0 0 0 0 0.8125 0 0 0 0.6 0"/>
<feBlend mode="normal" in2="BackgroundImageFix" result="effect1_dropShadow_7175_66207"/>
<feBlend mode="normal" in="SourceGraphic" in2="effect1_dropShadow_7175_66207" result="shape"/>
</filter>
<linearGradient id="paint0_linear_7175_66207" x1="272.16" y1="164.159" x2="272.16" y2="288.024" gradientUnits="userSpaceOnUse">
<stop stop-color="#DF3D1A"/>
<stop offset="1" stop-color="#DF611A"/>
</linearGradient>
<linearGradient id="paint1_linear_7175_66207" x1="272.16" y1="164.159" x2="272.16" y2="240.714" gradientUnits="userSpaceOnUse">
<stop stop-color="#DF3D1A"/>
<stop offset="1" stop-color="#DF611A"/>
</linearGradient>
<linearGradient id="paint2_linear_7175_66207" x1="122.3" y1="239.578" x2="122.3" y2="243.578" gradientUnits="userSpaceOnUse">
<stop stop-color="#DF3D1A"/>
<stop offset="1" stop-color="#DF611A"/>
</linearGradient>
<linearGradient id="paint3_linear_7175_66207" x1="233.484" y1="189.023" x2="233.484" y2="193.023" gradientUnits="userSpaceOnUse">
<stop stop-color="#DF3D1A"/>
<stop offset="1" stop-color="#DF611A"/>
</linearGradient>
<linearGradient id="paint4_linear_7175_66207" x1="370.022" y1="177.634" x2="370.022" y2="181.634" gradientUnits="userSpaceOnUse">
<stop stop-color="#DF3D1A"/>
<stop offset="1" stop-color="#DF611A"/>
</linearGradient>
<linearGradient id="paint5_linear_7175_66207" x1="453.551" y1="186.066" x2="453.551" y2="190.066" gradientUnits="userSpaceOnUse">
<stop stop-color="#DF3D1A"/>
<stop offset="1" stop-color="#DF611A"/>
</linearGradient>
<clipPath id="clip0_7175_66207">
<rect x="52.5715" y="52.3647" width="440" height="236" rx="16" fill="white"/>
</clipPath>
<clipPath id="clip1_7175_66207">
<rect width="440" height="124" fill="white" transform="translate(52.5715 168.952)"/>
</clipPath>
<clipPath id="clip2_7175_66207">
<rect width="440" height="124" fill="white" transform="translate(52.5715 168.952)"/>
</clipPath>
<clipPath id="clip3_7175_66207">
<rect width="443" height="126" fill="white" transform="matrix(-1 0 0 1 493.572 162.365)"/>
</clipPath>
<clipPath id="clip4_7175_66207">
<rect width="440" height="124" fill="white" transform="translate(52.1428 164.023)"/>
</clipPath>
</defs>
</svg>
