<svg width="24" height="24" viewBox="0 0 24 24" fill="none" xmlns="http://www.w3.org/2000/svg">
<mask id="mask0_7120_57911" style="mask-type:alpha" maskUnits="userSpaceOnUse" x="0" y="0" width="24" height="24">
<rect width="24" height="24" fill="#D9D9D9"/>
</mask>
<g mask="url(#mask0_7120_57911)">
<path d="M12 21.5002C10.7 21.5002 9.47067 21.2502 8.312 20.7502C7.154 20.2502 6.14567 19.5709 5.287 18.7122C4.429 17.8542 3.75 16.8462 3.25 15.6882C2.75 14.5296 2.5 13.3002 2.5 12.0002C2.5 10.6836 2.75 9.45024 3.25 8.30024C3.75 7.15024 4.429 6.14591 5.287 5.28724C6.14567 4.42924 7.154 3.75024 8.312 3.25024C9.47067 2.75024 10.7 2.50024 12 2.50024C13.3167 2.50024 14.55 2.75024 15.7 3.25024C16.85 3.75024 17.854 4.42924 18.712 5.28724C19.5707 6.14591 20.25 7.15024 20.75 8.30024C21.25 9.45024 21.5 10.6836 21.5 12.0002C21.5 13.3002 21.25 14.5296 20.75 15.6882C20.25 16.8462 19.5707 17.8542 18.712 18.7122C17.854 19.5709 16.85 20.2502 15.7 20.7502C14.55 21.2502 13.3167 21.5002 12 21.5002ZM12 19.9752C12.5167 19.3086 12.946 18.6296 13.288 17.9382C13.6293 17.2462 13.9167 16.4919 14.15 15.6752H9.85C10.0833 16.5086 10.371 17.2709 10.713 17.9622C11.0543 18.6542 11.4833 19.3252 12 19.9752ZM10.075 19.7002C9.69167 19.1502 9.346 18.5252 9.038 17.8252C8.72933 17.1252 8.49167 16.4086 8.325 15.6752H4.925C5.45833 16.7086 6.16667 17.5796 7.05 18.2882C7.93333 18.9962 8.94167 19.4669 10.075 19.7002ZM13.925 19.7002C15.0583 19.4669 16.0667 18.9962 16.95 18.2882C17.8333 17.5796 18.5417 16.7086 19.075 15.6752H15.675C15.475 16.4086 15.225 17.1292 14.925 17.8372C14.625 18.5459 14.2917 19.1669 13.925 19.7002ZM4.3 14.1752H8.025C7.95833 13.8086 7.90833 13.4459 7.875 13.0872C7.84167 12.7292 7.825 12.3669 7.825 12.0002C7.825 11.6336 7.84167 11.2709 7.875 10.9122C7.90833 10.5542 7.95833 10.1919 8.025 9.82524H4.3C4.2 10.1586 4.125 10.5086 4.075 10.8752C4.025 11.2419 4 11.6169 4 12.0002C4 12.3836 4.025 12.7586 4.075 13.1252C4.125 13.4919 4.2 13.8419 4.3 14.1752ZM9.525 14.1752H14.475C14.5417 13.8086 14.5917 13.4502 14.625 13.1002C14.6583 12.7502 14.675 12.3836 14.675 12.0002C14.675 11.6169 14.6583 11.2502 14.625 10.9002C14.5917 10.5502 14.5417 10.1919 14.475 9.82524H9.525C9.45833 10.1919 9.40833 10.5502 9.375 10.9002C9.34167 11.2502 9.325 11.6169 9.325 12.0002C9.325 12.3836 9.34167 12.7502 9.375 13.1002C9.40833 13.4502 9.45833 13.8086 9.525 14.1752ZM15.975 14.1752H19.7C19.8 13.8419 19.875 13.4919 19.925 13.1252C19.975 12.7586 20 12.3836 20 12.0002C20 11.6169 19.975 11.2419 19.925 10.8752C19.875 10.5086 19.8 10.1586 19.7 9.82524H15.975C16.0417 10.1919 16.0917 10.5542 16.125 10.9122C16.1583 11.2709 16.175 11.6336 16.175 12.0002C16.175 12.3669 16.1583 12.7292 16.125 13.0872C16.0917 13.4459 16.0417 13.8086 15.975 14.1752ZM15.675 8.32524H19.075C18.5417 7.27524 17.8377 6.40424 16.963 5.71224C16.0877 5.02091 15.075 4.54191 13.925 4.27524C14.3083 4.85858 14.65 5.49591 14.95 6.18724C15.25 6.87924 15.4917 7.59191 15.675 8.32524ZM9.85 8.32524H14.15C13.9167 7.49191 13.621 6.72091 13.263 6.01224C12.9043 5.30424 12.4833 4.64191 12 4.02524C11.5167 4.64191 11.096 5.30424 10.738 6.01224C10.3793 6.72091 10.0833 7.49191 9.85 8.32524ZM4.925 8.32524H8.325C8.50833 7.59191 8.75 6.87924 9.05 6.18724C9.35 5.49591 9.69167 4.85858 10.075 4.27524C8.90833 4.54191 7.89167 5.02091 7.025 5.71224C6.15833 6.40424 5.45833 7.27524 4.925 8.32524Z" fill="white"/>
</g>
</svg>
