<svg width="267" height="32" viewBox="0 0 267 32" fill="none" xmlns="http://www.w3.org/2000/svg">
<mask id="path-1-inside-1_7120_57887" fill="white">
<path fill-rule="evenodd" clip-rule="evenodd" d="M133.85 6.51998C133.428 6.51998 133.029 6.68746 132.769 6.96589C132.456 7.26422 132.29 7.65252 132.29 8.08819V24.7891C132.29 25.219 132.452 25.6094 132.737 25.8791C133.034 26.1942 133.42 26.3617 133.854 26.3617C134.281 26.3617 134.671 26.1974 134.939 25.9114C135.253 25.6126 135.419 25.2249 135.419 24.7891V8.08819C135.419 7.66328 135.257 7.27231 134.961 6.98635C134.675 6.68962 134.271 6.51998 133.85 6.51998Z"/>
<path fill-rule="evenodd" clip-rule="evenodd" d="M129.148 1.69211C128.024 1.69211 127.108 2.61246 127.108 3.74392C127.108 4.87483 128.024 5.79572 129.148 5.79572C130.275 5.79572 131.191 4.87537 131.191 3.74392C131.191 2.61246 130.274 1.69211 129.148 1.69211Z"/>
<path fill-rule="evenodd" clip-rule="evenodd" d="M64.8588 14.0688C64.2743 14.6014 63.5857 14.8706 62.7605 14.8916L58.4393 14.8911V9.62263H62.6587C63.5075 9.62263 64.2411 9.89297 64.8396 10.4261C65.4177 10.9415 65.6985 11.5403 65.6985 12.2566C65.6985 12.9599 65.4236 13.5528 64.8588 14.0688ZM66.9974 8.15942C65.8004 7.04359 64.3406 6.47759 62.6587 6.47759H56.8746C56.452 6.47759 56.0528 6.64561 55.7902 6.92834C55.4762 7.22615 55.3094 7.61444 55.3094 8.05011V18.0199L63.0461 18.0184C64.6251 17.9246 65.9896 17.3302 67.1015 16.252C68.2395 15.1383 68.8156 13.7946 68.8156 12.2566C68.8156 10.6604 68.2034 9.2828 66.9974 8.15942Z"/>
<path fill-rule="evenodd" clip-rule="evenodd" d="M216.153 16.3537C216.153 16.2886 216.153 16.2234 216.153 16.1566L216.136 15.6332L213.812 15.6343L213.035 15.6714L213.034 16.7743C212.959 18.5126 212.292 20.0217 211.051 21.2624C209.735 22.5856 208.125 23.2567 206.267 23.2567H205.464V26.372L206.078 26.3942C206.139 26.3984 206.203 26.4023 206.267 26.4023C206.331 26.4023 206.392 26.3984 206.452 26.3942L206.548 26.3898C209.156 26.3231 211.416 25.3467 213.266 23.4887C215.116 21.6303 216.087 19.3533 216.153 16.7232C216.155 16.6693 216.155 16.616 216.153 16.5336V16.3537Z"/>
<path fill-rule="evenodd" clip-rule="evenodd" d="M260.514 12.1867L262.689 17.4561H266.057L261.944 7.46697C261.867 7.29948 261.762 7.07115 261.538 6.87942C261.248 6.63225 260.837 6.50406 260.404 6.52938C260.071 6.54608 259.825 6.67533 259.667 6.77011C259.628 6.7938 259.584 6.82395 259.566 6.84012C259.358 6.9952 259.197 7.20416 259.074 7.48635L254.96 17.4561H258.339L260.514 12.1867Z"/>
<path fill-rule="evenodd" clip-rule="evenodd" d="M90.2605 21.2543C88.9439 22.5774 87.3336 23.2491 85.4758 23.2491C83.618 23.2491 82.0084 22.5774 80.6913 21.2543C79.3747 19.9307 78.707 18.3128 78.707 16.4463C78.707 14.5781 79.3752 12.9604 80.6928 11.6356C82.0094 10.3049 83.6185 9.63008 85.4758 9.63008C87.3336 9.63008 88.9432 10.3054 90.262 11.6388C91.5862 12.9625 92.2576 14.5797 92.2576 16.4463C92.2576 18.3123 91.5862 19.929 90.262 21.2528L90.2605 21.2543ZM92.4751 9.41144C90.5524 7.4781 88.1969 6.49796 85.4758 6.49796C82.7542 6.49796 80.3997 7.4781 78.4761 9.41144C76.5524 11.3448 75.5766 13.7122 75.5766 16.4463C75.5766 19.1804 76.5529 21.5472 78.4761 23.4806C80.3997 25.4139 82.7542 26.394 85.4758 26.394C88.1969 26.394 90.5519 25.4139 92.4751 23.4806C94.3994 21.5472 95.3747 19.181 95.3747 16.4463C95.3747 13.7122 94.3994 11.3448 92.4751 9.41144Z"/>
<path fill-rule="evenodd" clip-rule="evenodd" d="M112.816 9.61024C113.71 9.61024 114.511 9.78043 115.196 10.1175C115.934 10.4724 116.373 10.9571 116.539 11.598C116.641 12.0116 116.893 12.3514 117.239 12.5501C117.606 12.7774 118.032 12.8366 118.429 12.7219C118.84 12.618 119.165 12.3761 119.4 11.9949C119.606 11.6308 119.658 11.2355 119.555 10.8155C119.167 9.32697 118.23 8.18152 116.77 7.41357C115.608 6.79264 114.278 6.47759 112.816 6.47759C111.102 6.47759 109.61 7.05006 108.381 8.17936C107.131 9.31781 106.458 10.7336 106.381 12.3875C106.32 13.7726 106.786 15.0042 107.765 16.0468C108.947 17.314 110.691 17.9694 112.949 17.9978L113.096 17.9995C114.422 18.034 115.381 18.3598 115.95 18.972C116.337 19.3798 116.514 19.8267 116.491 20.3363C116.451 21.1478 116.123 21.8188 115.49 22.3886C114.851 22.9627 114.07 23.2534 113.171 23.2534C112.273 23.2534 111.473 23.0876 110.796 22.7629C110.055 22.3994 109.614 21.9076 109.445 21.2555C109.341 20.8537 109.097 20.5317 108.709 20.2931C108.342 20.0933 107.942 20.0411 107.559 20.1418C107.146 20.2457 106.818 20.4913 106.58 20.8833C106.378 21.2544 106.327 21.647 106.431 22.0493C106.819 23.5372 107.757 24.6859 109.22 25.4646C110.381 26.0765 111.71 26.3867 113.172 26.3867C114.885 26.3867 116.377 25.8142 117.606 24.6854C118.856 23.5458 119.525 22.1307 119.593 20.4821C119.663 19.0922 119.202 17.8628 118.223 16.8298C117.048 15.5713 115.316 14.911 113.076 14.8658L113.018 14.8459L112.944 14.8653C111.591 14.8389 110.613 14.5125 110.036 13.891C109.65 13.4855 109.473 13.0434 109.497 12.5388C109.537 11.7202 109.864 11.0449 110.498 10.4757C111.138 9.90159 111.917 9.61024 112.816 9.61024Z"/>
<path fill-rule="evenodd" clip-rule="evenodd" d="M160.064 6.50387L150.023 6.47801C149.622 6.46832 149.207 6.62611 148.906 6.92822C148.593 7.22657 148.427 7.61432 148.427 8.05107V24.8274C148.427 25.2572 148.59 25.6486 148.875 25.9185C149.171 26.233 149.557 26.4 149.991 26.4C150.419 26.4 150.808 26.2362 151.076 25.9497C151.39 25.6513 151.556 25.2642 151.556 24.8274V18.0118H157.716C158.144 18.0118 158.532 17.848 158.801 17.5615C159.115 17.2632 159.281 16.876 159.281 16.4392C159.281 16.0149 159.113 15.6137 158.833 15.3493C158.536 15.0337 158.149 14.8667 157.716 14.8667H151.556V9.62574L160.063 9.64943C160.488 9.64943 160.868 9.49326 161.162 9.1976C161.467 8.89333 161.628 8.50612 161.628 8.07691C161.628 7.6574 161.471 7.27827 161.179 6.98586C160.883 6.67026 160.497 6.50439 160.064 6.50387Z"/>
<path fill-rule="evenodd" clip-rule="evenodd" d="M182.608 23.2643H175.18V8.11112C175.18 7.67762 175.028 7.30549 174.728 7.00553C174.44 6.7131 174.046 6.55153 173.622 6.55153C173.204 6.55153 172.8 6.71688 172.513 7.00445C172.213 7.30549 172.062 7.67762 172.062 8.11112V24.824C172.062 25.2489 172.217 25.6269 172.53 25.9591C172.837 26.2495 173.206 26.3965 173.627 26.3965H182.608C183.041 26.3965 183.41 26.2446 183.71 25.943C184.013 25.6388 184.173 25.2516 184.173 24.824C184.173 24.405 184.013 24.0221 183.71 23.7173C183.41 23.4163 183.039 23.2643 182.608 23.2643Z"/>
<path fill-rule="evenodd" clip-rule="evenodd" d="M233.097 9.65088C233.934 9.65088 234.66 9.92068 235.251 10.4544C235.821 10.9617 236.097 11.5524 236.097 12.2595C236.097 12.9537 235.826 13.5375 235.27 14.0458L235.266 14.0491C234.692 14.5774 234.01 14.8418 233.184 14.8558H228.913V9.65088H233.097ZM235.16 17.6557C236.152 17.3304 237.012 16.7724 237.719 15.9959C238.703 14.9285 239.201 13.6721 239.201 12.2595C239.201 10.6725 238.593 9.3019 237.394 8.18444C236.205 7.08745 234.759 6.53116 233.095 6.53116H227.348C226.935 6.53116 226.566 6.68193 226.248 6.98405C225.95 7.28509 225.796 7.65722 225.796 8.09075V24.7141C225.796 25.1316 225.951 25.5064 226.265 25.8376C226.878 26.4214 227.86 26.4143 228.449 25.8215C228.758 25.5128 228.913 25.1397 228.913 24.7141V17.989H231.847L235.541 25.5252C235.811 26.0826 236.319 26.4019 236.937 26.4019C237.182 26.4019 237.414 26.3476 237.628 26.2398C238.005 26.0493 238.268 25.7497 238.408 25.3492C238.546 24.9463 238.521 24.5327 238.332 24.1557L235.16 17.6557Z"/>
<path fill-rule="evenodd" clip-rule="evenodd" d="M198.396 21.2614C197.079 19.9383 196.412 18.3204 196.412 16.4529C196.412 14.5863 197.079 12.968 198.396 11.6427C199.715 10.3114 201.324 9.63717 203.18 9.63717C205.038 9.63717 206.649 10.3125 207.967 11.6459C209.079 12.7585 209.723 14.1 209.894 15.63H213.024C212.844 13.2303 211.894 11.1402 210.179 9.418C208.257 7.48465 205.902 6.50454 203.18 6.50454C200.458 6.50454 198.103 7.48465 196.181 9.418C194.256 11.3519 193.281 13.7182 193.281 16.4523C193.281 19.1865 194.256 21.5533 196.181 23.4872C198.029 25.3445 200.29 26.3214 202.899 26.3888L203.431 26.4016V23.2675L202.929 23.2508C201.177 23.1948 199.653 22.5253 198.396 21.2614Z"/>
<path fill-rule="evenodd" clip-rule="evenodd" d="M52.2177 18.0193V24.8174C52.2177 25.248 52.3811 25.6396 52.6646 25.9068C52.9614 26.2229 53.3478 26.3893 53.7824 26.3893C54.2106 26.3893 54.5995 26.2256 54.867 25.9391C55.181 25.6413 55.3471 25.2535 55.3471 24.8167V18.0193H52.2177Z"/>
<path fill-rule="evenodd" clip-rule="evenodd" d="M265.5 24.2218L262.714 17.461H259.337L260.076 19.2544L260.196 19.5458H254.129L254.875 17.7304L254.986 17.461H251.609L248.828 24.2122C248.656 24.6095 248.651 25.0415 248.816 25.4141C248.972 25.8164 249.269 26.1211 249.638 26.2639L249.779 26.3281L250.261 26.4002C250.928 26.4002 251.454 26.0463 251.703 25.4314L252.948 22.4215H261.377L262.62 25.425C262.871 26.0448 263.396 26.4002 264.062 26.4002C264.276 26.4002 264.49 26.3555 264.648 26.2805C265.042 26.125 265.352 25.8164 265.495 25.4442C265.669 25.0495 265.67 24.6161 265.5 24.2218Z"/>
<path d="M21.8062 15.9194C21.8062 19.1606 19.1732 21.7877 15.9249 21.7877C12.6763 21.7877 10.0429 19.1606 10.0429 15.9194C10.0429 12.6784 12.6763 10.0511 15.9249 10.0511C19.1732 10.0511 21.8062 12.6781 21.8062 15.9194Z"/>
<path d="M37.0556 15.9803L37.0573 15.8379C37.0573 15.7312 37.0585 15.6273 37.0556 15.5191L37.0303 14.6788L33.2654 14.6803L32.0063 14.7404L32.0021 16.5138C31.883 19.3086 30.8032 21.7372 28.7922 23.7325C26.6595 25.8599 24.0514 26.9395 21.0406 26.9395H19.7387L19.7399 31.9499L20.7354 31.9851C20.8361 31.9926 20.9381 31.9982 21.0415 31.9982C21.1451 31.9982 21.2441 31.9926 21.342 31.9851L21.497 31.978C25.7224 31.8702 29.3843 30.3018 32.3804 27.3122C35.3754 24.3229 36.9493 20.663 37.0571 16.4319C37.0583 16.3451 37.0583 16.2598 37.0571 16.1266L37.0556 15.9803Z"/>
<path d="M8.28444 23.7326C6.15182 21.6039 5.0703 19.003 5.0703 15.9994C5.0703 12.9964 6.15303 10.3937 8.2873 8.26249C10.4203 6.1225 13.0271 5.03716 16.0366 5.03716C19.0458 5.03716 21.6542 6.12372 23.7899 8.26735C25.5931 10.0585 26.635 12.2151 26.9117 14.6765H31.9806C31.689 10.817 30.1486 7.45439 27.3751 4.68537C24.26 1.57691 20.4452 0 16.0366 0C11.6281 0 7.81272 1.57691 4.69761 4.68554C1.57987 7.79545 0 11.6018 0 15.9994C0 20.3963 1.57987 24.2031 4.69781 27.3131C7.6923 30.3009 11.3537 31.8711 15.5815 31.9788L16.4437 32V26.9591L15.6305 26.9331C12.7927 26.8419 10.3211 25.7636 8.28444 23.7326Z"/>
</mask>
<path fill-rule="evenodd" clip-rule="evenodd" d="M133.85 6.51998C133.428 6.51998 133.029 6.68746 132.769 6.96589C132.456 7.26422 132.29 7.65252 132.29 8.08819V24.7891C132.29 25.219 132.452 25.6094 132.737 25.8791C133.034 26.1942 133.42 26.3617 133.854 26.3617C134.281 26.3617 134.671 26.1974 134.939 25.9114C135.253 25.6126 135.419 25.2249 135.419 24.7891V8.08819C135.419 7.66328 135.257 7.27231 134.961 6.98635C134.675 6.68962 134.271 6.51998 133.85 6.51998Z" fill="#BED8C0"/>
<path fill-rule="evenodd" clip-rule="evenodd" d="M129.148 1.69211C128.024 1.69211 127.108 2.61246 127.108 3.74392C127.108 4.87483 128.024 5.79572 129.148 5.79572C130.275 5.79572 131.191 4.87537 131.191 3.74392C131.191 2.61246 130.274 1.69211 129.148 1.69211Z" fill="#DFC35B"/>
<path fill-rule="evenodd" clip-rule="evenodd" d="M64.8588 14.0688C64.2743 14.6014 63.5857 14.8706 62.7605 14.8916L58.4393 14.8911V9.62263H62.6587C63.5075 9.62263 64.2411 9.89297 64.8396 10.4261C65.4177 10.9415 65.6985 11.5403 65.6985 12.2566C65.6985 12.9599 65.4236 13.5528 64.8588 14.0688ZM66.9974 8.15942C65.8004 7.04359 64.3406 6.47759 62.6587 6.47759H56.8746C56.452 6.47759 56.0528 6.64561 55.7902 6.92834C55.4762 7.22615 55.3094 7.61444 55.3094 8.05011V18.0199L63.0461 18.0184C64.6251 17.9246 65.9896 17.3302 67.1015 16.252C68.2395 15.1383 68.8156 13.7946 68.8156 12.2566C68.8156 10.6604 68.2034 9.2828 66.9974 8.15942Z" fill="#D75B5B"/>
<path fill-rule="evenodd" clip-rule="evenodd" d="M216.153 16.3537C216.153 16.2886 216.153 16.2234 216.153 16.1566L216.136 15.6332L213.812 15.6343L213.035 15.6714L213.034 16.7743C212.959 18.5126 212.292 20.0217 211.051 21.2624C209.735 22.5856 208.125 23.2567 206.267 23.2567H205.464V26.372L206.078 26.3942C206.139 26.3984 206.203 26.4023 206.267 26.4023C206.331 26.4023 206.392 26.3984 206.452 26.3942L206.548 26.3898C209.156 26.3231 211.416 25.3467 213.266 23.4887C215.116 21.6303 216.087 19.3533 216.153 16.7232C216.155 16.6693 216.155 16.616 216.153 16.5336V16.3537Z" fill="#DFC35B"/>
<path fill-rule="evenodd" clip-rule="evenodd" d="M260.514 12.1867L262.689 17.4561H266.057L261.944 7.46697C261.867 7.29948 261.762 7.07115 261.538 6.87942C261.248 6.63225 260.837 6.50406 260.404 6.52938C260.071 6.54608 259.825 6.67533 259.667 6.77011C259.628 6.7938 259.584 6.82395 259.566 6.84012C259.358 6.9952 259.197 7.20416 259.074 7.48635L254.96 17.4561H258.339L260.514 12.1867Z" fill="#B196B9"/>
<path fill-rule="evenodd" clip-rule="evenodd" d="M90.2605 21.2543C88.9439 22.5774 87.3336 23.2491 85.4758 23.2491C83.618 23.2491 82.0084 22.5774 80.6913 21.2543C79.3747 19.9307 78.707 18.3128 78.707 16.4463C78.707 14.5781 79.3752 12.9604 80.6928 11.6356C82.0094 10.3049 83.6185 9.63008 85.4758 9.63008C87.3336 9.63008 88.9432 10.3054 90.262 11.6388C91.5862 12.9625 92.2576 14.5797 92.2576 16.4463C92.2576 18.3123 91.5862 19.929 90.262 21.2528L90.2605 21.2543ZM92.4751 9.41144C90.5524 7.4781 88.1969 6.49796 85.4758 6.49796C82.7542 6.49796 80.3997 7.4781 78.4761 9.41144C76.5524 11.3448 75.5766 13.7122 75.5766 16.4463C75.5766 19.1804 76.5529 21.5472 78.4761 23.4806C80.3997 25.4139 82.7542 26.394 85.4758 26.394C88.1969 26.394 90.5519 25.4139 92.4751 23.4806C94.3994 21.5472 95.3747 19.181 95.3747 16.4463C95.3747 13.7122 94.3994 11.3448 92.4751 9.41144Z" fill="white"/>
<path fill-rule="evenodd" clip-rule="evenodd" d="M112.816 9.61024C113.71 9.61024 114.511 9.78043 115.196 10.1175C115.934 10.4724 116.373 10.9571 116.539 11.598C116.641 12.0116 116.893 12.3514 117.239 12.5501C117.606 12.7774 118.032 12.8366 118.429 12.7219C118.84 12.618 119.165 12.3761 119.4 11.9949C119.606 11.6308 119.658 11.2355 119.555 10.8155C119.167 9.32697 118.23 8.18152 116.77 7.41357C115.608 6.79264 114.278 6.47759 112.816 6.47759C111.102 6.47759 109.61 7.05006 108.381 8.17936C107.131 9.31781 106.458 10.7336 106.381 12.3875C106.32 13.7726 106.786 15.0042 107.765 16.0468C108.947 17.314 110.691 17.9694 112.949 17.9978L113.096 17.9995C114.422 18.034 115.381 18.3598 115.95 18.972C116.337 19.3798 116.514 19.8267 116.491 20.3363C116.451 21.1478 116.123 21.8188 115.49 22.3886C114.851 22.9627 114.07 23.2534 113.171 23.2534C112.273 23.2534 111.473 23.0876 110.796 22.7629C110.055 22.3994 109.614 21.9076 109.445 21.2555C109.341 20.8537 109.097 20.5317 108.709 20.2931C108.342 20.0933 107.942 20.0411 107.559 20.1418C107.146 20.2457 106.818 20.4913 106.58 20.8833C106.378 21.2544 106.327 21.647 106.431 22.0493C106.819 23.5372 107.757 24.6859 109.22 25.4646C110.381 26.0765 111.71 26.3867 113.172 26.3867C114.885 26.3867 116.377 25.8142 117.606 24.6854C118.856 23.5458 119.525 22.1307 119.593 20.4821C119.663 19.0922 119.202 17.8628 118.223 16.8298C117.048 15.5713 115.316 14.911 113.076 14.8658L113.018 14.8459L112.944 14.8653C111.591 14.8389 110.613 14.5125 110.036 13.891C109.65 13.4855 109.473 13.0434 109.497 12.5388C109.537 11.7202 109.864 11.0449 110.498 10.4757C111.138 9.90159 111.917 9.61024 112.816 9.61024Z" fill="white"/>
<path fill-rule="evenodd" clip-rule="evenodd" d="M160.064 6.50387L150.023 6.47801C149.622 6.46832 149.207 6.62611 148.906 6.92822C148.593 7.22657 148.427 7.61432 148.427 8.05107V24.8274C148.427 25.2572 148.59 25.6486 148.875 25.9185C149.171 26.233 149.557 26.4 149.991 26.4C150.419 26.4 150.808 26.2362 151.076 25.9497C151.39 25.6513 151.556 25.2642 151.556 24.8274V18.0118H157.716C158.144 18.0118 158.532 17.848 158.801 17.5615C159.115 17.2632 159.281 16.876 159.281 16.4392C159.281 16.0149 159.113 15.6137 158.833 15.3493C158.536 15.0337 158.149 14.8667 157.716 14.8667H151.556V9.62574L160.063 9.64943C160.488 9.64943 160.868 9.49326 161.162 9.1976C161.467 8.89333 161.628 8.50612 161.628 8.07691C161.628 7.6574 161.471 7.27827 161.179 6.98586C160.883 6.67026 160.497 6.50439 160.064 6.50387Z" fill="white"/>
<path fill-rule="evenodd" clip-rule="evenodd" d="M182.608 23.2643H175.18V8.11112C175.18 7.67762 175.028 7.30549 174.728 7.00553C174.44 6.7131 174.046 6.55153 173.622 6.55153C173.204 6.55153 172.8 6.71688 172.513 7.00445C172.213 7.30549 172.062 7.67762 172.062 8.11112V24.824C172.062 25.2489 172.217 25.6269 172.53 25.9591C172.837 26.2495 173.206 26.3965 173.627 26.3965H182.608C183.041 26.3965 183.41 26.2446 183.71 25.943C184.013 25.6388 184.173 25.2516 184.173 24.824C184.173 24.405 184.013 24.0221 183.71 23.7173C183.41 23.4163 183.039 23.2643 182.608 23.2643Z" fill="white"/>
<path fill-rule="evenodd" clip-rule="evenodd" d="M233.097 9.65088C233.934 9.65088 234.66 9.92068 235.251 10.4544C235.821 10.9617 236.097 11.5524 236.097 12.2595C236.097 12.9537 235.826 13.5375 235.27 14.0458L235.266 14.0491C234.692 14.5774 234.01 14.8418 233.184 14.8558H228.913V9.65088H233.097ZM235.16 17.6557C236.152 17.3304 237.012 16.7724 237.719 15.9959C238.703 14.9285 239.201 13.6721 239.201 12.2595C239.201 10.6725 238.593 9.3019 237.394 8.18444C236.205 7.08745 234.759 6.53116 233.095 6.53116H227.348C226.935 6.53116 226.566 6.68193 226.248 6.98405C225.95 7.28509 225.796 7.65722 225.796 8.09075V24.7141C225.796 25.1316 225.951 25.5064 226.265 25.8376C226.878 26.4214 227.86 26.4143 228.449 25.8215C228.758 25.5128 228.913 25.1397 228.913 24.7141V17.989H231.847L235.541 25.5252C235.811 26.0826 236.319 26.4019 236.937 26.4019C237.182 26.4019 237.414 26.3476 237.628 26.2398C238.005 26.0493 238.268 25.7497 238.408 25.3492C238.546 24.9463 238.521 24.5327 238.332 24.1557L235.16 17.6557Z" fill="white"/>
<path fill-rule="evenodd" clip-rule="evenodd" d="M198.396 21.2614C197.079 19.9383 196.412 18.3204 196.412 16.4529C196.412 14.5863 197.079 12.968 198.396 11.6427C199.715 10.3114 201.324 9.63717 203.18 9.63717C205.038 9.63717 206.649 10.3125 207.967 11.6459C209.079 12.7585 209.723 14.1 209.894 15.63H213.024C212.844 13.2303 211.894 11.1402 210.179 9.418C208.257 7.48465 205.902 6.50454 203.18 6.50454C200.458 6.50454 198.103 7.48465 196.181 9.418C194.256 11.3519 193.281 13.7182 193.281 16.4523C193.281 19.1865 194.256 21.5533 196.181 23.4872C198.029 25.3445 200.29 26.3214 202.899 26.3888L203.431 26.4016V23.2675L202.929 23.2508C201.177 23.1948 199.653 22.5253 198.396 21.2614Z" fill="white"/>
<path fill-rule="evenodd" clip-rule="evenodd" d="M52.2177 18.0193V24.8174C52.2177 25.248 52.3811 25.6396 52.6646 25.9068C52.9614 26.2229 53.3478 26.3893 53.7824 26.3893C54.2106 26.3893 54.5995 26.2256 54.867 25.9391C55.181 25.6413 55.3471 25.2535 55.3471 24.8167V18.0193H52.2177Z" fill="white"/>
<path fill-rule="evenodd" clip-rule="evenodd" d="M265.5 24.2218L262.714 17.461H259.337L260.076 19.2544L260.196 19.5458H254.129L254.875 17.7304L254.986 17.461H251.609L248.828 24.2122C248.656 24.6095 248.651 25.0415 248.816 25.4141C248.972 25.8164 249.269 26.1211 249.638 26.2639L249.779 26.3281L250.261 26.4002C250.928 26.4002 251.454 26.0463 251.703 25.4314L252.948 22.4215H261.377L262.62 25.425C262.871 26.0448 263.396 26.4002 264.062 26.4002C264.276 26.4002 264.49 26.3555 264.648 26.2805C265.042 26.125 265.352 25.8164 265.495 25.4442C265.669 25.0495 265.67 24.6161 265.5 24.2218Z" fill="white"/>
<path d="M21.8062 15.9194C21.8062 19.1606 19.1732 21.7877 15.9249 21.7877C12.6763 21.7877 10.0429 19.1606 10.0429 15.9194C10.0429 12.6784 12.6763 10.0511 15.9249 10.0511C19.1732 10.0511 21.8062 12.6781 21.8062 15.9194Z" fill="#E87595"/>
<path d="M37.0556 15.9803L37.0573 15.8379C37.0573 15.7312 37.0585 15.6273 37.0556 15.5191L37.0303 14.6788L33.2654 14.6803L32.0063 14.7404L32.0021 16.5138C31.883 19.3086 30.8032 21.7372 28.7922 23.7325C26.6595 25.8599 24.0514 26.9395 21.0406 26.9395H19.7387L19.7399 31.9499L20.7354 31.9851C20.8361 31.9926 20.9381 31.9982 21.0415 31.9982C21.1451 31.9982 21.2441 31.9926 21.342 31.9851L21.497 31.978C25.7224 31.8702 29.3843 30.3018 32.3804 27.3122C35.3754 24.3229 36.9493 20.663 37.0571 16.4319C37.0583 16.3451 37.0583 16.2598 37.0571 16.1266L37.0556 15.9803Z" fill="#FBB36C"/>
<path d="M8.28444 23.7326C6.15182 21.6039 5.0703 19.003 5.0703 15.9994C5.0703 12.9964 6.15303 10.3937 8.2873 8.26249C10.4203 6.1225 13.0271 5.03716 16.0366 5.03716C19.0458 5.03716 21.6542 6.12372 23.7899 8.26735C25.5931 10.0585 26.635 12.2151 26.9117 14.6765H31.9806C31.689 10.817 30.1486 7.45439 27.3751 4.68537C24.26 1.57691 20.4452 0 16.0366 0C11.6281 0 7.81272 1.57691 4.69761 4.68554C1.57987 7.79545 0 11.6018 0 15.9994C0 20.3963 1.57987 24.2031 4.69781 27.3131C7.6923 30.3009 11.3537 31.8711 15.5815 31.9788L16.4437 32V26.9591L15.6305 26.9331C12.7927 26.8419 10.3211 25.7636 8.28444 23.7326Z" fill="#00AAB2"/>
<path fill-rule="evenodd" clip-rule="evenodd" d="M133.85 6.51998C133.428 6.51998 133.029 6.68746 132.769 6.96589C132.456 7.26422 132.29 7.65252 132.29 8.08819V24.7891C132.29 25.219 132.452 25.6094 132.737 25.8791C133.034 26.1942 133.42 26.3617 133.854 26.3617C134.281 26.3617 134.671 26.1974 134.939 25.9114C135.253 25.6126 135.419 25.2249 135.419 24.7891V8.08819C135.419 7.66328 135.257 7.27231 134.961 6.98635C134.675 6.68962 134.271 6.51998 133.85 6.51998Z" stroke="white" stroke-opacity="0.4" mask="url(#path-1-inside-1_7120_57887)"/>
<path fill-rule="evenodd" clip-rule="evenodd" d="M129.148 1.69211C128.024 1.69211 127.108 2.61246 127.108 3.74392C127.108 4.87483 128.024 5.79572 129.148 5.79572C130.275 5.79572 131.191 4.87537 131.191 3.74392C131.191 2.61246 130.274 1.69211 129.148 1.69211Z" stroke="white" stroke-opacity="0.4" mask="url(#path-1-inside-1_7120_57887)"/>
<path fill-rule="evenodd" clip-rule="evenodd" d="M64.8588 14.0688C64.2743 14.6014 63.5857 14.8706 62.7605 14.8916L58.4393 14.8911V9.62263H62.6587C63.5075 9.62263 64.2411 9.89297 64.8396 10.4261C65.4177 10.9415 65.6985 11.5403 65.6985 12.2566C65.6985 12.9599 65.4236 13.5528 64.8588 14.0688ZM66.9974 8.15942C65.8004 7.04359 64.3406 6.47759 62.6587 6.47759H56.8746C56.452 6.47759 56.0528 6.64561 55.7902 6.92834C55.4762 7.22615 55.3094 7.61444 55.3094 8.05011V18.0199L63.0461 18.0184C64.6251 17.9246 65.9896 17.3302 67.1015 16.252C68.2395 15.1383 68.8156 13.7946 68.8156 12.2566C68.8156 10.6604 68.2034 9.2828 66.9974 8.15942Z" stroke="white" stroke-opacity="0.4" mask="url(#path-1-inside-1_7120_57887)"/>
<path fill-rule="evenodd" clip-rule="evenodd" d="M216.153 16.3537C216.153 16.2886 216.153 16.2234 216.153 16.1566L216.136 15.6332L213.812 15.6343L213.035 15.6714L213.034 16.7743C212.959 18.5126 212.292 20.0217 211.051 21.2624C209.735 22.5856 208.125 23.2567 206.267 23.2567H205.464V26.372L206.078 26.3942C206.139 26.3984 206.203 26.4023 206.267 26.4023C206.331 26.4023 206.392 26.3984 206.452 26.3942L206.548 26.3898C209.156 26.3231 211.416 25.3467 213.266 23.4887C215.116 21.6303 216.087 19.3533 216.153 16.7232C216.155 16.6693 216.155 16.616 216.153 16.5336V16.3537Z" stroke="white" stroke-opacity="0.4" mask="url(#path-1-inside-1_7120_57887)"/>
<path fill-rule="evenodd" clip-rule="evenodd" d="M260.514 12.1867L262.689 17.4561H266.057L261.944 7.46697C261.867 7.29948 261.762 7.07115 261.538 6.87942C261.248 6.63225 260.837 6.50406 260.404 6.52938C260.071 6.54608 259.825 6.67533 259.667 6.77011C259.628 6.7938 259.584 6.82395 259.566 6.84012C259.358 6.9952 259.197 7.20416 259.074 7.48635L254.96 17.4561H258.339L260.514 12.1867Z" stroke="white" stroke-opacity="0.4" mask="url(#path-1-inside-1_7120_57887)"/>
<path fill-rule="evenodd" clip-rule="evenodd" d="M90.2605 21.2543C88.9439 22.5774 87.3336 23.2491 85.4758 23.2491C83.618 23.2491 82.0084 22.5774 80.6913 21.2543C79.3747 19.9307 78.707 18.3128 78.707 16.4463C78.707 14.5781 79.3752 12.9604 80.6928 11.6356C82.0094 10.3049 83.6185 9.63008 85.4758 9.63008C87.3336 9.63008 88.9432 10.3054 90.262 11.6388C91.5862 12.9625 92.2576 14.5797 92.2576 16.4463C92.2576 18.3123 91.5862 19.929 90.262 21.2528L90.2605 21.2543ZM92.4751 9.41144C90.5524 7.4781 88.1969 6.49796 85.4758 6.49796C82.7542 6.49796 80.3997 7.4781 78.4761 9.41144C76.5524 11.3448 75.5766 13.7122 75.5766 16.4463C75.5766 19.1804 76.5529 21.5472 78.4761 23.4806C80.3997 25.4139 82.7542 26.394 85.4758 26.394C88.1969 26.394 90.5519 25.4139 92.4751 23.4806C94.3994 21.5472 95.3747 19.181 95.3747 16.4463C95.3747 13.7122 94.3994 11.3448 92.4751 9.41144Z" stroke="white" stroke-opacity="0.4" mask="url(#path-1-inside-1_7120_57887)"/>
<path fill-rule="evenodd" clip-rule="evenodd" d="M112.816 9.61024C113.71 9.61024 114.511 9.78043 115.196 10.1175C115.934 10.4724 116.373 10.9571 116.539 11.598C116.641 12.0116 116.893 12.3514 117.239 12.5501C117.606 12.7774 118.032 12.8366 118.429 12.7219C118.84 12.618 119.165 12.3761 119.4 11.9949C119.606 11.6308 119.658 11.2355 119.555 10.8155C119.167 9.32697 118.23 8.18152 116.77 7.41357C115.608 6.79264 114.278 6.47759 112.816 6.47759C111.102 6.47759 109.61 7.05006 108.381 8.17936C107.131 9.31781 106.458 10.7336 106.381 12.3875C106.32 13.7726 106.786 15.0042 107.765 16.0468C108.947 17.314 110.691 17.9694 112.949 17.9978L113.096 17.9995C114.422 18.034 115.381 18.3598 115.95 18.972C116.337 19.3798 116.514 19.8267 116.491 20.3363C116.451 21.1478 116.123 21.8188 115.49 22.3886C114.851 22.9627 114.07 23.2534 113.171 23.2534C112.273 23.2534 111.473 23.0876 110.796 22.7629C110.055 22.3994 109.614 21.9076 109.445 21.2555C109.341 20.8537 109.097 20.5317 108.709 20.2931C108.342 20.0933 107.942 20.0411 107.559 20.1418C107.146 20.2457 106.818 20.4913 106.58 20.8833C106.378 21.2544 106.327 21.647 106.431 22.0493C106.819 23.5372 107.757 24.6859 109.22 25.4646C110.381 26.0765 111.71 26.3867 113.172 26.3867C114.885 26.3867 116.377 25.8142 117.606 24.6854C118.856 23.5458 119.525 22.1307 119.593 20.4821C119.663 19.0922 119.202 17.8628 118.223 16.8298C117.048 15.5713 115.316 14.911 113.076 14.8658L113.018 14.8459L112.944 14.8653C111.591 14.8389 110.613 14.5125 110.036 13.891C109.65 13.4855 109.473 13.0434 109.497 12.5388C109.537 11.7202 109.864 11.0449 110.498 10.4757C111.138 9.90159 111.917 9.61024 112.816 9.61024Z" stroke="white" stroke-opacity="0.4" mask="url(#path-1-inside-1_7120_57887)"/>
<path fill-rule="evenodd" clip-rule="evenodd" d="M160.064 6.50387L150.023 6.47801C149.622 6.46832 149.207 6.62611 148.906 6.92822C148.593 7.22657 148.427 7.61432 148.427 8.05107V24.8274C148.427 25.2572 148.59 25.6486 148.875 25.9185C149.171 26.233 149.557 26.4 149.991 26.4C150.419 26.4 150.808 26.2362 151.076 25.9497C151.39 25.6513 151.556 25.2642 151.556 24.8274V18.0118H157.716C158.144 18.0118 158.532 17.848 158.801 17.5615C159.115 17.2632 159.281 16.876 159.281 16.4392C159.281 16.0149 159.113 15.6137 158.833 15.3493C158.536 15.0337 158.149 14.8667 157.716 14.8667H151.556V9.62574L160.063 9.64943C160.488 9.64943 160.868 9.49326 161.162 9.1976C161.467 8.89333 161.628 8.50612 161.628 8.07691C161.628 7.6574 161.471 7.27827 161.179 6.98586C160.883 6.67026 160.497 6.50439 160.064 6.50387Z" stroke="white" stroke-opacity="0.4" mask="url(#path-1-inside-1_7120_57887)"/>
<path fill-rule="evenodd" clip-rule="evenodd" d="M182.608 23.2643H175.18V8.11112C175.18 7.67762 175.028 7.30549 174.728 7.00553C174.44 6.7131 174.046 6.55153 173.622 6.55153C173.204 6.55153 172.8 6.71688 172.513 7.00445C172.213 7.30549 172.062 7.67762 172.062 8.11112V24.824C172.062 25.2489 172.217 25.6269 172.53 25.9591C172.837 26.2495 173.206 26.3965 173.627 26.3965H182.608C183.041 26.3965 183.41 26.2446 183.71 25.943C184.013 25.6388 184.173 25.2516 184.173 24.824C184.173 24.405 184.013 24.0221 183.71 23.7173C183.41 23.4163 183.039 23.2643 182.608 23.2643Z" stroke="white" stroke-opacity="0.4" mask="url(#path-1-inside-1_7120_57887)"/>
<path fill-rule="evenodd" clip-rule="evenodd" d="M233.097 9.65088C233.934 9.65088 234.66 9.92068 235.251 10.4544C235.821 10.9617 236.097 11.5524 236.097 12.2595C236.097 12.9537 235.826 13.5375 235.27 14.0458L235.266 14.0491C234.692 14.5774 234.01 14.8418 233.184 14.8558H228.913V9.65088H233.097ZM235.16 17.6557C236.152 17.3304 237.012 16.7724 237.719 15.9959C238.703 14.9285 239.201 13.6721 239.201 12.2595C239.201 10.6725 238.593 9.3019 237.394 8.18444C236.205 7.08745 234.759 6.53116 233.095 6.53116H227.348C226.935 6.53116 226.566 6.68193 226.248 6.98405C225.95 7.28509 225.796 7.65722 225.796 8.09075V24.7141C225.796 25.1316 225.951 25.5064 226.265 25.8376C226.878 26.4214 227.86 26.4143 228.449 25.8215C228.758 25.5128 228.913 25.1397 228.913 24.7141V17.989H231.847L235.541 25.5252C235.811 26.0826 236.319 26.4019 236.937 26.4019C237.182 26.4019 237.414 26.3476 237.628 26.2398C238.005 26.0493 238.268 25.7497 238.408 25.3492C238.546 24.9463 238.521 24.5327 238.332 24.1557L235.16 17.6557Z" stroke="white" stroke-opacity="0.4" mask="url(#path-1-inside-1_7120_57887)"/>
<path fill-rule="evenodd" clip-rule="evenodd" d="M198.396 21.2614C197.079 19.9383 196.412 18.3204 196.412 16.4529C196.412 14.5863 197.079 12.968 198.396 11.6427C199.715 10.3114 201.324 9.63717 203.18 9.63717C205.038 9.63717 206.649 10.3125 207.967 11.6459C209.079 12.7585 209.723 14.1 209.894 15.63H213.024C212.844 13.2303 211.894 11.1402 210.179 9.418C208.257 7.48465 205.902 6.50454 203.18 6.50454C200.458 6.50454 198.103 7.48465 196.181 9.418C194.256 11.3519 193.281 13.7182 193.281 16.4523C193.281 19.1865 194.256 21.5533 196.181 23.4872C198.029 25.3445 200.29 26.3214 202.899 26.3888L203.431 26.4016V23.2675L202.929 23.2508C201.177 23.1948 199.653 22.5253 198.396 21.2614Z" stroke="white" stroke-opacity="0.4" mask="url(#path-1-inside-1_7120_57887)"/>
<path fill-rule="evenodd" clip-rule="evenodd" d="M52.2177 18.0193V24.8174C52.2177 25.248 52.3811 25.6396 52.6646 25.9068C52.9614 26.2229 53.3478 26.3893 53.7824 26.3893C54.2106 26.3893 54.5995 26.2256 54.867 25.9391C55.181 25.6413 55.3471 25.2535 55.3471 24.8167V18.0193H52.2177Z" stroke="white" stroke-opacity="0.4" mask="url(#path-1-inside-1_7120_57887)"/>
<path fill-rule="evenodd" clip-rule="evenodd" d="M265.5 24.2218L262.714 17.461H259.337L260.076 19.2544L260.196 19.5458H254.129L254.875 17.7304L254.986 17.461H251.609L248.828 24.2122C248.656 24.6095 248.651 25.0415 248.816 25.4141C248.972 25.8164 249.269 26.1211 249.638 26.2639L249.779 26.3281L250.261 26.4002C250.928 26.4002 251.454 26.0463 251.703 25.4314L252.948 22.4215H261.377L262.62 25.425C262.871 26.0448 263.396 26.4002 264.062 26.4002C264.276 26.4002 264.49 26.3555 264.648 26.2805C265.042 26.125 265.352 25.8164 265.495 25.4442C265.669 25.0495 265.67 24.6161 265.5 24.2218Z" stroke="white" stroke-opacity="0.4" mask="url(#path-1-inside-1_7120_57887)"/>
<path d="M21.8062 15.9194C21.8062 19.1606 19.1732 21.7877 15.9249 21.7877C12.6763 21.7877 10.0429 19.1606 10.0429 15.9194C10.0429 12.6784 12.6763 10.0511 15.9249 10.0511C19.1732 10.0511 21.8062 12.6781 21.8062 15.9194Z" stroke="white" stroke-opacity="0.4" mask="url(#path-1-inside-1_7120_57887)"/>
<path d="M37.0556 15.9803L37.0573 15.8379C37.0573 15.7312 37.0585 15.6273 37.0556 15.5191L37.0303 14.6788L33.2654 14.6803L32.0063 14.7404L32.0021 16.5138C31.883 19.3086 30.8032 21.7372 28.7922 23.7325C26.6595 25.8599 24.0514 26.9395 21.0406 26.9395H19.7387L19.7399 31.9499L20.7354 31.9851C20.8361 31.9926 20.9381 31.9982 21.0415 31.9982C21.1451 31.9982 21.2441 31.9926 21.342 31.9851L21.497 31.978C25.7224 31.8702 29.3843 30.3018 32.3804 27.3122C35.3754 24.3229 36.9493 20.663 37.0571 16.4319C37.0583 16.3451 37.0583 16.2598 37.0571 16.1266L37.0556 15.9803Z" stroke="white" stroke-opacity="0.4" mask="url(#path-1-inside-1_7120_57887)"/>
<path d="M8.28444 23.7326C6.15182 21.6039 5.0703 19.003 5.0703 15.9994C5.0703 12.9964 6.15303 10.3937 8.2873 8.26249C10.4203 6.1225 13.0271 5.03716 16.0366 5.03716C19.0458 5.03716 21.6542 6.12372 23.7899 8.26735C25.5931 10.0585 26.635 12.2151 26.9117 14.6765H31.9806C31.689 10.817 30.1486 7.45439 27.3751 4.68537C24.26 1.57691 20.4452 0 16.0366 0C11.6281 0 7.81272 1.57691 4.69761 4.68554C1.57987 7.79545 0 11.6018 0 15.9994C0 20.3963 1.57987 24.2031 4.69781 27.3131C7.6923 30.3009 11.3537 31.8711 15.5815 31.9788L16.4437 32V26.9591L15.6305 26.9331C12.7927 26.8419 10.3211 25.7636 8.28444 23.7326Z" stroke="white" stroke-opacity="0.4" mask="url(#path-1-inside-1_7120_57887)"/>
</svg>
