<svg width="38" height="38" viewBox="0 0 38 38" fill="none" xmlns="http://www.w3.org/2000/svg">
<path d="M18.9998 22.6665C23.0499 22.6665 26.3332 19.3833 26.3332 15.3332C26.3332 11.2831 23.0499 7.99984 18.9998 7.99984C14.9497 7.99984 11.6665 11.2831 11.6665 15.3332C11.6665 19.3833 14.9497 22.6665 18.9998 22.6665ZM18.9998 11.6665C21.0249 11.6665 22.6665 13.3081 22.6665 15.3332C22.6665 17.3582 21.0249 18.9998 18.9998 18.9998C16.9748 18.9998 15.3332 17.3582 15.3332 15.3332C15.3332 13.3081 16.9748 11.6665 18.9998 11.6665Z" fill="black"/>
<path d="M4.33317 37.3332C2.30813 37.3332 0.666504 35.6916 0.666504 33.6665V4.33317C0.666504 2.30813 2.30813 0.666504 4.33317 0.666504H33.6665C35.6915 0.666504 37.3332 2.30813 37.3332 4.33317V33.6665C37.3332 35.6915 35.6916 37.3332 33.6665 37.3332H4.33317ZM4.33317 4.33317V33.6665H9.83317C9.83317 28.6039 13.9372 24.4998 18.9998 24.4998C24.0624 24.4998 28.1665 28.6039 28.1665 33.6665H33.6665V4.33317H4.33317ZM24.4998 33.6665C24.4998 30.6289 22.0374 28.1665 18.9998 28.1665C15.9623 28.1665 13.4998 30.6289 13.4998 33.6665H24.4998Z" fill="black"/>
</svg>
