<svg width="38" height="34" viewBox="0 0 38 34" fill="none" xmlns="http://www.w3.org/2000/svg">
<path d="M17.1665 7.83333C17.1665 11.8834 13.8833 15.1667 9.83317 15.1667C5.78308 15.1667 2.49984 11.8834 2.49984 7.83333C2.49984 3.78325 5.78308 0.5 9.83317 0.5C13.8833 0.5 17.1665 3.78325 17.1665 7.83333ZM13.4998 7.83333C13.4998 5.80829 11.8582 4.16667 9.83317 4.16667C7.80813 4.16667 6.1665 5.80829 6.1665 7.83333C6.1665 9.85838 7.80813 11.5 9.83317 11.5C11.8582 11.5 13.4998 9.85838 13.4998 7.83333Z" fill="black"/>
<path d="M35.4998 16.0833C35.4998 19.6272 32.627 22.5 29.0832 22.5C25.5393 22.5 22.6665 19.6272 22.6665 16.0833C22.6665 12.5395 25.5393 9.66667 29.0832 9.66667C32.627 9.66667 35.4998 12.5395 35.4998 16.0833ZM31.8332 16.0833C31.8332 14.5646 30.602 13.3333 29.0832 13.3333C27.5644 13.3333 26.3332 14.5646 26.3332 16.0833C26.3332 17.6021 27.5644 18.8333 29.0832 18.8333C30.602 18.8333 31.8332 17.6021 31.8332 16.0833Z" fill="black"/>
<path d="M15.3332 33.5V26.1667C15.3332 23.1291 12.8707 20.6667 9.83317 20.6667C6.7956 20.6667 4.33317 23.1291 4.33317 26.1667V33.5H0.666504V26.1667C0.666504 21.1041 4.77056 17 9.83317 17C14.8958 17 18.9998 21.1041 18.9998 26.1667V33.5H15.3332Z" fill="black"/>
<path d="M33.6665 32.5833V33.5H37.3332V32.5833C37.3332 28.027 33.6395 24.3333 29.0832 24.3333C24.5268 24.3333 20.8332 28.027 20.8332 32.5833V33.5H24.4998V32.5833C24.4998 30.052 26.5519 28 29.0832 28C31.6145 28 33.6665 30.052 33.6665 32.5833Z" fill="black"/>
</svg>
