<svg width="38" height="30" viewBox="0 0 38 30" fill="none" xmlns="http://www.w3.org/2000/svg">
<path d="M11.6665 29.6658C8.32114 29.6675 5.39868 27.4049 4.56234 24.1658H0.666504V20.4991H4.56417C5.51684 16.8094 9.13672 14.4642 12.8935 15.1028C16.6503 15.7414 19.292 19.1509 18.9721 22.9481C18.6521 26.7454 15.4772 29.6648 11.6665 29.6658ZM11.6665 18.6658C9.6634 18.6678 8.03263 20.277 8.00393 22.2799C7.97523 24.2828 9.55921 25.9381 11.5614 25.9975C13.5637 26.0569 15.243 24.4985 15.3332 22.4974V23.2308V22.3324C15.3332 20.3074 13.6915 18.6658 11.6665 18.6658ZM37.3332 24.1658H20.8332V20.4991H37.3332V24.1658ZM20.8332 14.9991C17.4885 15 14.567 12.7376 13.7308 9.49911H0.666504V5.83245H13.7308C14.6835 2.14276 18.3034 -0.202429 22.0602 0.436145C25.817 1.07472 28.4587 4.48424 28.1387 8.28148C27.8188 12.0787 24.6439 14.9981 20.8332 14.9991ZM20.8332 3.99911C18.8301 4.00114 17.1993 5.61033 17.1706 7.61324C17.1419 9.61614 18.7259 11.2714 20.7281 11.3308C22.7303 11.3903 24.4097 9.83186 24.4998 7.83078V8.56411V7.66578C24.4998 5.64074 22.8582 3.99911 20.8332 3.99911ZM37.3332 9.49911H29.9998V5.83245H37.3332V9.49911Z" fill="black"/>
</svg>
