<svg width="38" height="38" viewBox="0 0 38 38" fill="none" xmlns="http://www.w3.org/2000/svg">
<path d="M0.666504 4.33317V29.9998L9.4665 23.3998C10.1005 22.9225 10.8729 22.665 11.6665 22.6665H26.3332C28.3582 22.6665 29.9998 21.0249 29.9998 18.9998V4.33317C29.9998 2.30813 28.3582 0.666504 26.3332 0.666504H4.33317C2.30813 0.666504 0.666504 2.30813 0.666504 4.33317ZM4.33317 22.6665V4.33317H26.3332V18.9998H10.4455C9.6518 18.9977 8.87919 19.2552 8.2455 19.7332L4.33317 22.6665Z" fill="black"/>
<path d="M37.3332 37.3332V13.4998C37.3332 11.4748 35.6916 9.83317 33.6665 9.83317V29.9998L29.7542 27.0665C29.1205 26.5886 28.3479 26.331 27.5542 26.3332H9.83317C9.83317 28.3582 11.4748 29.9998 13.4998 29.9998H26.3332C27.1268 29.9984 27.8992 30.2558 28.5332 30.7332L37.3332 37.3332Z" fill="black"/>
</svg>
