<svg width="158" height="30" viewBox="0 0 158 30" fill="none" xmlns="http://www.w3.org/2000/svg">
<path d="M15 0L19.3731 8.98091L29.2658 10.3647L22.0759 17.2991L23.8168 27.1353L15 22.44L6.18322 27.1353L7.92414 17.2991L0.734152 10.3647L10.6269 8.98091L15 0Z" fill="#FFDF34"/>
<path d="M47 0L51.3731 8.98091L61.2658 10.3647L54.0759 17.2991L55.8168 27.1353L47 22.44L38.1832 27.1353L39.9241 17.2991L32.7342 10.3647L42.6269 8.98091L47 0Z" fill="#FFDF34"/>
<path d="M79 0L83.3731 8.98091L93.2658 10.3647L86.0759 17.2991L87.8168 27.1353L79 22.44L70.1832 27.1353L71.9241 17.2991L64.7342 10.3647L74.6269 8.98091L79 0Z" fill="#FFDF34"/>
<path d="M111 0L115.373 8.98091L125.266 10.3647L118.076 17.2991L119.817 27.1353L111 22.44L102.183 27.1353L103.924 17.2991L96.7342 10.3647L106.627 8.98091L111 0Z" fill="#FFDF34"/>
<path d="M143 0L147.373 8.98091L157.266 10.3647L150.076 17.2991L151.817 27.1353L143 22.44L134.183 27.1353L135.924 17.2991L128.734 10.3647L138.627 8.98091L143 0Z" fill="url(#paint0_linear_7170_64759)"/>
<defs>
<linearGradient id="paint0_linear_7170_64759" x1="129.5" y1="10.5" x2="144.5" y2="10" gradientUnits="userSpaceOnUse">
<stop stop-color="#EFFF34"/>
<stop offset="1" stop-color="#B9B9B9"/>
</linearGradient>
</defs>
</svg>
