<svg width="128" height="24" viewBox="0 0 128 24" fill="none" xmlns="http://www.w3.org/2000/svg">
<path d="M12 0L15.4985 7.18473L23.4127 8.2918L17.6607 13.8393L19.0534 21.7082L12 17.952L4.94658 21.7082L6.33931 13.8393L0.587322 8.2918L8.5015 7.18473L12 0Z" fill="#FFDF34"/>
<path d="M38 0L41.4985 7.18473L49.4127 8.2918L43.6607 13.8393L45.0534 21.7082L38 17.952L30.9466 21.7082L32.3393 13.8393L26.5873 8.2918L34.5015 7.18473L38 0Z" fill="#FFDF34"/>
<path d="M64 0L67.4985 7.18473L75.4127 8.2918L69.6607 13.8393L71.0534 21.7082L64 17.952L56.9466 21.7082L58.3393 13.8393L52.5873 8.2918L60.5015 7.18473L64 0Z" fill="#FFDF34"/>
<path d="M90 0L93.4985 7.18473L101.413 8.2918L95.6607 13.8393L97.0534 21.7082L90 17.952L82.9466 21.7082L84.3393 13.8393L78.5873 8.2918L86.5015 7.18473L90 0Z" fill="#FFDF34"/>
<path d="M116 0L119.498 7.18473L127.413 8.2918L121.661 13.8393L123.053 21.7082L116 17.952L108.947 21.7082L110.339 13.8393L104.587 8.2918L112.502 7.18473L116 0Z" fill="#FFDF34"/>
</svg>
