<svg width="24" height="24" viewBox="0 0 24 24" fill="none" xmlns="http://www.w3.org/2000/svg">
<circle cx="12" cy="12" r="9.28125" stroke="white" stroke-width="1.6875"/>
<path d="M15.3571 8.32284C15.3571 8.32284 16.2728 7.96573 16.1962 8.83292C16.171 9.19003 15.9421 10.44 15.7639 11.7918L15.1534 15.7966C15.1534 15.7966 15.1025 16.3833 14.6445 16.4854C14.1868 16.5872 13.4999 16.1282 13.3726 16.0262C13.2708 15.9496 11.4648 14.8017 10.8288 14.2407C10.6506 14.0874 10.447 13.7815 10.8543 13.4244L13.5251 10.8735C13.8304 10.5675 14.1356 9.85333 12.8637 10.7205L9.30215 13.1436C9.30215 13.1436 8.89508 13.3989 8.13208 13.1693L6.47834 12.659C6.47834 12.659 5.86785 12.2765 6.91087 11.8939C9.45489 10.6951 12.5839 9.47076 15.3566 8.32284H15.3571Z" fill="white"/>
</svg>
