<svg width="24" height="24" viewBox="0 0 24 24" fill="none" xmlns="http://www.w3.org/2000/svg">
<circle cx="12" cy="12" r="9.28125" stroke="white" stroke-width="1.6875"/>
<mask id="mask0_7120_57897" style="mask-type:alpha" maskUnits="userSpaceOnUse" x="6" y="6" width="12" height="12">
<rect x="6.375" y="6.375" width="11.25" height="11.25" fill="#D9D9D9"/>
</mask>
<g mask="url(#mask0_7120_57897)">
<path d="M16.161 16.6875C14.9422 16.6875 13.7958 16.457 12.7215 15.9961C11.6473 15.5352 10.7098 14.9043 9.90904 14.1035C9.10826 13.3027 8.47545 12.3652 8.0106 11.291C7.54576 10.2168 7.31334 9.06641 7.31334 7.83984C7.30552 7.69922 7.3524 7.57617 7.45396 7.4707C7.55552 7.36523 7.68052 7.3125 7.82896 7.3125H9.65709C9.79771 7.3125 9.91881 7.36523 10.0204 7.4707C10.1219 7.57617 10.1727 7.70312 10.1727 7.85156C10.1727 8.19531 10.1961 8.51953 10.243 8.82422C10.2899 9.12891 10.3641 9.41797 10.4657 9.69141C10.5047 9.77734 10.5126 9.86523 10.4891 9.95508C10.4657 10.0449 10.4188 10.1289 10.3485 10.207L9.17662 11.3789C9.51256 12.0664 9.98912 12.7188 10.6063 13.3359C11.2235 13.9531 11.8876 14.4453 12.5985 14.8125L13.7704 13.6406C13.8407 13.5703 13.9227 13.5234 14.0165 13.5C14.1102 13.4766 14.204 13.4844 14.2977 13.5234C14.5868 13.6172 14.8856 13.6895 15.1942 13.7402C15.5028 13.791 15.8211 13.8164 16.1493 13.8164C16.2977 13.8164 16.4247 13.8711 16.5301 13.9805C16.6356 14.0898 16.6883 14.2227 16.6883 14.3789V16.1719C16.6883 16.3125 16.6376 16.4336 16.536 16.5352C16.4344 16.6367 16.3094 16.6875 16.161 16.6875ZM15.7508 12C15.7508 10.9531 15.3876 10.0664 14.661 9.33984C13.9344 8.61328 13.0477 8.25 12.0008 8.25V7.3125C12.6493 7.3125 13.2586 7.43555 13.829 7.68164C14.3993 7.92773 14.8954 8.26172 15.3172 8.68359C15.7391 9.10547 16.0731 9.60156 16.3192 10.1719C16.5653 10.7422 16.6883 11.3516 16.6883 12H15.7508ZM13.8758 12C13.8758 11.4844 13.6922 11.043 13.3251 10.6758C12.9579 10.3086 12.5165 10.125 12.0008 10.125V9.1875C12.7821 9.1875 13.4461 9.46094 13.993 10.0078C14.5399 10.5547 14.8133 11.2188 14.8133 12H13.8758Z" fill="white"/>
</g>
</svg>
