<svg width="27" height="27" viewBox="0 0 27 27" fill="none" xmlns="http://www.w3.org/2000/svg">
<path d="M22.901 3.89277C21.6786 2.65801 20.2226 1.679 18.6179 1.01284C17.0132 0.346687 15.2919 0.00672183 13.5544 0.0127747C6.27437 0.0127747 0.341042 5.94611 0.341042 13.2261C0.341042 15.5594 0.954375 17.8261 2.10104 19.8261L0.234375 26.6794L7.23437 24.8394C9.16771 25.8928 11.341 26.4528 13.5544 26.4528C20.8344 26.4528 26.7677 20.5194 26.7677 13.2394C26.7677 9.70611 25.3944 6.38611 22.901 3.89277ZM13.5544 24.2128C11.581 24.2128 9.64771 23.6794 7.95437 22.6794L7.55437 22.4394L3.39438 23.5328L4.50104 19.4794L4.23438 19.0661C3.13804 17.3154 2.5559 15.2918 2.55437 13.2261C2.55437 7.17277 7.48771 2.23944 13.541 2.23944C16.4744 2.23944 19.2344 3.38611 21.301 5.46611C22.3244 6.48473 23.1353 7.69632 23.6869 9.03067C24.2385 10.365 24.5198 11.7956 24.5144 13.2394C24.541 19.2928 19.6077 24.2128 13.5544 24.2128ZM19.581 15.9994C19.2477 15.8394 17.621 15.0394 17.3277 14.9194C17.021 14.8128 16.8077 14.7594 16.581 15.0794C16.3544 15.4128 15.7277 16.1594 15.541 16.3728C15.3544 16.5994 15.1544 16.6261 14.821 16.4528C14.4877 16.2928 13.421 15.9328 12.1677 14.8128C11.181 13.9328 10.5277 12.8528 10.3277 12.5194C10.141 12.1861 10.301 12.0128 10.4744 11.8394C10.621 11.6928 10.8077 11.4528 10.9677 11.2661C11.1277 11.0794 11.1944 10.9328 11.301 10.7194C11.4077 10.4928 11.3544 10.3061 11.2744 10.1461C11.1944 9.98611 10.5277 8.35944 10.261 7.69278C9.99437 7.05278 9.71437 7.13277 9.51437 7.11944H8.87437C8.64771 7.11944 8.30104 7.19944 7.99437 7.53277C7.70104 7.86611 6.84771 8.66611 6.84771 10.2928C6.84771 11.9194 8.03437 13.4928 8.19438 13.7061C8.35437 13.9328 10.5277 17.2661 13.8344 18.6928C14.621 19.0394 15.2344 19.2394 15.7144 19.3861C16.501 19.6394 17.221 19.5994 17.7944 19.5194C18.4344 19.4261 19.7544 18.7194 20.021 17.9461C20.301 17.1728 20.301 16.5194 20.2077 16.3728C20.1144 16.2261 19.9144 16.1594 19.581 15.9994Z" fill="white"/>
</svg>
