<svg width="27" height="27" viewBox="0 0 27 27" fill="none" xmlns="http://www.w3.org/2000/svg">
<path d="M13.5013 0.0126953C6.1413 0.0126953 0.167969 5.98603 0.167969 13.346C0.167969 20.706 6.1413 26.6794 13.5013 26.6794C20.8613 26.6794 26.8346 20.706 26.8346 13.346C26.8346 5.98603 20.8613 0.0126953 13.5013 0.0126953ZM19.688 9.07936C19.488 11.186 18.6213 16.306 18.1813 18.666C17.9946 19.666 17.6213 19.9994 17.2746 20.0394C16.5013 20.106 15.9146 19.5327 15.168 19.0394C13.9946 18.266 13.328 17.786 12.1946 17.0394C10.8746 16.1727 11.728 15.6927 12.488 14.9194C12.688 14.7194 16.1013 11.6127 16.168 11.3327C16.1772 11.2903 16.176 11.2463 16.1644 11.2044C16.1528 11.1626 16.1311 11.1243 16.1013 11.0927C16.0213 11.026 15.9146 11.0527 15.8213 11.066C15.7013 11.0927 13.8346 12.3327 10.1946 14.786C9.6613 15.146 9.1813 15.3327 8.75463 15.3194C8.27463 15.306 7.36797 15.0527 6.68797 14.826C5.84797 14.5594 5.19463 14.4127 5.24797 13.946C5.27463 13.706 5.60797 13.466 6.23464 13.2127C10.128 11.5194 12.7146 10.3994 14.008 9.86603C17.7146 8.31936 18.4746 8.05269 18.9813 8.05269C19.088 8.05269 19.3413 8.07936 19.5013 8.21269C19.6346 8.31936 19.6746 8.46603 19.688 8.57269C19.6746 8.65269 19.7013 8.8927 19.688 9.07936Z" fill="white"/>
</svg>
